<?xml version="1.0" encoding="UTF-8" standalone="no"?>
<svg
   width="180.00005"
   height="180.00003"
   version="1.1"
   id="svg1"
   sodipodi:docname="hand-drawn-pencil-icon copy.svg"
   inkscape:export-filename="../../pwp-fast/public/favicon-32x32.svg"
   inkscape:export-xdpi="18.395208"
   inkscape:export-ydpi="18.395208"
   xmlns:inkscape="http://www.inkscape.org/namespaces/inkscape"
   xmlns:sodipodi="http://sodipodi.sourceforge.net/DTD/sodipodi-0.dtd"
   xmlns="http://www.w3.org/2000/svg"
   xmlns:svg="http://www.w3.org/2000/svg">
  <defs
     id="defs1" />
  <sodipodi:namedview
     id="namedview1"
     pagecolor="#ffffff"
     bordercolor="#000000"
     borderopacity="0.25"
     inkscape:showpageshadow="2"
     inkscape:pageopacity="0.0"
     inkscape:pagecheckerboard="0"
     inkscape:deskcolor="#d1d1d1" />
  <path
     d="m 1.2943146,179.34828 c 0,-0.65594 1.35866,-2.48462 2.38314,-3.20845 0.35775,-0.25312 0.47475,-0.5895 0.3375,-0.97312 -0.29587,-0.82581 -0.25875,-0.82125 -1.64762,-0.21375 -2.07647,0.909 -3.19027,-0.14288 -1.64514,-1.55391 0.39825,-0.36337 0.88869,-1.30972 1.09119,-2.10274 0.2025,-0.79312 0.74138,-2.56798 1.1988,-3.94385 1.22001,-3.67397 2.16996,-7.02591 2.16996,-7.65585 0,-0.30375 0.13387,-0.7695 0.297,-1.035 0.16312,-0.2655 0.48037,-0.90563 0.70532,-1.4229 0.225,-0.5175 0.73237,-1.27148 1.12939,-1.67614 0.69406,-0.70768 2.7279004,-3.92383 2.7279004,-4.31364 0,-0.10125 0.27675,-0.71438 0.61762,-1.35557 0.33863,-0.64125 0.86625,-1.91678 1.16994,-2.83399 0.30375,-0.91687 0.68175,-1.787 0.84038,-1.93219 0.15862,-0.14512 0.288,-0.58955 0.288,-0.98668 0,-0.39712 0.13725,-0.8415 0.30487,-0.98662 0.16875,-0.14513 0.47025,-0.82688 0.6705,-1.51515 0.80095,-2.7463 0.79757,-2.58137 0.045,-2.37505 -0.84825,0.23063 -0.92137,-0.279 -0.17212,-1.19733 1.02369,-1.25325 2.38669,-3.80582 2.39029,-4.47553 0.003,-0.52988 0.09,-0.6075 0.39375,-0.34763 0.55575,0.47813 1.01137,0.41175 0.77737,-0.1125 -0.189,-0.423 0.21038,-2.09199 0.79088,-3.30688 0.14625,-0.306 0.44437,-1.053 0.66144,-1.66005 0.21713,-0.6075 1.0935,-2.29618 1.94608,-3.75339 0.85275,-1.45643 1.80276,-3.32545 2.11135,-4.15333 0.30825,-0.828 0.9,-2.07867 1.31501,-2.77988 0.41512,-0.70093 0.75482,-1.43488 0.75482,-1.63097 0.001,-0.30937 1.06875,-2.7117 1.94327,-4.36967 0.16087,-0.306 0.90675,-1.86952 1.65594,-3.47523 0.74925,-1.6051 1.4598,-2.98097 1.57748,-3.05758 0.11812,-0.0788 0.46462,-0.684 0.77056,-1.35 0.30488,-0.666 0.75938,-1.38516 1.00688,-1.59835 1.11932,-0.96075 2.40362,0.0562 1.61409,1.28515 -0.55462,0.85837 -0.59625,1.32828 -0.0787,0.88425 0.21375,-0.18338 0.62213,-0.33413 0.90782,-0.33413 0.67613,0 2.72436,-1.81344 2.46088,-2.17884 -0.31387,-0.43538 1.16179,-2.591776 2.70861,-3.955616 0.76837,-0.6773 1.72108,-1.67034 2.11708,-2.20561 0.396,-0.5355 1.17793,-1.39264 1.7374,-1.90575 0.56025,-0.513 1.01806,-1.05193 1.01806,-1.19863 0,-0.27 -2.67322,1.67743 -6.2631,4.56395 -2.09942,1.68823 -2.4944,1.84056 -3.11248,1.20167 -0.63112,-0.65256 0.23175,-1.67867 4.57301,-5.44095 6.75912,-5.85816 11.04008,-9.1737 11.84468,-9.1737 0.84375,0 4.29649,-2.82656 4.29649,-3.51664 0,-0.10125 0.60069,-0.7515 1.3352,-1.45625 3.28163,-3.1509 5.27642,-5.28306 5.88077,-6.28577 0.27563,-0.459 0.95175,-1.27181 1.4998,-1.80709 a 103.90969,89.166532 0 0 0 1.89062,-1.90794 c 0.49162,-0.51413 1.58647,-1.54553 2.43287,-2.29208 0.846,-0.74587 1.53849,-1.5192 1.53849,-1.71759 0,-0.19913 0.66712,-0.981 1.4832,-1.73891 0.81557,-0.75825 1.83741,-1.84725 2.27149,-2.42055 0.43425,-0.57375 0.9135,-1.04293 1.06537,-1.04293 0.153,0 0.65363,-0.48825 1.1137,-1.08563 0.46012,-0.59737 1.35438,-1.51684 1.98686,-2.04345 0.63219,-0.52762 1.1498,-1.03837 1.1498,-1.13557 0,-0.18 0.43088,-0.66381 2.02461,-2.27548 0.48938,-0.495 0.89094,-1.02488 0.89094,-1.17732 0,-0.153 0.24188,-0.44887 0.5355,-0.65812 0.29475,-0.20925 1.11375,-1.05418 1.82222,-1.87611 l 1.287,-1.49512 -0.5265,-0.94725 c -0.66487,-1.19667 -0.66262,-1.2492 0.14175,-2.82043 1.54221,-3.01489 2.20787,-3.90584 2.94222,-3.93711 0.6975,-0.0225 0.459,1.08006 -0.55013,2.55662 -0.84825,1.24155 -1.05632,1.7667 -0.78862,1.99249 0.44662,0.37687 1.33695,-0.51975 1.08225,-1.08788 -0.32738,-0.73125 0.522,-1.74532 3.85301,-4.59411 l 2.50948,-2.14694 -0.51637,-1.07444 c -0.28463,-0.59062 -0.83588,-1.44967 -1.22513,-1.90845 -0.38925,-0.459 -0.88194,-1.17821 -1.09457,-1.59862 -0.34537,-0.68063 -0.32062,-0.765 0.22275,-0.765 0.69075,0 1.57056,1.14885 2.45222,3.2013 0.32738,0.76162 0.69744,1.48776 0.82232,1.61252 0.23625,0.23512 2.00233,-1.54333 2.34973,-2.36661 0.1125,-0.25987 0.666,-0.6795 1.23694,-0.93262 1.398535,-0.61988 2.720695,-2.02585 2.720695,-2.89176 0,-0.46687 0.2475,-0.801 0.729,-0.98212 0.612,-0.23063 0.69744,-0.42075 0.531,-1.18159 -0.15188,-0.69413 -0.09,-0.90675 0.2835,-0.90675 0.2655,0 0.66375,0.18787 0.88537,0.41737 0.62095,0.64238 1.24656,0.4995 1.90857,-0.43425 0.7245,-1.02268 3.90594,-3.35053 5.70408,-4.17403 0.7132,-0.32625 1.80602,-0.99787 2.42989,-1.49214 2.04475,-1.61989 4.77495,-2.68166 4.32855,-1.68356 -0.10125,0.2295 -0.045,0.41737 0.14288,0.41737 0.33525,0 0.95962,-0.61762 2.97928,-2.95099 1.30348,-1.50665 7.65484,-7.0386696 10.62214,-9.2528996 1.107,-0.8258 2.01206,-1.68766 2.01206,-1.91559 0,-0.22837 0.43425,-0.80325 0.96407,-1.2789 a 163.50315,140.30462 0 0 0 2.09694,-1.92673 l 1.13254,-1.06313 0.95619,0.48375 c 0.94945,0.4815 0.96413,0.47925 2.12608,-0.396 1.30315,-0.98211996 1.43275,-1.01136996 2.55415,-0.57262 0.66369,0.25987 0.95507,0.20362 1.82447,-0.34762996 0.83694,-0.531 1.43522,-0.6558699966404 3.13582,-0.6558699966404 h 2.10167 L 152.92226,1.6680444 c 1.04963,0.91805 2.16939,1.86587 2.48766,2.10785 0.80769,0.61313 2.58969,2.34855 4.2003,4.08966 1.48528,1.60515 3.74321,3.3945696 5.77355,4.5749796 0.7132,0.414 1.87915,1.19306 2.59195,1.73025 3.48536,2.62823 4.85263,3.68443 5.67737,4.38531 0.49387,0.42075 1.05182,0.76387 1.23755,0.76387 0.54,0 3.16688,2.92449 4.05889,4.51839 1.25601,2.24427 1.35793,3.22724 0.4545,4.3789 -0.41962,0.53437 -1.41216,1.26427 -2.20708,1.62202 -2.1735,0.97875 -4.82203,3.03115 -5.01744,3.88862 -0.6232,2.73055 -1.00007,3.64731 -1.90874,4.63461 -0.5625,0.612 -1.2686,1.44663 -1.56954,1.85535 -0.30038,0.40837 -0.83357,0.8213 -1.18502,0.91693 -0.72225,0.19575 -2.24241,2.23009 -2.91527,3.89914 -0.24637,0.61205 -0.79082,1.57854 -1.20954,2.1488 -0.86963,1.18496 -0.95175,1.60414 -0.315,1.60414 0.24637,0 0.63669,0.19575 0.86957,0.4365 0.3645,0.37687 0.14625,0.64912 -1.58035,1.96813 -1.10132,0.84263 -2.00289,1.7577 -2.00289,2.03456 0,0.306 -0.31838,0.57263 -0.80994,0.67838 -0.64013,0.13725 -0.81,0.34987 -0.81,1.01255 0,0.66263 -0.23625,0.95738 -1.13361,1.41199 -0.62325,0.31613 -1.134,0.68738 -1.134,0.82463 0,0.13725 -0.1935,0.24975 -0.42975,0.24975 -0.23625,0 -0.77169,0.31275 -1.19053,0.69525 -0.92363,0.84375 -0.59963,0.90112 0.67944,0.11925 1.26641,-0.774 2.36796,-0.62325 2.49835,0.342 0.0788,0.59062 -0.29813,1.08 -1.86295,2.4188 -1.07994,0.92363 -1.96273,1.87268 -1.96273,2.10926 0,0.23738 -0.225,0.43088 -0.50062,0.43088 -0.621,0 -1.90907,1.13681 -6.4561,5.70189 -1.06419,1.06881 -3.39716,3.26312 -5.18349,4.87648 -3.4407,3.1081 -7.64263,7.08345 -7.99358,7.56293 -0.11587,0.1575 -0.6435,0.21262 -1.17281,0.12262 -0.89207,-0.153 -1.26107,0.09 -5.02903,3.38383 -2.23667,1.95165 -4.97149,4.47857 -6.07663,5.61505 -1.10588,1.13647 -3.11901,3.11169 -4.47368,4.38969 -1.35456,1.27766 -2.67322,2.59149 -2.93029,2.91881 -0.25762,0.32738 -1.50761,1.59621 -2.77914,2.819526 -1.27142,1.22333 -3.13082,3.11294 -4.1319,4.19969 -1.00119,1.08675 -2.01313,2.14998 -2.24893,2.36317 -0.23513,0.21263 -0.85157,0.94956 -1.36975,1.63794 -1.61994,2.1537 -3.83208,4.44797 -4.288825,4.44797 -0.24188,0 -0.43763,0.1215 -0.43763,0.27 0,0.36563 -4.11907,5.54192 -5.06976,6.37003 -0.41962,0.3645 -0.76162,0.77175 -0.76162,0.90338 0,0.13275 -0.15638,0.24075 -0.34763,0.24075 -0.19125,0 -0.045,-0.32963 0.324,-0.73238 0.369,-0.40275 0.67163,-0.837 0.67163,-0.96412 0,-0.594 -1.08338,0.24975 -2.65281,2.06567 -2.21147,2.5587 -2.30394,2.68875 -1.91154,2.68875 0.33075,0 0.62212,-0.24075 1.51341,-1.25112 0.43875,-0.49725 0.43875,-0.46912 0.005,0.27788 -0.83138,1.42841 -2.21755,3.04245 -4.44409,5.17438 a 579.16635,496.99176 0 0 0 -4.68028,4.55552 c -1.39455,1.37621 -3.23556,3.12744 -4.0905,3.89199 -0.855,0.765 -1.5552,1.53776 -1.55599,1.71878 -6.2e-4,0.18 -0.27225,0.40162 -0.60182,0.49162 -0.32963,0.09 -1.51014,1.02713 -2.62187,2.08221 -2.02134,1.91824 -2.37516,2.11534 -8.92547,4.97188 a 132.41441,113.62689 0 0 1 -3.72555,1.55284 c -2.61433,1.035 -3.48654,1.51065 -6.95616,3.79479 -4.74862,3.12654 -5.55676,3.58858 -6.58389,3.76498 -1.34994,0.23175 -1.49856,-0.42412 -0.35325,-1.55076 0.51863,-0.50962 0.87525,-0.9855 0.79088,-1.0575 -0.22388,-0.19237 -2.80435,0.999 -3.74389,1.72778 -0.4455,0.3465 -1.61213,1.02831 -2.59195,1.51712 -0.97987,0.48937 -2.65674,1.37959 -3.72555,1.97977 -1.06875,0.59963 -3.03733,1.54367 -4.37355,2.09655 -1.33633,0.55238 -3.18307,1.43252 -4.10422,1.95396 -0.92132,0.52087 -1.74921,0.94837 -1.83955,0.94837 -0.09,0 -1.08669,0.52538 -2.21326,1.16764 -1.12607,0.64243 -2.55775,1.31608 -3.18117,1.4971 -0.702,0.20362 -1.30826,0.63225 -1.5912,1.12533 -0.62994,1.09688 -1.59699,1.7694 -2.54554,1.7694 -0.87862,0 -3.01561,1.24003 -6.20623,3.60197 -4.4696204,3.30778 -5.5625004,4.24502 -7.2284604,6.19734 -1.44765,1.696 -2.51421,2.09695 -2.51421,0.94506 z m 38.7133304,-26.2629 c 1.24701,-0.70088 2.71907,-1.48894 3.27094,-1.75152 1.107,-0.5265 3.50308,-1.95733 8.55619,-5.10845 0.4905,-0.306 1.60127,-0.98893 2.46887,-1.51746 1.98568,-1.21027 1.65695,-0.98887 5.38543,-3.6198 1.73795,-1.22642 3.25395,-2.22969 3.36836,-2.22969 0.2475,0 2.60893,-1.60819 4.64828,-3.16581 2.39855,-1.83217 2.80074,-2.75366 1.43454,-3.2877 -0.65919,-0.25762 -0.88869,-0.24975 -1.09794,0.045 -0.423,0.58725 -1.04738,0.0788 -0.6615,-0.53662 0.54562,-0.87525 0.37237,-1.11381 -0.80882,-1.11381 -0.93488,0 -1.134,-0.10125 -1.134,-0.58162 0,-0.34875 -0.25988,-0.64013 -0.648,-0.72788 -0.35663,-0.0788 -0.64795,-0.2565 -0.64795,-0.3915 0,-0.4725 -0.93037,-0.24075 -1.12275,0.28013 -0.1125,0.29025 -0.4815,0.59062 -0.83132,0.66937 -0.49387,0.1125 -0.63675,0.3825 -0.63787,1.21151 -0.001,1.31361 -1.04732,2.87545 -1.9255,2.87545 -0.47812,0 -0.73344,-0.29588 -1.00681,-1.17011 -0.315,-1.0035 -1.0395,-1.85294 -1.60167,-1.87695 -0.09,-0.003 -0.522,0.46125 -0.96407,1.03387 -0.441,0.57263 -1.42486,1.67963 -2.1866,2.46049 -0.76163,0.78075 -1.39101,1.53157 -1.39821,1.6682 -0.005,0.13613 -0.58837,0.79313 -1.29127,1.46048 -1.05857,1.00462 -1.41733,1.1826 -2.09233,1.03725 -1.05182,-0.22725 -1.02595,-0.38363 0.25537,-1.55475 0.58613,-0.5355 1.49625,-1.49288 2.02213,-2.12844 0.5265,-0.63563 1.83302,-2.13604 2.90368,-3.33563 3.16069,-3.54077 3.28962,-4.45044 1.21202,-8.57452 -1.18209,-2.34737 -1.77215,-3.03351 -2.84276,-3.30598 -0.50963,-0.12938 -0.78863,0.045 -1.2528,0.78412 -0.3285,0.52313 -0.98094,1.26129 -1.44962,1.64098 -1.04737,0.846 -3.06427,1.37374 -3.57615,0.93488 -0.558,-0.47925 -0.41737,-0.74925 0.38925,-0.74925 0.76832,0 2.7567,-1.56617 3.44003,-2.71041 0.324,-0.54225 0.29137,-0.6255 -0.24638,-0.6255 -0.71325,0 -1.22541,0.45675 -1.39562,1.24391 -0.0788,0.34088 -0.61312,0.70988 -1.42054,0.97313 -0.71544,0.23287 -1.62253,0.70205 -2.01459,1.04293 -0.39262,0.33975 -1.22856,0.80437 -1.85934,1.0305 -0.84595,0.30262 -1.1965,0.62662 -1.33768,1.23255 -0.20813,0.88987 -1.00007,1.23289 -1.87555,0.81225 -0.3735,-0.17888 -0.45,-0.369 -0.23737,-0.5895 0.17212,-0.17888 0.30825,-0.63788 0.30262,-1.02038 -0.005,-0.3825 0.18225,-2.07095 0.41963,-3.75271 0.5625,-3.9982 0.47587,-5.80416 -0.3285,-6.90722 -0.59513,-0.81563 -2.64775,-2.40553 -3.10568,-2.40553 -0.3825,0 -1.23806,0.88987 -2.63301,2.73695 -0.76837,1.017 -1.39989,1.73925 -1.40394,1.60425 -0.005,-0.27787 2.17688,-4.03813 2.61709,-4.5059 0.1575,-0.16763 0.19575,-0.38138 0.09,-0.47588 -0.234,-0.20025 -2.06044,0.558 -2.06376,0.85613 -10e-4,0.1125 -0.43875,0.414 -0.97194,0.67505 -0.53325,0.261 -0.97088,0.6975 -0.972,0.97313 -0.001,0.2745 -0.45,1.56251 -0.99557,2.86211 -0.54675,1.29954 -1.01925,2.61861 -1.05075,2.93158 -0.0337,0.31163 -0.32625,0.9225 -0.65694,1.35416 -0.50513,0.6615 -0.53663,0.88875 -0.198,1.43061 0.54787,0.87975 0.19575,2.53282 -0.95963,4.49719 -0.5175,0.88093 -1.40248,2.47685 -1.96588,3.54729 -0.56357,1.06988 -1.74021,3.19663 -2.61461,4.72573 -1.86115,3.25412 -3.54201,7.38743 -3.54201,8.70885 0,0.729 0.25988,1.11938 1.20319,1.809 2.08929,1.52792 4.41562,3.67948 5.92397,5.47881 1.97769,2.35951 4.82484,4.99185 5.39904,4.99185 0.27225,0 0.3735,0.135 0.23963,0.3195 -0.12713,0.17662 0.0225,0.47925 0.32962,0.67162 0.4725,0.29588 0.89663,0.19913 2.72233,-0.63112 1.18896,-0.54 3.18229,-1.55605 4.42963,-2.25704 z m -10.20504,-11.41425 c 0,-0.15188 0.14625,-0.3555 0.324,-0.44888 0.17887,-0.09 0.324,-0.045 0.324,0.10125 0,0.153 -0.14513,0.3555 -0.324,0.45 -0.17888,0.09 -0.324,0.045 -0.324,-0.10125 z m 1.29594,-2.47753 c 0,-0.14625 0.23513,-0.43538 0.52313,-0.639 0.45337,-0.32288 0.50737,-0.30263 0.405,0.15075 -0.12263,0.54 -0.92807,0.96412 -0.92807,0.48825 z m 23.10036,0.0225 c -0.21263,-0.0675 -0.30713,-0.29588 -0.20925,-0.51413 0.2295,-0.51187 1.40495,-0.522 1.40495,-0.0113 0,0.43425 -0.60975,0.70313 -1.1966,0.5265 z m -1.0125,9.78873 c 0.52875,-0.3825 0.873,-0.6953 0.76275,-0.6953 -0.32175,0 -2.76576,1.11043 -2.76576,1.25668 0,0.37462 1.15515,0.045 2.00256,-0.56138 z m 7.7067,-4.85386 c 0.26212,-0.14288 0.36787,-0.35213 0.23512,-0.46575 -0.13275,-0.11363 -0.48825,0.005 -0.78857,0.26212 -0.585,0.50288 -0.23512,0.63113 0.5535,0.20363 z m 11.11393,-4.18304 c 0.85157,-0.9158 1.36187,-1.66573 1.13473,-1.66573 -0.43987,0 -3.49222,2.71446 -3.49222,3.10495 0,0.64462 0.972,0.0562 2.35749,-1.43955 z m -56.2257,-2.62051 c 0.20362,-0.56925 0.22725,-0.99113 0.0562,-0.99113 -0.36338,0 -1.58181,1.66624 -1.58361,2.16433 -0.002,0.7245 1.17141,-0.17662 1.52747,-1.17298 z m 58.40331,-1.96403 c 0.33075,-0.34087 0.30825,-0.41625 -0.12263,-0.41625 -0.28912,0 -0.52537,0.18675 -0.52537,0.41625 0,0.2295 0.0563,0.41738 0.12262,0.41738 0.0675,0 0.30375,-0.18788 0.52538,-0.41738 z m -0.243,-5.6417 c 0.66819,-0.71781 1.21494,-1.52545 1.21494,-1.79365 0,-0.26775 0.14175,-0.48712 0.31388,-0.48712 0.39262,0 5.19361,-4.15153 5.19361,-4.49038 0,-0.13613 0.5535,-0.77625 1.23042,-1.42313 0.67725,-0.64687 1.47527,-1.51054 1.7744,-1.92015 0.29925,-0.41062 0.98432,-0.96868 1.52342,-1.24161 0.53775,-0.27225 0.97875,-0.59625 0.97875,-0.71775 0,-0.43312 3.15855,-3.59049 7.45358,-7.45346 0.44662,-0.40162 1.6106,-1.53337 2.58553,-2.51426 a 305.92421,262.51837 0 0 1 3.47962,-3.42894 c 1.727265,-1.66534 2.008065,-2.10702 1.337795,-2.10702 -0.50063,0 -6.242345,4.84341 -9.391555,7.92265 -6.15043,6.01402 -6.89304,6.67406 -8.09977,7.19955 -0.387,0.16762 -0.86288,0.54787 -1.05857,0.84487 -0.19575,0.297 -0.738,0.82575 -1.20488,1.1763 -0.73569,0.55238 -3.20029,3.76195 -3.20029,4.16818 0,0.43538 -3.50893,4.09337 -4.87788,5.08382 -1.46807,1.06206 -1.93933,1.85507 -1.38527,2.33038 0.45225,0.38813 0.95732,0.117 2.1326,-1.14727 z m 12.02254,-1.58631 c 0.10125,-0.2295 0.13612,-0.41738 0.0788,-0.41738 -0.0563,0 -0.29363,0.18788 -0.51638,0.41738 -0.23287,0.23962 -0.26325,0.41737 -0.0788,0.41737 0.18113,0 0.41288,-0.18787 0.51525,-0.41737 z m 1.99906,-2.15438 1.20527,-1.45963 -1.20133,0.97318 c -1.32086,1.06988 -2.00222,1.94614 -1.51374,1.94614 0.16762,0 0.84707,-0.657 1.5098,-1.45957 z m -17.87315,-0.91575 c 1.53219,-1.74571 2.14554,-2.1578 2.156,-1.44703 0.003,0.2385 0.10125,0.22163 0.30263,-0.0562 0.16312,-0.22162 0.23512,-0.4905 0.15975,-0.59625 -0.0787,-0.10125 0.0788,-0.26437 0.34537,-0.35212 0.26663,-0.09 0.48375,-0.47588 0.48375,-0.86288 0,-0.387 0.1125,-0.70318 0.24413,-0.70318 0.135,0 0.43987,-0.37687 0.67719,-0.837 0.58388,-1.13276 2.96635,-3.25339 2.96635,-2.64082 0,0.252 0.2025,0.63337 0.45,0.846 0.38587,0.33075 0.5895,0.27337 1.39753,-0.38925 0.52087,-0.4275 1.27755,-1.2357 1.68148,-1.79663 0.40387,-0.56025 0.8415,-1.02043 0.97312,-1.02043 0.1305,0 0.56475,-0.50062 0.96632,-1.11262 0.4005,-0.612 0.8955,-1.1115 1.10025,-1.1115 0.20475,0 0.69295,-0.34425 1.08445,-0.765 0.3915,-0.42075 0.81787,-0.67393 0.94837,-0.56363 0.23738,0.2025 -0.81787,1.52719 -2.33736,2.93153 -0.9135,0.84487 -4.31988,5.15626 -4.31988,5.46766 0,0.2475 1.90074,-1.02262 1.92594,-1.28565 0.0113,-0.10125 0.4545,-0.603 0.99,-1.10475 0.53438,-0.50175 0.97194,-1.04512 0.97194,-1.20622 0,-0.16088 0.25425,-0.48713 0.567,-0.7245 0.9787,-0.74593 2.57147,-2.34962 3.84976,-3.87658 0.67725,-0.80888 1.52746,-1.73987 1.88994,-2.06916 0.36225,-0.3285 0.8775,-0.83925 1.14474,-1.13366 0.26888,-0.29362 0.8145,-0.8955 1.21534,-1.33695 1.01357,-1.11718 0.92357,-1.38302 -0.40612,-1.19807 -1.20882,0.16763 -1.6231,-0.306 -0.48938,-0.56025 0.35438,-0.0788 0.57257,-0.24412 0.48488,-0.36675 -0.09,-0.12262 0.34987,-0.49387 0.97531,-0.82462 0.62438,-0.33075 1.1358,-0.8235 1.1358,-1.0935 0,-0.27 0.27225,-0.75938 0.6052,-1.089 0.63337,-0.62668 1.33931,-0.79543 1.33931,-0.32063 0,0.153 -0.11925,0.27788 -0.26325,0.27788 -0.14512,0 -0.4635,0.43762 -0.70875,0.97312 -0.24412,0.5355 -0.56362,0.97313 -0.70869,0.97313 -0.14513,0 -0.26325,0.18112 -0.26325,0.40275 0,0.22162 -0.25425,0.52537 -0.56475,0.67387 -0.3105,0.1485 -0.44438,0.37463 -0.297,0.4995 0.14625,0.126 0.90219,-0.3645 1.67934,-1.09125 0.93369,-0.87187 1.67687,-1.3203 2.19099,-1.3203 0.42863,0 1.04282,-0.25087 1.36469,-0.55575 0.50287,-0.477 0.51412,-0.55575 0.0787,-0.55575 -0.28013,0 -0.5737,0.15638 -0.65363,0.34763 -0.0787,0.19125 -0.24187,0.27112 -0.35887,0.17887 -0.11813,-0.09 0.0787,-0.468 0.43537,-0.83362 0.522,-0.5355 0.7065,-0.58956 0.945,-0.28013 0.37013,0.4815 0.73688,0.2745 3.994535,-2.252806 1.30055,-1.00913 3.98756,-3.09234 5.97111,-4.62977 3.22908,-2.50279 6.4409,-5.22613 8.10978,-6.87695 8.83457,-8.73889 7.97817,-8.0982 9.95597,-7.44672 0.32963,0.1125 0.5805,-0.0113 0.702,-0.3465 0.10125,-0.2835 0.33075,-0.74475 0.50738,-1.02375 0.33412,-0.53212 -0.40275,-1.56999 -2.3728,-3.34254 l -0.88087,-0.79313 -2.35513,1.95784 c -1.29516,1.07668 -2.25203,2.04666 -2.12608,2.15466 0.27675,0.23737 2.89794,-1.71411 3.49633,-2.60162 0.29587,-0.43875 0.52875,-0.54225 0.76382,-0.34088 0.23512,0.20138 0.20475,0.47588 -0.10125,0.89663 -0.31388,0.432 -0.33525,0.63562 -0.0788,0.71106 0.2025,0.0562 0.36225,0.43875 0.3555,0.846 -0.0113,0.738 -0.55463,1.17382 -3.81195,3.06438 l -1.12776,0.65475 0.73012,-0.87862 c 1.02482,-1.23559 0.54338,-1.40771 -0.80437,-0.288 -1.23688,1.02825 -1.52634,0.783 -0.45563,-0.38588 0.37013,-0.40387 0.612,-0.88987 0.53775,-1.08 -0.0787,-0.19912 -1.23429,0.56925 -2.73875,1.82352 -2.27155,1.89343 -2.71001,2.14543 -3.45308,1.98545 -0.50962,-0.1125 -0.8505,-0.0675 -0.8505,0.10125 0,0.15863 0.2925,0.3285 0.65138,0.37688 0.61987,0.0788 0.61087,0.12825 -0.19463,0.9225 a 62.361077,53.513018 0 0 0 -1.57528,1.62613 c -0.639,0.69525 -0.80887,0.74925 -1.3802,0.44325 -0.56138,-0.30038 -0.8145,-0.24188 -1.83814,0.4275 -0.65245,0.4275 -1.25162,0.72112 -1.33082,0.65362 -0.2565,-0.21937 1.197,-1.73598 2.62142,-2.7338 0.76269,-0.5355 1.39674,-1.11375 1.40788,-1.28667 0.0112,-0.17212 0.2385,-0.46912 0.50625,-0.65925 0.711,-0.50625 0.59287,-0.90112 -0.20363,-0.684 -0.684,0.18563 -0.68506,0.18225 -0.0787,-0.51187 0.55238,-0.6345 0.61875,-0.64913 0.71213,-0.16988 0.16875,0.86513 0.68957,0.60863 1.32407,-0.65143 0.351,-0.69862 1.87048,-2.2977 3.7125,-3.90836 4.03447,-3.52783 4.12301,-3.67183 2.59273,-4.22038 -1.39539,-0.50062 -1.54333,-0.42412 -1.59114,0.81788 -0.0225,0.73799 0.0675,0.89887 0.47475,0.77287 0.3915,-0.1215 0.36,-0.001 -0.13613,0.51075 -1.10812,1.14604 -2.18739,1.88128 -2.57394,1.75427 -0.387,-0.12713 -1.18513,0.56812 -3.06788,2.67334 -0.61537,0.6885 -1.539,1.62641 -2.05295,2.08524 -0.51413,0.459 -2.38169,2.39737 -4.15069,4.30869 -4.62488,4.99714 -14.072115,14.078586 -18.968005,18.234166 -2.02416,1.71816 -9.13472,8.65361 -12.51394,12.20608 -1.01807,1.06988 -2.33336,2.38388 -2.92309,2.91893 -0.5895,0.5355 -1.63794,1.57393 -2.32846,2.30878 -0.69075,0.73462 -1.74235,1.79111 -2.33635,2.34782 -0.594,0.55687 -1.07994,1.1646 -1.07994,1.35146 0,0.37125 1.58507,1.48241 2.1056,1.47634 0.17888,-0.002 1.0327,-0.81113 1.89861,-1.7982 z m 10.78132,-10.68991 c 0.11363,-0.5355 0.33863,-1.19464 0.50175,-1.46554 0.16088,-0.27 0.21038,-0.60638 0.1125,-0.74588 -0.10125,-0.1395 0.2205,-0.2925 0.71438,-0.34087 0.5805,-0.0563 0.86957,-0.23625 0.82012,-0.50625 -0.045,-0.2295 0.36225,-0.66713 0.89995,-0.97313 0.53775,-0.306 1.06194,-0.83705 1.16499,-1.1813 0.10125,-0.34425 0.31725,-0.6255 0.47588,-0.6255 0.15862,0 0.29025,-0.21938 0.2925,-0.48713 0.004,-0.49387 0.63225,-1.27575 2.47055,-3.08143 0.8775,-0.86062 1.089,-0.94837 1.5354,-0.63 0.5782,0.41288 0.36788,0.9765 -0.28462,0.76163 -0.61538,-0.2025 -0.85275,1.54097 -0.26213,1.91222 0.396,0.2475 0.3915,0.4005 -0.0225,1.09575 -0.26775,0.44325 -0.78637,0.846 -1.152,0.89437 -0.75369,0.10125 -0.85269,-0.17887 -0.25875,-0.73125 0.22275,-0.207 0.005,-0.13725 -0.47475,0.153 -0.48487,0.29025 -0.88532,0.61538 -0.89094,0.72113 -0.005,0.10125 -0.59288,0.7695 -1.30601,1.47628 -0.7132,0.7065 -1.29595,1.37745 -1.29595,1.49085 0,0.1125 -0.729,0.88762 -1.61994,1.72068 l -1.61961,1.51431 z m 6.27171,-4.23985 c 0,-0.1935 0.29137,-0.50962 0.648,-0.69975 0.51975,-0.27787 0.648,-0.27787 0.648,0.005 0,0.1935 -0.29138,0.5085 -0.648,0.69975 -0.52088,0.279 -0.648,0.27788 -0.648,-0.005 z m 3.73207,-6.31479 c -0.11362,-0.1575 -0.045,-0.288 0.13613,-0.288 0.189,0 0.34312,-0.18 0.34312,-0.4005 0,-0.441 0.58725,-0.85613 0.8685,-0.61425 0.10125,0.0788 -0.11925,0.47587 -0.4815,0.87075 -0.38362,0.4185 -0.74475,0.59962 -0.86625,0.43087 z m 1.45114,-1.9233 c 0,-0.135 0.3645,-0.45113 0.80995,-0.70088 0.88425,-0.49725 1.035,-0.30262 0.35887,0.46125 -0.45337,0.51188 -1.16882,0.65925 -1.16882,0.23963 z m 6.4791,-1.29656 c 0,-0.4545 1.0665,-1.817376 1.623205,-2.072756 0.99675,-0.45787 0.82575,0.33188 -0.29588,1.36226 -0.890935,0.817926 -1.327995,1.051926 -1.327995,0.709926 z m -4.95095,-0.57493 c -0.31725,-0.273376 0.37575,-1.218596 0.89431,-1.218596 0.72225,0 0.918,0.54 0.27113,0.74587 -0.32288,0.10125 -0.67044,0.29138 -0.77169,0.41963 -0.10125,0.128246 -0.27788,0.152996 -0.39375,0.0562 z m 3.87607,-1.111496 c 0.09,-0.2115 0.37463,-0.38475 0.62432,-0.38475 0.67275,0 0.5445,0.47025 -0.17213,0.63112 -0.43762,0.10125 -0.57144,0.0225 -0.45112,-0.24637 z m 1.72288,-3.96557 c 0,-0.13388 0.243,-0.41513 0.53888,-0.6255 0.488245,-0.3465 0.502865,-0.324 0.149615,0.24412 -0.401615,0.64688 -0.689615,0.8055 -0.689615,0.38138 z m 7.127095,-1.00125 c 0,-0.12488 0.65925,-0.91463 1.4652,-1.75455 1.6735,-1.74415 1.65696,-2.42567 -0.0225,-0.76168 -0.60637,0.60193 -1.19025,1.01818 -1.29825,0.9248 -0.20812,-0.17887 0.62325,-1.11043 2.35075,-2.63627 1.03275,-0.91237 1.71174,-1.17022 1.71174,-0.65137 0,0.1485 0.21825,0.19687 0.486,0.1125 0.26663,-0.09 0.486,-0.0225 0.486,0.12712 0,0.46913 -0.99557,1.18193 -1.37222,0.98213 -0.207,-0.1125 -0.25312,-0.0563 -0.11475,0.1395 0.1395,0.19237 -0.55687,1.01137 -1.73154,2.03552 -1.08,0.94162 -1.96442,1.60998 -1.96442,1.48522 z m -3.56355,-2.63008 c 0,-0.14288 0.14625,-0.33863 0.324,-0.43313 0.17888,-0.09 0.324,0.0225 0.324,0.26213 0,0.2385 -0.14512,0.43312 -0.324,0.43312 -0.17887,0 -0.324,-0.117 -0.324,-0.26212 z m 7.99999,-3.33619 c 0.19238,-0.63113 0.297,-0.69188 0.5625,-0.32513 0.10125,0.135 -0.0337,0.39263 -0.28012,0.5715 -0.3735,0.2655 -0.42525,0.2205 -0.28238,-0.24637 z m 1.91053,-0.15525 c 0.29138,-0.3825 0.666,-0.69525 0.8325,-0.69525 0.35663,0 -0.74587,1.36845 -1.11262,1.38139 -0.13725,0.005 -0.0112,-0.30375 0.28012,-0.68625 z m -3.76695,-0.09 c 0.21375,-0.35663 0.477,-0.57263 0.585,-0.47925 0.1125,0.09 -0.0675,0.38475 -0.38812,0.64912 -0.56025,0.459 -0.56813,0.45113 -0.19688,-0.16987 z m 3.57503,-1.11606 c 0,-0.26775 1.84854,-1.98697 2.13587,-1.98697 0.10125,0 -0.27563,0.50062 -0.84032,1.11262 -1.04175,1.12855 -1.296,1.30033 -1.296,0.87531 z m 2.42994,-0.87525 c 0.1125,-0.153 0.34538,-0.27787 0.52425,-0.27787 0.17775,0 0.234,0.12487 0.12263,0.27787 -0.1125,0.153 -0.34538,0.27788 -0.52425,0.27788 -0.17888,0 -0.234,-0.12488 -0.12375,-0.27788 z m 1.296,-1.11262 c 0.32175,-0.306 0.64119,-0.55688 0.70869,-0.55688 0.0675,0 -0.0337,0.25088 -0.22275,0.55688 -0.19125,0.306 -0.50962,0.55575 -0.70987,0.55575 -0.19913,0 -0.10125,-0.24975 0.22387,-0.55575 z M 58.507875,124.57456 c -0.66825,-1.37317 -0.91687,-1.27462 -0.28237,0.1125 0.28012,0.61313 0.56919,1.06425 0.64119,1.0035 0.0675,-0.0563 -0.09,-0.56362 -0.35775,-1.11487 z m 13.40882,-0.1845 c 0,-0.162 -0.14625,-0.21712 -0.324,-0.12262 -0.17887,0.09 -0.324,0.22725 -0.324,0.29362 0,0.0675 0.14513,0.12263 0.324,0.12263 0.17888,0 0.324,-0.13275 0.324,-0.29363 z m -7.85025,-3.11541 c 2.49362,-2.93844 4.60035,-5.25279 6.15583,-6.76305 0.7537,-0.73237 1.37042,-1.43707 1.37042,-1.56678 0,-0.12938 0.58275,-0.756 1.296,-1.39286 0.7132,-0.63675 1.29595,-1.30214 1.29595,-1.47977 0,-0.17663 0.61875,-0.89663 1.3766,-1.59987 1.32368,-1.22827 2.05307,-1.96773 4.02897,-4.08448 1.19514,-1.28013 2.33173,-2.40581 3.38681,-3.35475 0.47025,-0.423 0.90787,-0.8978 0.972,-1.055296 0.0675,-0.1575 0.86175,-0.94838 1.77261,-1.75894 0.91125,-0.81 1.93235,-1.84826 2.27041,-2.30693 0.70425,-0.95518 1.73729,-2.01976 3.36229,-3.46168 0.62325,-0.5535 1.78127,-1.74763 2.57282,-2.65359 0.79194,-0.90675 2.46819,-2.63497 3.72566,-3.84159 1.25742,-1.20634 2.577545,-2.54768 2.933945,-2.97979 0.93594,-1.13558 2.87763,-3.00392 5.7677,-5.54811 2.02315,-1.78183 2.71677,-2.22575 3.47637,-2.22575 0.7245,0 1.48607,-0.43538 3.22233,-1.84084 1.25055,-1.0125 2.27369,-1.92853 2.27369,-2.03574 0,-0.21263 -1.94687,-1.22322 -3.23955,-1.68075 -0.4455,-0.1575 -1.10138,-0.66038 -1.45795,-1.11713 -0.35662,-0.45675 -0.74137,-0.83025 -0.855,-0.83137 -0.11362,-5.7e-4 -0.91344,-0.50175 -1.77587,-1.11268 -0.86287,-0.612 -1.69554,-1.1115 -1.8518,-1.1115 -0.32738,0 -8.960515,7.61377 -9.446845,8.33141 -0.45788,0.67612 -4.3303,4.38744 -7.83152,7.50718 -1.63485,1.45625 -3.30587,3.02327 -3.71335,3.4817 -0.80207,0.90338 -4.37563,4.53055 -5.68243,5.76861 -0.44437,0.42075 -0.94044,0.76393 -1.10357,0.76393 -0.16312,0 -0.29587,0.18225 -0.29587,0.405 0,0.22275 -0.58275,0.9315 -1.296,1.57421 -0.7132,0.64238 -1.29595,1.27362 -1.29595,1.40187 0,0.12712 -0.1125,0.23737 -0.243,0.24412 -0.13387,0.005 -0.89887,0.77406 -1.70094,1.70713 -0.80213,0.93263 -1.89894,2.08451 -2.43861,2.55994 -0.54,0.47587 -1.92448,1.975776 -3.07788,3.334326 -1.15313,1.35833 -2.57035,2.90323 -3.14927,3.43299 -0.57938,0.52988 -1.05295,1.02825 -1.05295,1.107 0,0.0788 -0.43762,0.5715 -0.972,1.0935 -1.41834,1.38645 -1.27794,1.68852 0.972,2.08733 1.76755,0.31387 1.94293,0.40837 1.93348,1.05306 -0.0112,0.68287 -0.65025,1.68164 -1.07775,1.68164 -0.11475,0 -0.20812,-0.29587 -0.20812,-0.657 0,-0.52199 -0.29813,-0.75487 -1.45254,-1.13309 -0.79876,-0.261 -1.69409,-0.43538 -1.98962,-0.38475 -0.63675,0.1125 -3.46422,3.45757 -4.40989,5.22556 l -0.66488,1.24268 0.93825,0.56362 c 1.76462,1.062 4.01929,3.33231 4.35589,4.38655 0.18225,0.57375 0.5085,1.04062 0.72444,1.03837 0.216,-0.002 1.16067,-0.909 2.0992,-2.01532 z m 14.00541,0.75263 c 0,-0.2385 -0.14625,-0.35663 -0.324,-0.26213 -0.17888,0.09 -0.324,0.29025 -0.324,0.43313 0,0.144 0.14512,0.26212 0.324,0.26212 0.17887,0 0.324,-0.19575 0.324,-0.43312 z m -1.09013,-3.09617 c -0.13275,-0.11475 -0.37687,-0.0225 -0.54225,0.20138 -0.49837,0.67612 -0.34987,0.97768 0.23625,0.47587 0.3015,-0.25875 0.43988,-0.56362 0.30713,-0.67725 z m -26.85161,-4.34357 c 0,-0.3555 0.4185,-1.19959 0.92919,-1.87672 0.51188,-0.67725 1.16022,-1.64239 1.44282,-2.1456 0.66482,-1.1857 3.40121,-3.75306 10.58479,-9.93415 3.20315,-2.756126 5.9369,-5.320736 6.07449,-5.698846 0.13725,-0.378 0.63225,-1.08788 1.098,-1.57725 2.27796,-2.39136 3.60056,-3.92473 3.60056,-4.17471 0,-0.15075 0.3645,-0.61312 0.80995,-1.026 0.4455,-0.41287 0.81,-0.87975 0.81,-1.03837 0,-0.3105 0.78862,-1.25635 2.59194,-3.10585 0.62325,-0.64012 1.42082,-1.64677 1.77148,-2.23807 0.351,-0.59068 0.82575,-1.13586 1.053,-1.21101 0.22838,-0.0787 0.414,-0.43987 0.414,-0.81 0,-0.37125 0.21938,-0.74587 0.48825,-0.83475 0.41288,-0.13612 1.44287,-1.17607 5.98916,-6.04456 0.51863,-0.55688 1.143,-1.13372 4.61903,-4.27776 1.2024,-1.08793 2.18762,-2.07906 2.18908,-2.20236 0.001,-0.12375 0.67163,-0.7875 1.48854,-1.47532 0.81675,-0.68738 1.6236,-1.46981 1.791,-1.73734 0.37238,-0.59518 1.52894,-0.64018 1.7842,-0.0675 0.10125,0.2295 0.434245,0.41625 0.734565,0.41625 0.3015,0 0.70762,0.13725 0.90225,0.30375 0.46012,0.39375 1.71939,-0.14962 1.71939,-0.74137 0,-0.2295 -1.16539,-1.4454 -2.58981,-2.70085 l -2.589745,-2.28251 -0.001,1.30421 c -0.001,0.71775 -0.14175,1.37801 -0.31163,1.46863 -0.35437,0.18788 -1.11369,-0.98443 -1.43701,-2.21687 -0.34763,-1.32795 -1.22687,-2.57433 -2.03867,-2.89192 -0.6255,-0.24412 -0.7492,-0.21262 -0.75032,0.18787 -7.9e-4,0.26438 -0.83925,1.06656 -1.86295,1.7824 -1.02375,0.7155 -2.3054,1.65476 -2.84788,2.08665 -0.54337,0.43087 -2.5106,1.84247 -4.37355,3.13453 -3.60967,2.50386 -4.28749,3.06546 -8.08436,6.70033 l -5.48983,5.25409 c -1.68295,1.61032 -6.52483,5.92464 -10.75967,9.5868 -4.23461,3.66243 -7.63976,6.71045 -7.5663,6.77323 0.20475,0.1755 2.43467,-1.07213 2.43467,-1.36204 0,-0.14062 0.17662,-0.25537 0.3915,-0.25537 0.21487,0 0.94162,-0.46125 1.61375,-1.02381 0.67275,-0.56363 1.30528,-0.954 1.40659,-0.86625 0.20925,0.17887 -3.57294,3.37517 -6.48928,5.48443 -1.07888,0.78081 -2.41554,1.48314 -3.00414,1.57956 -1.86104,0.30375 -3.88418,2.62631 -6.14999,7.058636 -0.63106,1.23559 -0.70531,1.34955 -1.77947,2.73291 -0.48937,0.63112 -0.89094,1.32772 -0.89094,1.5471 0,0.21937 0.71207,0.84712 1.58181,1.39533 2.23734,1.40923 3.66187,2.84822 5.02689,5.0773 0.82013,1.33948 1.45474,2.02528 2.06601,2.23284 1.3518,0.459 1.61094,0.41287 1.61094,-0.288 z m 3.48255,-2.85806 c 0.35663,-0.42187 1.35833,-1.50081 2.22654,-2.39721 0.8685,-0.8955 1.48461,-1.71011 1.36975,-1.80866 -0.45338,-0.38812 -6.3499,5.73801 -6.3499,6.59739 0,0.33863 1.6794,-1.11937 2.75395,-2.39152 z m 21.24197,0.30712 c 1.97854,-1.7933 5.92076,-5.9342 6.41784,-6.74122 0.96413,-1.56431 -0.85044,-0.15075 -4.19355,3.26616 -5.25864,5.37631 -6.55391,7.40013 -2.22429,3.47529 z m -35.21824,-7.77914 c 1.24914,-2.12839 0.50175,-2.03355 -1.27142,0.162 -0.75037,0.92812 -0.82912,1.1696 -0.44662,1.37193 0.57487,0.306 0.70875,0.18563 1.71782,-1.53348 z m 39.40707,-19.239636 c 0,-0.27675 2.34815,-2.99621 2.77689,-3.21458 0.45,-0.2295 1.75854,-1.94304 1.75854,-2.3036 0,-0.486 -1.75022,1.22827 -3.4137,3.34344 -0.96412,1.22546 -2.04474,2.54104 -2.40182,2.9232 -1.01581,1.08793 -0.774,1.34005 0.30825,0.32288 0.53438,-0.50175 0.97195,-0.98438 0.97195,-1.071 z m -16.82342,-4.02677 c 0.351,-0.2565 0.51412,-0.53212 0.36225,-0.61425 -0.41738,-0.22162 -2.55089,1.61719 -2.38169,2.05335 0.10125,0.27113 0.32288,0.18675 0.76388,-0.297 0.33975,-0.37237 0.90444,-0.8865 1.25634,-1.14232 z m 23.92425,-4.11317 c 2.05048,-2.30692 2.45874,-2.96831 1.27535,-2.06595 -0.82006,0.6255 -3.51708,3.73905 -3.51708,4.06024 0,0.45337 0.31612,0.17212 2.24173,-1.99429 z m -21.80458,-0.15525 c 0.77956,-1.0215 0.32625,-1.15222 -0.5085,-0.14625 -0.387,0.468 -0.55238,0.8505 -0.36675,0.8505 0.18675,0 0.58044,-0.31612 0.87519,-0.70312 z m 52.563195,-1.11712 c 0.10125,-0.45338 0.045,-0.47363 -0.405,-0.15075 -0.61869,0.441 -0.69631,0.95625 -0.11812,0.79087 0.22275,-0.0675 0.459,-0.351 0.52312,-0.639 z m 23.25179,-1.25325 c 1.04394,-0.92706 1.89849,-1.82301 1.89849,-1.99255 0,-0.57825 -0.71775,-0.51412 -1.39455,0.12263 a 3082.7855,2645.3868 0 0 1 -1.82739,1.71692 c -1.1002,1.03387 -1.47876,1.83746 -0.86395,1.83746 0.15863,0 1.1425,-0.75825 2.1865,-1.68424 z m -7.77398,-0.40388 c 0.10125,-0.23175 -0.0112,-0.62555 -0.252,-0.87643 -0.75712,-0.783 -3.78973,-2.59492 -4.34227,-2.59492 -0.711,0 -0.42863,0.62212 0.45675,1.0035 1.05294,0.4545 2.3396,1.54822 2.66113,2.26237 0.32062,0.71218 1.19649,0.83368 1.47774,0.20475 z m -42.808665,-0.69193 c 0.1125,-0.153 0.0563,-0.27787 -0.12375,-0.27787 -0.17887,0 -0.414,0.12487 -0.52425,0.27787 -0.1125,0.153 -0.0563,0.27788 0.12375,0.27788 0.17888,0 0.414,-0.12488 0.52425,-0.27788 z m -20.05605,-1.04062 c -0.225,-0.1935 -0.83919,0.19912 -0.83919,0.5355 0,0.1845 0.18562,0.16312 0.49387,-0.0562 0.27113,-0.1935 0.4275,-0.4095 0.34538,-0.47925 z m 1.13861,-0.83588 c 0.27675,-0.26775 1.71321,-1.4247 3.19309,-2.57135 5.60109,-4.34059 9.40719,-7.94222 9.40719,-8.90202 0,-0.28237 0.25425,-0.58832 0.567,-0.68062 0.64913,-0.19238 2.10494,-2.02556 1.94181,-2.4453 -0.11362,-0.2925 -1.05182,0.51525 -5.41063,4.66048 a 1217.4068,1044.6758 0 0 1 -4.55704,4.30903 c -1.05975,0.99338 -2.37853,2.33854 -2.93113,2.98845 -0.55238,0.64918 -1.12044,1.18131 -1.26208,1.18131 -0.14175,0 -0.64682,0.43762 -1.1227,0.97312 -0.87975,0.99 -0.74137,1.37396 0.17438,0.48713 z m 65.257145,-0.63787 0.945,-0.846 -1.12748,-0.74931 c -0.61987,-0.41287 -2.83134,-2.18959 -4.91422,-3.94909 -2.08328,-1.75955 -4.16863,-3.51174 -4.63483,-3.89413 -0.46575,-0.38137 -2.26075,-1.99569 -3.98802,-3.58554 -3.6027,-3.31656 -6.40783,-4.99607 -16.04936,-9.61065 -1.78914,-0.85613 -1.66821,-0.423 0.27563,0.98325 0.71319,0.51637 2.89923,2.20472 4.85938,3.75328 1.9598,1.54823 3.73927,2.86554 3.95415,2.92731 0.39712,0.11475 1.46452,0.81562 3.60107,2.36778 0.65469,0.47588 1.6502,1.0665 2.21028,1.31254 1.26,0.55238 12.10141,9.84021 12.10141,10.36648 0,0.21038 0.14962,0.3825 0.33187,0.3825 0.18225,0 0.47025,0.31275 0.64013,0.69525 0.39712,0.89663 0.64912,0.87525 1.79555,-0.15075 z m -18.99484,-0.65138 c 0.30375,-0.31387 -0.31275,-0.7763 -3.28089,-2.46448 -5.58523,-3.17593 -6.35856,-3.55933 -6.57456,-3.25941 -0.41737,0.58056 7.80677,6.08907 9.11644,6.10538 0.20025,0.002 0.53325,-0.16875 0.73907,-0.38138 z m 28.76462,-0.89893 c 0.67725,-0.7065 1.93382,-1.92611 2.79355,-2.71012 1.70274,-1.55374 3.27622,-3.48149 3.02028,-3.70109 -0.459,-0.39375 -1.69127,0.47475 -4.29401,3.02676 -3.59629,3.52536 -3.7341,3.69219 -3.49369,4.22994 0.306,0.68513 0.64913,0.53775 1.97387,-0.84493 z m -19.66444,-0.60637 c 0,-0.12263 -1.78554,-1.72002 -3.96855,-3.54938 -2.18255,-1.82908 -4.56469,-3.88637 -5.29318,-4.57183 -0.729,-0.68513 -2.25827,-1.99693 -3.39834,-2.91403 -1.14013,-0.918 -2.83062,-2.42336 -3.75649,-3.34648 -0.92582,-0.92363 -3.24281,-2.79956 -5.14862,-4.17032 l -5.882225,-4.22831 c -1.32908,-0.95631 -2.60882,-1.73773 -2.84395,-1.73773 -0.558,0 -2.16253,1.64041 -1.92526,1.9697 0.10125,0.14063 0.702,0.25425 1.33633,0.25425 0.81675,0 1.49546,0.24975 2.32914,0.85613 1.98681,1.44573 7.130755,5.56172 9.769775,7.81706 1.37768,1.17731 2.88715,2.22289 3.35402,2.32369 0.50963,0.1125 0.84932,0.37687 0.84932,0.66712 0,0.26663 0.4005,0.85613 0.891,1.30973 3.02569,2.80209 4.13921,3.76588 6.33336,5.48133 3.31683,2.59392 7.35378,4.70076 7.35378,3.8385 z m 2.10055,-1.7919 c -0.66825,-0.65025 -1.74235,-1.61933 -2.38675,-2.15472 -0.64462,-0.5355 -1.71354,-1.50047 -2.37594,-2.14509 -0.66263,-0.64463 -1.77981,-1.48433 -2.48316,-1.86525 -0.70419,-0.38138 -1.373,-0.8235 -1.48753,-0.98213 -0.11475,-0.15975 -0.36,-0.28912 -0.54562,-0.28912 -0.39938,0 9.80364,8.60512 10.21224,8.61255 0.15413,0.002 -0.26662,-0.5265 -0.93369,-1.17608 z m 11.1816,0.62775 c 0,-0.54225 -2.95189,-3.62447 -5.18305,-5.4112 -5.43515,-4.35223 -9.47137,-7.34467 -11.46206,-8.49757 -0.82463,-0.477 -1.64914,-1.10925 -1.83319,-1.40366 -0.18337,-0.29363 -0.49612,-0.5355 -0.69519,-0.5355 -0.198,0 -0.82238,-0.40613 -1.38701,-0.90338 -0.8167,-0.71887 -4.15356,-2.83303 -5.05637,-3.20372 -0.10125,-0.0338 1.28402,1.2087 3.08042,2.77993 3.79496,3.3183 10.00473,8.23585 11.36486,9.00011 0.5175,0.29025 1.52882,1.08225 2.24927,1.75894 0.71994,0.67725 1.72682,1.55261 2.23734,1.9458 0.51075,0.39263 2.04109,1.62028 3.40189,2.7265 2.31474,1.88257 3.28309,2.39681 3.28309,1.74386 z m 2.91234,-2.36217 1.09569,-0.9698 -0.76381,-0.6975 c -0.42075,-0.38475 -1.09125,-0.69863 -1.49187,-0.69863 -0.39937,0 -1.78554,-0.6255 -3.07856,-1.39005 -1.29347,-0.76387 -2.61714,-1.39016 -2.94182,-1.39016 -0.32512,0 -0.59057,-0.18788 -0.59057,-0.41738 0,-0.44437 -6.06662,-4.39644 -10.1255,-6.59649 -2.76115,-1.49659 -3.48036,-1.78211 -3.48036,-1.38082 0,0.30487 3.05634,2.27981 3.52794,2.27981 0.15863,0 0.85045,0.4275 1.53816,0.9495 3.08723,2.3441 6.23717,4.60985 6.40862,4.60985 0.10125,0 0.45337,0.21938 0.77844,0.48713 0.324,0.26775 1.78228,1.44484 3.23995,2.61619 1.45682,1.17101 2.64915,2.2505 2.64915,2.39844 0,0.30713 1.28655,1.13434 1.79915,1.15628 0.18675,0.0113 0.83475,-0.42188 1.4364,-0.95513 z m -39.72949,-4.18055 c -0.10125,-0.234 -0.50062,-0.56363 -0.88087,-0.73238 -0.63563,-0.2835 -0.62775,-0.24975 0.09,0.42413 0.90337,0.84262 1.05069,0.90112 0.78637,0.30825 z m 15.92235,-2.07748 c -0.1125,-0.153 -0.26437,-0.27788 -0.34312,-0.27788 -0.0787,0 -0.14288,0.12488 -0.14288,0.27788 0,0.153 0.15525,0.27787 0.34313,0.27787 0.189,0 0.252,-0.12487 0.14287,-0.27787 z m -30.089075,-1.11263 c 0.77394,-0.61312 2.06601,-1.38791 2.87089,-1.72372 0.8055,-0.33525 1.4634,-0.69525 1.4634,-0.79988 0,-0.38475 -1.67907,-1.12055 -2.36515,-1.03618 -0.41175,0.0562 -0.89325,0.43425 -1.15492,0.92025 -0.24638,0.459 -0.85157,1.20943 -1.34421,1.66809 -0.882,0.82125 -1.55255,2.08519 -1.10587,2.08519 0.126,0 0.86175,-0.50175 1.6362,-1.11375 z m 61.013975,0.70988 c 0.21488,-0.22163 0.342,-0.5805 0.28238,-0.7965 -0.0563,-0.216 -1.49293,-1.39039 -3.18555,-2.60933 -1.69273,-1.2191 -4.17083,-3.06815 -5.50716,-4.10957 -1.33627,-1.0418 -3.01314,-2.3468 -3.72544,-2.90064 -0.71325,-0.5535 -1.73306,-1.29589 -2.26794,-1.64903 -0.53437,-0.35325 -1.70066,-1.23564 -2.59127,-1.96104 -0.891,-0.72562 -2.3306,-1.78357 -3.19916,-2.3508 -1.53146,-1.00012 -8.84936,-6.79084 -11.84518,-9.37339 -2.43203,-2.09694 -4.8793,-3.54684 -4.8793,-2.89141 0,0.0787 0.61988,0.67387 1.37695,1.32069 0.75712,0.64687 2.0876,1.86457 2.95622,2.70574 3.65535,3.53863 15.498,13.62155 15.99907,13.62155 0.16088,0 1.0372,0.657 1.94755,1.45958 2.15521,1.89928 3.19095,2.7104 3.46061,2.7104 0.11925,0 0.59287,0.3825 1.05075,0.84938 0.77394,0.78975 3.33236,2.45469 5.72023,3.72335 0.56025,0.29813 1.15262,0.73125 1.31687,0.96413 0.53775,0.76162 1.76889,1.69155 2.23914,1.69155 0.25313,0 0.6367,-0.18225 0.85157,-0.40388 z m -5.17955,-0.30038 c -0.22725,-0.234 -1.37453,-1.06875 -2.55021,-1.85524 -1.17602,-0.78637 -2.70636,-1.87644 -3.40076,-2.42319 l -1.26248,-0.9945 1.24808,1.539 c 1.33667,1.64807 4.77197,4.11407 5.77097,4.14242 0.5085,0.0225 0.54,-0.045 0.19462,-0.40838 z m -61.119115,-4.55675 c 1.14266,-1.66962 -0.0675,-0.819 -2.33207,1.64683 -1.26635,1.37621 -2.30276,2.59177 -2.30276,2.70112 0,0.32963 4.00455,-3.42647 4.63483,-4.34762 z m 14.96481,2.20291 c -0.57713,-0.54675 -0.81,-0.6728 -0.81,-0.4365 0,0.17888 0.99,0.99338 1.20712,0.99338 0.10125,0 -0.0788,-0.24975 -0.39712,-0.55575 z m 34.689765,-0.252 c -0.30713,-0.2925 -2.54694,-2.012 -4.97588,-3.82258 -2.42882,-1.81023 -6.26023,-4.85522 -8.51478,-6.76642 -5.28104,-4.47711 -9.49371,-7.96134 -11.27385,-9.32451 l -1.41295,-1.0823 -0.96975,0.9315 -0.96969,0.93268 2.31367,1.90833 c 1.27294,1.04963 2.50802,1.90829 2.74528,1.90829 0.23625,0 2.83382,1.72023 5.77064,3.82241 2.9372,2.10245 7.13323,5.07324 9.32484,6.60251 2.19156,1.5291 4.80116,3.36645 5.79904,4.08341 1.85113,1.33026 3.27701,1.8616 2.16433,0.80668 z m -39.001775,-3.15286 -2.36301,-2.01533 -0.62544,0.65025 c -0.621,0.64575 -0.61988,0.65475 0.10125,1.18001 1.12269,0.82125 3.03288,1.85817 3.69135,2.00397 1.52488,0.3375 1.40293,0.0562 -0.801,-1.81924 z m 57.538285,1.404 c 0.81563,-0.70088 0.729,-0.77513 -3.09375,-2.65197 -0.75712,-0.37237 -1.37694,-0.56587 -1.37694,-0.42975 0,0.39938 3.25541,3.41494 3.68662,3.41494 0.21713,0 0.57032,-0.15075 0.78407,-0.33412 z m -18.93105,-3.57902 c -1.93539,-1.66602 -3.61395,-3.03075 -3.72949,-3.03323 -0.11587,-0.002 -0.71887,-0.41062 -1.3392,-0.90787 -0.62094,-0.49725 -1.98354,-1.5916 -3.02895,-2.43242 -1.04512,-0.84038 -2.30293,-1.79325 -2.795,-2.11669 -0.49163,-0.32287 -1.32047,-1.07443 -1.84168,-1.66821 -0.522,-0.594 -1.98074,-2.01813 -3.24349,-3.16473 -1.26326,-1.14677 -2.83967,-2.79883 -3.50387,-3.6715 -1.26062,-1.65667 -1.69296,-1.94298 -1.69296,-1.12275 0,1.80428 2.33736,4.73744 7.16991,8.99742 3.58335,3.15821 13.76061,10.80787 14.37981,10.80787 0.11812,0 0.81782,0.44438 1.5566,0.9855 0.76495,0.56138 1.39495,0.8505 1.46515,0.6705 0.0675,-0.17325 -1.46121,-1.67929 -3.39683,-3.34491 z m -28.76906,3.05263 c 0.225,-0.31163 -2.13362,-2.57288 -3.20783,-3.07705 -1.040615,-0.48825 -0.30825,0.87194 1.18547,2.19944 1.40541,1.24987 1.67102,1.36541 2.02236,0.8775 z m 49.87817,-1.93995 c 0.25425,-0.68513 -0.62775,-1.64807 -1.50778,-1.64807 -0.8865,0 -6.70663,-3.34148 -11.04908,-6.34348 -1.39792,-0.96638 -2.7176,-1.7046 -2.93282,-1.64036 -0.48375,0.14287 4.59237,4.54201 6.51898,5.64879 4.9495,2.84361 8.04252,4.51974 8.37445,4.53797 0.21037,0.0113 0.47925,-0.23738 0.59625,-0.55463 z m -8.79317,-0.99 c -1.63373,-1.8031 -6.09711,-5.4801 -8.22364,-6.77453 -1.1304,-0.68737 -2.88095,-1.87627 -3.89036,-2.64082 -1.01025,-0.76393 -3.29181,-2.42038 -5.07161,-3.67948 -1.77936,-1.25944 -4.09883,-3.07738 -5.15391,-4.04061 -2.22013,-2.02584 -5.51582,-5.33762 -5.90383,-5.93263 -0.38813,-0.594 -1.35979,-0.171 -1.35979,0.59175 0,0.3825 0.423,0.94275 1.053,1.39309 1.13901,0.8145 5.96863,4.6652 10.12371,8.07232 1.42554,1.16888 3.61204,2.79866 4.85938,3.62256 2.63953,1.74296 5.32327,3.73477 9.3915,6.96977 1.60161,1.27361 3.03829,2.31564 3.19309,2.31564 0.15412,0 0.57262,0.3195 0.9315,0.70988 0.35775,0.39037 0.72557,0.64462 0.81782,0.56587 0.09,-0.0787 -0.252,-0.6075 -0.76607,-1.17332 z m -24.6006,0.3375 c -0.67838,-0.42525 -0.9855,-0.37913 -0.64238,0.10125 0.117,0.16312 0.45113,0.297 0.7425,0.297 0.44213,0 0.42638,-0.0675 -0.10125,-0.39488 z m -10.99592,-3.9766 c -3.76414,-3.12474 -8.05765,-6.19306 -8.66605,-6.19306 -0.565865,0 -1.864735,1.15953 -1.844595,1.64711 0.0112,0.24075 0.42975,0.71662 0.93257,1.05637 1.215775,0.82238 8.997295,4.73665 10.932915,5.49962 0.56694,0.22388 1.12269,0.53325 1.23407,0.6885 0.1125,0.15525 0.37687,0.27788 0.5895,0.27 0.21262,-0.005 -1.21748,-1.34257 -3.17762,-2.96921 z m 7.45104,-0.25762 c -2.02202,-1.58327 -9.47137,-6.49091 -9.85179,-6.49091 -0.40725,0 3.35756,2.9822 6.32137,5.00709 1.06988,0.73131 4.7295,2.77723 4.94415,2.76418 0.11363,-0.005 -0.522,-0.58275 -1.41373,-1.28036 z m 41.88055,-1.99929 c 0.76269,-1.01813 2.16568,-2.64027 3.11929,-3.60507 1.12275,-1.13585 1.80928,-2.11607 1.94822,-2.78015 0.44887,-2.14397 0.57375,-11.29815 0.18562,-13.53505 -0.21262,-1.22332 -0.459,-2.76131 -0.55012,-3.41814 -0.11813,-0.86512 -0.38138,-1.31659 -0.95507,-1.63879 -0.43538,-0.24412 -0.747,-0.64012 -0.693,-0.87975 0.10125,-0.4635 -0.95513,-1.51987 -3.27983,-3.27178 -1.41874,-1.06875 -1.42807,-1.071 -1.20892,-0.31275 0.1215,0.42075 0.13612,0.765 0.0337,0.765 -0.657,0 -1.47955,-0.7245 -2.12496,-1.872 -0.85832,-1.52538 -0.65469,-1.28036 -3.22594,-3.8962696 -1.089,-1.10925 -1.82154,-2.01566 -1.62782,-2.01566 0.7312,0 0.30038,-0.66937 -1.27732,-1.9805 -1.75247,-1.4571 -2.54261,-1.68165 -2.81149,-0.79988 -0.09,0.306 -0.33412,0.55463 -0.53662,0.5535 -0.20138,-0.001 -0.75263,0.4005 -1.224,0.89213 -0.70757,0.73918 -0.94157,0.8348 -1.33769,0.55237 -0.39375,-0.28125 -0.71437,-0.18 -1.77868,0.56706 -0.71432,0.50062 -2.12147,1.45192 -3.12828,2.11477 -1.00688,0.6637496 -2.57721,1.9767996 -3.48981,2.9193196 -0.91344,0.94275 -2.54756,2.32234 -3.63296,3.06686 -3.05989,2.09875 -5.69909,4.29576 -5.69909,4.74396 0,0.22387 0.3555,0.73575 0.78975,1.13771 0.43425,0.40275 1.39967,1.52151 2.14521,2.48743 0.7447,0.96638 1.66528,1.87729 2.04469,2.02523 0.37912,0.14737 1.19981,0.46575 1.82374,0.70655 0.93144,0.35888 1.00344,0.441 0.405,0.4545 -1.18328,0.0225 -0.87638,0.95963 0.67719,2.0511 0.77288,0.54338 2.85081,1.82942 4.61655,2.85688 1.76574,1.02713 3.42923,2.02208 3.6963,2.21018 1.69014,1.18997 7.7751,6.76744 7.7751,7.12665 0,1.09575 2.57147,3.12772 5.96436,4.71279 1.25932,0.58838 1.6236,0.378 3.3584,-1.93843 z m -3.93536,-2.76514 c -0.27225,-0.37913 0.29925,-1.88376 1.06869,-2.8111 0.369,-0.44437 0.6705,-0.89437 0.6705,-1.00012 0,-0.10125 0.29138,-0.50963 0.648,-0.89775 0.74919,-0.81675 0.85382,-1.51622 0.19463,-1.29898 -0.75263,0.2475 -0.90563,-0.38138 -0.28913,-1.18474 0.90219,-1.17439 1.31754,-3.71717 1.05069,-6.43674 -0.20587,-2.1019 -0.42862,-2.73763 -1.71781,-4.91608 -1.25393,-2.11855 -1.44428,-2.64763 -1.24234,-3.45392 0.26212,-1.04738 0.78075,-1.35979 1.32761,-0.79988 1.42453,1.45812 2.74354,3.62818 3.46748,5.70505 0.468,1.34246 1.13855,3.25412 1.49034,4.24783 0.45112,1.27519 0.65362,2.72154 0.68962,4.91259 0.045,2.74911 -0.0225,3.19483 -0.62212,3.87996 -0.369,0.42525 -1.12382,0.87412 -1.67496,0.99675 -0.66712,0.1485 -1.40147,0.6885 -2.1902,1.61066 -0.6525,0.76281 -1.30855,1.38774 -1.45693,1.38774 -0.1485,0 -0.486,0.0675 -0.74925,0.1575 -0.26325,0.09 -0.56357,0.045 -0.66482,-0.10125 z m 6.52038,-9.19013 c 0.1665,-2.00491 -0.0563,-3.3782 -0.5355,-3.3782 -0.15187,0 -0.29025,1.3338 -0.306,2.96398 -0.0225,2.13919 0.0675,2.87932 0.32513,2.66062 0.19462,-0.16762 0.42637,-1.17753 0.51525,-2.2464 z m -1.18321,-14.52133 c -0.42638,-0.14737 -0.702,-0.33075 -0.612,-0.40725 0.19012,-0.16312 1.87374,0.34425 1.87374,0.5625 0,0.20138 -0.34988,0.1575 -1.26174,-0.15525 z m -2.46381,-1.64446 c -0.1125,-0.153 0.0112,-0.27788 0.28575,-0.27788 0.26662,0 0.576,0.12488 0.68625,0.27788 0.1125,0.15187 -0.0113,0.27787 -0.28575,0.27787 -0.26775,0 -0.576,-0.126 -0.68625,-0.27787 z m -9.55671,25.29731 c -0.19125,-0.306 -0.576,-0.55575 -0.85612,-0.55575 -0.306,0 -0.43988,-0.1575 -0.333,-0.39375 0.21712,-0.486 -4.14343,-4.21887 -6.71592,-5.75038 -1.81974,-1.08338 -2.46166,-1.30152 -2.46166,-0.837 0,0.51075 6.81249,5.97526 8.27617,6.63896 0.42863,0.1935 0.93257,0.60075 1.12157,0.90337 0.189,0.30263 0.5625,0.55013 0.82912,0.55013 0.38588,0 0.41513,-0.11475 0.1395,-0.55575 z m -14.90209,-2.60792 c 0,-0.2115 -0.54562,-0.73575 -1.21466,-1.16618 -0.66825,-0.43087 -1.32654,-0.93825 -1.46255,-1.12781 -0.52763,-0.73462 -6.17057,-5.26202 -7.08104,-5.68029 -2.23408,-1.02606 1.93742,2.9538 6.35665,6.06459 1.06875,0.75262 2.14419,1.57635 2.38854,1.83094 0.54113,0.5625 1.0125,0.59962 1.0125,0.0788 z m 34.57564,-6.36205 c 0.87863,-1.77187 1.2991,-3.81785 0.783,-3.81785 -0.19687,0 -0.44212,0.34425 -0.54562,0.765 -0.30488,1.25117 -0.72,2.65202 -1.071,3.614 -0.5175,1.41908 0.0337,1.04738 0.83362,-0.56025 z m -42.02634,-2.42195 c 0,-0.63338 -5.23176,-4.17583 -6.16663,-4.17583 -0.6142,0 -0.252,0.432 1.16921,1.39022 a 194.35934,166.7828 0 0 1 2.91555,2.01521 c 1.48427,1.05075 2.08187,1.27147 2.08187,0.77062 z m 49.97267,-0.98325 c 2.69994,-1.39219 3.37461,-2.25158 2.98513,-3.79986 -0.31837,-1.2663 -1.23514,-2.74871 -2.14588,-3.47096 -0.4185,-0.33188 -1.18879,-0.99118 -1.71219,-1.46526 -0.52313,-0.47475 -1.107,-0.81787 -1.296,-0.765 -0.20138,0.0562 -0.38363,1.18249 -0.43763,2.70703 -0.0675,1.91802 -0.23175,2.73949 -0.61419,3.10185 -0.41063,0.38925 -0.48038,0.86069 -0.33075,2.23679 0.20362,1.8711 0.47362,2.71001 0.87069,2.71001 0.13613,0 1.34342,-0.56475 2.68194,-1.25505 z m -8.50871,-1.79168 c 0.50062,-2.2748 0.10125,-4.47677 -1.02932,-5.71308 -1.1484,-1.25258 -1.35827,-0.522 -0.89325,3.10899 0.23175,1.80832 0.44662,3.66306 0.47587,4.12183 0.09,1.32514 0.1485,1.4184 0.59513,0.91463 0.23175,-0.26213 0.61425,-1.35608 0.85162,-2.43169 z m -41.79989,-3.55562 c -0.0225,-0.504 -1.5656,-1.79291 -1.91728,-1.60627 -0.46012,0.24412 0.48263,1.25876 1.16933,1.25876 0.23962,0 0.43537,0.12488 0.43537,0.27788 0,0.153 0.0788,0.27787 0.162,0.27787 0.09,0 0.15638,-0.09 0.14963,-0.20925 z m 43.09802,-7.68138 c 0,-0.2115 -0.50062,-0.711 -1.11262,-1.1115 -1.77148,-1.15943 -2.26249,-0.90563 -1.30888,0.67612 0.37912,0.63 0.71887,0.82013 1.45794,0.82013 0.60413,0 0.963,-0.14288 0.963,-0.38475 z M 140.86024,6.7025844 c 1.45215,-1.3518 1.78509,-2.0475 0.75375,-1.57365 -0.33187,0.15188 -0.86282,0.6255 -1.18074,1.05188 -0.3195,0.4275 -1.06875,1.12966 -1.66821,1.56211 -0.5985,0.432 -1.25381,1.05075 -1.45541,1.37464 -0.50288,0.80438 1.70274,-0.69525 3.55095,-2.41532 z m 7.27251,-3.94267 c 0.31612,-0.27 -0.117,-0.94619 -0.60638,-0.94619 -0.24862,0 -0.45112,0.045 -0.45112,0.11588 0,0.0675 -0.09,0.315 -0.19688,0.55575 -0.13725,0.30825 -0.005,0.43987 0.432,0.43987 0.34538,0 0.7155,-0.0787 0.82238,-0.1665 z M 1.9418646,159.84983 c 0,-0.5895 1.30933,-2.91577 1.64087,-2.91577 0.15075,0 0.36787,-0.42863 0.48262,-0.954 0.11475,-0.52538 0.486,-1.17017 0.82463,-1.43342 0.33862,-0.26213 0.61537,-0.77513 0.61537,-1.13861 0,-0.36338 0.21938,-0.73238 0.486,-0.82125 0.26775,-0.09 0.486,-0.42413 0.486,-0.74588 0,-0.68062 0.92245,-2.92978 1.43275,-3.49194 0.19125,-0.2115 0.71325,-0.97988 1.15914,-1.70764 1.7388004,-2.84079 2.3198104,-3.65417 2.4994704,-3.49993 0.10125,0.09 -0.27113,0.96075 -0.83245,1.9377 -0.56137,0.97768 -1.0192504,1.86643 -1.0192504,1.97589 0,0.1125 -0.45,1.03275 -1.00237,2.0511 -1.90176,3.51636 -4.26437,8.78704 -4.31364,9.62269 -0.0337,0.58725 -0.288,0.94281 -0.84938,1.18626 -1.07207,0.46575 -1.60993,0.44325 -1.60993,-0.0675 z M 11.984565,141.7834 c 0,-0.2295 0.14175,-0.41737 0.31388,-0.41737 0.17212,0 0.2295,0.18787 0.12825,0.41737 -0.10125,0.2295 -0.24413,0.41625 -0.31388,0.41625 -0.0675,0 -0.12825,-0.18675 -0.12825,-0.41625 z"
     style="fill:#333333;stroke-width:0.333474"
     id="path1"
     inkscape:export-filename="../../pwp-fast/public/favicon-32x32.svg"
     inkscape:export-xdpi="96"
     inkscape:export-ydpi="96" />
</svg>
