<?xml version="1.0" encoding="UTF-8" standalone="no"?>
<svg
   width="151.99995"
   height="152"
   version="1.1"
   id="svg1"
   sodipodi:docname="hand-drawn-pencil-icon copy.svg"
   inkscape:export-filename="../../pwp-fast/public/favicon-32x32.svg"
   inkscape:export-xdpi="18.395208"
   inkscape:export-ydpi="18.395208"
   xmlns:inkscape="http://www.inkscape.org/namespaces/inkscape"
   xmlns:sodipodi="http://sodipodi.sourceforge.net/DTD/sodipodi-0.dtd"
   xmlns="http://www.w3.org/2000/svg"
   xmlns:svg="http://www.w3.org/2000/svg">
  <defs
     id="defs1" />
  <sodipodi:namedview
     id="namedview1"
     pagecolor="#ffffff"
     bordercolor="#000000"
     borderopacity="0.25"
     inkscape:showpageshadow="2"
     inkscape:pageopacity="0.0"
     inkscape:pagecheckerboard="0"
     inkscape:deskcolor="#d1d1d1" />
  <path
     d="m 1.0929746,151.44966 c 0,-0.55391 1.14732,-2.09813 2.01243,-2.70936 0.3021,-0.21375 0.4009,-0.4978 0.285,-0.82175 -0.24984,-0.69735 -0.2185,-0.6935 -1.39132,-0.1805 -1.75346,0.7676 -2.69401,-0.12065 -1.38923,-1.31219 0.3363,-0.30684 0.75045,-1.10598 0.92145,-1.77564 0.171,-0.66975 0.62605,-2.16852 1.01232,-3.33037 1.03023,-3.10246 1.83241,-5.93299 1.83241,-6.46494 0,-0.2565 0.11304,-0.6498 0.2508,-0.874 0.13774,-0.2242 0.40564,-0.76475 0.5956,-1.20156 0.19,-0.437 0.61845,-1.07369 0.95371,-1.4154 0.58609,-0.5976 2.30356,-3.31346 2.30356,-3.64263 0,-0.0855 0.2337,-0.60326 0.52154,-1.14471 0.28596,-0.5415 0.7315,-1.61861 0.98795,-2.39314 0.2565004,-0.77425 0.5757004,-1.50902 0.7096604,-1.63163 0.13394,-0.12255 0.2432,-0.49784 0.2432,-0.8332 0,-0.33534 0.1159,-0.7106 0.25744,-0.83314 0.1425,-0.12256 0.3971,-0.69826 0.5662,-1.27946 0.67636,-2.3191 0.67351,-2.17983 0.038,-2.0056 -0.7163,0.19475 -0.77804,-0.2356 -0.14534,-1.01108 0.86445,-1.0583 2.01542,-3.2138 2.01846,-3.77933 0.003,-0.44746 0.076,-0.513 0.3325,-0.29356 0.4693,0.40376 0.85405,0.3477 0.65645,-0.095 -0.1596,-0.3572 0.17765,-1.76657 0.66785,-2.79248 0.1235,-0.2584 0.37525,-0.8892 0.55855,-1.40182 0.18336,-0.513 0.9234,-1.93899 1.64336,-3.16952 0.7201,-1.22988 1.52233,-2.80816 1.78291,-3.50726 0.2603,-0.6992 0.76,-1.755316 1.11046,-2.347456 0.35054,-0.59189 0.6374,-1.21167 0.6374,-1.37726 8.5e-4,-0.26124 0.9025,-2.28988 1.64098,-3.68994 0.13585,-0.2584 0.7657,-1.57871 1.39835,-2.93464 0.6327,-1.35542 1.23272,-2.51726 1.3321,-2.58196 0.0997,-0.0665 0.39234,-0.5776 0.65069,-1.14 0.25746,-0.5624 0.64126,-1.16969 0.85026,-1.34972 0.9452,-0.8113 2.02972,0.0475 1.363,1.08524 -0.46834,0.72485 -0.5035,1.12166 -0.0665,0.7467 0.1805,-0.15485 0.52535,-0.28215 0.7666,-0.28215 0.57095,0 2.30057,-1.53135 2.07808,-1.83991 -0.26505,-0.36766 0.98106,-2.18862 2.28727,-3.3403 0.64884,-0.57194 1.45335,-1.41051 1.78775,-1.86252 0.3344,-0.4522 0.9947,-1.176 1.46714,-1.6093 0.4731,-0.4332 0.85969,-0.88829 0.85969,-1.01217 0,-0.228 -2.25738,1.41649 -5.28883,3.854 -1.77285,1.42561 -2.10639,1.55425 -2.62832,1.01474 -0.53295,-0.55105 0.1957,-1.41754 3.86165,-4.59458 5.7077,-4.94689 9.32273,-7.74668 10.00217,-7.74668 0.7125,0 3.62815,-2.38687 3.62815,-2.96961 0,-0.0855 0.50725,-0.6346 1.1275,-1.22972 2.77115,-2.66076 4.45564,-4.46125 4.96598,-5.30798 0.23276,-0.3876 0.8037,-1.07397 1.2665,-1.52599 a 87.745936,75.296182 0 0 0 1.59652,-1.61115 c 0.41515,-0.43415 1.33969,-1.30511 2.05443,-1.93553 0.7144,-0.62985 1.29917,-1.28288 1.29917,-1.45041 0,-0.16816 0.56334,-0.8284 1.25248,-1.46841 0.6887,-0.6403 1.55159,-1.5599 1.91814,-2.04402 0.3667,-0.4845 0.7714,-0.8807 0.89965,-0.8807 0.1292,0 0.55195,-0.4123 0.94046,-0.91675 0.38854,-0.50445 1.14369,-1.28089 1.67779,-1.72558 0.53385,-0.44555 0.97094,-0.87685 0.97094,-0.95893 0,-0.152 0.36385,-0.56055 1.70967,-1.92152 0.41325,-0.418 0.75235,-0.86545 0.75235,-0.99418 0,-0.1292 0.20425,-0.37904 0.4522,-0.55574 0.2489,-0.1767 0.9405,-0.8902 1.53876,-1.58427 l 1.0868,-1.26255 -0.4446,-0.7999 c -0.56144,-1.01052 -0.55954,-1.05488 0.1197,-2.3817 1.30231,-2.5459 1.86442,-3.29826 2.48454,-3.32467 0.589,-0.019 0.3876,0.91205 -0.46455,2.15893 -0.7163,1.04842 -0.892,1.49188 -0.66595,1.68254 0.37715,0.31825 1.12898,-0.4389 0.9139,-0.91865 -0.27645,-0.6175 0.4408,-1.47383 3.25365,-3.87947 l 2.11912,-1.81297 -0.43605,-0.90731 c -0.24035,-0.49874 -0.70585,-1.22416 -1.03455,-1.61158 -0.3287,-0.3876 -0.74475,-0.99493 -0.9243,-1.34994 -0.29165,-0.57476 -0.27075,-0.646 0.1881,-0.646 0.5833,0 1.32625,0.97014 2.07076,2.70332 0.27645,0.64314 0.58895,1.25633 0.6944,1.36168 0.1995,0.19855 1.69086,-1.30326 1.98422,-1.99847 0.095,-0.21945 0.5624,-0.5738 1.04453,-0.78755 1.18099,-0.52345 2.29748,-1.71071 2.29748,-2.44193 0,-0.39424 0.209,-0.6764 0.6156,-0.82934 0.5168,-0.19476 0.58894,-0.3553 0.4484,-0.99779 -0.12826,-0.58615 -0.076,-0.7657 0.2394,-0.7657 0.2242,0 0.5605,0.15865 0.74764,0.35245 0.52436,0.54245 1.05265,0.4218 1.61168,-0.3667 0.6118,-0.8636 3.29835,-2.82934 4.81678,-3.52474 0.60226,-0.2755 1.52508,-0.84265 2.05191,-1.26003 1.72667,-1.36791 4.032165,-2.26451 3.65521,-1.42167 -0.0855,0.1938 -0.038,0.35244 0.120655,0.35244 0.2831,0 0.81034,-0.52154 2.51583,-2.49194 1.10072,-1.27229 6.46409,-5.9437696 8.96981,-7.8135596 0.9348,-0.69735 1.69907,-1.42514 1.69907,-1.61761 0,-0.19285 0.3667,-0.6783 0.81411,-1.07996 a 138.06929,118.47946 0 0 0 1.77074,-1.62702 l 0.95637,-0.89775 0.80745,0.4085 c 0.80176,0.4066 0.81415,0.4047 1.79536,-0.3344 1.10043,-0.82934996 1.20987,-0.85404996 2.15683,-0.48354996 0.56045,0.21944996 0.80651,0.17194996 1.54067,-0.29355 0.70675,-0.4484 1.21196,-0.5538499966406 2.64802,-0.5538499966406 h 1.77474 L 129.13427,1.4085744 c 0.88635,0.77524 1.83193,1.57562 2.10069,1.77996 0.68205,0.51775 2.18685,1.98322 3.54692,3.45349 1.25423,1.35546 3.16093,2.86653 4.87544,3.8633196 0.60226,0.3496 1.58683,1.00747 2.18875,1.4611 2.9432,2.21939 4.09778,3.11129 4.79423,3.70315 0.41704,0.3553 0.8882,0.64504 1.04504,0.64504 0.456,0 2.67425,2.46957 3.42751,3.81553 1.06063,1.89516 1.14669,2.72523 0.38379,3.69774 -0.35434,0.45125 -1.19249,1.06761 -1.86375,1.36971 -1.8354,0.8265 -4.07194,2.55963 -4.23695,3.28372 -0.52626,2.3058 -0.8445,3.07995 -1.61182,3.91367 -0.475,0.5168 -1.07127,1.2216 -1.32539,1.56674 -0.25366,0.34485 -0.70391,0.69354 -1.00069,0.7743 -0.6099,0.1653 -1.89359,1.88318 -2.46178,3.2926 -0.20804,0.51685 -0.6678,1.33299 -1.02139,1.81455 -0.73435,1.00063 -0.8037,1.3546 -0.266,1.3546 0.20805,0 0.53765,0.1653 0.73431,0.3686 0.3078,0.31825 0.1235,0.54815 -1.33452,1.66198 -0.93001,0.71155 -1.69133,1.48428 -1.69133,1.71807 0,0.2584 -0.26885,0.48356 -0.68395,0.57286 -0.54055,0.1159 -0.684,0.29544 -0.684,0.85504 0,0.55955 -0.1995,0.80845 -0.95727,1.19235 -0.5263,0.26695 -0.9576,0.58045 -0.9576,0.69635 0,0.1159 -0.1634,0.2109 -0.3629,0.2109 -0.1995,0 -0.65165,0.2641 -1.00534,0.5871 -0.77995,0.7125 -0.50635,0.76095 0.57375,0.1007 1.06942,-0.6536 1.99961,-0.5263 2.10972,0.2888 0.0665,0.49875 -0.25175,0.912 -1.57316,2.04254 -0.91195,0.77996 -1.65741,1.58138 -1.65741,1.78115 0,0.20046 -0.19,0.36386 -0.42275,0.36386 -0.5244,0 -1.6121,0.95997 -5.45181,4.81493 -0.89865,0.90255 -2.86872,2.75552 -4.37717,4.11791 -2.90548,2.62462 -6.45378,5.98158 -6.75014,6.38648 -0.0978,0.133 -0.5434,0.17954 -0.99037,0.10354 -0.7533,-0.1292 -1.0649,0.076 -4.24673,2.85746 -1.88875,1.64806 -4.19815,3.7819 -5.13138,4.7416 -0.93385,0.95968 -2.63383,2.62765 -3.777765,3.70685 -1.14385,1.07891 -2.25739,2.18837 -2.47447,2.46477 -0.21754,0.27646 -1.27309,1.34791 -2.34683,2.38094 -1.07364,1.03303 -2.6438,2.6287 -3.48916,3.5464 -0.84544,0.9177 -1.69997,1.81554 -1.89909,1.99557 -0.19856,0.17955 -0.7191,0.80185 -1.15668,1.38315 -1.36795,1.81868 -3.23598,3.75606 -3.62168,3.75606 -0.20425,0 -0.36955,0.1026 -0.36955,0.228 0,0.30876 -3.47833,4.679836 -4.28113,5.379136 -0.35435,0.3078 -0.64315,0.6517 -0.64315,0.76285 0,0.1121 -0.13205,0.2033 -0.29355,0.2033 -0.1615,0 -0.038,-0.27835 0.2736,-0.61845 0.3116,-0.3401 0.56715,-0.7068 0.56715,-0.81415 0,-0.5016 -0.91485,0.2109 -2.24015,1.74435 -1.86746,2.16068 -1.94554,2.2705 -1.61418,2.2705 0.2793,0 0.52534,-0.2033 1.27799,-1.05651 0.3705,-0.4199 0.3705,-0.39614 0.004,0.23466 -0.70206,1.20621 -1.8726,2.56918 -3.75279,4.36947 a 489.07367,419.68193 0 0 0 -3.95223,3.84689 c -1.17762,1.16213 -2.73225,2.64095 -3.4542,3.28657 -0.722,0.646 -1.31328,1.29855 -1.31395,1.45141 -5.2e-4,0.152 -0.2299,0.33915 -0.5082,0.41515 -0.27836,0.076 -1.27523,0.86735 -2.21403,1.75831 -1.7069,1.61985 -2.00569,1.78629 -7.53706,4.19847 a 111.81658,95.951595 0 0 1 -3.14602,1.31129 c -2.20765,0.874 -2.94418,1.27566 -5.87409,3.20449 -4.00994,2.64019 -4.69237,3.03036 -5.55972,3.17932 -1.13995,0.1957 -1.26545,-0.35815 -0.2983,-1.30953 0.43795,-0.43035 0.7391,-0.8322 0.66785,-0.893 -0.18905,-0.16245 -2.36812,0.8436 -3.16151,1.45901 -0.3762,0.2926 -1.36135,0.86835 -2.18875,1.28112 -0.82745,0.41325 -2.24347,1.16499 -3.14602,1.67181 -0.9025,0.50635 -2.56486,1.30354 -3.69322,1.77042 -1.12846,0.46645 -2.68793,1.20968 -3.46579,1.65001 -0.778,0.43985 -1.47711,0.80085 -1.55339,0.80085 -0.076,0 -0.91765,0.44365 -1.86898,0.986 -0.9509,0.5425 -2.15987,1.11136 -2.68632,1.26422 -0.5928,0.17195 -1.10475,0.5339 -1.34368,0.95028 -0.53195,0.92625 -1.34857,1.49416 -2.14956,1.49416 -0.74195,0 -2.54652,1.04714 -5.2408204,3.04166 -3.77434,2.79324 -4.69722,3.58469 -6.10403,5.23331 -1.22246,1.43218 -2.12311,1.77076 -2.12311,0.79805 z M 33.784225,129.2721 c 1.05303,-0.59186 2.2961,-1.25733 2.76213,-1.47906 0.9348,-0.4446 2.95815,-1.65286 7.22522,-4.31381 0.4142,-0.2584 1.35218,-0.83509 2.08482,-1.28141 1.6768,-1.022 1.39921,-0.83504 4.5477,-3.05672 1.4676,-1.03564 2.74778,-1.88285 2.84439,-1.88285 0.209,0 2.2031,-1.35802 3.92522,-2.67335 2.02544,-1.54716 2.36506,-2.32531 1.21138,-2.77628 -0.55665,-0.21754 -0.75044,-0.2109 -0.92714,0.038 -0.3572,0.4959 -0.88446,0.0666 -0.5586,-0.45314 0.46074,-0.7391 0.31444,-0.94055 -0.68301,-0.94055 -0.78945,0 -0.9576,-0.0855 -0.9576,-0.49115 0,-0.2945 -0.21945,-0.54055 -0.5472,-0.61465 -0.30115,-0.0665 -0.54716,-0.2166 -0.54716,-0.3306 0,-0.399 -0.78564,-0.2033 -0.9481,0.23655 -0.095,0.2451 -0.40659,0.49875 -0.702,0.56525 -0.41704,0.095 -0.5377,0.323 -0.53864,1.02305 -8.5e-4,1.10927 -0.88441,2.42816 -1.62598,2.42816 -0.40375,0 -0.61935,-0.24986 -0.8502,-0.98809 -0.266,-0.8474 -0.8778,-1.56471 -1.35252,-1.58498 -0.076,-0.003 -0.4408,0.3895 -0.8141,0.87304 -0.3724,0.48356 -1.20322,1.41836 -1.84646,2.07775 -0.64316,0.6593 -1.17463,1.29332 -1.18071,1.4087 -0.004,0.11495 -0.49685,0.66975 -1.09041,1.23329 -0.8939,0.84835 -1.19685,0.99864 -1.76685,0.8759 -0.88821,-0.1919 -0.86636,-0.32395 0.21564,-1.3129 0.49496,-0.4522 1.2635,-1.26065 1.70758,-1.79734 0.4446,-0.53676 1.54788,-1.80377 2.45199,-2.81676 2.66903,-2.98998 2.7779,-3.75815 1.02349,-7.2407 -0.99821,-1.98223 -1.49649,-2.56164 -2.40056,-2.79172 -0.43035,-0.10926 -0.66595,0.038 -1.05792,0.66214 -0.2774,0.44176 -0.82834,1.06509 -1.22412,1.38572 -0.88444,0.7144 -2.5876,1.16005 -3.01986,0.78946 -0.4712,-0.4047 -0.35244,-0.6327 0.3287,-0.6327 0.64881,0 2.32788,-1.32255 2.90492,-2.2888 0.2736,-0.4579 0.24604,-0.5282 -0.20806,-0.5282 -0.6023,0 -1.03479,0.3857 -1.17852,1.05042 -0.0665,0.28785 -0.51775,0.59945 -1.19957,0.82175 -0.60415,0.19665 -1.37013,0.59284 -1.70121,0.8807 -0.33154,0.2869 -1.03745,0.67924 -1.57011,0.8702 -0.71435,0.25554 -1.01037,0.52914 -1.12959,1.04082 -0.17576,0.75144 -0.84451,1.04111 -1.5838,0.6859 -0.3154,-0.15106 -0.38,-0.3116 -0.20045,-0.4978 0.14535,-0.15106 0.2603,-0.53866 0.25555,-0.86166 -0.004,-0.323 0.1539,-1.7488 0.35435,-3.16895 0.475,-3.376256 0.40185,-4.901286 -0.2774,-5.832756 -0.50255,-0.68876 -2.23587,-2.03134 -2.62257,-2.03134 -0.323,0 -1.04547,0.75144 -2.22343,2.3112 -0.64884,0.8588 -1.18213,1.4687 -1.18555,1.3547 -0.004,-0.23464 1.83826,-3.40998 2.20999,-3.80498 0.133,-0.14156 0.1653,-0.32206 0.076,-0.40186 -0.1976,-0.1691 -1.73993,0.4712 -1.74273,0.72296 -8.5e-4,0.095 -0.3705,0.3496 -0.82075,0.57004 -0.4503,0.2204 -0.81985,0.589 -0.8208,0.82176 -8.5e-4,0.2318 -0.38,1.31945 -0.8407,2.41689 -0.4617,1.09739 -0.8607,2.21127 -0.8873,2.475546 -0.0285,0.26316 -0.2755,0.779 -0.55475,1.14352 -0.42656,0.5586 -0.45316,0.7505 -0.1672,1.20807 0.46264,0.7429 0.1653,2.13882 -0.81036,3.79763 -0.437,0.74389 -1.18431,2.09156 -1.66007,2.99548 -0.47591,0.90346 -1.46951,2.69938 -2.2079,3.99062 -1.57163,2.74792 -2.99103,6.23828 -2.99103,7.35414 0,0.6156 0.21946,0.94526 1.01603,1.5276 1.76429,1.29024 3.72875,3.10712 5.00246,4.62655 1.67005,1.99248 4.07431,4.21534 4.55919,4.21534 0.2299,0 0.3154,0.114 0.20236,0.2698 -0.10736,0.14915 0.019,0.4047 0.27834,0.56715 0.399,0.24985 0.75716,0.16815 2.29886,-0.53295 1.00401,-0.456 2.68726,-1.314 3.74057,-1.90594 z m -8.61759,-9.6387 c 0,-0.12826 0.1235,-0.3002 0.2736,-0.37906 0.15105,-0.076 0.2736,-0.038 0.2736,0.0855 0,0.1292 -0.12255,0.3002 -0.2736,0.38 -0.15105,0.076 -0.2736,0.038 -0.2736,-0.0855 z m 1.09435,-2.09214 c 0,-0.1235 0.19856,-0.36765 0.44176,-0.5396 0.38284,-0.27265 0.42844,-0.25555 0.342,0.1273 -0.10356,0.456 -0.78371,0.81415 -0.78371,0.4123 z m 19.50697,0.019 c -0.17956,-0.057 -0.25936,-0.24985 -0.1767,-0.43415 0.1938,-0.43225 1.1864,-0.4408 1.1864,-0.01 0,0.3667 -0.5149,0.59375 -1.01046,0.4446 z m -0.855,8.26604 c 0.4465,-0.323 0.7372,-0.58714 0.6441,-0.58714 -0.2717,0 -2.33553,0.93769 -2.33553,1.06119 0,0.31635 0.97546,0.038 1.69105,-0.47405 z m 6.50788,-4.09881 c 0.22134,-0.12066 0.31064,-0.29736 0.19854,-0.3933 -0.1121,-0.096 -0.4123,0.004 -0.6659,0.22134 -0.494,0.42466 -0.19855,0.53296 0.4674,0.17196 z m 9.38509,-3.53235 c 0.7191,-0.77334 1.15002,-1.40662 0.95822,-1.40662 -0.37145,0 -2.94899,2.29221 -2.94899,2.62196 0,0.54435 0.8208,0.0475 1.99077,-1.21562 z m -47.47947,-2.21287 c 0.17195,-0.4807 0.1919,-0.83696 0.0475,-0.83696 -0.30685,0 -1.33575,1.40705 -1.33727,1.82766 -0.002,0.6118 0.98919,-0.14915 1.28986,-0.99052 z m 49.31834,-1.65852 c 0.2793,-0.28784 0.2603,-0.3515 -0.10355,-0.3515 -0.24415,0 -0.44365,0.1577 -0.44365,0.3515 0,0.1938 0.0475,0.35246 0.10355,0.35246 0.057,0 0.2565,-0.15866 0.44365,-0.35246 z m -0.2052,-4.7641 c 0.56425,-0.60615 1.02595,-1.28816 1.02595,-1.51464 0,-0.2261 0.1197,-0.41134 0.26505,-0.41134 0.33155,0 4.38572,-3.50574 4.38572,-3.79188 0,-0.11496 0.4674,-0.6555 1.03902,-1.20176 0.5719,-0.54624 1.24578,-1.27556 1.49838,-1.62146 0.2527,-0.34674 0.8312,-0.81799 1.28644,-1.048466 0.4541,-0.2299 0.8265,-0.5035 0.8265,-0.6061 0,-0.36574 2.66722,-3.03197 6.29414,-6.29403 0.37714,-0.33914 1.36006,-1.29484 2.18333,-2.12315 a 258.33593,221.68218 0 0 1 2.93835,-2.89555 c 1.45858,-1.40629 1.6957,-1.77926 1.12969,-1.77926 -0.42275,0 -5.27131,4.08999 -7.93064,6.69024 -5.1937,5.0785 -5.82079,5.63587 -6.83981,6.07962 -0.3268,0.14154 -0.72865,0.46264 -0.8939,0.71344 -0.1653,0.250796 -0.6232,0.697296 -1.01746,0.993316 -0.62124,0.46646 -2.70246,3.17676 -2.70246,3.5198 0,0.36765 -2.9631,3.45662 -4.1191,4.293 -1.2397,0.89685 -1.63766,1.5665 -1.16978,1.96788 0.3819,0.32775 0.8084,0.0988 1.80086,-0.96881 z m 10.15236,-1.33955 c 0.0855,-0.1938 0.11495,-0.35246 0.0665,-0.35246 -0.0476,0 -0.24796,0.15866 -0.43606,0.35246 -0.19664,0.20234 -0.2223,0.35244 -0.0665,0.35244 0.15295,0 0.34865,-0.15864 0.4351,-0.35244 z m 1.6881,-1.81926 1.01778,-1.23257 -1.01445,0.82179 c -1.1154,0.90346 -1.69077,1.64341 -1.27827,1.64341 0.14154,0 0.7153,-0.5548 1.27494,-1.23252 z m -15.09288,-0.7733 c 1.29385,-1.47415 1.81179,-1.82214 1.82062,-1.22193 0.003,0.2014 0.0855,0.18715 0.25556,-0.0475 0.13774,-0.18715 0.19854,-0.4142 0.1349,-0.5035 -0.0665,-0.0855 0.0665,-0.22325 0.29164,-0.29735 0.22516,-0.076 0.4085,-0.40185 0.4085,-0.72865 0,-0.3268 0.095,-0.5938 0.20616,-0.5938 0.114,0 0.37144,-0.31824 0.57185,-0.7068 0.49305,-0.95655 2.50491,-2.747296 2.50491,-2.230016 0,0.2128 0.171,0.53484 0.38,0.714396 0.32585,0.2793 0.4978,0.23084 1.18014,-0.328696 0.43984,-0.361 1.07882,-1.04348 1.41991,-1.51716 0.34105,-0.4731 0.7106,-0.86169 0.82175,-0.86169 0.1102,0 0.4769,-0.42275 0.816,-0.93955 0.3382,-0.5168 0.7562,-0.9386 0.9291,-0.9386 0.1729,0 0.58516,-0.2907 0.91576,-0.646 0.3306,-0.3553 0.69065,-0.5691 0.80085,-0.47595 0.20045,0.171 -0.69065,1.28962 -1.97377,2.47551 -0.7714,0.71345 -3.6479,4.354176 -3.6479,4.617136 0,0.209 1.60507,-0.86355 1.62635,-1.08566 0.01,-0.0855 0.3838,-0.509196 0.836,-0.932896 0.45125,-0.4237 0.82075,-0.88255 0.82075,-1.01859 0,-0.13585 0.2147,-0.41135 0.4788,-0.6118 0.82645,-0.6299 2.17146,-1.98412 3.2509,-3.27356 0.5719,-0.68305 1.28986,-1.46922 1.59595,-1.74729 0.3059,-0.2774 0.741,-0.7087 0.96667,-0.95731 0.22706,-0.24795 0.6878,-0.7562 1.02629,-1.12898 0.8559,-0.9434 0.7799,-1.16788 -0.34295,-1.0117 -1.02078,0.14155 -1.37061,-0.2584 -0.41325,-0.4731 0.29925,-0.0666 0.4835,-0.20615 0.40945,-0.3097 -0.076,-0.10355 0.29545,-0.41705 0.8236,-0.69635 0.52725,-0.2793 0.95912,-0.6954 0.95912,-0.9234 0,-0.228 0.2299,-0.64125 0.51106,-0.9196 0.53484,-0.5292 1.13097,-0.6717 1.13097,-0.27075 0,0.1292 -0.1007,0.23465 -0.2223,0.23465 -0.12255,0 -0.3914,0.36955 -0.5985,0.82175 -0.20615,0.4522 -0.47595,0.82175 -0.59845,0.82175 -0.12256,0 -0.2223,0.15295 -0.2223,0.3401 0,0.18715 -0.2147,0.44365 -0.4769,0.56905 -0.2622,0.1254 -0.37525,0.31635 -0.2508,0.4218 0.1235,0.1064 0.76185,-0.3078 1.41811,-0.9215 0.78845,-0.73625 1.41602,-1.11492 1.85017,-1.11492 0.36195,0 0.8806,-0.21185 1.1524,-0.4693 0.42465,-0.4028 0.43415,-0.4693 0.0665,-0.4693 -0.23655,0 -0.48446,0.13205 -0.55195,0.29355 -0.0665,0.1615 -0.20425,0.22895 -0.30305,0.15105 -0.0998,-0.076 0.0665,-0.3952 0.36765,-0.70395 0.4408,-0.4522 0.5966,-0.49785 0.798,-0.23655 0.31255,0.4066 0.62225,0.2318 3.37316,-1.90238 1.09824,-0.85215 3.36727,-2.61131 5.04227,-3.90958 2.72678,-2.11347 5.43898,-4.41318 6.84826,-5.8072 7.460295,-7.37951 6.737115,-6.83848 8.407255,-6.28834 0.27835,0.095 0.4902,-0.01 0.5928,-0.2926 0.0855,-0.2394 0.2793,-0.6289 0.42845,-0.8645 0.28215,-0.44935 -0.3401,-1.32577 -2.00369,-2.82259 l -0.74385,-0.66976 -1.98878,1.65329 c -1.09369,0.9092 -1.90171,1.72829 -1.79535,1.81949 0.2337,0.20045 2.44715,-1.44747 2.95245,-2.19692 0.24985,-0.3705 0.4465,-0.4579 0.64501,-0.28786 0.19854,0.17006 0.1729,0.40186 -0.0855,0.75716 -0.26506,0.3648 -0.2831,0.53674 -0.0666,0.60045 0.171,0.0475 0.3059,0.3705 0.3002,0.7144 -0.01,0.6232 -0.46835,0.99122 -3.21897,2.5877 l -0.95233,0.5529 0.61654,-0.74195 c 0.8654,-1.04339 0.45885,-1.18873 -0.67924,-0.2432 -1.044475,0.8683 -1.288905,0.6612 -0.38476,-0.32585 0.31256,-0.34105 0.5168,-0.75145 0.4541,-0.912 -0.0665,-0.16815 -1.042285,0.4807 -2.312715,1.53986 -1.9182,1.59889 -2.28845,1.81169 -2.91593,1.6766 -0.43035,-0.095 -0.7182,-0.057 -0.7182,0.0855 0,0.13395 0.247,0.2774 0.55005,0.31825 0.52345,0.0666 0.51585,0.1083 -0.16435,0.779 a 52.660451,45.18877 0 0 0 -1.33024,1.37318 c -0.5396,0.5871 -0.68305,0.6327 -1.1655,0.3743 -0.47406,-0.25365 -0.6878,-0.20425 -1.55221,0.361 -0.55096,0.361 -1.05692,0.60895 -1.1238,0.55195 -0.2166,-0.18525 1.0108,-1.46594 2.21364,-2.30855 0.64405,-0.4522 1.17947,-0.9405 1.18888,-1.08652 0.009,-0.14534 0.2014,-0.39614 0.4275,-0.5567 0.6004,-0.4275 0.50064,-0.76094 -0.17196,-0.5776 -0.5776,0.15676 -0.57849,0.1539 -0.0665,-0.43224 0.46645,-0.5358 0.52249,-0.54816 0.60135,-0.14346 0.1425,0.73056 0.5823,0.51396 1.1181,-0.55009 0.2964,-0.58995 1.57952,-1.94028 3.135,-3.3004 3.406885,-2.97905 3.481645,-3.10065 2.189415,-3.56387 -1.178325,-0.42275 -1.303255,-0.35815 -1.343625,0.69065 -0.019,0.62319 0.057,0.75905 0.4009,0.65265 0.330595,-0.1026 0.303995,-8.5e-4 -0.11496,0.4313 -0.93574,0.96776 -1.84712,1.58863 -2.17354,1.48138 -0.3268,-0.10735 -1.00078,0.47975 -2.59066,2.25749 -0.51964,0.5814 -1.2996,1.37341 -1.7336,1.76087 -0.43415,0.3876 -2.0112,2.02444 -3.50503,3.63845 -3.90545,4.2198 -11.88312,11.88858 -16.01742,15.39774 -1.70929,1.45089 -7.71376,7.30749 -10.56733,10.30736 -0.8597,0.90345 -1.97039,2.013046 -2.46838,2.464866 -0.4978,0.4522 -1.38315,1.3291 -1.96626,1.94964 -0.5833,0.62034 -1.47131,1.51249 -1.97291,1.9826 -0.5016,0.47025 -0.91195,0.98344 -0.91195,1.14123 0,0.3135 1.3385,1.25182 1.77806,1.24669 0.15105,-0.002 0.87206,-0.68495 1.60327,-1.51848 z m 9.10422,-9.027026 c 0.096,-0.4522 0.28596,-1.00881 0.4237,-1.23757 0.13586,-0.228 0.17766,-0.51205 0.095,-0.62985 -0.0855,-0.1178 0.1862,-0.247 0.60326,-0.28785 0.4902,-0.0475 0.7343,-0.1995 0.69254,-0.4275 -0.038,-0.1938 0.3059,-0.56335 0.75996,-0.82175 0.4541,-0.2584 0.89675,-0.70684 0.98377,-0.99754 0.0855,-0.2907 0.2679,-0.5282 0.40185,-0.5282 0.13395,0 0.2451,-0.18526 0.247,-0.41136 0.003,-0.41704 0.5339,-1.0773 2.08625,-2.6021 0.741,-0.72674 0.9196,-0.80084 1.29656,-0.532 0.48825,0.34866 0.31065,0.8246 -0.24035,0.64316 -0.51965,-0.171 -0.7201,1.30126 -0.22135,1.61476 0.3344,0.209 0.3306,0.3382 -0.019,0.9253 -0.2261,0.3743 -0.66405,0.7144 -0.9728,0.75525 -0.63645,0.0855 -0.72005,-0.15105 -0.2185,-0.6175 0.1881,-0.1748 0.004,-0.1159 -0.4009,0.1292 -0.40945,0.2451 -0.74761,0.51965 -0.75235,0.60895 -0.004,0.0855 -0.50066,0.6498 -1.10286,1.24664 -0.60225,0.5966 -1.09435,1.16318 -1.09435,1.25894 0,0.095 -0.6156,0.74954 -1.36795,1.45302 l -1.36767,1.27875 z m 5.29611,-3.58032 c 0,-0.1634 0.24605,-0.43034 0.5472,-0.5909 0.4389,-0.23464 0.5472,-0.23464 0.5472,0.004 0,0.1634 -0.24605,0.4294 -0.5472,0.5909 -0.43985,0.2356 -0.5472,0.23466 -0.5472,-0.004 z m 3.15153,-5.33249 c -0.096,-0.133 -0.038,-0.2432 0.11495,-0.2432 0.1596,0 0.28975,-0.152 0.28975,-0.3382 0,-0.3724 0.4959,-0.72295 0.7334,-0.5187 0.0855,0.0665 -0.1007,0.40185 -0.4066,0.7353 -0.32395,0.3534 -0.6289,0.50635 -0.7315,0.36385 z m 1.22541,-1.62412 c 0,-0.114 0.3078,-0.38095 0.68395,-0.59185 0.7467,-0.4199 0.874,-0.25555 0.30305,0.3895 -0.38285,0.43225 -0.987,0.5567 -0.987,0.20235 z m 5.47123,-1.09487 c 0,-0.3838 0.9006,-1.53468 1.37071,-1.75033 0.8417,-0.38665 0.6973,0.28025 -0.24985,1.15035 -0.75235,0.6907 -1.12142,0.8883 -1.12142,0.5995 z m -4.1808,-0.4855 c -0.2679,-0.23085 0.3173,-1.02904 0.7552,-1.02904 0.6099,0 0.7752,0.456 0.22895,0.62985 -0.27265,0.0855 -0.56615,0.24605 -0.65165,0.35435 -0.0855,0.1083 -0.23465,0.1292 -0.3325,0.0475 z m 3.27313,-0.9386 c 0.076,-0.1786 0.31635,-0.3249 0.5272,-0.3249 0.5681,0 0.4598,0.3971 -0.14535,0.53295 -0.36955,0.0855 -0.48255,0.019 -0.38095,-0.20805 z m 1.45487,-3.3487 c 0,-0.11306 0.2052,-0.35056 0.45506,-0.5282 0.4123,-0.2926 0.42464,-0.2736 0.12634,0.20614 -0.33914,0.54626 -0.58234,0.6802 -0.58234,0.32206 z m 6.01844,-0.8455 c 0,-0.10546 0.5567,-0.77236 1.23728,-1.48162 1.41318,-1.47284 1.39921,-2.04834 -0.019,-0.6432 -0.51204,0.5083 -1.0051,0.8598 -1.0963,0.78094 -0.17574,-0.15104 0.5263,-0.93769 1.98508,-2.22618 0.8721,-0.77044 1.44547,-0.98818 1.44547,-0.55004 0,0.1254 0.1843,0.16624 0.4104,0.095 0.22515,-0.076 0.4104,-0.019 0.4104,0.10734 0,0.39616 -0.84071,0.99808 -1.15877,0.82936 -0.1748,-0.095 -0.21374,-0.0476 -0.0969,0.1178 0.1178,0.16244 -0.47024,0.85404 -1.46218,1.71888 -0.912,0.79514 -1.65885,1.35954 -1.65885,1.25418 z m -3.00922,-2.22096 c 0,-0.12065 0.1235,-0.28595 0.2736,-0.36575 0.15106,-0.076 0.2736,0.019 0.2736,0.22135 0,0.2014 -0.12254,0.36575 -0.2736,0.36575 -0.15104,0 -0.2736,-0.0988 -0.2736,-0.22135 z m 6.75555,-2.81722 c 0.16245,-0.53296 0.2508,-0.58426 0.475,-0.27456 0.0855,0.114 -0.0285,0.33156 -0.23655,0.4826 -0.3154,0.2242 -0.3591,0.1862 -0.23845,-0.20804 z m 1.61333,-0.1311 c 0.24606,-0.323 0.5624,-0.5871 0.703,-0.5871 0.30116,0 -0.62984,1.15558 -0.93954,1.1665 -0.1159,0.004 -0.009,-0.2565 0.23654,-0.5795 z m -3.18098,-0.076 c 0.1805,-0.30116 0.4028,-0.48356 0.494,-0.4047 0.095,0.076 -0.057,0.3249 -0.32774,0.54814 -0.4731,0.3876 -0.47976,0.38096 -0.16626,-0.14344 z m 3.01892,-0.94246 c 0,-0.2261 1.56099,-1.67788 1.80362,-1.67788 0.0855,0 -0.23275,0.42274 -0.7096,0.93954 -0.8797,0.953 -1.0944,1.09806 -1.0944,0.73916 z m 2.05195,-0.7391 c 0.095,-0.1292 0.29165,-0.23464 0.4427,-0.23464 0.1501,0 0.1976,0.10544 0.10355,0.23464 -0.095,0.1292 -0.29165,0.23466 -0.4427,0.23466 -0.15105,0 -0.1976,-0.10546 -0.1045,-0.23466 z m 1.0944,-0.93954 c 0.2717,-0.2584 0.54145,-0.47026 0.59845,-0.47026 0.057,0 -0.0285,0.21186 -0.1881,0.47026 -0.1615,0.2584 -0.43035,0.4693 -0.59945,0.4693 -0.16815,0 -0.0855,-0.2109 0.18905,-0.4693 z m -48.93863,33.712256 c -0.5643,-1.15956 -0.77424,-1.07634 -0.23844,0.095 0.23654,0.51776 0.48065,0.8987 0.54145,0.8474 0.057,-0.0475 -0.076,-0.47594 -0.3021,-0.94144 z m 11.323,-0.1558 c 0,-0.1368 -0.1235,-0.18334 -0.2736,-0.10354 -0.15104,0.076 -0.2736,0.1919 -0.2736,0.24794 0,0.057 0.12256,0.10356 0.2736,0.10356 0.15106,0 0.2736,-0.1121 0.2736,-0.24796 z m -6.6291,-2.63079 c 2.10573,-2.481346 3.88474,-4.435686 5.19826,-5.711016 0.63646,-0.61844 1.15724,-1.21352 1.15724,-1.32305 0,-0.10926 0.4921,-0.6384 1.0944,-1.1762 0.60226,-0.5377 1.09436,-1.09958 1.09436,-1.24958 0,-0.14916 0.5225,-0.75716 1.16246,-1.351 1.11778,-1.03721 1.73371,-1.66164 3.40224,-3.44912 1.00923,-1.081 1.96902,-2.03157 2.85997,-2.8329 0.3971,-0.3572 0.76665,-0.75814 0.8208,-0.89114 0.057,-0.133 0.7277,-0.80086 1.49687,-1.48533 0.7695,-0.684 1.63177,-1.56075 1.91724,-1.94807 0.5947,-0.8066 1.46704,-1.70558 2.83927,-2.9232 0.5263,-0.4674 1.50418,-1.47578 2.1726,-2.24081 0.66875,-0.7657 2.08425,-2.22508 3.14611,-3.24401 1.06182,-1.01868 2.1766,-2.15137 2.47756,-2.51626 0.79035,-0.95894 2.43,-2.53665 4.8705,-4.68508 1.70844,-1.50465 2.29416,-1.87952 2.9356,-1.87952 0.6118,0 1.2549,-0.36765 2.72108,-1.55448 1.05602,-0.855 1.92,-1.62854 1.92,-1.71907 0,-0.17956 -1.64402,-1.03295 -2.73562,-1.4193 -0.3762,-0.133 -0.93005,-0.55766 -1.23116,-0.94336 -0.30114,-0.3857 -0.62604,-0.7011 -0.722,-0.70204 -0.0959,-4.9e-4 -0.77134,-0.4237 -1.49962,-0.9396 -0.72864,-0.5168 -1.43179,-0.9386 -1.56374,-0.9386 -0.27645,0 -7.56666,6.42941 -7.97734,7.03541 -0.38665,0.57095 -3.65669,3.70495 -6.61328,6.3394 -1.38054,1.22972 -2.79162,2.55298 -3.13572,2.9401 -0.6773,0.76286 -3.69497,3.8258 -4.79849,4.87127 -0.37525,0.3553 -0.79415,0.6451 -0.93191,0.6451 -0.13774,0 -0.24984,0.1539 -0.24984,0.342 0,0.1881 -0.4921,0.7866 -1.0944,1.32933 -0.60226,0.54246 -1.09436,1.0755 -1.09436,1.1838 0,0.10735 -0.095,0.20045 -0.2052,0.20615 -0.11304,0.004 -0.75904,0.65365 -1.43635,1.44157 -0.67735,0.78756 -1.60355,1.76026 -2.05927,2.16173 -0.456,0.40185 -1.62511,1.66844 -2.59909,2.81566 -0.97376,1.14703 -2.17052,2.45161 -2.65939,2.89897 -0.48925,0.44745 -0.88916,0.8683 -0.88916,0.9348 0,0.0665 -0.36954,0.4826 -0.8208,0.9234 -1.1977,1.17078 -1.07914,1.42586 0.8208,1.76263 1.4926,0.26505 1.6407,0.34485 1.63272,0.88925 -0.009,0.57665 -0.5491,1.42005 -0.9101,1.42005 -0.0969,0 -0.17574,-0.24984 -0.17574,-0.5548 0,-0.44079 -0.25176,-0.63744 -1.22659,-0.95683 -0.67451,-0.2204 -1.43057,-0.36765 -1.68013,-0.3249 -0.5377,0.095 -2.92534,2.91973 -3.7239,4.4127 l -0.56146,1.04937 0.7923,0.47595 c 1.49013,0.896796 3.39407,2.813946 3.67831,3.704196 0.1539,0.4845 0.4294,0.87874 0.61175,0.87684 0.1824,-0.002 0.98012,-0.7676 1.77266,-1.70182 z m 11.82679,0.63556 c 0,-0.2014 -0.1235,-0.30116 -0.2736,-0.22136 -0.15105,0.076 -0.2736,0.2451 -0.2736,0.36576 0,0.1216 0.12255,0.22134 0.2736,0.22134 0.15105,0 0.2736,-0.1653 0.2736,-0.36574 z m -0.92055,-2.61455 c -0.1121,-0.0969 -0.31825,-0.019 -0.4579,0.17006 -0.42085,0.57094 -0.29545,0.8256 0.1995,0.40184 0.2546,-0.2185 0.37145,-0.47594 0.25935,-0.5719 z m -22.67469,-3.667896 c 0,-0.3002 0.3534,-1.01299 0.78465,-1.58478 0.43225,-0.5719 0.97974,-1.38691 1.21838,-1.81184 0.5614,-1.00126 2.87213,-3.16926 8.93827,-8.38884 2.70488,-2.3274 5.01338,-4.49307 5.12956,-4.81236 0.1159,-0.3192 0.5339,-0.91866 0.9272,-1.3319 1.92361,-2.01938 3.04048,-3.31422 3.04048,-3.52532 0,-0.1273 0.3078,-0.51774 0.68395,-0.8664 0.3762,-0.34864 0.684,-0.7429 0.684,-0.87684 0,-0.2622 0.66595,-1.06092 2.18875,-2.62272 0.5263,-0.54054 1.19981,-1.3906 1.49592,-1.88992 0.2964,-0.4988 0.6973,-0.95918 0.8892,-1.02264 0.19285,-0.0664 0.3496,-0.37144 0.3496,-0.684 0,-0.3135 0.18525,-0.62984 0.4123,-0.7049 0.34865,-0.11494 1.21842,-0.99312 5.05751,-5.10429 0.43795,-0.47025 0.9652,-0.95736 3.90051,-3.61233 1.01536,-0.9187 1.84733,-1.75565 1.84856,-1.85977 8.4e-4,-0.1045 0.56715,-0.665 1.25699,-1.24583 0.6897,-0.58045 1.37104,-1.24117 1.5124,-1.46708 0.31445,-0.5026 1.2911,-0.5406 1.50665,-0.057 0.0855,0.1938 0.3667,0.3515 0.62031,0.3515 0.2546,0 0.59754,0.1159 0.7619,0.2565 0.38854,0.3325 1.45193,-0.12635 1.45193,-0.62605 0,-0.1938 -0.98411,-1.22056 -2.18695,-2.28072 l -2.1869,-1.92745 -8.5e-4,1.10133 c -8.4e-4,0.6061 -0.1197,1.16365 -0.26315,1.24018 -0.29925,0.15865 -0.94045,-0.8313 -1.21348,-1.87203 -0.29355,-1.12138 -1.03602,-2.17387 -1.72154,-2.44206 -0.5282,-0.20615 -0.63266,-0.17955 -0.6336,0.15864 -6.7e-4,0.22326 -0.7087,0.90066 -1.57316,1.50514 -0.8645,0.6042 -1.94678,1.39736 -2.40488,1.76206 -0.45884,0.36385 -2.12006,1.55587 -3.69322,2.64694 -3.04816,2.11437 -3.62054,2.58861 -6.82679,5.65806 l -4.63585,4.43678 c -1.42116,1.35983 -5.50986,5.00303 -9.08594,8.09552 -3.57589,3.09272 -6.45135,5.6666 -6.38932,5.71962 0.1729,0.1482 2.05594,-0.90536 2.05594,-1.15017 0,-0.11874 0.14915,-0.21564 0.3306,-0.21564 0.18145,0 0.79515,-0.3895 1.36272,-0.86455 0.5681,-0.47596 1.10224,-0.8056 1.18779,-0.7315 0.1767,0.15104 -3.01715,2.85014 -5.47983,4.63129 -0.91106,0.65935 -2.03979,1.25243 -2.53683,1.33385 -1.57155,0.2565 -3.27998,2.21778 -5.19333,5.96063 -0.53289,1.04339 -0.59559,1.13962 -1.50266,2.30779 -0.41324,0.53295 -0.75235,1.12119 -0.75235,1.30644 0,0.18525 0.60131,0.71535 1.33575,1.17828 1.88931,1.19002 3.09225,2.40516 4.24493,4.2875 0.69255,1.13112 1.22845,1.71024 1.74463,1.88551 1.14152,0.3876 1.36035,0.34864 1.36035,-0.2432 z m 2.94082,-2.41347 c 0.30115,-0.35625 1.14703,-1.26735 1.88019,-2.02431 0.7334,-0.7562 1.25367,-1.4441 1.15668,-1.52732 -0.38286,-0.32774 -5.36214,4.84544 -5.36214,5.57113 0,0.28596 1.41816,-0.94524 2.32556,-2.0195 z m 17.93766,0.25934 c 1.67077,-1.51434 4.99975,-5.0111 5.41951,-5.69258 0.81415,-1.32097 -0.71815,-0.1273 -3.54122,2.75809 -4.44063,4.53999 -5.53441,6.249 -1.87829,2.93469 z m -29.73984,-6.56905 c 1.05483,-1.7973 0.4237,-1.71722 -1.07364,0.1368 -0.63365,0.78375 -0.70015,0.98766 -0.37715,1.15852 0.48545,0.2584 0.5985,0.15676 1.4506,-1.29494 z m 33.27707,-16.2468 c 0,-0.2337 1.98288,-2.53014 2.34493,-2.71454 0.38,-0.1938 1.48499,-1.64079 1.48499,-1.94526 0,-0.4104 -1.47796,1.0372 -2.88268,2.82335 -0.81414,1.03483 -1.72667,2.14577 -2.0282,2.46848 -0.8578,0.91869 -0.6536,1.1316 0.2603,0.27265 0.45125,-0.4237 0.82076,-0.83125 0.82076,-0.9044 z m -14.20644,-3.40039 c 0.2964,-0.2166 0.43415,-0.44934 0.3059,-0.5187 -0.35245,-0.18714 -2.15408,1.36563 -2.0112,1.73394 0.0855,0.22896 0.27265,0.1577 0.64505,-0.2508 0.2869,-0.31444 0.76375,-0.7486 1.06091,-0.96462 z m 20.2027,-3.47334 c 1.73151,-1.94807 2.07627,-2.50657 1.07696,-1.74458 -0.6925,0.5282 -2.96998,3.15742 -2.96998,3.42865 0,0.38284 0.26695,0.14534 1.89302,-1.68407 z m -18.41275,-0.1311 c 0.65829,-0.8626 0.2755,-0.97299 -0.4294,-0.1235 -0.3268,0.3952 -0.46646,0.7182 -0.3097,0.7182 0.1577,0 0.49015,-0.26695 0.73905,-0.59375 z m 44.38669,-0.94335 c 0.0855,-0.38285 0.038,-0.39995 -0.342,-0.1273 -0.52245,0.3724 -0.588,0.8075 -0.0998,0.66785 0.1881,-0.057 0.3876,-0.2964 0.44175,-0.5396 z m 19.634835,-1.0583 c 0.88154,-0.78285 1.60316,-1.53943 1.60316,-1.6826 0,-0.4883 -0.6061,-0.43414 -1.17762,0.10356 a 2603.2404,2233.8822 0 0 1 -1.54312,1.44984 c -0.92906,0.87305 -1.24873,1.55164 -0.72956,1.55164 0.13395,0 0.96478,-0.6403 1.84638,-1.42225 z m -6.5647,-0.34105 c 0.0855,-0.1957 -0.009,-0.52824 -0.2128,-0.7401 -0.63934,-0.6612 -3.20021,-2.19126 -3.6668,-2.19126 -0.6004,0 -0.36196,0.52534 0.3857,0.8474 0.88915,0.3838 1.97566,1.30738 2.24717,1.91044 0.27075,0.6014 1.01037,0.704 1.24787,0.1729 z m -36.149525,-0.5843 c 0.095,-0.1292 0.0475,-0.23464 -0.1045,-0.23464 -0.15105,0 -0.3496,0.10544 -0.4427,0.23464 -0.095,0.1292 -0.0475,0.23466 0.1045,0.23466 0.15105,0 0.3496,-0.10546 0.4427,-0.23466 z m -16.93622,-0.87874 c -0.19,-0.1634 -0.70865,0.16814 -0.70865,0.4522 0,0.1558 0.15675,0.13774 0.41705,-0.0475 0.22895,-0.1634 0.361,-0.3458 0.29165,-0.4047 z m 0.9615,-0.70586 c 0.2337,-0.2261 1.44671,-1.20308 2.69638,-2.17136 4.72981,-3.66539 7.94385,-6.70676 7.94385,-7.51726 0,-0.23845 0.2147,-0.49681 0.4788,-0.57475 0.54815,-0.16245 1.7775,-1.71047 1.63975,-2.06492 -0.0959,-0.247 -0.8882,0.4351 -4.56897,3.93552 a 1028.0321,882.17067 0 0 1 -3.84817,3.63874 c -0.8949,0.83885 -2.00854,1.97476 -2.47518,2.52358 -0.46645,0.54819 -0.94615,0.99755 -1.06575,0.99755 -0.1197,0 -0.54621,0.36954 -0.94806,0.82174 -0.7429,0.836 -0.62605,1.16023 0.14725,0.41136 z m 55.106015,-0.53864 0.798,-0.7144 -0.95209,-0.63275 c -0.52345,-0.34865 -2.39091,-1.84899 -4.14979,-3.33479 -1.75921,-1.48584 -3.52018,-2.96547 -3.91385,-3.28838 -0.3933,-0.32204 -1.90908,-1.68525 -3.36767,-3.02779 -3.04227,-2.80065 -5.411045,-4.2189 -13.552775,-8.11566 -1.51083,-0.72295 -1.40871,-0.3572 0.23275,0.8303 0.60225,0.43605 2.44824,1.86177 4.10348,3.16944 1.65494,1.30739 3.1576,2.41979 3.33905,2.47195 0.33535,0.0969 1.23671,0.68875 3.040905,1.99946 0.55285,0.40185 1.3935,0.9006 1.86645,1.10837 1.064,0.46645 10.21897,8.30951 10.21897,8.75391 0,0.17766 0.12635,0.323 0.28025,0.323 0.1539,0 0.3971,0.2641 0.54055,0.5871 0.33535,0.75716 0.54815,0.7391 1.51624,-0.1273 z m -16.040075,-0.55006 c 0.2565,-0.26504 -0.2641,-0.65554 -2.77053,-2.08111 -4.71642,-2.6819 -5.36945,-3.00566 -5.55185,-2.7524 -0.35245,0.49026 6.59238,5.14189 7.69832,5.15566 0.1691,0.002 0.4503,-0.1425 0.62411,-0.32206 z m 24.290105,-0.75909 c 0.5719,-0.5966 1.63301,-1.6265 2.359,-2.28855 1.43787,-1.31205 2.76659,-2.93993 2.55046,-3.12537 -0.3876,-0.3325 -1.42818,0.4009 -3.62605,2.55594 -3.03687,2.97697 -3.15324,3.11784 -2.95023,3.57194 0.2584,0.57856 0.54815,0.4541 1.66682,-0.71349 z m -16.60552,-0.51205 c 0,-0.10355 -1.50779,-1.45246 -3.35122,-2.99725 -1.84304,-1.54456 -3.854615,-3.28183 -4.469785,-3.86066 -0.6156,-0.57856 -1.90699,-1.6863 -2.86971,-2.46074 -0.96278,-0.7752 -2.3903,-2.04639 -3.17215,-2.82591 -0.7818,-0.77996 -2.73837,-2.36408 -4.34772,-3.52161 l -4.96722,-3.57057 c -1.12233,-0.80755 -2.203,-1.46742 -2.40155,-1.46742 -0.4712,0 -1.82614,1.38524 -1.62578,1.66331 0.0855,0.11875 0.5928,0.2147 1.12846,0.2147 0.6897,0 1.26283,0.2109 1.96683,0.72295 1.67775,1.22084 6.02153,4.69656 8.25003,6.60107 1.16338,0.99418 2.43804,1.87711 2.83228,1.96223 0.43036,0.095 0.71721,0.31825 0.71721,0.56335 0,0.22515 0.3382,0.72295 0.7524,1.10599 2.55502,2.36621 3.49533,3.18008 5.348165,4.62868 2.80087,2.19042 6.20985,3.96953 6.20985,3.2414 z m 1.7738,-1.51316 c -0.5643,-0.5491 -1.47132,-1.36743 -2.01548,-1.81954 -0.54434,-0.4522 -1.44699,-1.26707 -2.00635,-1.81141 -0.55955,-0.54436 -1.50295,-1.25344 -2.09689,-1.5751 -0.59465,-0.32206 -1.15942,-0.6954 -1.25613,-0.82936 -0.0969,-0.1349 -0.304,-0.24414 -0.46075,-0.24414 -0.33725,0 8.27863,7.26654 8.62367,7.27282 0.13015,0.002 -0.22515,-0.4446 -0.78845,-0.99314 z m 9.44224,0.5301 c 0,-0.4579 -2.49271,-3.06066 -4.3768,-4.56946 -4.58968,-3.67521 -7.99804,-6.20216 -9.67907,-7.17572 -0.69636,-0.4028 -1.39261,-0.9367 -1.54803,-1.18532 -0.15484,-0.24795 -0.41894,-0.4522 -0.58705,-0.4522 -0.1672,0 -0.69445,-0.34295 -1.17125,-0.76285 -0.689655,-0.60705 -3.507445,-2.39234 -4.269815,-2.70536 -0.0855,-0.0285 1.08428,1.02068 2.60124,2.34749 3.204625,2.80212 8.448435,6.95472 9.596985,7.60009 0.437,0.2451 1.291,0.9139 1.89938,1.48533 0.60795,0.5719 1.45821,1.31109 1.88931,1.64312 0.4313,0.33156 1.72359,1.36824 2.87271,2.30238 1.95467,1.58973 2.77239,2.02397 2.77239,1.47259 z m 2.4593,-1.99472 0.92525,-0.81894 -0.64499,-0.589 c -0.3553,-0.3249 -0.9215,-0.58996 -1.2598,-0.58996 -0.33725,0 -1.50779,-0.5282 -2.59967,-1.17382 -1.09227,-0.64504 -2.21003,-1.17391 -2.48421,-1.17391 -0.27454,0 -0.4987,-0.15866 -0.4987,-0.35246 0,-0.37524 -5.12292,-3.71254 -8.55042,-5.57036 -2.33164,-1.26379 -2.93897,-1.5049 -2.93897,-1.16603 0,0.25745 2.58091,1.92517 2.97915,1.92517 0.13395,0 0.71816,0.361 1.29889,0.8018 2.60699,1.97946 5.26694,3.89276 5.41172,3.89276 0.0855,0 0.38285,0.18526 0.65735,0.41136 0.2736,0.2261 1.50504,1.22009 2.73596,2.20923 1.2302,0.98885 2.23706,1.90042 2.23706,2.02535 0,0.25935 1.08642,0.95788 1.51928,0.97641 0.1577,0.01 0.7049,-0.35625 1.21296,-0.80655 z m -33.549325,-3.53024 c -0.0855,-0.1976 -0.42275,-0.47596 -0.74385,-0.61846 -0.53675,-0.2394 -0.5301,-0.2109 0.076,0.35816 0.76285,0.71154 0.88725,0.76094 0.66405,0.2603 z m 13.44553,-1.75432 c -0.095,-0.1292 -0.22324,-0.23465 -0.28974,-0.23465 -0.0665,0 -0.12066,0.10545 -0.12066,0.23465 0,0.1292 0.1311,0.23465 0.28976,0.23465 0.159595,0 0.212795,-0.10545 0.12064,-0.23465 z m -25.40855,-0.93955 c 0.65355,-0.51775 1.74463,-1.17202 2.42431,-1.45559 0.6802,-0.2831 1.23576,-0.5871 1.23576,-0.67545 0,-0.3249 -1.41788,-0.94625 -1.99724,-0.875 -0.3477,0.0475 -0.7543,0.3667 -0.97526,0.7771 -0.20806,0.3876 -0.71911,1.0213 -1.13511,1.40861 -0.7448,0.6935 -1.31105,1.76083 -0.93385,1.76083 0.1064,0 0.7277,-0.4237 1.38168,-0.9405 z m 51.522905,0.59945 c 0.18145,-0.18715 0.2888,-0.4902 0.23845,-0.6726 -0.0475,-0.1824 -1.2607,-1.17411 -2.69002,-2.20343 -1.42942,-1.02947 -3.52203,-2.59089 -4.65049,-3.47031 -1.1284,-0.87974 -2.54443,-1.98174 -3.14593,-2.44943 -0.6023,-0.4674 -1.46347,-1.0943 -1.91514,-1.39251 -0.45125,-0.2983 -1.43612,-1.04343 -2.18819,-1.65599 -0.7524,-0.61275 -1.96806,-1.50613 -2.70151,-1.98512 -1.29323,-0.84455 -7.47279,-5.73449 -10.002585,-7.91531 -2.05372,-1.77075 -4.1203,-2.99511 -4.1203,-2.44163 0,0.0664 0.52345,0.56904 1.16276,1.11525 0.63934,0.54624 1.76286,1.57452 2.49636,2.28484 3.086735,2.98818 13.087195,11.50265 13.510315,11.50265 0.13586,0 0.87586,0.5548 1.6446,1.23253 1.81995,1.60384 2.69458,2.28878 2.92229,2.28878 0.1007,0 0.50065,0.323 0.8873,0.71726 0.65355,0.6669 2.81399,2.07285 4.83042,3.14416 0.4731,0.25175 0.97332,0.6175 1.11202,0.81415 0.4541,0.64315 1.49373,1.42842 1.89083,1.42842 0.21375,0 0.53766,-0.1539 0.7191,-0.34105 z m -4.37385,-0.25365 c -0.1919,-0.1976 -1.16071,-0.9025 -2.15351,-1.56665 -0.99308,-0.66405 -2.28537,-1.58455 -2.87175,-2.04625 l -1.06609,-0.8398 1.05393,1.2996 c 1.12875,1.3917 4.02966,3.4741 4.87326,3.49804 0.4294,0.019 0.456,-0.038 0.16435,-0.34485 z m -51.611675,-3.84793 c 0.96491,-1.4099 -0.057,-0.6916 -1.96931,1.39066 -1.06936,1.16213 -1.94455,2.18861 -1.94455,2.28095 0,0.27835 3.38162,-2.89347 3.91386,-3.67133 z m 12.63694,1.86024 c -0.48735,-0.4617 -0.684,-0.56814 -0.684,-0.3686 0,0.15105 0.836,0.83885 1.01935,0.83885 0.0855,0 -0.0665,-0.2109 -0.33535,-0.4693 z m 29.293575,-0.2128 c -0.25935,-0.247 -2.15075,-1.69902 -4.20185,-3.22796 -2.05101,-1.52864 -5.28642,-4.09996 -7.19026,-5.71386 -4.459535,-3.78067 -8.016905,-6.72291 -9.520135,-7.87403 l -1.19315,-0.91395 -0.8189,0.7866 -0.81885,0.7876 1.95376,1.61148 c 1.07493,0.88635 2.11788,1.61144 2.31824,1.61144 0.1995,0 2.393,1.45264 4.87298,3.22782 2.4803,1.7754 6.023615,4.28407 7.874305,5.57545 1.85065,1.29124 4.05431,2.84278 4.89696,3.44821 1.56318,1.12333 2.76726,1.57202 1.82766,0.6812 z m -32.934825,-2.66242 -1.99543,-1.70183 -0.52815,0.5491 c -0.5244,0.5453 -0.52345,0.5529 0.0855,0.99645 0.94805,0.6935 2.5611,1.56912 3.11714,1.69224 1.28768,0.285 1.1847,0.0475 -0.6764,-1.53624 z m 48.587875,1.1856 c 0.68875,-0.59185 0.6156,-0.65455 -2.6125,-2.23944 -0.63935,-0.31444 -1.16275,-0.47784 -1.16275,-0.3629 0,0.33726 2.74901,2.88373 3.11315,2.88373 0.18335,0 0.4816,-0.1273 0.6621,-0.28215 z m -15.98622,-3.02228 c -1.63433,-1.40686 -3.05178,-2.5593 -3.14934,-2.56139 -0.0978,-0.002 -0.60705,-0.34675 -1.13088,-0.76665 -0.52435,-0.4199 -1.67499,-1.34402 -2.55778,-2.05404 -0.88255,-0.70966 -1.9447,-1.5143 -2.36022,-1.78743 -0.41516,-0.27265 -1.11507,-0.9073 -1.5552,-1.40871 -0.4408,-0.5016 -1.672615,-1.7042 -2.738945,-2.67244 -1.06675,-0.96838 -2.39794,-2.36346 -2.95882,-3.10038 -1.06452,-1.39896 -1.42961,-1.64074 -1.42961,-0.9481 0,1.52362 1.97377,4.00051 6.05459,7.59782 3.025935,2.66694 11.620065,9.12665 12.142945,9.12665 0.0997,0 0.6906,0.37525 1.31446,0.8322 0.64596,0.47405 1.17796,0.7182 1.23724,0.5662 0.057,-0.1463 -1.23391,-1.41807 -2.86844,-2.82459 z m -24.293855,2.57778 c 0.19,-0.26316 -1.80173,-2.17266 -2.70884,-2.5984 -0.87874,-0.4123 -0.2603,0.7363 1.00107,1.8573 1.18679,1.05545 1.41108,1.15302 1.70777,0.741 z m 42.119325,-1.63818 c 0.2147,-0.57856 -0.5301,-1.39171 -1.27324,-1.39171 -0.7486,0 -5.66337,-2.82169 -9.33033,-5.35671 -1.18046,-0.81606 -2.29486,-1.43944 -2.4766,-1.3852 -0.4085,0.12065 3.878,3.83548 5.50491,4.77009 4.17958,2.40127 6.79146,3.81667 7.07176,3.83207 0.17764,0.01 0.4047,-0.20046 0.5035,-0.46836 z m -7.42534,-0.836 c -1.3796,-1.52262 -5.14867,-4.62764 -6.94441,-5.72072 -0.95456,-0.58044 -2.4328,-1.5844 -3.28519,-2.23002 -0.8531,-0.6451 -2.77975,-2.04388 -4.28269,-3.10712 -1.50257,-1.06353 -3.46123,-2.59868 -4.35219,-3.41207 -1.87478,-1.71071 -4.657795,-4.50732 -4.985455,-5.00978 -0.32775,-0.5016 -1.14826,-0.1444 -1.14826,0.4997 0,0.323 0.3572,0.7961 0.8892,1.17639 0.96183,0.6878 5.040165,3.9395 8.548905,6.81663 1.20378,0.98705 3.05016,2.36331 4.10347,3.05905 2.22894,1.47183 4.4952,3.1538 7.9306,5.88558 1.35247,1.07549 2.56566,1.95543 2.69638,1.95543 0.13015,0 0.48355,0.2698 0.7866,0.59945 0.3021,0.32965 0.61271,0.54435 0.69061,0.47785 0.076,-0.0665 -0.2128,-0.513 -0.64691,-0.9908 z m -20.77384,0.285 c -0.57285,-0.3591 -0.8322,-0.32016 -0.54245,0.0855 0.0988,0.13774 0.38095,0.2508 0.627,0.2508 0.37335,0 0.36005,-0.057 -0.0855,-0.33346 z m -9.285435,-3.35802 c -3.1786,-2.63867 -6.80423,-5.2297 -7.31799,-5.2297 -0.47785,0 -1.57467,0.97916 -1.55767,1.3909 0.009,0.2033 0.3629,0.60514 0.78751,0.89204 1.02666,0.69446 7.59772,3.99984 9.23224,4.64413 0.47875,0.18905 0.94805,0.4503 1.0421,0.5814 0.095,0.1311 0.31825,0.23465 0.4978,0.228 0.17955,-0.004 -1.02809,-1.13373 -2.68332,-2.50734 z m 6.29199,-0.21755 c -1.70748,-1.33698 -7.99804,-5.48121 -8.31929,-5.48121 -0.3439,0 2.83527,2.5183 5.33805,4.22821 0.90345,0.61755 3.9938,2.34522 4.17506,2.3342 0.096,-0.004 -0.4408,-0.4921 -1.19382,-1.0812 z m 35.365785,-1.68829 c 0.64405,-0.85975 1.82879,-2.22956 2.63406,-3.04428 0.9481,-0.95916 1.52784,-1.7869 1.64517,-2.34768 0.37904,-1.81046 0.4845,-9.54066 0.15674,-11.4296 -0.17954,-1.03302 -0.3876,-2.33177 -0.46454,-2.88643 -0.0998,-0.73054 -0.32206,-1.11178 -0.80651,-1.38386 -0.36765,-0.20615 -0.6308,-0.54055 -0.5852,-0.7429 0.0855,-0.3914 -0.80655,-1.28345 -2.76963,-2.76284 -1.19805,-0.9025 -1.20592,-0.9044 -1.02086,-0.2641 0.1026,0.3553 0.11494,0.646 0.0284,0.646 -0.5548,0 -1.24939,-0.6118 -1.79441,-1.5808 -0.7248,-1.2881 -0.55285,-1.08119 -2.72412,-3.2901796 -0.9196,-0.9367 -1.53819,-1.70212 -1.37461,-1.70212 0.61746,0 0.25366,-0.56524 -1.07862,-1.67242 -1.47987,-1.23044 -2.14709,-1.42006 -2.37415,-0.67545 -0.076,0.2584 -0.28214,0.46835 -0.45314,0.4674 -0.17006,-8.5e-4 -0.63556,0.3382 -1.0336,0.75335 -0.59751,0.6242 -0.79511,0.70494 -1.12961,0.46645 -0.3325,-0.2375 -0.60324,-0.152 -1.50199,0.47885 -0.60321,0.42274 -1.79147,1.22606 -2.64166,1.7858 -0.85026,0.5605 -2.17631,1.6693 -2.94695,2.4652096 -0.77135,0.7961 -2.15127,1.96108 -3.06783,2.58979 -2.58391,1.77228 -4.81257,3.62753 -4.81257,4.00601 0,0.18905 0.3002,0.6213 0.6669,0.96073 0.3667,0.3401 1.18194,1.28483 1.81151,2.1005 0.62886,0.81605 1.40624,1.58527 1.72663,1.71019 0.32014,0.12445 1.01317,0.3933 1.54005,0.59665 0.78654,0.30305 0.84734,0.3724 0.342,0.3838 -0.99922,0.019 -0.74006,0.81035 0.57184,1.73204 0.65266,0.45885 2.40735,1.54484 3.89842,2.41247 1.49107,0.86736 2.8958,1.70754 3.12132,1.86638 1.42723,1.00486 6.56564,5.71472 6.56564,6.01806 0,0.9253 2.17146,2.64118 5.03657,3.97969 1.06343,0.49685 1.37104,0.3192 2.83598,-1.6369 z m -3.32319,-2.335 c -0.2299,-0.32016 0.2527,-1.59073 0.90244,-2.37382 0.3116,-0.37525 0.5662,-0.75525 0.5662,-0.84455 0,-0.0855 0.24606,-0.43035 0.5472,-0.7581 0.63265,-0.6897 0.72101,-1.28036 0.16436,-1.09691 -0.63556,0.209 -0.76476,-0.32206 -0.24416,-1.00045 0.76185,-0.99171 1.11259,-3.13894 0.88725,-5.43547 -0.17384,-1.77494 -0.36194,-2.31178 -1.45059,-4.15136 -1.05888,-1.78899 -1.21962,-2.23577 -1.04909,-2.91664 0.22135,-0.88445 0.6593,-1.14827 1.12109,-0.67545 1.20294,1.2313 2.31677,3.06379 2.9281,4.81759 0.3952,1.13364 0.96144,2.74793 1.25851,3.58706 0.38094,1.07683 0.55194,2.29819 0.58234,4.14841 0.038,2.32147 -0.019,2.69786 -0.52534,3.27641 -0.3116,0.3591 -0.94901,0.73815 -1.41441,0.8417 -0.56335,0.1254 -1.18347,0.5814 -1.84951,1.36011 -0.55099,0.64415 -1.10499,1.17187 -1.23029,1.17187 -0.1254,0 -0.4104,0.057 -0.6327,0.133 -0.2223,0.076 -0.4759,0.038 -0.5614,-0.0855 z m 5.50609,-7.76056 c 0.1406,-1.69303 -0.0475,-2.8527 -0.4522,-2.8527 -0.12824,0 -0.2451,1.12632 -0.2584,2.50292 -0.019,1.80642 0.057,2.43142 0.27456,2.24674 0.16434,-0.14154 0.36004,-0.99436 0.4351,-1.89696 z m -0.99915,-12.26245 c -0.36006,-0.12445 -0.5928,-0.2793 -0.5168,-0.3439 0.16054,-0.13775 1.58227,0.2907 1.58227,0.475 0,0.17005 -0.29546,0.133 -1.06547,-0.1311 z m -2.08055,-1.38866 c -0.095,-0.1292 0.009,-0.23465 0.2413,-0.23465 0.22514,0 0.4864,0.10545 0.5795,0.23465 0.095,0.12825 -0.01,0.23465 -0.2413,0.23465 -0.2261,0 -0.4864,-0.1064 -0.5795,-0.23465 z m -8.07011,21.36217 c -0.1615,-0.2584 -0.4864,-0.4693 -0.72295,-0.4693 -0.2584,0 -0.37145,-0.133 -0.2812,-0.3325 0.18335,-0.4104 -3.49889,-3.5626 -5.67122,-4.85587 -1.53666,-0.91486 -2.07873,-1.09906 -2.07873,-0.7068 0,0.4313 5.75277,5.04577 6.98876,5.60623 0.36196,0.1634 0.78751,0.5073 0.94711,0.76285 0.1596,0.25555 0.475,0.46455 0.70014,0.46455 0.32586,0 0.35056,-0.0969 0.1178,-0.4693 z m -12.58398,-2.20224 c 0,-0.1786 -0.46075,-0.6213 -1.02572,-0.98477 -0.5643,-0.36385 -1.12019,-0.7923 -1.23504,-0.95238 -0.44555,-0.62034 -5.2107,-4.44348 -5.97954,-4.79669 -1.88656,-0.86645 1.63604,2.49432 5.36783,5.12121 0.9025,0.63555 1.81065,1.33114 2.01699,1.54613 0.45696,0.475 0.855,0.50635 0.855,0.0665 z m 29.19719,-5.3724 c 0.74196,-1.49624 1.09702,-3.22396 0.6612,-3.22396 -0.16624,0 -0.37334,0.2907 -0.46074,0.646 -0.25746,1.05654 -0.608,2.23948 -0.9044,3.05182 -0.437,1.19834 0.0285,0.88446 0.70394,-0.4731 z m -35.48889,-2.0452 c 0,-0.53485 -4.41793,-3.52626 -5.20738,-3.52626 -0.51866,0 -0.2128,0.3648 0.98733,1.17397 a 164.12562,140.83881 0 0 1 2.46202,1.70173 c 1.25339,0.8873 1.75803,1.07369 1.75803,0.65075 z m 42.19913,-0.8303 c 2.27995,-1.17563 2.84967,-1.90133 2.52077,-3.20877 -0.26884,-1.06932 -1.043,-2.32113 -1.81207,-2.93103 -0.3534,-0.28026 -1.00387,-0.837 -1.44585,-1.23733 -0.44176,-0.4009 -0.9348,-0.69065 -1.0944,-0.646 -0.17006,0.0475 -0.32396,0.99854 -0.36956,2.28593 -0.057,1.61966 -0.1957,2.31335 -0.51864,2.61934 -0.34676,0.3287 -0.40566,0.72681 -0.2793,1.88885 0.17194,1.58004 0.39994,2.28845 0.73524,2.28845 0.11496,0 1.13445,-0.4769 2.26475,-1.05982 z m -7.18513,-1.51297 c 0.42274,-1.92095 0.0855,-3.78039 -0.86921,-4.82438 -0.96976,-1.05774 -1.14698,-0.4408 -0.7543,2.62537 0.1957,1.52702 0.37715,3.09325 0.40185,3.48065 0.076,1.11901 0.1254,1.19776 0.50255,0.77236 0.1957,-0.22136 0.5187,-1.14514 0.71915,-2.05343 z m -35.29768,-3.00253 c -0.019,-0.4256 -1.32206,-1.51401 -1.61903,-1.3564 -0.38855,0.20614 0.40755,1.06295 0.98743,1.06295 0.20234,0 0.36764,0.10545 0.36764,0.23465 0,0.1292 0.0665,0.23465 0.1368,0.23465 0.076,0 0.13206,-0.076 0.12636,-0.1767 z m 36.39387,-6.4865 c 0,-0.1786 -0.42274,-0.6004 -0.93954,-0.9386 -1.49592,-0.97907 -1.91055,-0.76475 -1.10528,0.57095 0.32015,0.532 0.60705,0.69255 1.23115,0.69255 0.51016,0 0.8132,-0.12065 0.8132,-0.3249 z M 118.94861,5.6599644 c 1.22626,-1.14152 1.50741,-1.729 0.6365,-1.32886 -0.28024,0.12825 -0.7286,0.5282 -0.99706,0.88825 -0.2698,0.361 -0.9025,0.95394 -1.40871,1.31912 -0.5054,0.3648 -1.05878,0.8873 -1.22902,1.1608 -0.42465,0.67926 1.43787,-0.5871 2.99858,-2.0396 z m 6.14123,-3.32937 c 0.26695,-0.228 -0.0988,-0.799 -0.51205,-0.799 -0.20995,0 -0.38095,0.038 -0.38095,0.0978 0,0.057 -0.076,0.266 -0.16625,0.4693 -0.1159,0.2603 -0.004,0.37145 0.3648,0.37145 0.29165,0 0.6042,-0.0665 0.69445,-0.1406 z M 1.6397946,134.9843 c 0,-0.4978 1.10566,-2.46221 1.38563,-2.46221 0.1273,0 0.31064,-0.36195 0.40754,-0.8056 0.0969,-0.44365 0.4104,-0.98814 0.69636,-1.21044 0.28594,-0.22135 0.51964,-0.65455 0.51964,-0.96149 0,-0.30686 0.18526,-0.61846 0.4104,-0.6935 0.2261,-0.076 0.4104,-0.35816 0.4104,-0.62986 0,-0.57474 0.77896,-2.47403 1.20988,-2.94875 0.1615,-0.1786 0.6023,-0.82745 0.97883,-1.442 1.46832,-2.39889 1.95895,-3.08575 2.11066,-2.9555 0.0855,0.076 -0.22895,0.8113 -0.70296,1.63628 -0.47404,0.8256 -0.8607,1.5761 -0.8607,1.66853 0,0.095 -0.38,0.8721 -0.84644,1.73204 -1.60593,2.96937 -3.60103,7.42017 -3.64263,8.12583 -0.0285,0.4959 -0.2432,0.79615 -0.71725,1.00173 -0.90531,0.3933 -1.3595,0.3743 -1.3595,-0.057 z m 8.4805004,-15.2561 c 0,-0.1938 0.1197,-0.35244 0.26506,-0.35244 0.14534,0 0.1938,0.15864 0.1083,0.35244 -0.0855,0.1938 -0.20616,0.3515 -0.26506,0.3515 -0.057,0 -0.1083,-0.1577 -0.1083,-0.3515 z"
     style="fill:#333333;stroke-width:0.2816"
     id="path1"
     inkscape:export-filename="../../pwp-fast/public/apple-touch-icon-180x180.svg"
     inkscape:export-xdpi="96"
     inkscape:export-ydpi="96" />
</svg>
