<?xml version="1.0" encoding="UTF-8" standalone="no"?>
<svg
   width="167.00002"
   height="167"
   version="1.1"
   id="svg1"
   sodipodi:docname="hand-drawn-pencil-icon copy.svg"
   xmlns:inkscape="http://www.inkscape.org/namespaces/inkscape"
   xmlns:sodipodi="http://sodipodi.sourceforge.net/DTD/sodipodi-0.dtd"
   xmlns="http://www.w3.org/2000/svg"
   xmlns:svg="http://www.w3.org/2000/svg">
  <defs
     id="defs1" />
  <sodipodi:namedview
     id="namedview1"
     pagecolor="#ffffff"
     bordercolor="#000000"
     borderopacity="0.25"
     inkscape:showpageshadow="2"
     inkscape:pageopacity="0.0"
     inkscape:pagecheckerboard="0"
     inkscape:deskcolor="#d1d1d1" />
  <path
     d="m 1.2008644,166.39533 c 0,-0.60851 1.2605,-2.30514 2.21102,-2.9767 0.3319,-0.23485 0.44045,-0.54693 0.31312,-0.90286 -0.2745,-0.76612 -0.24006,-0.76194 -1.52864,-0.19831 -1.92650002,0.84336 -2.95988002,-0.13256 -1.52633002,-1.44165 0.36947002,-0.33713 0.82454002,-1.21514 1.01240002,-1.95089 0.18787,-0.73585 0.68782,-2.38249 1.11219,-3.65901 1.13192,-3.40862 2.01324,-6.51851 2.01324,-7.10291 0,-0.28182 0.1242,-0.71393 0.27554,-0.96026 0.15134,-0.24633 0.44567,-0.84023 0.65441,-1.32015 0.20875,-0.48013 0.67946,-1.17966 1.04779,-1.5551 0.64398,-0.65653 2.53092,-3.64044 2.53092,-4.0021 0,-0.0939 0.25676,-0.66279 0.573,-1.25763 0.3141596,-0.59495 0.8036696,-1.77836 1.0854696,-2.62934 0.28181,-0.85067 0.6325,-1.65792 0.77966,-1.79266 0.14717,-0.13465 0.26719,-0.54694 0.26719,-0.91538 0,-0.36845 0.12734,-0.78074 0.28285,-0.91538 0.15656,-0.13465 0.43628,-0.76717 0.62206,-1.40574 0.74313,-2.54793 0.74,-2.39492 0.0418,-2.20349 -0.78697,0.21397 -0.85481,-0.25885 -0.15969,-1.11088 0.94979,-1.16275 2.21436,-3.53094 2.2177,-4.15229 0.003,-0.49161 0.0835,-0.56363 0.3653,-0.32252 0.5156,0.4436 0.9383,0.38201 0.72121,-0.10438 -0.17534,-0.39245 0.19518,-1.94088 0.73374,-3.06803 0.13568,-0.28391 0.41227,-0.97697 0.6137,-1.54018 0.20144,-0.56363 1.0145,-2.13032 1.80554,-3.4823 0.79114,-1.35126 1.67256,-3.08526 1.95885,-3.85337 0.28598,-0.76821 0.83498,-1.92856 1.22001,-2.57913 0.38513,-0.65027 0.70033,-1.33122 0.70033,-1.51315 10e-4,-0.28703 0.99154,-2.51588 1.80293,-4.05407 0.14925,-0.28391 0.84124,-1.73453 1.53635,-3.22429 0.69512,-1.489126 1.35434,-2.765656 1.46351,-2.836736 0.10959,-0.0731 0.43105,-0.6346 0.71495,-1.25251 0.28285,-0.61791 0.70451,-1.28508 0.93413,-1.48287 1.0385,-0.89138 2.230008,0.0522 1.49753,1.19229 -0.51456,0.79639 -0.55317,1.23237 -0.0731,0.82039 0.1983,-0.17013 0.577168,-0.30999 0.842278,-0.30999 0.62728,0 2.52758,-1.68244 2.28314,-2.02146 -0.2912,-0.40393 1.07785,-2.40462 2.51296,-3.66997 0.71287,-0.62835 1.59679,-1.54968 1.96418,-2.0463 0.36739,-0.49683 1.09288,-1.29207 1.61192,-1.76813 0.51978,-0.47596 0.94457,-0.97592 0.94457,-1.11203 0,-0.2505 -2.48019,1.55625 -5.81081,4.23434 -1.94779,1.56627 -2.31424,1.7076 -2.88766,1.11484 -0.58553,-0.60538 0.21501,-1.5574 4.24272,-5.04795 6.27099,-5.43507 10.24277,-8.51115 10.98923,-8.51115 0.7828,0 3.98618,-2.62245 3.98618,-3.26269 0,-0.0939 0.55735,-0.69724 1.23879,-1.35105 3.04464,-2.92337 4.89537,-4.90151 5.45605,-5.83181 0.25572,-0.42586 0.88299,-1.17998 1.39149,-1.6766 a 96.405096,82.726734 0 0 0 1.75408,-1.77011 c 0.45611,-0.477 1.47185,-1.43392 2.25715,-2.12657 0.78488,-0.69201 1.42739,-1.40949 1.42739,-1.59351 0,-0.18474 0.61893,-0.91016 1.37604,-1.61334 0.7567,-0.7035 1.70471,-1.71386 2.10748,-2.24576 0.40288,-0.53232 0.84751,-0.96757 0.98841,-0.96757 0.14194,0 0.6064,-0.45299 1.03328,-1.00723 0.42688,-0.55424 1.25654,-1.4073 1.84332,-1.89589 0.58657,-0.48952 1.06678,-0.96339 1.06678,-1.05357 0,-0.167 0.39975,-0.61582 1.87839,-2.11111 0.45402,-0.45926 0.82662,-0.95087 0.82662,-1.0923 0,-0.14195 0.2244,-0.41646 0.49682,-0.6106 0.27345,-0.19414 1.03328,-0.97801 1.69061,-1.74058 l 1.19402,-1.38716 -0.48846,-0.87885 c -0.61684,-1.11025 -0.61475,-1.15899 0.13151,-2.61671 1.43083,-2.79718 2.0484,-3.62374 2.72974,-3.65275 0.64711,-0.0209 0.42584,1.00201 -0.51037,2.37195 -0.78697,1.15189 -0.98006,1.63912 -0.73165,1.84861 0.41435,0.34966 1.24035,-0.48222 1.00406,-1.00932 -0.30373,-0.67845 0.48428,-1.6193 3.57474,-4.26231 l 2.32823,-1.99192 -0.47907,-0.99679 c -0.26406,-0.54797 -0.77548,-1.34499 -1.13661,-1.77064 -0.36113,-0.42585 -0.81828,-1.09313 -1.01554,-1.48318 -0.32042,-0.63148 -0.29746,-0.70976 0.20665,-0.70976 0.64085,0 1.45714,1.06589 2.27511,2.97013 0.30372,0.70662 0.6471,1.38027 0.76296,1.49602 0.21918,0.21815 1.85771,-1.43183 2.18002,-2.19566 0.10437,-0.24111 0.61788,-0.63043 1.14757,-0.86528 1.29755,-0.57511 2.52423,-1.8795 2.52423,-2.68288 0,-0.43316 0.22962,-0.74316 0.67634,-0.91121 0.56778,-0.21397 0.6471,-0.39036 0.49263,-1.09626 -0.1409,-0.644 -0.0835,-0.84127 0.26302,-0.84127 0.24632,0 0.61579,0.17431 0.82141,0.38723 0.57613,0.59599 1.15654,0.46343 1.77077,-0.40289 0.67216,-0.94878 3.623798,-3.10853 5.292088,-3.87257 0.66171,-0.30269 1.67558,-0.92581 2.25443,-1.38434 1.89707,-1.50291 4.43007,-2.48801 4.01593,-1.56199 -0.0939,0.21293 -0.0418,0.38724 0.13255,0.38724 0.31103,0 0.89029,-0.57303 2.76408,-2.73789 1.20936,-1.39781 7.102,-6.5303003 9.85502,-8.5846403 1.02702,-0.76612 1.8667,-1.56574 1.8667,-1.77721 0,-0.21188 0.40287,-0.74525 0.89447,-1.18655 a 151.69459,130.17152 0 0 0 1.94549,-1.78755 l 1.05072,-0.98635 0.88716,0.44882 c 0.8809,0.44673 0.89447,0.44464 1.97253,-0.36741 1.20904,-0.9112 1.32928,-0.93834 2.36966,-0.53127 0.61579,0.24111 0.88612,0.18892 1.6927,-0.32253 0.77653,-0.49265 1.33158,-0.6085099988283 2.90938,-0.6085099988283 h 1.94988 L 141.87782,1.5475937 c 0.97379,0.85171 2.01271,1.73108 2.30798,1.95559 0.74939,0.56885 2.40265,2.17896 3.89694,3.79428 1.37803,1.48924 3.47288,3.1494503 5.35658,4.2445703 0.66172,0.3841 1.74344,1.10691 2.40474,1.6053 3.23365,2.43844 4.50219,3.41833 5.26734,4.06859 0.45819,0.39037 0.97588,0.70871 1.1482,0.70871 0.50098,0 2.93818,2.71326 3.76574,4.19207 1.16532,2.0822 1.25988,2.99413 0.42167,4.06263 -0.38931,0.49579 -1.31019,1.17298 -2.04768,1.5049 -2.01657,0.90807 -4.4738,2.81221 -4.6551,3.60776 -0.57822,2.53332 -0.92787,3.38388 -1.77088,4.29989 -0.52186,0.5678 -1.177,1.34217 -1.4562,1.72137 -0.27867,0.37889 -0.77339,0.76195 -1.09945,0.85067 -0.67007,0.18161 -2.08045,2.06905 -2.7047,3.61757 -0.22858,0.56781 -0.73374,1.4645 -1.12221,1.99359 -0.8068,1.09939 -0.88299,1.4883 -0.29224,1.4883 0.22857,0 0.59074,0.18161 0.80679,0.40498 0.33817,0.34966 0.13569,0.60225 -1.46621,1.82596 -1.02181,0.78177 -1.85824,1.63077 -1.85824,1.88764 0,0.2839 -0.29538,0.53128 -0.75148,0.62939 -0.59388,0.12734 -0.75148,0.32461 -0.75148,0.93939 0,0.61477 -0.21918,0.88824 -1.05176,1.31002 -0.57822,0.2933 -1.05207,0.63774 -1.05207,0.76508 0,0.12734 -0.17952,0.23171 -0.3987,0.23171 -0.21918,0 -0.71599,0.29017 -1.10457,0.64505 -0.8569,0.78282 -0.5563,0.83605 0.63041,0.11064 1.17491,-0.71811 2.19692,-0.57825 2.31789,0.3173 0.0731,0.54798 -0.27658,1.00201 -1.7284,2.24409 -1.00197,0.85693 -1.82098,1.73745 -1.82098,1.95695 0,0.22023 -0.20874,0.39976 -0.46445,0.39976 -0.57614,0 -1.7712,1.05472 -5.98981,5.2901 -0.98736,0.99158 -3.15183,3.02743 -4.80916,4.52429 -3.19221,2.88361 -7.09062,6.57184 -7.41626,7.0167 -0.1075,0.14612 -0.597,0.19727 -1.08808,0.11377 -0.82767,-0.14196 -1.17001,0.0835 -4.66584,3.13942 -2.07513,1.81072 -4.61241,4.15512 -5.63777,5.20953 -1.02597,1.05441 -2.89371,2.88694 -4.15056,4.07265 -1.25674,1.1854 -2.48019,2.40431 -2.71868,2.70804 -0.23902,0.30374 -1.39869,1.48089 -2.57841,2.61588 -1.17961,1.13499 -2.90468,2.88809 -3.833478,3.89637 -0.92891,1.00827 -1.86774,1.99473 -2.0865,2.19252 -0.21814,0.19727 -0.7901,0.880936 -1.27084,1.519616 -1.50296,1.99818 -3.55533,4.12672 -3.97908,4.12672 -0.2244,0 -0.40601,0.11273 -0.40601,0.2505 0,0.33923 -3.82158,5.14168 -4.70363,5.90999 -0.38931,0.33818 -0.7066,0.71602 -0.7066,0.83814 0,0.12317 -0.14507,0.22337 -0.32251,0.22337 -0.17743,0 -0.0418,-0.30582 0.30059,-0.67949 0.34235,-0.37367 0.62311,-0.77656 0.62311,-0.8945 0,-0.55111 -1.00511,0.23171 -2.4612,1.91645 -2.05175,2.37393 -2.13754,2.49459 -1.77349,2.49459 0.30685,0 0.57718,-0.22336 1.40412,-1.16077 0.40705,-0.46134 0.40705,-0.43525 0.005,0.25781 -0.77131,1.32527 -2.05738,2.82275 -4.12311,4.80068 a 537.33766,461.09794 0 0 0 -4.3423,4.22651 c -1.29379,1.27683 -3.00184,2.90155 -3.79507,3.61089 -0.79323,0.70976 -1.44284,1.42672 -1.44357,1.59466 -6.2e-4,0.16701 -0.25258,0.37263 -0.55839,0.45613 -0.30581,0.0835 -1.40109,0.95295 -2.43249,1.93179 -1.87536,1.77972 -2.20361,1.96259 -8.28088,4.61281 a 122.85115,105.42051 0 0 1 -3.45649,1.4407 c -2.42551,0.96026 -3.2347,1.40157 -6.45375,3.52072 -4.40564,2.90072 -5.15545,3.32939 -6.10837,3.49305 -1.25247,0.21502 -1.39034,-0.3935 -0.32773,-1.43872 0.48116,-0.47282 0.81202,-0.91434 0.73374,-0.98114 -0.2077,-0.17848 -2.60179,0.92686 -3.47351,1.60301 -0.41331,0.32148 -1.49565,0.954 -2.40473,1.40752 -0.90908,0.45403 -2.46485,1.27996 -3.45649,1.83681 -0.99153,0.55632 -2.81794,1.43215 -4.057668,1.94515 -1.23984,0.51249 -2.95321,1.32903 -3.80781,1.81281 -0.8548,0.48326 -1.62288,0.87989 -1.70669,0.87989 -0.0835,0 -1.00823,0.48744 -2.05341,1.08332 -1.04477,0.59599 -2.37301,1.221 -2.95144,1.38894 -0.65128,0.18892 -1.21374,0.58659 -1.47624,1.04407 -0.58448,1.01767 -1.48166,1.64163 -2.36173,1.64163 -0.81514,0 -2.7978,1.15044 -5.758,3.34182 -4.1467996,3.06887 -5.1607796,3.93843 -6.7064196,5.74977 -1.34306,1.57347 -2.33261,1.94547 -2.33261,0.87676 z m 35.9173476,-24.3661 c 1.15697,-0.65027 2.52268,-1.38142 3.03472,-1.62504 1.02703,-0.48848 3.25005,-1.81594 7.93823,-4.73951 0.45506,-0.28391 1.48563,-0.91747 2.29055,-1.40783 1.84227,-1.12288 1.5373,-0.91747 4.9965,-3.35841 1.61244,-1.13781 3.01896,-2.06863 3.12511,-2.06863 0.22962,0 2.42049,-1.49206 4.31255,-2.93715 2.22531,-1.69987 2.59844,-2.55482 1.33095,-3.05029 -0.61162,-0.23902 -0.82454,-0.23172 -1.01867,0.0417 -0.39244,0.54484 -0.97171,0.0731 -0.61371,-0.49788 0.50621,-0.81204 0.34547,-1.03332 -0.75043,-1.03332 -0.86734,0 -1.05207,-0.0939 -1.05207,-0.53962 0,-0.32357 -0.2411,-0.59391 -0.60119,-0.67532 -0.33086,-0.0731 -0.60118,-0.23798 -0.60118,-0.36323 0,-0.43838 -0.86316,-0.22336 -1.04163,0.2599 -0.10438,0.26929 -0.44672,0.54797 -0.77131,0.62104 -0.4582,0.10437 -0.59075,0.35488 -0.59179,1.12402 -10e-4,1.2187 -0.97171,2.66776 -1.78644,2.66776 -0.44358,0 -0.6805,-0.27451 -0.93413,-1.08562 -0.29224,-0.93104 -0.96439,-1.71908 -1.48594,-1.74141 -0.0835,-0.003 -0.48429,0.42794 -0.89447,0.95921 -0.40914,0.53128 -1.32198,1.55834 -2.02868,2.28282 -0.7066,0.72437 -1.29056,1.42097 -1.29724,1.54769 -0.005,0.12629 -0.54587,0.73585 -1.19798,1.35501 -0.98214,0.93208 -1.31499,1.0972 -1.94122,0.96235 -0.97588,-0.21084 -0.95187,-0.35592 0.23693,-1.44248 0.54378,-0.49683 1.38815,-1.38507 1.87608,-1.9747 0.48847,-0.58972 1.70064,-1.98179 2.69395,-3.09475 2.93244,-3.28503 3.05205,-4.12902 1.12451,-7.95524 -1.09675,-2.17781 -1.64418,-2.8144 -2.63749,-3.0672 -0.4728,-0.12004 -0.73164,0.0417 -1.16228,0.7275 -0.30477,0.48535 -0.91013,1.17016 -1.34494,1.52243 -0.97171,0.78491 -2.84299,1.27454 -3.31789,0.86737 -0.51768,-0.44465 -0.38722,-0.69515 0.36113,-0.69515 0.71286,0 2.55764,-1.45302 3.1916,-2.51463 0.30059,-0.50309 0.27032,-0.58033 -0.22858,-0.58033 -0.66172,0 -1.13692,0.42376 -1.29484,1.15409 -0.0731,0.31626 -0.56883,0.65861 -1.31791,0.90285 -0.6638,0.21606 -1.50535,0.65131 -1.86909,0.96757 -0.36426,0.31521 -1.13985,0.74629 -1.72506,0.95608 -0.78488,0.28078 -1.1101,0.58138 -1.24109,1.14355 -0.19309,0.82562 -0.92787,1.14386 -1.74009,0.7536 -0.34652,-0.16596 -0.41749,-0.34236 -0.22023,-0.54694 0.15969,-0.16595 0.28598,-0.59181 0.28077,-0.94669 -0.005,-0.35488 0.16908,-1.92136 0.3893,-3.48168 0.52186,-3.70942 0.4415,-5.38497 -0.30476,-6.40838 -0.55213,-0.75673 -2.4565,-2.23178 -2.8814,-2.23178 -0.35487,0 -1.14862,0.82562 -2.44283,2.53927 -0.712858,0.94356 -1.298808,1.61366 -1.302558,1.4884 -0.005,-0.2578 2.019698,-3.74648 2.428108,-4.18047 0.14612,-0.15552 0.1816,-0.35384 0.0835,-0.44151 -0.21709,-0.18579 -1.911668,0.5177 -1.914698,0.7943 -10e-4,0.10438 -0.40705,0.3841 -0.90178,0.62626 -0.49472,0.24215 -0.90073,0.64713 -0.90177,0.90285 -0.001,0.25468 -0.41749,1.44968 -0.92369,2.65544 -0.50725,1.20565 -0.94561,2.42946 -0.97484,2.71983 -0.0313,0.28912 -0.30268,0.85589 -0.60953,1.25638 -0.46863,0.61373 -0.49786,0.82457 -0.1837,1.32725 0.5083,0.81622 0.18161,2.34992 -0.89029,4.17244 -0.48011,0.81726 -1.30121,2.29794 -1.8239,3.29108 -0.52291,0.99262 -1.61453,2.96575 -2.42582,4.38443 -1.72673,3.01908 -3.28615,6.85387 -3.28615,8.07987 0,0.67636 0.2411,1.03854 1.11626,1.67837 1.9384,1.41753 4.09671,3.41373 5.49613,5.08312 1.83486,2.18909 4.47641,4.63128 5.00912,4.63128 0.25259,0 0.34652,0.12525 0.22232,0.29643 -0.11794,0.16387 0.0209,0.44464 0.30581,0.62312 0.43836,0.27451 0.83184,0.18475 2.525698,-0.58555 1.10311,-0.501 2.95247,-1.44362 4.10975,-2.09399 z m -9.468008,-10.58991 c 0,-0.14091 0.13569,-0.32983 0.3006,-0.41646 0.16595,-0.0835 0.30059,-0.0417 0.30059,0.0939 0,0.14196 -0.13464,0.32983 -0.30059,0.41751 -0.16596,0.0835 -0.3006,0.0418 -0.3006,-0.0939 z m 1.20237,-2.29858 c 0,-0.13569 0.21814,-0.40393 0.48533,-0.59285 0.42062,-0.29956 0.47072,-0.28078 0.37574,0.13986 -0.11376,0.50101 -0.86107,0.89451 -0.86107,0.45299 z m 21.431968,0.0209 c -0.19726,-0.0626 -0.28494,-0.27451 -0.19413,-0.477 0.21292,-0.47491 1.3035,-0.48431 1.3035,-0.0104 0,0.40289 -0.5657,0.65235 -1.11021,0.48848 z m -0.93935,9.08177 c 0.49055,-0.35487 0.80993,-0.64504 0.70764,-0.64504 -0.2985,0 -2.56598,1.03019 -2.56598,1.16588 0,0.34758 1.07169,0.0417 1.85792,-0.52084 z m 7.15011,-4.50331 c 0.24319,-0.13256 0.3413,-0.3267 0.21814,-0.43212 -0.12316,-0.10542 -0.45297,0.005 -0.73165,0.2432 -0.54273,0.46656 -0.21813,0.58555 0.51351,0.18892 z m 10.31123,-3.88091 c 0.7901,-0.84963 1.26353,-1.5454 1.0528,-1.5454 -0.40809,0 -3.24002,2.51839 -3.24002,2.88068 0,0.59808 0.90178,0.0522 2.18722,-1.3356 z m -52.164948,-2.43124 c 0.18892,-0.52814 0.21084,-0.91955 0.0522,-0.91955 -0.33712,0 -1.46758,1.54591 -1.46925,2.00799 -0.002,0.67218 1.08683,-0.16388 1.41717,-1.08823 z m 54.185278,-1.8222 c 0.30686,-0.31626 0.28598,-0.38619 -0.11376,-0.38619 -0.26824,0 -0.48742,0.17326 -0.48742,0.38619 0,0.21293 0.0522,0.38724 0.11377,0.38724 0.0626,0 0.2818,-0.17431 0.48741,-0.38724 z m -0.22544,-5.23426 c 0.61997,-0.66592 1.12722,-1.41524 1.12722,-1.66407 0,-0.24842 0.13151,-0.45195 0.2912,-0.45195 0.36425,0 4.81854,-3.85169 4.81854,-4.16607 0,-0.1263 0.51351,-0.7202 1.14152,-1.32036 0.62832,-0.60016 1.36873,-1.40146 1.64626,-1.78149 0.27763,-0.38098 0.91325,-0.89868 1.41341,-1.1519 0.49889,-0.25259 0.90803,-0.55319 0.90803,-0.66592 0,-0.40185 2.93046,-3.33117 6.91528,-6.91514 0.41436,-0.37262 1.49429,-1.42264 2.39878,-2.332696 a 283.82968,243.55873 0 0 1 3.22833,-3.18128 c 1.60253,-1.54508 1.86305,-1.95486 1.2412,-1.95486 -0.46446,0 -5.79151,4.4936 -8.7133,7.350476 -5.70623,5.57964 -6.39519,6.19202 -7.51479,6.67956 -0.35904,0.15552 -0.80053,0.50831 -0.98214,0.78386 -0.1816,0.27556 -0.68468,0.76613 -1.11782,1.09136 -0.68259,0.51249 -2.96918,3.49024 -2.96918,3.86714 0,0.40394 -3.25547,3.79773 -4.52557,4.71666 -1.36206,0.98531 -1.79927,1.72106 -1.28524,2.16205 0.41958,0.3601 0.88821,0.10855 1.97858,-1.06443 z m 11.15424,-1.4717 c 0.0939,-0.21293 0.12629,-0.38724 0.0731,-0.38724 -0.0522,0 -0.27241,0.17431 -0.47906,0.38724 -0.21605,0.22232 -0.24424,0.38723 -0.0731,0.38723 0.16804,0 0.38305,-0.17431 0.47803,-0.38723 z m 1.85469,-1.99881 1.11825,-1.35418 -1.11459,0.90286 c -1.22544,0.99262 -1.85762,1.8056 -1.40443,1.8056 0.15551,0 0.78592,-0.60955 1.40077,-1.35417 z m -16.58232,-0.84962 c 1.42155,-1.61961 1.99059,-2.00194 2.00029,-1.34249 0.003,0.22128 0.0939,0.20562 0.28076,-0.0522 0.15134,-0.20562 0.21814,-0.45508 0.14821,-0.55319 -0.0731,-0.0939 0.0731,-0.24529 0.32043,-0.3267 0.24736,-0.0835 0.4488,-0.44151 0.4488,-0.80056 0,-0.35906 0.10437,-0.65236 0.22648,-0.65236 0.12525,0 0.4081,-0.34966 0.62832,-0.77655 0.54169,-1.05097 2.75209,-3.01846 2.75209,-2.45013 0,0.2338 0.18786,0.58764 0.41748,0.78491 0.358,0.30686 0.54691,0.25363 1.29662,-0.36114 0.48324,-0.39663 1.18525,-1.14647 1.56005,-1.66689 0.37469,-0.5198 0.7807,-0.9467 0.90282,-0.9467 0.12107,0 0.52394,-0.46447 0.89655,-1.03228 0.37157,-0.5678 0.8308,-1.03123 1.02076,-1.03123 0.18996,0 0.64293,-0.3194 1.00615,-0.70976 0.36321,-0.39037 0.75878,-0.62522 0.87985,-0.52293 0.22023,0.18788 -0.75878,1.41691 -2.16854,2.71984 -0.8475,0.78386 -4.00788,4.78387 -4.00788,5.07279 0,0.22963 1.76347,-0.94878 1.78685,-1.19281 0.0104,-0.0939 0.42166,-0.55946 0.91847,-1.02498 0.49577,-0.46552 0.90178,-0.96965 0.90178,-1.11912 0,-0.14926 0.23588,-0.45195 0.52603,-0.67218 0.90804,-0.69202 2.38574,-2.1799 3.57172,-3.5966 0.62832,-0.75046 1.41716,-1.61418 1.75345,-1.91969 0.33608,-0.30478 0.8141,-0.77864 1.06209,-1.0518 0.24945,-0.27242 0.75565,-0.830826 1.12753,-1.240396 0.94039,-1.03646 0.85689,-1.2831 -0.37678,-1.11151 -1.12148,0.15552 -1.50588,-0.2839 -0.45402,-0.51979 0.32877,-0.0731 0.53125,-0.2265 0.44984,-0.34027 -0.0835,-0.11377 0.3246,-0.45821 0.90491,-0.76507 0.57926,-0.30687 1.05374,-0.76404 1.05374,-1.01454 0,-0.2505 0.25258,-0.70454 0.56152,-1.01036 0.58761,-0.58138 1.24255,-0.73794 1.24255,-0.29747 0,0.14195 -0.11063,0.2578 -0.24423,0.2578 -0.13464,0 -0.43001,0.40603 -0.65755,0.90286 -0.22648,0.49683 -0.5229,0.90285 -0.65754,0.90285 -0.13464,0 -0.24423,0.16805 -0.24423,0.37367 0,0.20562 -0.23588,0.48744 -0.52395,0.62521 -0.28806,0.13778 -0.41227,0.34758 -0.27554,0.46343 0.13568,0.11691 0.83706,-0.33817 1.55807,-1.01245 0.86628,-0.80891 1.55577,-1.22495 2.03275,-1.22495 0.39765,0 0.96753,-0.23276 1.26613,-0.51562 0.46655,-0.44256 0.47698,-0.51562 0.0731,-0.51562 -0.25988,0 -0.53229,0.14508 -0.6064,0.32252 -0.0731,0.17744 -0.2244,0.25155 -0.33294,0.16596 -0.10959,-0.0835 0.0731,-0.43421 0.40392,-0.77343 0.48428,-0.49683 0.65545,-0.54693 0.87672,-0.2599 0.34339,0.44673 0.68364,0.25468 3.70604,-2.09013 1.20665,-0.93625 3.69958,-2.86899 5.539868,-4.29539 2.99589,-2.32206 5.97571,-4.8487 7.52407,-6.38032 8.19655,-8.10773 7.40197,-7.51331 9.23693,-6.90887 0.30581,0.10438 0.53856,-0.0104 0.65128,-0.32148 0.0939,-0.26302 0.30686,-0.69097 0.47072,-0.94982 0.30999,-0.4937 -0.37365,-1.45657 -2.20142,-3.10112 l -0.81723,-0.73585 -2.18503,1.81646 c -1.20163,0.99888 -2.08942,1.89881 -1.97253,1.99901 0.25676,0.22023 2.68863,-1.59028 3.24378,-2.4137 0.2745,-0.40707 0.49055,-0.50309 0.70869,-0.31626 0.21814,0.18683 0.18996,0.44151 -0.0939,0.83188 -0.2912,0.4008 -0.31103,0.58972 -0.0731,0.65966 0.18786,0.0522 0.33607,0.40706 0.32981,0.7849 -0.0104,0.68471 -0.51455,1.08907 -3.53665,2.84311 l -1.04633,0.60747 0.67738,-0.81518 c 0.95083,-1.14636 0.50412,-1.30606 -0.74626,-0.2672 -1.14757,0.954 -1.41612,0.72646 -0.42271,-0.35801 0.34339,-0.37471 0.56779,-0.82562 0.4989,-1.00202 -0.0731,-0.18474 -1.14517,0.52815 -2.54094,1.69184 -2.10748,1.75665 -2.51432,1.99045 -3.2037,1.84203 -0.4728,-0.10438 -0.78905,-0.0626 -0.78905,0.0939 0,0.14717 0.27137,0.30478 0.60431,0.34966 0.57509,0.0731 0.56674,0.11899 -0.18056,0.85588 a 57.857219,49.648192 0 0 0 -1.46152,1.50866 c -0.59284,0.64504 -0.75044,0.69514 -1.28054,0.41124 -0.52082,-0.27868 -0.75566,-0.22441 -1.70534,0.39663 -0.605358,0.39663 -1.161238,0.66905 -1.234718,0.60643 -0.23797,-0.20354 1.110518,-1.61063 2.432078,-2.53635 0.70764,-0.49683 1.29588,-1.03332 1.30621,-1.19375 0.0104,-0.15969 0.22127,-0.43525 0.46968,-0.61164 0.65963,-0.46969 0.55004,-0.83605 -0.18892,-0.63461 -0.63458,0.17222 -0.63562,0.16909 -0.0731,-0.47491 0.51247,-0.58868 0.57405,-0.60225 0.66068,-0.15761 0.15656,0.80265 0.6398,0.56468 1.22846,-0.60434 0.32564,-0.64817 1.73539,-2.13178 3.44438,-3.62613 3.7431,-3.27303 3.82524,-3.40663 2.40546,-3.91557 -1.29463,-0.46448 -1.43188,-0.3935 -1.47623,0.75881 -0.0209,0.68471 0.0626,0.83397 0.44045,0.71707 0.36321,-0.11273 0.33399,-0.001 -0.12629,0.47387 -1.02807,1.06328 -2.02942,1.74538 -2.38804,1.62754 -0.35904,-0.11795 -1.09956,0.52709 -2.84633,2.48029 -0.57091,0.63878 -1.42781,1.50896 -1.90468,1.93461 -0.47698,0.42586 -2.20967,2.22426 -3.850918,3.99751 -4.29084,4.63628 -13.05579,13.06185 -17.59807,16.9173 -1.87796,1.59403 -8.47501,8.028616 -11.61014,11.324496 -0.94456,0.99262 -2.16488,2.21174 -2.712,2.70815 -0.54691,0.49683 -1.51966,1.46022 -2.16029,2.14201 -0.64085,0.68157 -1.61652,1.66177 -2.1676,2.17823 -0.55109,0.51666 -1.00197,1.0805 -1.00197,1.25387 0,0.34444 1.4706,1.37536 1.95353,1.36973 0.16595,-0.002 0.95813,-0.75256 1.76149,-1.66835 z m 10.00271,-9.91783 c 0.10541,-0.49683 0.31416,-1.10837 0.4655,-1.35971 0.14925,-0.2505 0.19517,-0.56259 0.10437,-0.69201 -0.0939,-0.12943 0.20457,-0.27138 0.66276,-0.31626 0.53856,-0.0522 0.8068,-0.21919 0.76088,-0.4697 -0.0418,-0.21293 0.33607,-0.61895 0.83497,-0.90285 0.4989,-0.28391 0.98527,-0.77656 1.08088,-1.09595 0.0939,-0.31939 0.29433,-0.58033 0.44149,-0.58033 0.14717,0 0.26928,-0.20354 0.27137,-0.45195 0.004,-0.458216 0.58657,-1.183626 2.29212,-2.858866 0.8141,-0.79848 1.01032,-0.87989 1.42447,-0.58451 0.53647,0.38307 0.34129,0.90599 -0.26407,0.70663 -0.57091,-0.18788 -0.79114,1.42964 -0.24318,1.77408 0.36739,0.22963 0.36321,0.37158 -0.0209,1.016626 -0.2484,0.41124 -0.72956,0.78491 -1.06877,0.82979 -0.69929,0.0939 -0.79114,-0.16596 -0.24005,-0.67845 0.20665,-0.19205 0.005,-0.12733 -0.44045,0.14196 -0.44985,0.26929 -0.82141,0.57093 -0.82663,0.66905 -0.005,0.0939 -0.55004,0.71393 -1.21166,1.36962 -0.66171,0.65549 -1.20236,1.27799 -1.20236,1.3832 0,0.10437 -0.67633,0.82353 -1.50296,1.59643 l -1.50264,1.40491 z m 5.81874,-3.93363 c 0,-0.17953 0.27033,-0.47282 0.60118,-0.64922 0.4822,-0.25781 0.60119,-0.25781 0.60119,0.005 0,0.17953 -0.27033,0.47178 -0.60119,0.64922 -0.48324,0.25886 -0.60118,0.25781 -0.60118,-0.005 z m 3.46255,-5.858736 c -0.10542,-0.14613 -0.0418,-0.2672 0.12629,-0.2672 0.17534,0 0.31833,-0.16701 0.31833,-0.37158 0,-0.40916 0.54482,-0.79431 0.80575,-0.5699 0.0939,0.0731 -0.11063,0.44151 -0.44671,0.80787 -0.35591,0.38828 -0.69094,0.55633 -0.80366,0.39977 z m 1.34629,-1.78442 c 0,-0.12525 0.33817,-0.41855 0.75148,-0.65026 0.82036,-0.46134 0.96022,-0.28077 0.33295,0.42794 -0.42062,0.47491 -1.08443,0.61165 -1.08443,0.22232 z m 6.01121,-1.20293 c 0,-0.42168 0.98944,-1.6861 1.50598,-1.92303 0.92474,-0.42481 0.76609,0.30791 -0.2745,1.26389 -0.82663,0.75882 -1.23211,0.97592 -1.23211,0.65862 z m -4.59342,-0.53336 c -0.29433,-0.25364 0.3486,-1.13061 0.82976,-1.13061 0.67007,0 0.85167,0.50101 0.25154,0.69202 -0.29955,0.0939 -0.62206,0.27033 -0.716,0.38932 -0.0939,0.11899 -0.2578,0.14195 -0.3653,0.0522 z m 3.59614,-1.03124 c 0.0835,-0.19623 0.34756,-0.35697 0.57926,-0.35697 0.62415,0 0.50517,0.43629 -0.15968,0.58555 -0.40601,0.0939 -0.53021,0.0209 -0.41854,-0.22858 z m 1.59846,-3.67916 c 0,-0.12421 0.22544,-0.38515 0.49994,-0.58033 0.45298,-0.32148 0.46654,-0.30061 0.13882,0.22649 -0.37261,0.60017 -0.63981,0.74734 -0.63981,0.35384 z m 6.61239,-0.92895 c 0,-0.11586 0.61162,-0.84858 1.359338,-1.62785 1.55264,-1.61814 1.53729,-2.25046 -0.0209,-0.70663 -0.562558,0.55842 -1.104248,0.94461 -1.204448,0.85798 -0.19309,-0.16596 0.57822,-1.0302 2.180958,-2.44585 0.95813,-0.84649 1.58812,-1.08572 1.58812,-0.60434 0,0.13778 0.20249,0.18266 0.45089,0.10438 0.24736,-0.0835 0.45089,-0.0209 0.45089,0.11794 0,0.43525 -0.92369,1.09658 -1.27313,0.9112 -0.19205,-0.10437 -0.23484,-0.0522 -0.10646,0.12943 0.12942,0.17848 -0.51664,0.93834 -1.6065,1.88848 -1.001968,0.87363 -1.822538,1.49373 -1.822538,1.37798 z m -3.3062,-2.44011 c 0,-0.13255 0.13569,-0.31417 0.30059,-0.40184 0.16596,-0.0835 0.3006,0.0209 0.3006,0.24319 0,0.22128 -0.13464,0.40185 -0.3006,0.40185 -0.16595,0 -0.30059,-0.10855 -0.30059,-0.2432 z m 7.422208,-3.09527 c 0.17848,-0.58555 0.27555,-0.64192 0.52186,-0.30165 0.0939,0.12525 -0.0313,0.36427 -0.25988,0.53023 -0.34652,0.24633 -0.39453,0.20458 -0.26198,-0.22858 z m 1.77255,-0.14404 c 0.27033,-0.35488 0.61789,-0.64505 0.77236,-0.64505 0.33086,0 -0.69199,1.26964 -1.03224,1.28164 -0.12734,0.005 -0.0104,-0.28182 0.25988,-0.6367 z m -3.4949,-0.0835 c 0.19831,-0.33088 0.44254,-0.53128 0.54274,-0.44465 0.10437,0.0835 -0.0626,0.35697 -0.36008,0.60225 -0.51978,0.42586 -0.52708,0.41855 -0.18266,-0.1576 z m 3.31684,-1.03542 c 0,-0.24841 1.71505,-1.84349 1.98161,-1.84349 0.0939,0 -0.25571,0.46448 -0.77966,1.03228 -0.96648,1.047 -1.20236,1.20638 -1.20236,0.81205 z m 2.25444,-0.81204 c 0.10437,-0.14195 0.32042,-0.25781 0.48638,-0.25781 0.1649,0 0.21709,0.11586 0.11376,0.25781 -0.10437,0.14195 -0.32042,0.25781 -0.48637,0.25781 -0.16595,0 -0.2171,-0.11586 -0.11481,-0.25781 z m 1.20237,-1.03228 c 0.2985,-0.28391 0.59492,-0.51667 0.65754,-0.51667 0.0626,0 -0.0313,0.23276 -0.20665,0.51667 -0.17744,0.2839 -0.47281,0.51562 -0.65859,0.51562 -0.18474,0 -0.0939,-0.23172 0.2077,-0.51562 z M 54.282302,115.57759 c -0.61997,-1.27401 -0.85063,-1.18258 -0.26197,0.10438 0.25989,0.56885 0.52812,0.9874 0.59492,0.93104 0.0626,-0.0522 -0.0835,-0.52293 -0.3319,-1.03437 z m 12.44042,-0.17117 c 0,-0.1503 -0.13568,-0.20145 -0.30059,-0.11377 -0.16595,0.0835 -0.30059,0.21084 -0.30059,0.27242 0,0.0626 0.13464,0.11377 0.30059,0.11377 0.16595,0 0.30059,-0.12316 0.30059,-0.27242 z m -7.28329,-2.89039 c 2.31351,-2.7262 4.26809,-4.87343 5.71124,-6.27458 0.69929,-0.67949 1.27146,-1.3333 1.27146,-1.45364 0,-0.12004 0.54065,-0.70141 1.20237,-1.29229 0.66172,-0.59077 1.20236,-1.20805 1.20236,-1.37286 0,-0.16387 0.57405,-0.83188 1.2772,-1.48433 1.22805,-1.139576 1.90479,-1.825646 3.73799,-3.789476 1.10884,-1.1877 2.16332,-2.23209 3.14222,-3.1125 0.43628,-0.39246 0.84228,-0.83293 0.90178,-0.97905 0.0626,-0.14613 0.79949,-0.87989 1.64459,-1.63192 0.84541,-0.75151 1.7928,-1.7148 2.10643,-2.14034 0.65337,-0.88616 1.61182,-1.87387 3.11948,-3.21166 0.57822,-0.51353 1.65262,-1.62138 2.38698,-2.46192 0.73478,-0.84128 2.28993,-2.4447 3.4566,-3.56414 1.16657,-1.11922 2.39137,-2.3637 2.72202,-2.76461 0.86838,-1.05357 2.66984,-2.78695 5.35116,-5.14742 1.877028,-1.65311 2.520578,-2.06498 3.225298,-2.06498 0.67216,0 1.37876,-0.40393 2.98964,-1.70791 1.1602,-0.93938 2.10946,-1.78921 2.10946,-1.88868 0,-0.19728 -1.80626,-1.13489 -3.0056,-1.55939 -0.41331,-0.14612 -1.0218,-0.61268 -1.35266,-1.03645 -0.33086,-0.42377 -0.68782,-0.7703 -0.79323,-0.77134 -0.10542,-5.2e-4 -0.8475,-0.46552 -1.64762,-1.03228 -0.800528,-0.56781 -1.573088,-1.03124 -1.718068,-1.03124 -0.30372,0 -8.31334,7.06387 -8.76454,7.72969 -0.42479,0.6273 -4.01759,4.07056 -7.26596,6.96502 -1.51674,1.35105 -3.06708,2.8049 -3.44512,3.23024 -0.74417,0.83814 -4.05965,4.20333 -5.27204,5.35199 -0.41227,0.39037 -0.87255,0.70872 -1.02389,0.70872 -0.15134,0 -0.2745,0.16909 -0.2745,0.37575 0,0.20667 -0.54064,0.86424 -1.20236,1.46054 -0.66172,0.59599 -1.20237,1.18164 -1.20237,1.30063 0,0.11795 -0.10437,0.22023 -0.22544,0.2265 -0.1242,0.005 -0.83393,0.71811 -1.57811,1.5838 -0.74417,0.86528 -1.7618,1.93399 -2.26247,2.37508 -0.50099,0.44151 -1.78549,1.83306 -2.85562,3.09351 -1.06981,1.26023 -2.38469,2.69353 -2.92179,3.18504 -0.53752,0.49161 -0.97692,0.954 -0.97692,1.02706 0,0.0731 -0.40601,0.53023 -0.90178,1.014536 -1.31592,1.28633 -1.18567,1.56658 0.90178,1.93659 1.63989,0.29121 1.80261,0.37889 1.79384,0.97696 -0.0104,0.63357 -0.60327,1.56022 -0.99989,1.56022 -0.10646,0 -0.19308,-0.27451 -0.19308,-0.60956 0,-0.4843 -0.27659,-0.70036 -1.34766,-1.05127 -0.74104,-0.24216 -1.57174,-0.40394 -1.84592,-0.35697 -0.59075,0.10437 -3.21403,3.2079 -4.09139,4.84817 l -0.61684,1.15294 0.87047,0.52292 c 1.63718,0.98532 3.729,3.09163 4.04128,4.06974 0.16909,0.53232 0.47177,0.96548 0.67216,0.96339 0.20039,-0.002 1.07681,-0.84336 1.94758,-1.86979 z m 12.99391,0.69828 c 0,-0.22128 -0.13569,-0.33087 -0.3006,-0.2432 -0.16595,0.0835 -0.30059,0.26929 -0.30059,0.40185 0,0.1336 0.13464,0.2432 0.30059,0.2432 0.16596,0 0.3006,-0.18162 0.3006,-0.40185 z m -1.01137,-2.87254 c -0.12316,-0.10646 -0.34965,-0.0209 -0.50307,0.18683 -0.46237,0.6273 -0.3246,0.90703 0.21918,0.44151 0.27972,-0.24006 0.40809,-0.52292 0.28493,-0.62834 z m -24.91236,-4.02986 c 0,-0.32983 0.38826,-1.11297 0.86211,-1.74121 0.4749,-0.62834 1.07639,-1.52379 1.33858,-1.99066 0.61683,-1.10002 3.15558,-3.481986 9.82036,-9.216626 2.97179,-2.55711 5.50813,-4.93647 5.63578,-5.28728 0.12734,-0.35071 0.58657,-1.00932 1.01867,-1.46336 2.11343,-2.21862 3.34054,-3.64127 3.34054,-3.87319 0,-0.13986 0.33816,-0.56885 0.75147,-0.95191 0.41332,-0.38306 0.75148,-0.81622 0.75148,-0.96339 0,-0.28808 0.73165,-1.16557 2.40474,-2.88152 0.57822,-0.5939 1.31822,-1.52786 1.64354,-2.07646 0.32564,-0.54797 0.76609,-1.05378 0.97693,-1.12351 0.21187,-0.0731 0.38408,-0.40811 0.38408,-0.7515 0,-0.34445 0.20353,-0.69202 0.45298,-0.77448 0.38304,-0.12629 1.33868,-1.09114 5.55666,-5.60803 0.48116,-0.51666 1.06042,-1.0518 4.28542,-3.9688 1.11552,-1.00932 2.02962,-1.92887 2.03097,-2.04327 0.001,-0.11481 0.6231,-0.73063 1.38105,-1.36879 0.75774,-0.63774 1.5063,-1.36367 1.66161,-1.61188 0.34547,-0.55215 1.41852,-0.5939 1.65534,-0.0626 0.0939,0.21292 0.40287,0.38619 0.68155,0.38619 0.27971,0 0.6565,0.12734 0.83706,0.28181 0.42688,0.36532 1.59522,-0.13882 1.59522,-0.68784 0,-0.21292 -1.08119,-1.34102 -2.40275,-2.50576 l -2.40274,-2.11769 -0.001,1.21004 c -9.4e-4,0.66592 -0.13151,1.2785 -0.28911,1.36253 -0.32877,0.1743 -1.03329,-0.9133 -1.33325,-2.05674 -0.32251,-1.23206 -1.13828,-2.38844 -1.89143,-2.68309 -0.58031,-0.2265 -0.69512,-0.19727 -0.69616,0.1743 -7.3e-4,0.24529 -0.77862,0.98949 -1.7284,1.65364 -0.94979,0.66383 -2.1389,1.53527 -2.64218,1.93597 -0.50412,0.39976 -2.32927,1.70937 -4.05768,2.90813 -3.34898,2.323 -3.97782,2.84404 -7.50049,6.21644 l -5.09335,4.87458 c -1.56141,1.49404 -6.05358,5.49676 -9.98256,8.89442 -3.92878,3.39797 -7.08802,6.22583 -7.01986,6.28407 0.18996,0.16283 2.25882,-0.9947 2.25882,-1.26368 0,-0.13047 0.16386,-0.23693 0.36321,-0.23693 0.19935,0 0.8736,-0.42795 1.49722,-0.94983 0.62415,-0.52292 1.21103,-0.88511 1.30497,-0.8037 0.19413,0.16596 -3.31486,3.1314 -6.0206,5.08835 -1.00093,0.72437 -2.24108,1.37599 -2.78715,1.46544 -1.72663,0.28181 -3.60366,2.43666 -5.70582,6.54888 -0.58552,1.14636 -0.65441,1.25209 -1.65095,2.5355 -0.45402,0.58555 -0.82663,1.23185 -0.82663,1.43539 0,0.20353 0.66067,0.78595 1.46757,1.29457 2.07576,1.307416 3.39742,2.642496 4.66387,4.710606 0.76087,1.2427 1.34964,1.87898 1.91679,2.07155 1.25414,0.42586 1.49461,0.38306 1.49461,-0.2672 z m 3.23105,-2.65168 c 0.33086,-0.39141 1.26019,-1.39238 2.06573,-2.22405 0.80575,-0.83083 1.3774,-1.586616 1.27083,-1.678056 -0.42062,-0.36009 -5.89128,5.323606 -5.89128,6.120936 0,0.31417 1.55807,-1.03854 2.55503,-2.21883 z m 19.70784,0.28495 c 1.8356,-1.66376 5.49311,-5.505636 5.95433,-6.254326 0.89446,-1.45135 -0.78906,-0.13987 -3.89068,3.030246 -4.87887,4.98804 -6.08061,6.86566 -2.06365,3.22429 z m -32.67472,-7.217306 c 1.15895,-1.97469 0.4655,-1.8867 -1.17961,0.15031 -0.69616,0.8611 -0.76922,1.08509 -0.41436,1.27286 0.53335,0.28391 0.65755,0.17222 1.59377,-1.42275 z m 36.56102,-17.85011 c 0,-0.25676 2.17856,-2.77985 2.57632,-2.98244 0.41749,-0.21293 1.63154,-1.80268 1.63154,-2.13721 0,-0.45091 -1.62382,1.13958 -3.16717,3.10196 -0.89447,1.13697 -1.89707,2.35754 -2.22834,2.71211 -0.94248,1.00932 -0.71808,1.24322 0.28598,0.29956 0.49576,-0.46552 0.90177,-0.91329 0.90177,-0.99366 z m -15.60843,-3.73595 c 0.32564,-0.23798 0.47698,-0.4937 0.33608,-0.5699 -0.38722,-0.20562 -2.36664,1.50041 -2.20966,1.90508 0.0939,0.25154 0.29955,0.17326 0.70869,-0.27556 0.3152,-0.34548 0.83915,-0.82248 1.16562,-1.05983 z m 22.19639,-3.8161 c 1.90239,-2.14034 2.28116,-2.75397 1.18327,-1.91677 -0.76087,0.58033 -3.26309,3.46905 -3.26309,3.76704 0,0.42064 0.29329,0.1597 2.07982,-1.85027 z m -20.22981,-0.14404 c 0.7233,-0.94774 0.30268,-1.06902 -0.47176,-0.13569 -0.35904,0.4342 -0.51247,0.78908 -0.34025,0.78908 0.17325,0 0.53856,-0.2933 0.81201,-0.65235 z m 48.767008,-1.03646 c 0.0939,-0.42064 0.0417,-0.43942 -0.37574,-0.13986 -0.57404,0.40915 -0.64606,0.88719 -0.10959,0.73376 0.20666,-0.0626 0.42584,-0.32565 0.48533,-0.59286 z m 21.57246,-1.16275 c 0.96857,-0.86006 1.76138,-1.69131 1.76138,-1.84861 0,-0.53649 -0.66589,-0.477 -1.2938,0.11377 a 2860.1399,2454.3312 0 0 1 -1.69542,1.59289 c -1.02075,0.95922 -1.37197,1.70477 -0.80157,1.70477 0.14716,0 1.06,-0.70349 2.02857,-1.56261 z m -7.21253,-0.37471 c 0.0939,-0.21502 -0.0104,-0.58033 -0.23379,-0.81309 -0.70243,-0.72646 -3.51599,-2.40754 -4.02866,-2.40754 -0.65963,0 -0.39766,0.5772 0.42375,0.93103 0.97692,0.42168 2.17063,1.43643 2.46892,2.09901 0.29746,0.6607 1.1101,0.77343 1.37103,0.18996 z m -39.716908,-0.64191 c 0.10437,-0.14196 0.0522,-0.25781 -0.11481,-0.25781 -0.16595,0 -0.38409,0.11585 -0.48637,0.25781 -0.10438,0.14195 -0.0522,0.2578 0.11481,0.2578 0.16595,0 0.38408,-0.11585 0.48637,-0.2578 z m -18.60756,-0.96549 c -0.20874,-0.17952 -0.77861,0.18475 -0.77861,0.49684 0,0.17117 0.17221,0.15134 0.45819,-0.0522 0.25154,-0.17953 0.39661,-0.37993 0.32042,-0.44465 z m 1.05635,-0.77551 c 0.25676,-0.24842 1.58948,-1.32182 2.9625,-2.38562 5.19658,-4.02715 8.7278,-7.36865 8.7278,-8.25909 0,-0.26198 0.23588,-0.54588 0.52604,-0.63147 0.60222,-0.17849 1.9529,-1.8793 1.80156,-2.26872 -0.10541,-0.27138 -0.97588,0.47804 -5.01988,4.32389 a 1129.483,969.22709 0 0 1 -4.2279,3.99781 c -0.98319,0.92165 -2.20674,2.16967 -2.71942,2.77265 -0.51246,0.60226 -1.03954,1.09595 -1.17095,1.09595 -0.1315,0 -0.60013,0.40603 -1.04163,0.90286 -0.81619,0.91851 -0.68781,1.27475 0.16178,0.45195 z m 60.544148,-0.59181 0.87673,-0.78491 -1.04602,-0.69515 c -0.57509,-0.38306 -2.62684,-2.03147 -4.55929,-3.66392 -1.93286,-1.63244 -3.86761,-3.2581 -4.30013,-3.61288 -0.4321,-0.35383 -2.09746,-1.85153 -3.69998,-3.32657 -3.34252,-3.07701 -5.94504,-4.63525 -14.890248,-8.91655 -1.65993,-0.7943 -1.54773,-0.39245 0.25572,0.91225 0.66171,0.47909 2.689868,2.04546 4.508448,3.4822 1.81827,1.43642 3.46922,2.65857 3.66858,2.71587 0.36843,0.10646 1.35871,0.75673 3.34095,2.1968 0.60744,0.44152 1.53103,0.98949 2.0507,1.21776 1.16896,0.51249 11.22741,9.12948 11.22741,9.61775 0,0.19518 0.13881,0.35488 0.30789,0.35488 0.16909,0 0.43628,0.29017 0.59388,0.64504 0.36843,0.83188 0.60223,0.81205 1.66588,-0.13986 z m -17.62301,-0.60434 c 0.2818,-0.29121 -0.29016,-0.7202 -3.04391,-2.28647 -5.18187,-2.94654 -5.899318,-3.30225 -6.099708,-3.02399 -0.38722,0.53859 7.242898,5.64926 8.457998,5.6644 0.18578,0.002 0.49472,-0.15657 0.68572,-0.35384 z m 26.6872,-0.83397 c 0.62832,-0.65548 1.79416,-1.78702 2.59177,-2.51442 1.57978,-1.44154 3.03963,-3.23003 2.80218,-3.43377 -0.42584,-0.36532 -1.56913,0.44047 -3.98388,2.80814 -3.33657,3.27073 -3.46442,3.42552 -3.24138,3.92444 0.28389,0.63565 0.60223,0.49892 1.83131,-0.78387 z m -18.24423,-0.56259 c 0,-0.11377 -1.6566,-1.5958 -3.68194,-3.29307 -2.02492,-1.69694 -4.235,-3.60567 -4.91091,-4.24164 -0.67633,-0.63565 -2.09517,-1.85268 -3.15287,-2.70355 -1.05781,-0.85171 -2.62621,-2.24837 -3.4852,-3.10478 -0.85898,-0.85692 -3.008628,-2.5974 -4.776788,-3.86912 l -5.45741,-3.92298 c -1.23305,-0.8872 -2.42039,-1.61219 -2.63852,-1.61219 -0.51769,0 -2.00635,1.52191 -1.78623,1.82741 0.0939,0.13048 0.65128,0.2359 1.23984,0.2359 0.75774,0 1.38742,0.23171 2.16092,0.7943 1.84331,1.34134 6.61572,5.16005 9.06419,7.25248 1.278138,1.09229 2.678598,2.06237 3.111748,2.15589 0.4728,0.10437 0.78801,0.34966 0.78801,0.61895 0,0.24737 0.37156,0.7943 0.82662,1.21515 2.80719,2.5997 3.84027,3.49389 5.87594,5.08542 3.07731,2.4066 6.8227,4.36125 6.8227,3.56131 z m 1.94883,-1.6625 c -0.61997,-0.6033 -1.61651,-1.50239 -2.21436,-1.99912 -0.59805,-0.49683 -1.58979,-1.39206 -2.20434,-1.99014 -0.61475,-0.59808 -1.65127,-1.37714 -2.3038,-1.73056 -0.65337,-0.35383 -1.27386,-0.76403 -1.38011,-0.9112 -0.10646,-0.14822 -0.33399,-0.26825 -0.50621,-0.26825 -0.37052,0 9.09561,7.98363 9.47469,7.99052 0.14299,0.002 -0.24736,-0.48848 -0.86629,-1.09115 z m 10.37406,0.58242 c 0,-0.50309 -2.73872,-3.36269 -4.80873,-5.02039 -5.04263,-4.0379 -8.7873,-6.81421 -10.63426,-7.88385 -0.76505,-0.44256 -1.52999,-1.02915 -1.70075,-1.30231 -0.17012,-0.27242 -0.46028,-0.49683 -0.64502,-0.49683 -0.18369,0 -0.76296,-0.37679 -1.2868,-0.83814 -0.75774,-0.66696 -3.85362,-2.6284 -4.69121,-2.97232 -0.0939,-0.0313 1.1913,1.12142 2.85792,2.57914 3.52088,3.07868 9.28222,7.64107 10.54408,8.3501 0.48011,0.26929 1.41842,1.00409 2.08681,1.63192 0.66799,0.62834 1.60212,1.44049 2.07576,1.80529 0.47385,0.36427 1.89372,1.50323 3.15621,2.52956 2.14756,1.74663 3.04599,2.22373 3.04599,1.61793 z m 2.70199,-2.19159 1.01658,-0.89972 -0.70869,-0.64713 c -0.39035,-0.35697 -1.01241,-0.64818 -1.38407,-0.64818 -0.37053,0 -1.6566,-0.58033 -2.85625,-1.28967 -1.20007,-0.70872 -2.42811,-1.28978 -2.72933,-1.28978 -0.30164,0 -0.54795,-0.17431 -0.54795,-0.38724 0,-0.41228 -5.62848,-4.07892 -9.39422,-6.1201 -2.56171,-1.38851 -3.22896,-1.65342 -3.22896,-1.28111 0,0.28286 2.83558,2.11518 3.27311,2.11518 0.14716,0 0.78905,0.39663 1.42708,0.88094 2.86428,2.17478 5.7867,4.27692 5.94576,4.27692 0.0939,0 0.42062,0.20353 0.72226,0.45195 0.30059,0.24841 1.65356,1.3405 3.00591,2.42727 1.35162,1.08645 2.45786,2.08794 2.45786,2.22519 0,0.28495 1.1936,1.05243 1.66922,1.07278 0.17326,0.0104 0.77444,-0.39141 1.33263,-0.88615 z m -36.860148,-3.87862 c -0.0939,-0.2171 -0.46445,-0.52292 -0.81723,-0.67949 -0.5897,-0.26303 -0.5824,-0.23171 0.0835,0.3935 0.83811,0.78178 0.97483,0.83605 0.72956,0.28599 z m 14.772408,-1.92741 c -0.10437,-0.14195 -0.24528,-0.25781 -0.31834,-0.25781 -0.0731,0 -0.13255,0.11586 -0.13255,0.25781 0,0.14195 0.14403,0.25781 0.31834,0.25781 0.17534,0 0.23379,-0.11586 0.13255,-0.25781 z m -27.915978,-1.03228 c 0.71808,-0.56885 1.91679,-1.28769 2.66357,-1.59925 0.74731,-0.31105 1.35768,-0.64505 1.35768,-0.74212 0,-0.35697 -1.55776,-1.03959 -2.19432,-0.9613 -0.382,0.0522 -0.82872,0.40289 -1.07149,0.85379 -0.22857,0.42586 -0.79009,1.12205 -1.24714,1.54759 -0.81828,0.76195 -1.44044,1.93461 -1.02598,1.93461 0.1169,0 0.79949,-0.46552 1.51799,-1.03332 z m 56.607438,0.65861 c 0.19935,-0.20562 0.31729,-0.53858 0.26197,-0.73898 -0.0522,-0.2004 -1.38512,-1.28999 -2.9555,-2.4209 -1.57049,-1.13102 -3.86959,-2.84655 -5.10943,-3.81276 -1.23973,-0.96653 -2.7955,-2.17729 -3.45638,-2.69114 -0.66172,-0.51353 -1.60786,-1.20231 -2.10415,-1.52994 -0.49576,-0.32774 -1.57779,-1.14637 -2.4041,-1.81938 -0.82663,-0.67323 -2.16228,-1.65479 -2.96813,-2.18105 -1.42082,-0.92791 -8.21022,-6.30036 -10.98965,-8.69642 -2.25642,-1.94547 -4.52693,-3.29067 -4.52693,-2.68257 0,0.0731 0.57509,0.62521 1.27751,1.22527 0.70243,0.60016 1.93683,1.72993 2.74269,2.51035 3.39136,3.28305 14.37871,12.63777 14.84359,12.63777 0.14925,0 0.96231,0.60956 1.80689,1.35418 1.99956,1.76208 2.96051,2.51463 3.21069,2.51463 0.11064,0 0.55004,0.35488 0.97484,0.78804 0.71808,0.73272 3.09171,2.27739 5.30711,3.45444 0.51977,0.27659 1.06939,0.67844 1.22178,0.8945 0.49889,0.70663 1.64114,1.5694 2.07742,1.5694 0.23483,0 0.59074,-0.16909 0.79009,-0.37471 z m -4.8055,-0.27868 c -0.21083,-0.21711 -1.27522,-0.99158 -2.36601,-1.72127 -1.0911,-0.72959 -2.51088,-1.74089 -3.15517,-2.24816 l -1.17126,-0.92269 1.1579,1.42787 c 1.24015,1.52901 4.42736,3.81693 5.35419,3.84324 0.47176,0.0209 0.50098,-0.0417 0.18056,-0.37889 z m -56.704918,-4.22766 c 1.0601,-1.54905 -0.0626,-0.75986 -2.16364,1.52786 -1.17491,1.27684 -2.13649,2.40462 -2.13649,2.50608 0,0.30582 3.71533,-3.17899 4.30013,-4.03362 z m 13.88399,2.04379 c -0.53543,-0.50726 -0.75148,-0.62417 -0.75148,-0.40498 0,0.16596 0.91847,0.92165 1.11991,0.92165 0.0939,0 -0.0731,-0.23172 -0.36843,-0.51562 z m 32.184378,-0.2338 c -0.28494,-0.27138 -2.36299,-1.86666 -4.61649,-3.54649 -2.25339,-1.67952 -5.80809,-4.50457 -7.89981,-6.27771 -4.89965,-4.15376 -8.80807,-7.3864 -10.45965,-8.65112 l -1.310908,-1.0041 -0.89969,0.86423 -0.89969,0.86528 2.14662,1.77054 c 1.180968,0.97383 2.326868,1.77043 2.546988,1.77043 0.21919,0 2.62914,1.59601 5.35387,3.54639 2.72505,1.95058 6.61803,4.70684 8.6514,6.12563 2.03328,1.41868 4.4544,3.12335 5.38018,3.78854 1.71744,1.23415 3.04035,1.72712 2.00801,0.74838 z m -36.184968,-2.92514 -2.19233,-1.8698 -0.58031,0.6033 c -0.57613,0.59912 -0.57509,0.60747 0.0939,1.0948 1.04163,0.76194 2.81387,1.72398 3.42476,1.85925 1.41476,0.31313 1.30162,0.0522 -0.74313,-1.68787 z m 53.382768,1.30261 c 0.7567,-0.65026 0.67633,-0.71915 -2.87034,-2.46046 -0.70242,-0.34548 -1.27751,-0.52501 -1.27751,-0.39872 0,0.37054 3.02032,3.16834 3.42037,3.16834 0.20144,0 0.52917,-0.13986 0.72748,-0.30999 z m -17.56384,-3.32052 c -1.79561,-1.54571 -3.35295,-2.81189 -3.46014,-2.81419 -0.1075,-0.002 -0.66694,-0.38097 -1.24245,-0.84232 -0.57613,-0.46134 -1.84028,-1.47661 -2.81021,-2.25672 -0.96962,-0.77969 -2.1366,-1.66375 -2.59313,-1.96383 -0.4561,-0.29956 -1.22512,-0.9968 -1.70867,-1.54769 -0.48429,-0.55111 -1.83768,-1.87241 -3.00926,-2.93621 -1.17199,-1.06391 -2.63456,-2.59667 -3.25077,-3.40632 -1.16959,-1.53705 -1.5707,-1.80268 -1.5707,-1.04168 0,1.67399 2.16854,4.39529 6.65205,8.3476 3.32457,2.93015 12.76679,10.02732 13.34126,10.02732 0.10959,0 0.75878,0.41228 1.4442,0.91433 0.70973,0.52084 1.29421,0.78909 1.35934,0.62209 0.0626,-0.16074 -1.35569,-1.55803 -3.15152,-3.10332 z m -26.691268,2.83215 c 0.20874,-0.28913 -1.97953,-2.38709 -2.97617,-2.8548 -0.96545,-0.45299 -0.28598,0.80892 1.09987,2.04056 1.30392,1.15962 1.55034,1.26681 1.8763,0.81413 z m 46.275858,-1.79987 c 0.23588,-0.63565 -0.5824,-1.52901 -1.3989,-1.52901 -0.82246,0 -6.22225,-3.10018 -10.25111,-5.88535 -1.29693,-0.8966 -2.52132,-1.58151 -2.72098,-1.52191 -0.4488,0.13255 4.26067,4.21398 6.04815,5.24083 4.59206,2.63822 7.46166,4.19332 7.76966,4.21023 0.19518,0.0104 0.44463,-0.22024 0.55318,-0.51458 z m -8.15814,-0.91851 c -1.51569,-1.67284 -5.65676,-5.08427 -7.62971,-6.28522 -1.04873,-0.63774 -2.67286,-1.74079 -3.60939,-2.45013 -0.93726,-0.70871 -3.05403,-2.24555 -4.7053,-3.41373 -1.65085,-1.16849 -3.8028,-2.85511 -4.7817,-3.74878 -2.05979,-1.8795 -5.11747,-4.95213 -5.47745,-5.50417 -0.36008,-0.55111 -1.26154,-0.15865 -1.26154,0.54902 0,0.35488 0.39243,0.87467 0.97692,1.29249 1.05677,0.75568 5.53756,4.32827 9.39254,7.48931 1.32261,1.08446 3.35118,2.59656 4.50846,3.36091 2.44888,1.6171 4.93878,3.46508 8.71319,6.46642 1.48594,1.18164 2.81888,2.14838 2.9625,2.14838 0.14299,0 0.53125,0.29643 0.8642,0.65861 0.3319,0.36219 0.6732,0.59808 0.75878,0.52501 0.0835,-0.0731 -0.23379,-0.56363 -0.71077,-1.08854 z m -22.82388,0.31313 c -0.62936,-0.39454 -0.9143,-0.35175 -0.59596,0.0939 0.10855,0.15134 0.41853,0.27555 0.68885,0.27555 0.41019,0 0.39557,-0.0626 -0.0939,-0.36636 z m -10.20174,-3.68939 c -3.492288,-2.89905 -7.475748,-5.7458 -8.040198,-5.7458 -0.52499,0 -1.73007,1.0758 -1.71139,1.52817 0.0104,0.22336 0.3987,0.66488 0.86525,0.98009 1.12795,0.76299 8.347468,4.39455 10.143288,5.10243 0.52604,0.20771 1.04164,0.49475 1.14496,0.63879 0.10438,0.14404 0.34965,0.25781 0.54691,0.2505 0.19727,-0.005 -1.12951,-1.24563 -2.94809,-2.7548 z m 6.91287,-0.23902 c -1.87598,-1.46888 -8.787288,-6.02209 -9.140268,-6.02209 -0.37783,0 3.115078,2.76681 5.864868,4.64547 0.99258,0.67845 4.38791,2.57664 4.58705,2.56453 0.10541,-0.005 -0.48429,-0.54067 -1.31165,-1.18791 z m 38.85585,-1.85487 c 0.70764,-0.9446 2.00926,-2.4496 2.89402,-3.34473 1.04164,-1.05379 1.67862,-1.96322 1.80752,-2.57935 0.41644,-1.9891 0.5323,-10.48219 0.17221,-12.5575 -0.19726,-1.13499 -0.42583,-2.56192 -0.51038,-3.17127 -0.10959,-0.80265 -0.35382,-1.22151 -0.88611,-1.52045 -0.40392,-0.22649 -0.69303,-0.5939 -0.64294,-0.81622 0.0939,-0.43003 -0.88612,-1.41012 -3.04296,-3.03547 -1.31624,-0.99157 -1.3249,-0.99366 -1.12159,-0.29016 0.11273,0.39036 0.12629,0.70976 0.0313,0.70976 -0.60954,0 -1.37271,-0.67219 -1.97149,-1.73683 -0.79636,-1.41523 -0.60744,-1.1879 -2.99297,-3.6148603 -1.01032,-1.02915 -1.68999,-1.87011 -1.51027,-1.87011 0.67842,0 0.27868,-0.62103 -1.18504,-1.83744 -1.6259,-1.35188 -2.35901,-1.56021 -2.60846,-0.74211 -0.0835,0.2839 -0.30999,0.51457 -0.49786,0.51353 -0.18682,-0.001 -0.69825,0.37158 -1.13557,0.8277 -0.6565,0.68576 -0.87359,0.77448 -1.24108,0.51249 -0.36531,-0.26094 -0.66277,-0.167 -1.65023,0.52606 -0.66276,0.46447 -1.96825,1.34708 -2.90238,1.96206 -0.93413,0.61582 -2.39106,1.8340003 -3.23772,2.7084603 -0.84751,0.87467 -2.36361,2.15464 -3.3706,2.8454 -2.83892,1.94714 -5.28748,3.9855 -5.28748,4.40134 0,0.20771 0.32981,0.68262 0.73269,1.05555 0.40287,0.37367 1.29859,1.41159 1.99027,2.30776 0.69094,0.8966 1.54502,1.74173 1.89706,1.87898 0.35174,0.13674 1.11313,0.43212 1.69198,0.65549 0.8642,0.33296 0.931,0.40915 0.37574,0.42168 -1.09779,0.0209 -0.81306,0.89033 0.62832,1.90298 0.71704,0.50414 2.64489,1.69727 4.28312,2.65053 1.63822,0.95296 3.18157,1.87606 3.42935,2.05058 1.56808,1.10399 7.21357,6.27865 7.21357,6.61192 0,1.01663 2.38574,2.90187 5.5336,4.37243 1.16834,0.54588 1.5063,0.3507 3.11582,-1.79841 z m -3.65115,-2.56546 c -0.25258,-0.35175 0.27763,-1.74768 0.99154,-2.60805 0.34234,-0.41229 0.62205,-0.82979 0.62205,-0.92791 0,-0.0939 0.27033,-0.47282 0.60119,-0.83292 0.69512,-0.75777 0.79218,-1.40668 0.18056,-1.20513 -0.69825,0.22963 -0.84019,-0.35383 -0.26823,-1.09918 0.83706,-1.08958 1.2224,-3.4487 0.97483,-5.97189 -0.191,-1.95006 -0.39766,-2.53989 -1.59376,-4.56103 -1.16333,-1.96551 -1.33993,-2.45639 -1.15258,-3.20445 0.24318,-0.97175 0.72434,-1.2616 1.23169,-0.74212 1.32167,1.35282 2.54543,3.36613 3.21706,5.29302 0.43419,1.24552 1.05635,3.01909 1.38272,3.94104 0.41854,1.18311 0.60641,2.52497 0.6398,4.5578 0.0418,2.55054 -0.0209,2.96407 -0.57717,3.59973 -0.34234,0.39454 -1.04268,0.811 -1.554,0.92477 -0.61892,0.13778 -1.30027,0.63878 -2.03202,1.49435 -0.60536,0.70767 -1.21405,1.28748 -1.35172,1.28748 -0.13777,0 -0.45089,0.0626 -0.69512,0.14613 -0.24423,0.0835 -0.5229,0.0417 -0.61684,-0.0939 z m 6.04951,-8.52639 c 0.15447,-1.86009 -0.0522,-3.13421 -0.49681,-3.13421 -0.1409,0 -0.26928,1.23748 -0.28389,2.7499 -0.0209,1.98471 0.0626,2.6714 0.30163,2.46849 0.18057,-0.15552 0.39557,-1.0925 0.47803,-2.08418 z m -1.09778,-13.47257 c -0.39557,-0.13674 -0.65129,-0.30687 -0.56779,-0.37784 0.17639,-0.15135 1.73842,0.31939 1.73842,0.52188 0,0.18683 -0.32459,0.14612 -1.17063,-0.14404 z m -2.28586,-1.52567 c -0.10437,-0.14195 0.0104,-0.25781 0.26511,-0.25781 0.24736,0 0.53438,0.11586 0.63667,0.25781 0.10437,0.14091 -0.0104,0.25781 -0.26511,0.25781 -0.2484,0 -0.53438,-0.1169 -0.63667,-0.25781 z m -8.86651,23.47025 c -0.17743,-0.2839 -0.53438,-0.51562 -0.79427,-0.51562 -0.28389,0 -0.40809,-0.14613 -0.30894,-0.36532 0.20144,-0.4509 -3.84423,-3.91421 -6.23091,-5.33508 -1.68832,-1.00515 -2.28387,-1.20753 -2.28387,-0.77656 0,0.47387 6.32046,5.54373 7.67845,6.15945 0.39765,0.17952 0.86524,0.55737 1.04059,0.83814 0.17534,0.28077 0.52186,0.5104 0.76922,0.5104 0.35799,0 0.38513,-0.10647 0.12942,-0.51562 z m -13.82585,-2.41955 c 0,-0.19622 -0.50621,-0.68262 -1.12691,-1.08196 -0.61997,-0.39976 -1.23075,-0.8705 -1.35694,-1.04637 -0.4895,-0.68158 -5.72491,-4.88199 -6.56959,-5.27006 -2.07273,-0.95191 1.79749,2.7405 5.89754,5.62661 0.99153,0.69827 1.98933,1.46252 2.21603,1.69872 0.50203,0.52188 0.93935,0.55632 0.93935,0.0731 z m 32.07854,-5.90258 c 0.81515,-1.64392 1.20529,-3.54211 0.72643,-3.54211 -0.18265,0 -0.41018,0.31939 -0.5062,0.70976 -0.28285,1.16077 -0.66798,2.46046 -0.99362,3.35298 -0.48011,1.3166 0.0313,0.97174 0.77339,-0.51979 z m -38.9911,-2.24701 c 0,-0.58764 -4.85393,-3.87424 -5.72126,-3.87424 -0.56987,0 -0.2338,0.40081 1.08474,1.28978 a 180.32227,154.73739 0 0 1 2.70501,1.86969 c 1.37708,0.97488 1.93151,1.17966 1.93151,0.71498 z m 46.36353,-0.91225 c 2.50493,-1.29165 3.13085,-2.08898 2.76951,-3.52541 -0.29537,-1.17486 -1.1459,-2.55022 -1.9909,-3.22032 -0.38826,-0.30791 -1.1029,-0.91955 -1.58854,-1.35939 -0.48533,-0.44047 -1.02702,-0.75882 -1.20236,-0.70976 -0.18683,0.0522 -0.35591,1.0971 -0.40601,2.5115 -0.0626,1.77951 -0.21501,2.54166 -0.56987,2.87786 -0.38096,0.36114 -0.44567,0.79848 -0.30686,2.07521 0.18892,1.73598 0.43941,2.51432 0.80784,2.51432 0.12629,0 1.24641,-0.52397 2.48823,-1.16442 z m -7.89418,-1.66229 c 0.46445,-2.11049 0.0939,-4.15345 -0.95501,-5.30044 -1.06543,-1.16212 -1.26019,-0.4843 -0.82871,2.88444 0.21501,1.67774 0.41436,3.39849 0.44149,3.82414 0.0835,1.22944 0.13777,1.31597 0.55213,0.84858 0.21501,-0.2432 0.56987,-1.25816 0.7901,-2.2561 z m -38.78101,-3.29881 c -0.0209,-0.46761 -1.45255,-1.66345 -1.77881,-1.49029 -0.42688,0.2265 0.44775,1.16787 1.08484,1.16787 0.22231,0 0.40392,0.11586 0.40392,0.25781 0,0.14195 0.0731,0.25781 0.1503,0.25781 0.0835,0 0.14507,-0.0835 0.13881,-0.19414 z m 39.98536,-7.1266 c 0,-0.19623 -0.46446,-0.65966 -1.03224,-1.03124 -1.64355,-1.0757 -2.09913,-0.84023 -1.21437,0.6273 0.35173,0.58451 0.66694,0.7609 1.35266,0.7609 0.56048,0 0.89343,-0.13255 0.89343,-0.35696 z m -25.3024,-8.7774203 c 1.34723,-1.25418 1.65617,-1.89965 0.69929,-1.46001 -0.3079,0.1409 -0.80053,0.58033 -1.09549,0.97591 -0.29641,0.39663 -0.99153,1.04805 -1.54773,1.44927 -0.55526,0.4008 -1.16323,0.97487 -1.35026,1.27537 -0.46655,0.74629 1.57977,-0.64504 3.2945,-2.24085 z m 6.74724,-3.65797 c 0.29328,-0.2505 -0.10855,-0.8778 -0.56257,-0.8778 -0.23066,0 -0.41853,0.0417 -0.41853,0.10751 0,0.0626 -0.0835,0.29225 -0.18265,0.51561 -0.12734,0.28599 -0.005,0.40812 0.40079,0.40812 0.32042,0 0.6638,-0.0731 0.76296,-0.15448 z M 1.8016344,148.30526 c 0,-0.54693 1.21478,-2.70522 1.52237,-2.70522 0.13986,0 0.3413,-0.39767 0.44775,-0.88511 0.10646,-0.48744 0.45089,-1.08562 0.76505,-1.32986 0.31416,-0.24319 0.57092,-0.71915 0.57092,-1.05639 0,-0.33713 0.20352,-0.67949 0.45088,-0.76195 0.24841,-0.0835 0.45089,-0.39349 0.45089,-0.69201 0,-0.63148 0.85585,-2.71817 1.32928,-3.23973 0.17744,-0.19623 0.66172,-0.90912 1.07545,-1.58433 1.6131796,-2.63561 2.1522596,-3.39025 2.3189396,-3.24715 0.0939,0.0835 -0.25153,0.89138 -0.7723496,1.79778 -0.52082,0.90703 -0.94561,1.7316 -0.94561,1.83316 0,0.10438 -0.41749,0.95817 -0.92996,1.90299 -1.76441,3.26238 -3.95643,8.15241 -4.00214,8.92771 -0.0313,0.54485 -0.2672,0.87468 -0.78801,1.10055 -0.99467,0.43212 -1.49367,0.41124 -1.49367,-0.0626 z m 9.3173996,-16.76167 c 0,-0.21293 0.13151,-0.38724 0.29119,-0.38724 0.15969,0 0.21292,0.17431 0.11899,0.38724 -0.0939,0.21293 -0.22649,0.38619 -0.2912,0.38619 -0.0626,0 -0.11898,-0.17326 -0.11898,-0.38619 z"
     style="fill:#333333;stroke-width:0.309389"
     id="path1"
     inkscape:export-filename="../../pwp-fast/public/favicon-16x16.svg"
     inkscape:export-xdpi="96"
     inkscape:export-ydpi="96" />
</svg>
