<?xml version="1.0" encoding="UTF-8" standalone="no"?>
<svg
   width="16.00045"
   height="15.999817"
   version="1.1"
   id="svg1"
   sodipodi:docname="hand-drawn-pencil-icon copy.svg"
   xmlns:inkscape="http://www.inkscape.org/namespaces/inkscape"
   xmlns:sodipodi="http://sodipodi.sourceforge.net/DTD/sodipodi-0.dtd"
   xmlns="http://www.w3.org/2000/svg"
   xmlns:svg="http://www.w3.org/2000/svg">
  <defs
     id="defs1" />
  <sodipodi:namedview
     id="namedview1"
     pagecolor="#ffffff"
     bordercolor="#000000"
     borderopacity="0.25"
     inkscape:showpageshadow="2"
     inkscape:pageopacity="0.0"
     inkscape:pagecheckerboard="0"
     inkscape:deskcolor="#d1d1d1" />
  <path
     d="m 0.11505671,15.941881 c 0,-0.0583 0.12077,-0.22085 0.21184,-0.28519 0.0318,-0.0225 0.0422,-0.0524 0.03,-0.0865 -0.0263,-0.0734 -0.023,-0.073 -0.14646,-0.019 -0.18458,0.0808 -0.28359,-0.0127 -0.14624,-0.13812 0.0354,-0.0323 0.079,-0.11642 0.097,-0.18691 0.018,-0.0705 0.0659,-0.22826 0.10656,-0.35056 0.10845,-0.32657 0.19289,-0.62452 0.19289,-0.68051 0,-0.027 0.0119,-0.0684 0.0264,-0.092 0.0145,-0.0236 0.0427,-0.0805 0.0627,-0.12648 0.02,-0.046 0.0651,-0.11302 0.10039,-0.14899 0.0617,-0.0629 0.24249,-0.34878 0.24249,-0.38343 0,-0.009 0.0246,-0.0635 0.0549,-0.12049 0.0301,-0.057 0.077,-0.17038 0.10399999,-0.25191 0.027,-0.0815 0.0606,-0.15884 0.0747,-0.17175 0.0141,-0.0129 0.0256,-0.0524 0.0256,-0.0877 0,-0.0353 0.0122,-0.0748 0.0271,-0.0877 0.015,-0.0129 0.0418,-0.0735 0.0596,-0.13468 0.0712,-0.24411 0.0709,-0.22945 0.004,-0.21111 -0.0754,0.0205 -0.0819,-0.0248 -0.0153,-0.10643 0.091,-0.1114 0.21216,-0.33829 0.21248,-0.39782 3.2e-4,-0.0471 0.008,-0.054 0.035,-0.0309 0.0494,0.0425 0.0899,0.0366 0.0691,-0.01 -0.0168,-0.0376 0.0187,-0.18595 0.0703,-0.29394 0.013,-0.0272 0.0395,-0.0936 0.0588,-0.14756 0.0193,-0.054 0.0972,-0.2041 0.17299,-0.33363 0.0758,-0.12946 0.16025,-0.29559 0.18768,-0.36918 0.0274,-0.0736 0.08,-0.18477 0.11689,-0.2471 0.0369,-0.0623 0.0671,-0.12754 0.0671,-0.14497 1.3e-4,-0.0275 0.095,-0.24104 0.17274,-0.38841 0.0143,-0.0272 0.0806,-0.16618 0.1472,-0.30891 0.0666,-0.14267 0.12976,-0.26497 0.14022,-0.27178 0.0105,-0.007 0.0413,-0.0608 0.0685,-0.12 0.0271,-0.0592 0.0675,-0.12312 0.0895,-0.14207 0.0995,-0.0854 0.21366,0.005 0.14348,0.11423 -0.0493,0.0763 -0.053,0.11807 -0.007,0.0786 0.019,-0.0163 0.0553,-0.0297 0.0807,-0.0297 0.0601,0 0.24217,-0.16119 0.21875,-0.19367 -0.0279,-0.0387 0.10327,-0.23038 0.24077,-0.35161 0.0683,-0.0602 0.15299,-0.14847 0.18819,-0.19605 0.0352,-0.0476 0.10471,-0.12379 0.15444,-0.1694 0.0498,-0.0456 0.0905,-0.0935 0.0905,-0.10654 0,-0.024 -0.23763,0.1491 -0.55674,0.40568 -0.18662,0.15006 -0.22173,0.1636 -0.27667,0.10681 -0.0561,-0.058 0.0206,-0.14921 0.4065,-0.48363 0.60083,-0.52072 0.98137,-0.81543 1.05289,-0.81543 0.075,0 0.38192,-0.25125 0.38192,-0.31259 0,-0.009 0.0534,-0.0668 0.11869,-0.12944 0.29171,-0.28008 0.46903,-0.4696 0.52275,-0.55873 0.0245,-0.0408 0.0846,-0.11305 0.13332,-0.16063 a 9.236676,7.9258212 0 0 0 0.16806,-0.16959 c 0.0437,-0.0457 0.14102,-0.13738 0.21626,-0.20374 0.0752,-0.0663 0.13676,-0.13504 0.13676,-0.15267 0,-0.0177 0.0593,-0.0872 0.13184,-0.15457 0.0725,-0.0674 0.16333,-0.1642 0.20192,-0.21516 0.0386,-0.051 0.0812,-0.0927 0.0947,-0.0927 0.0136,0 0.0581,-0.0434 0.099,-0.0965 0.0409,-0.0531 0.12039,-0.13483 0.17661,-0.18164 0.0562,-0.0469 0.10221,-0.0923 0.10221,-0.10094 0,-0.016 0.0383,-0.059 0.17997,-0.20226 0.0435,-0.044 0.0792,-0.0911 0.0792,-0.10465 0,-0.0136 0.0215,-0.0399 0.0476,-0.0585 0.0262,-0.0186 0.099,-0.0937 0.16198,-0.16676 l 0.1144,-0.1329 -0.0468,-0.0842 c -0.0591,-0.10637 -0.0589,-0.11104 0.0126,-0.2507 0.13709,-0.26799 0.19626,-0.34718 0.26154,-0.34996 0.062,-0.002 0.0408,0.096 -0.0489,0.22725 -0.0754,0.11036 -0.0939,0.15704 -0.0701,0.17711 0.0397,0.0335 0.11884,-0.0462 0.0962,-0.0967 -0.0291,-0.065 0.0464,-0.15514 0.3425,-0.40836 l 0.22307,-0.19084 -0.0459,-0.0955 c -0.0253,-0.0525 -0.0743,-0.12886 -0.1089,-0.16964 -0.0346,-0.0408 -0.0784,-0.10473 -0.0973,-0.1421 -0.0307,-0.0605 -0.0285,-0.068 0.0198,-0.068 0.0614,0 0.13961,0.10212 0.21798,0.28456 0.0291,0.0677 0.062,0.13224 0.0731,0.14333 0.021,0.0209 0.17799,-0.13718 0.20887,-0.21036 0.01,-0.0231 0.0592,-0.0604 0.10995,-0.0829 0.12432,-0.0551 0.24185,-0.18007 0.24185,-0.25704 0,-0.0415 0.022,-0.0712 0.0648,-0.0873 0.0544,-0.0205 0.062,-0.0374 0.0472,-0.10503 -0.0135,-0.0617 -0.008,-0.0806 0.0252,-0.0806 0.0236,0 0.059,0.0167 0.0787,0.0371 0.0552,0.0571 0.11081,0.0444 0.16966,-0.0386 0.0644,-0.0909 0.3472,-0.29782 0.50704,-0.37102 0.0634,-0.029 0.1605403,-0.0887 0.2160003,-0.13263 0.18176,-0.14399 0.42445,-0.23837 0.38477,-0.14965 -0.009,0.0204 -0.004,0.0371 0.0127,0.0371 0.0298,0 0.0853,-0.0549 0.26483,-0.26231 0.11587,-0.13392 0.68045,-0.62565001 0.94422,-0.82247001 0.0984,-0.0734 0.17885,-0.15001 0.17885,-0.17027 0,-0.0203 0.0386,-0.0714 0.0857,-0.11368 a 14.534022,12.471376 0 0 0 0.1864,-0.17126 l 0.10067,-0.0945 0.085,0.043 c 0.0844,0.0428 0.0857,0.0426 0.18899,-0.0352 0.11584,-0.0873 0.12736,-0.0899 0.22704,-0.0509 0.059,0.0231 0.0849,0.0181 0.16218,-0.0309 0.0744,-0.0472 0.12758,-0.0583000036719 0.27875,-0.0583000036719 h 0.18682 L 13.593467,0.14827099 c 0.0933,0.0816 0.19284,0.16585 0.22113,0.18736 0.0718,0.0545 0.2302,0.20876 0.37337,0.36352 0.13203,0.14268 0.33274,0.30174001 0.51322,0.40666001 0.0634,0.0368 0.16704,0.10605 0.2304,0.1538 0.30982,0.23362 0.43136,0.3275 0.50467,0.3898 0.0439,0.0374 0.0935,0.0679 0.11001,0.0679 0.048,0 0.28151,0.25995 0.3608,0.40163 0.11165,0.19949 0.12071,0.28686 0.0404,0.38923 -0.0373,0.0475 -0.12553,0.11238 -0.19619,0.14418 -0.19321,0.087 -0.42864,0.26943 -0.44601,0.34565 -0.0554,0.24271 -0.0889,0.3242 -0.16967,0.41196 -0.05,0.0544 -0.11277,0.12859 -0.13952,0.16492 -0.0267,0.0363 -0.0741,0.073 -0.10534,0.0815 -0.0642,0.0174 -0.19933,0.19823 -0.25914,0.34659 -0.0219,0.0544 -0.0703,0.14031 -0.10752,0.191 -0.0773,0.10533 -0.0846,0.14259 -0.028,0.14259 0.0219,0 0.0566,0.0174 0.0773,0.0388 0.0324,0.0335 0.013,0.0577 -0.14048,0.17494 -0.0979,0.0749 -0.17804,0.15624 -0.17804,0.18085 0,0.0272 -0.0283,0.0509 -0.072,0.0603 -0.0569,0.0122 -0.072,0.0311 -0.072,0.09 0,0.0589 -0.021,0.0851 -0.10077,0.12551 -0.0554,0.0281 -0.1008,0.0611 -0.1008,0.0733 0,0.0122 -0.0172,0.0222 -0.0382,0.0222 -0.021,0 -0.0686,0.0278 -0.10583,0.0618 -0.0821,0.075 -0.0533,0.0801 0.0604,0.0106 0.11257,-0.0688 0.21049,-0.0554 0.22208,0.0304 0.007,0.0525 -0.0265,0.096 -0.1656,0.215 -0.096,0.0821 -0.17447,0.16646 -0.17447,0.18749 0,0.0211 -0.02,0.0383 -0.0445,0.0383 -0.0552,0 -0.1697,0.10105 -0.57389,0.50683 -0.0946,0.095 -0.30198,0.29005 -0.46077,0.43346 -0.30585,0.27627 -0.67936,0.62963 -0.71056,0.67225 -0.0103,0.014 -0.0572,0.0189 -0.10425,0.0109 -0.0793,-0.0136 -0.1121,0.008 -0.44704,0.30078 -0.19882,0.17348 -0.44192,0.39809 -0.54016,0.49911 -0.0983,0.10102 -0.27725,0.27659 -0.39767,0.39019 -0.12041,0.11357 -0.23763,0.23035 -0.26048,0.25945 -0.0229,0.0291 -0.13401,0.14188 -0.2470403,0.25062 -0.11302,0.10874 -0.2783,0.2767 -0.36729,0.3733 -0.089,0.0966 -0.17895,0.19111 -0.19991,0.21006 -0.0209,0.0189 -0.0757,0.0844 -0.12176,0.14559 -0.144,0.19144 -0.34064,0.39537 -0.38124,0.39537 -0.0215,0 -0.0389,0.0108 -0.0389,0.024 0,0.0325 -0.36615,0.49261 -0.45066,0.56622 -0.0373,0.0324 -0.0677,0.0686 -0.0677,0.0803 0,0.0118 -0.0139,0.0214 -0.0309,0.0214 -0.017,0 -0.004,-0.0293 0.0288,-0.0651 0.0328,-0.0358 0.0597,-0.0744 0.0597,-0.0857 0,-0.0528 -0.0963,0.0222 -0.23581,0.18361 -0.19658,0.22744 -0.2048,0.239 -0.16992,0.239 0.0294,0 0.0553,-0.0214 0.13453,-0.11121 0.039,-0.0442 0.039,-0.0417 5e-4,0.0247 -0.0739,0.12697 -0.19712,0.27044 -0.39504,0.45994 a 51.4829,44.176527 0 0 0 -0.41604,0.40493 c -0.12396,0.12233 -0.28761,0.27799 -0.36361,0.34595 -0.076,0.068 -0.13824,0.13669 -0.13831,0.15278 -6e-5,0.016 -0.0242,0.0357 -0.0535,0.0437 -0.0293,0.008 -0.13424,0.0913 -0.23306,0.18508 -0.17968,0.17051 -0.21113,0.18803 -0.7934,0.44194 a 11.770501,10.10005 0 0 1 -0.33117,0.13803 c -0.23239,0.092 -0.30992,0.13428 -0.61834,0.33731 -0.42211,0.27791 -0.49395,0.31898 -0.58525,0.33466 -0.12,0.0206 -0.13321,-0.0377 -0.0314,-0.13784 0.0461,-0.0453 0.0778,-0.0876 0.0703,-0.094 -0.0199,-0.0171 -0.24928,0.0888 -0.3328,0.15358 -0.0396,0.0308 -0.1433,0.0914 -0.2304,0.13485 -0.0871,0.0435 -0.23616,0.12263 -0.33117,0.17598 -0.095,0.0533 -0.26999,0.13721 -0.38877,0.18636 -0.11879,0.0491 -0.28295,0.12733 -0.36483,0.17368 -0.0819,0.0463 -0.15549,0.0843 -0.16352,0.0843 -0.008,0 -0.0966,0.0467 -0.19674,0.10379 -0.1001,0.0571 -0.22736,0.11698 -0.28278,0.13307 -0.0624,0.0181 -0.11629,0.0562 -0.14144,0.10003 -0.056,0.0975 -0.14196,0.15728 -0.22628,0.15728 -0.0781,0 -0.26806,0.11022 -0.55167999,0.32017 -0.39731,0.29402 -0.49446,0.37733 -0.64255,0.55087 -0.12868,0.15075 -0.22349,0.18639 -0.22349,0.084 z m 3.44127999,-2.33445 c 0.11085,-0.0623 0.2417,-0.13235 0.29076,-0.15569 0.0984,-0.0468 0.31139,-0.17398 0.76057,-0.45408 0.0436,-0.0272 0.14234,-0.0879 0.21946,-0.13488 0.17651,-0.10758 0.14729,-0.0879 0.47872,-0.32176 0.15449,-0.10901 0.28925,-0.19819 0.29942,-0.19819 0.022,0 0.23191,-0.14295 0.41319,-0.2814 0.21321,-0.16286 0.24896,-0.24477 0.12752,-0.29224 -0.0586,-0.0229 -0.079,-0.0222 -0.0976,0.004 -0.0376,0.0522 -0.0931,0.007 -0.0588,-0.0477 0.0485,-0.0778 0.0331,-0.099 -0.0719,-0.099 -0.0831,0 -0.1008,-0.009 -0.1008,-0.0517 0,-0.031 -0.0231,-0.0569 -0.0576,-0.0647 -0.0317,-0.007 -0.0576,-0.0228 -0.0576,-0.0348 0,-0.042 -0.0827,-0.0214 -0.0998,0.0249 -0.01,0.0258 -0.0428,0.0525 -0.0739,0.0595 -0.0439,0.01 -0.0566,0.034 -0.0567,0.10769 -1.2e-4,0.11676 -0.0931,0.25559 -0.17116,0.25559 -0.0425,0 -0.0652,-0.0263 -0.0895,-0.10401 -0.028,-0.0892 -0.0924,-0.1647 -0.14237,-0.16684 -0.008,-3.3e-4 -0.0464,0.041 -0.0857,0.0919 -0.0392,0.0509 -0.12666,0.1493 -0.19437,0.21871 -0.0677,0.0694 -0.12365,0.13614 -0.12429,0.14828 -5e-4,0.0121 -0.0523,0.0705 -0.11478,0.12982 -0.0941,0.0893 -0.12599,0.10512 -0.18599,0.0922 -0.0935,-0.0202 -0.0912,-0.0341 0.0227,-0.1382 0.0521,-0.0476 0.133,-0.1327 0.17975,-0.18919 0.0468,-0.0565 0.16294,-0.18987 0.25811,-0.2965 0.28096,-0.31473 0.29242,-0.39559 0.10774,-0.76217 -0.10508,-0.20865 -0.15753,-0.26964 -0.2527,-0.29386 -0.0453,-0.0115 -0.0701,0.004 -0.11136,0.0697 -0.0292,0.0465 -0.0872,0.11211 -0.12886,0.14586 -0.0931,0.0752 -0.27239,0.12211 -0.31789,0.0831 -0.0496,-0.0426 -0.0371,-0.0666 0.0346,-0.0666 0.0683,0 0.24505,-0.13921 0.30579,-0.24092 0.0288,-0.0482 0.0259,-0.0556 -0.0219,-0.0556 -0.0634,0 -0.10893,0.0406 -0.12406,0.11057 -0.007,0.0303 -0.0545,0.0631 -0.12627,0.0865 -0.0636,0.0207 -0.14423,0.0624 -0.17908,0.0927 -0.0349,0.0302 -0.10921,0.0715 -0.16528,0.0916 -0.0752,0.0269 -0.10636,0.0557 -0.11891,0.10956 -0.0185,0.0791 -0.0889,0.10959 -0.16672,0.0722 -0.0332,-0.0159 -0.04,-0.0328 -0.0211,-0.0524 0.0153,-0.0159 0.0274,-0.0567 0.0269,-0.0907 -5e-4,-0.034 0.0162,-0.18408 0.0373,-0.33357 0.05,-0.35539 0.0423,-0.51592 -0.0292,-0.61397 -0.0529,-0.0725 -0.23536,-0.21382 -0.27607,-0.21382 -0.034,0 -0.11005,0.0791 -0.23405,0.24328 -0.0683,0.0904 -0.12444,0.1546 -0.1248,0.1426 -5e-4,-0.0247 0.19351,-0.35894 0.23264,-0.40052 0.014,-0.0149 0.0174,-0.0339 0.008,-0.0423 -0.0208,-0.0178 -0.18316,0.0496 -0.18345,0.0761 -10e-5,0.01 -0.039,0.0368 -0.0864,0.06 -0.0474,0.0232 -0.0863,0.062 -0.0864,0.0865 -1.3e-4,0.0244 -0.04,0.13889 -0.0885,0.25441 -0.0486,0.11551 -0.0906,0.23276 -0.0934,0.26058 -0.003,0.0277 -0.029,0.082 -0.0584,0.12037 -0.0449,0.0588 -0.0477,0.079 -0.0176,0.12716 0.0487,0.0782 0.0174,0.22514 -0.0853,0.39975 -0.046,0.0783 -0.12467,0.22016 -0.17475,0.31531 -0.0501,0.0951 -0.15469,0.28414 -0.23242,0.42006 -0.16544,0.28925 -0.31485,0.65665 -0.31485,0.77411 0,0.0648 0.0231,0.0995 0.10695,0.1608 0.18572,0.13581 0.39251,0.32706 0.52659,0.487 0.1758,0.20973 0.42889,0.44371 0.47993,0.44371 0.0242,0 0.0332,0.012 0.0213,0.0284 -0.0113,0.0157 0.002,0.0426 0.0293,0.0597 0.042,0.0263 0.0797,0.0177 0.24199,-0.0561 0.10569,-0.048 0.28288,-0.13831 0.39376,-0.20062 z m -0.90714,-1.01459 c 0,-0.0135 0.013,-0.0316 0.0288,-0.0399 0.0159,-0.008 0.0288,-0.004 0.0288,0.009 0,0.0136 -0.0129,0.0316 -0.0288,0.04 -0.0159,0.008 -0.0288,0.004 -0.0288,-0.009 z m 0.1152,-0.22022 c 0,-0.013 0.0209,-0.0387 0.0465,-0.0568 0.0403,-0.0287 0.0451,-0.0269 0.036,0.0134 -0.0109,0.048 -0.0825,0.0857 -0.0825,0.0434 z m 2.05342,0.002 c -0.0189,-0.006 -0.0273,-0.0263 -0.0186,-0.0457 0.0204,-0.0455 0.12489,-0.0464 0.12489,-10e-4 0,0.0386 -0.0542,0.0625 -0.10637,0.0468 z m -0.09,0.8701 c 0.047,-0.034 0.0776,-0.0618 0.0678,-0.0618 -0.0286,0 -0.24585,0.0987 -0.24585,0.1117 0,0.0333 0.10268,0.004 0.17801,-0.0499 z m 0.68506,-0.43145 c 0.0233,-0.0127 0.0327,-0.0313 0.0209,-0.0414 -0.0118,-0.0101 -0.0434,4.4e-4 -0.0701,0.0233 -0.052,0.0447 -0.0209,0.0561 0.0492,0.0181 z m 0.98793,-0.37182 c 0.0757,-0.0814 0.12106,-0.14806 0.10087,-0.14806 -0.0391,0 -0.31043,0.24128 -0.31043,0.27599 0,0.0573 0.0864,0.005 0.20956,-0.12796 z m -4.99798,-0.23293 c 0.0181,-0.0506 0.0202,-0.0881 0.005,-0.0881 -0.0323,0 -0.14061,0.14811 -0.14077,0.19238 -2.3e-4,0.0644 0.10413,-0.0157 0.13578,-0.10426 z m 5.19155,-0.17458 c 0.0294,-0.0303 0.0274,-0.037 -0.0109,-0.037 -0.0257,0 -0.0467,0.0166 -0.0467,0.037 0,0.0204 0.005,0.0371 0.0109,0.0371 0.006,0 0.027,-0.0167 0.0467,-0.0371 z m -0.0216,-0.50148 c 0.0594,-0.0638 0.108,-0.13559 0.108,-0.15943 0,-0.0238 0.0126,-0.0433 0.0279,-0.0433 0.0349,0 0.46167,-0.36902 0.46167,-0.39914 0,-0.0121 0.0492,-0.069 0.10937,-0.1265 0.0602,-0.0575 0.13114,-0.13427 0.15773,-0.17068 0.0266,-0.0365 0.0875,-0.0861 0.13542,-0.11036 0.0478,-0.0242 0.087,-0.053 0.087,-0.0638 0,-0.0385 0.28077,-0.31915 0.66256,-0.66252 0.0397,-0.0357 0.14317,-0.1363 0.22983,-0.22349 a 27.194027,23.334693 0 0 1 0.30931,-0.30479 c 0.15354,-0.14803 0.1785,-0.18729 0.11892,-0.18729 -0.0445,0 -0.55489,0.43052 -0.83483,0.70423 -0.54672,0.53457 -0.61273,0.59324 -0.72,0.63995 -0.0344,0.0149 -0.0767,0.0487 -0.0941,0.0751 -0.0174,0.0264 -0.0656,0.0734 -0.1071,0.10456 -0.0654,0.0491 -0.28448,0.33439 -0.28448,0.3705 0,0.0387 -0.31191,0.36385 -0.4336,0.45189 -0.1305,0.0944 -0.17239,0.16489 -0.12314,0.20714 0.0402,0.0345 0.0851,0.0104 0.18957,-0.10198 z m 1.0687,-0.141 c 0.009,-0.0204 0.0121,-0.0371 0.007,-0.0371 -0.005,0 -0.0261,0.0167 -0.0459,0.0371 -0.0207,0.0213 -0.0234,0.0371 -0.007,0.0371 0.0161,0 0.0367,-0.0167 0.0458,-0.0371 z m 0.1777,-0.1915 0.10714,-0.12974 -0.10679,0.0865 c -0.11741,0.0951 -0.17798,0.17299 -0.13456,0.17299 0.0149,0 0.0753,-0.0584 0.13421,-0.12974 z m -1.58877,-0.0814 c 0.1362,-0.15517 0.19072,-0.1918 0.19165,-0.12862 2.6e-4,0.0212 0.009,0.0197 0.0269,-0.005 0.0145,-0.0197 0.0209,-0.0436 0.0142,-0.053 -0.007,-0.009 0.007,-0.0235 0.0307,-0.0313 0.0237,-0.008 0.043,-0.0423 0.043,-0.0767 0,-0.0344 0.01,-0.0625 0.0217,-0.0625 0.012,0 0.0391,-0.0335 0.0602,-0.0744 0.0519,-0.10069 0.26368,-0.28919 0.26368,-0.23474 0,0.0224 0.018,0.0563 0.04,0.0752 0.0343,0.0294 0.0524,0.0243 0.12423,-0.0346 0.0463,-0.038 0.11356,-0.10984 0.14947,-0.1597 0.0359,-0.0498 0.0748,-0.0907 0.0865,-0.0907 0.0116,0 0.0502,-0.0445 0.0859,-0.0989 0.0356,-0.0544 0.0796,-0.0988 0.0978,-0.0988 0.0182,0 0.0616,-0.0306 0.0964,-0.068 0.0348,-0.0374 0.0727,-0.0599 0.0843,-0.0501 0.0211,0.018 -0.0727,0.13575 -0.20777,0.26058 -0.0812,0.0751 -0.384,0.45833 -0.384,0.48601 0,0.022 0.16896,-0.0909 0.1712,-0.11428 0.001,-0.009 0.0404,-0.0536 0.088,-0.0982 0.0475,-0.0446 0.0864,-0.0929 0.0864,-0.10722 0,-0.0143 0.0226,-0.0433 0.0504,-0.0644 0.087,-0.0663 0.22858,-0.20885 0.34221,-0.34458 0.0602,-0.0719 0.13578,-0.15465 0.168,-0.18392 0.0322,-0.0292 0.078,-0.0746 0.10176,-0.10077 0.0239,-0.0261 0.0724,-0.0796 0.10803,-0.11884 0.0901,-0.0993 0.0821,-0.12293 -0.0361,-0.10649 -0.10745,0.0149 -0.14428,-0.0272 -0.0435,-0.0498 0.0315,-0.007 0.0509,-0.0217 0.0431,-0.0326 -0.008,-0.0109 0.0311,-0.0439 0.0867,-0.0733 0.0555,-0.0294 0.10096,-0.0732 0.10096,-0.0972 0,-0.024 0.0242,-0.0675 0.0538,-0.0968 0.0563,-0.0557 0.11905,-0.0707 0.11905,-0.0285 0,0.0136 -0.0106,0.0247 -0.0234,0.0247 -0.0129,0 -0.0412,0.0389 -0.063,0.0865 -0.0217,0.0476 -0.0501,0.0865 -0.063,0.0865 -0.0129,0 -0.0234,0.0161 -0.0234,0.0358 0,0.0197 -0.0226,0.0467 -0.0502,0.0599 -0.0276,0.0132 -0.0395,0.0333 -0.0264,0.0444 0.013,0.0112 0.0802,-0.0324 0.14928,-0.097 0.083,-0.0775 0.14906,-0.11736 0.19476,-0.11736 0.0381,0 0.0927,-0.0223 0.12131,-0.0494 0.0447,-0.0424 0.0457,-0.0494 0.007,-0.0494 -0.0249,0 -0.051,0.0139 -0.0581,0.0309 -0.007,0.017 -0.0215,0.0241 -0.0319,0.0159 -0.0105,-0.008 0.007,-0.0416 0.0387,-0.0741 0.0464,-0.0476 0.0628,-0.0524 0.084,-0.0249 0.0329,0.0428 0.0655,0.0244 0.35508,-0.20025 0.11561,-0.0897 0.35446,-0.27487 0.53078,-0.41153 0.28704,-0.22247 0.5725403,-0.46454 0.7208903,-0.61128 0.78532,-0.77678 0.70919,-0.71983 0.885,-0.66192 0.0293,0.01 0.0516,-10e-4 0.0624,-0.0308 0.009,-0.0252 0.0294,-0.0662 0.0451,-0.091 0.0297,-0.0473 -0.0358,-0.13955 -0.21092,-0.29711 l -0.0783,-0.0705 -0.20935,0.17403 c -0.11513,0.0957 -0.20019,0.18192 -0.18899,0.19152 0.0246,0.0211 0.2576,-0.15236 0.31079,-0.23125 0.0263,-0.039 0.047,-0.0482 0.0679,-0.0303 0.0209,0.0179 0.0182,0.0423 -0.009,0.0797 -0.0279,0.0384 -0.0298,0.0565 -0.007,0.0632 0.018,0.005 0.0322,0.039 0.0316,0.0752 -0.001,0.0656 -0.0493,0.10434 -0.33885,0.27239 l -0.10025,0.0582 0.0649,-0.0781 c 0.0911,-0.10983 0.0483,-0.12513 -0.0715,-0.0256 -0.10995,0.0914 -0.13568,0.0696 -0.0405,-0.0343 0.0329,-0.0359 0.0544,-0.0791 0.0478,-0.096 -0.007,-0.0177 -0.10972,0.0506 -0.24345,0.16209 -0.20192,0.1683 -0.2409,0.1907 -0.30695,0.17648 -0.0453,-0.01 -0.0756,-0.006 -0.0756,0.009 0,0.0141 0.026,0.0292 0.0579,0.0335 0.0551,0.007 0.0543,0.0114 -0.0173,0.082 a 5.5433624,4.7566569 0 0 0 -0.1400303,0.14454 c -0.0568,0.0618 -0.0719,0.0666 -0.12269,0.0394 -0.0499,-0.0267 -0.0724,-0.0215 -0.16339,0.038 -0.058,0.038 -0.11126,0.0641 -0.1183,0.0581 -0.0228,-0.0195 0.1064,-0.15431 0.23302,-0.243 0.0678,-0.0476 0.12416,-0.099 0.12515,-0.11437 0.001,-0.0153 0.0212,-0.0417 0.045,-0.0586 0.0632,-0.045 0.0527,-0.0801 -0.0181,-0.0608 -0.0608,0.0165 -0.0609,0.0162 -0.007,-0.0455 0.0491,-0.0564 0.055,-0.0577 0.0633,-0.0151 0.015,0.0769 0.0613,0.0541 0.1177003,-0.0579 0.0312,-0.0621 0.16627,-0.20424 0.33001,-0.34741 0.35863,-0.31358 0.3665,-0.32638 0.23047,-0.37514 -0.12404,-0.0445 -0.13719,-0.0377 -0.14144,0.0727 -0.002,0.0656 0.006,0.0799 0.0422,0.0687 0.0348,-0.0108 0.032,-1.1e-4 -0.0121,0.0454 -0.0985,0.10187 -0.19444,0.16722 -0.2288,0.15593 -0.0344,-0.0113 -0.10535,0.0505 -0.2727103,0.23763 -0.0547,0.0612 -0.1368,0.14457 -0.18249,0.18535 -0.0457,0.0408 -0.21171,0.2131 -0.36896,0.38299 -0.41111,0.44419 -1.25089,1.25142 -1.68609,1.6208 -0.17993,0.15272 -0.812,0.7692 -1.11238,1.08497 -0.0905,0.0951 -0.20742,0.2119 -0.25984,0.25946 -0.0524,0.0476 -0.1456,0.1399 -0.20698,0.20522 -0.0614,0.0653 -0.15488,0.15921 -0.20768,0.20869 -0.0528,0.0495 -0.096,0.10352 -0.096,0.12013 0,0.033 0.1409,0.13177 0.18717,0.13123 0.0159,-2.3e-4 0.0918,-0.0721 0.16877,-0.15984 z m 0.95837,-0.9502 c 0.0101,-0.0476 0.0301,-0.10619 0.0446,-0.13027 0.0143,-0.024 0.0187,-0.0539 0.01,-0.0663 -0.009,-0.0124 0.0196,-0.026 0.0635,-0.0303 0.0516,-0.005 0.0773,-0.021 0.0729,-0.045 -0.004,-0.0204 0.0322,-0.0593 0.08,-0.0865 0.0478,-0.0272 0.0944,-0.0744 0.10356,-0.105 0.009,-0.0306 0.0282,-0.0556 0.0423,-0.0556 0.0141,0 0.0258,-0.0195 0.026,-0.0433 3.8e-4,-0.0439 0.0562,-0.1134 0.21961,-0.2739 0.078,-0.0765 0.0968,-0.0843 0.13648,-0.056 0.0514,0.0367 0.0327,0.0868 -0.0253,0.0677 -0.0547,-0.018 -0.0758,0.13697 -0.0233,0.16997 0.0352,0.022 0.0348,0.0356 -0.002,0.0974 -0.0238,0.0394 -0.0699,0.0752 -0.1024,0.0795 -0.067,0.009 -0.0758,-0.0159 -0.023,-0.065 0.0198,-0.0184 5e-4,-0.0122 -0.0422,0.0136 -0.0431,0.0258 -0.0787,0.0547 -0.0792,0.0641 -5e-4,0.009 -0.0527,0.0684 -0.11609,0.13122 -0.0634,0.0628 -0.1152,0.12244 -0.1152,0.13252 0,0.01 -0.0648,0.0789 -0.144,0.15295 l -0.14397,0.1346 z m 0.5575,-0.37687 c 0,-0.0172 0.0259,-0.0453 0.0576,-0.0622 0.0462,-0.0247 0.0576,-0.0247 0.0576,4.4e-4 0,0.0172 -0.0259,0.0452 -0.0576,0.0622 -0.0463,0.0248 -0.0576,0.0247 -0.0576,-4.4e-4 z m 0.33175,-0.56131 c -0.0101,-0.014 -0.004,-0.0256 0.0121,-0.0256 0.0168,0 0.0305,-0.016 0.0305,-0.0356 0,-0.0392 0.0522,-0.0761 0.0772,-0.0546 0.009,0.007 -0.0106,0.0423 -0.0428,0.0774 -0.0341,0.0372 -0.0662,0.0533 -0.077,0.0383 z m 0.12899,-0.17096 c 0,-0.012 0.0324,-0.0401 0.072,-0.0623 0.0786,-0.0442 0.092,-0.0269 0.0319,0.041 -0.0403,0.0455 -0.1039,0.0586 -0.1039,0.0213 z m 0.57594,-0.11525 c 0,-0.0404 0.0948,-0.16154 0.14429,-0.18424 0.0886,-0.0407 0.0734,0.0295 -0.0263,0.12109 -0.0792,0.0727 -0.11805,0.0935 -0.11805,0.0631 z m -0.4401,-0.0511 c -0.0282,-0.0243 0.0334,-0.10832 0.0795,-0.10832 0.0642,0 0.0816,0.048 0.0241,0.0663 -0.0287,0.009 -0.0596,0.0259 -0.0686,0.0373 -0.009,0.0114 -0.0247,0.0136 -0.035,0.005 z m 0.34455,-0.0988 c 0.008,-0.0188 0.0333,-0.0342 0.0555,-0.0342 0.0598,0 0.0484,0.0418 -0.0153,0.0561 -0.0389,0.009 -0.0508,0.002 -0.0401,-0.0219 z m 0.15315,-0.35249 c 0,-0.0119 0.0216,-0.0369 0.0479,-0.0556 0.0434,-0.0308 0.0447,-0.0288 0.0133,0.0217 -0.0357,0.0575 -0.0613,0.0716 -0.0613,0.0339 z m 0.63354,-0.089 c 0,-0.0111 0.0586,-0.0813 0.13024,-0.15596 0.14876,-0.15503 0.14729,-0.21561 -0.002,-0.0677 -0.0539,0.0535 -0.1058,0.0905 -0.1154,0.0822 -0.0185,-0.0159 0.0554,-0.0987 0.20896,-0.23433 0.0918,-0.0811 0.15216,-0.10402 0.15216,-0.0579 0,0.0132 0.0194,0.0175 0.0432,0.01 0.0237,-0.008 0.0432,-0.002 0.0432,0.0113 0,0.0417 -0.0885,0.10506 -0.12198,0.0873 -0.0184,-0.01 -0.0225,-0.005 -0.0102,0.0124 0.0124,0.0171 -0.0495,0.0899 -0.15392,0.18093 -0.096,0.0837 -0.17462,0.14311 -0.17462,0.13202 z m -0.31677,-0.23378 c 0,-0.0127 0.013,-0.0301 0.0288,-0.0385 0.0159,-0.008 0.0288,0.002 0.0288,0.0233 0,0.0212 -0.0129,0.0385 -0.0288,0.0385 -0.0159,0 -0.0288,-0.0104 -0.0288,-0.0233 z m 0.71113,-0.29655 c 0.0171,-0.0561 0.0264,-0.0615 0.05,-0.0289 0.009,0.012 -0.003,0.0349 -0.0249,0.0508 -0.0332,0.0236 -0.0378,0.0196 -0.0251,-0.0219 z m 0.1698303,-0.0138 c 0.0259,-0.034 0.0592,-0.0618 0.074,-0.0618 0.0317,0 -0.0663,0.12164 -0.0989,0.12279 -0.0122,4.4e-4 -10e-4,-0.027 0.0249,-0.061 z m -0.3348503,-0.008 c 0.019,-0.0317 0.0424,-0.0509 0.052,-0.0426 0.01,0.008 -0.006,0.0342 -0.0345,0.0577 -0.0498,0.0408 -0.0505,0.0401 -0.0175,-0.0151 z m 0.3177903,-0.0992 c 0,-0.0238 0.16432,-0.17662 0.18986,-0.17662 0.009,0 -0.0245,0.0445 -0.0747,0.0989 -0.0926,0.10031 -0.1152,0.11558 -0.1152,0.0778 z m 0.216,-0.0778 c 0.01,-0.0136 0.0307,-0.0247 0.0466,-0.0247 0.0158,0 0.0208,0.0111 0.0109,0.0247 -0.01,0.0136 -0.0307,0.0247 -0.0466,0.0247 -0.0159,0 -0.0208,-0.0111 -0.011,-0.0247 z m 0.1152,-0.0989 c 0.0286,-0.0272 0.057,-0.0495 0.063,-0.0495 0.006,0 -0.003,0.0223 -0.0198,0.0495 -0.017,0.0272 -0.0453,0.0494 -0.0631,0.0494 -0.0177,0 -0.009,-0.0222 0.0199,-0.0494 z m -5.1515803,3.54862 c -0.0594,-0.12206 -0.0815,-0.1133 -0.0251,0.01 0.0249,0.0545 0.0506,0.0946 0.057,0.0892 0.006,-0.005 -0.008,-0.0501 -0.0318,-0.0991 z m 1.19193,-0.0164 c 0,-0.0144 -0.013,-0.0193 -0.0288,-0.0109 -0.0159,0.008 -0.0288,0.0202 -0.0288,0.0261 0,0.006 0.0129,0.0109 0.0288,0.0109 0.0159,0 0.0288,-0.0118 0.0288,-0.0261 z m -0.69782,-0.27692 c 0.22166,-0.26119 0.40893,-0.46691 0.5472,-0.60115 0.067,-0.0651 0.12182,-0.12774 0.12182,-0.13927 0,-0.0115 0.0518,-0.0672 0.1152,-0.12381 0.0634,-0.0566 0.1152,-0.11574 0.1152,-0.13153 0,-0.0157 0.055,-0.0797 0.12237,-0.14221 0.11766,-0.10918 0.1825,-0.17491 0.35814,-0.36306 0.10624,-0.11379 0.20727,-0.21385 0.30106,-0.2982 0.0418,-0.0376 0.0807,-0.0798 0.0864,-0.0938 0.006,-0.014 0.0766,-0.0843 0.15757,-0.15635 0.081,-0.072 0.17177,-0.16429 0.20182,-0.20506 0.0626,-0.0849 0.15443,-0.17953 0.29888,-0.3077 0.0554,-0.0492 0.15834,-0.15534 0.2287,-0.23587 0.0704,-0.0806 0.2194,-0.23422 0.33118,-0.34147 0.11177,-0.10723 0.22912,-0.22646 0.2608,-0.26487 0.0832,-0.10094 0.2558,-0.26701 0.5127,-0.49316 0.17984,-0.15838 0.2415,-0.19784 0.30902,-0.19784 0.0644,0 0.1321,-0.0387 0.2864403,-0.16363 0.11116,-0.09 0.20211,-0.17142 0.20211,-0.18095 0,-0.0189 -0.17306,-0.10873 -0.2879703,-0.1494 -0.0396,-0.014 -0.0979,-0.0587 -0.1296,-0.0993 -0.0317,-0.0406 -0.0659,-0.0738 -0.076,-0.0739 -0.0101,-5e-5 -0.0812,-0.0446 -0.15786,-0.0989 -0.0767,-0.0544 -0.15072,-0.0988 -0.16461,-0.0988 -0.0291,0 -0.79651,0.67677 -0.83974,0.74056 -0.0407,0.0601 -0.38493,0.38999 -0.69616,0.6673 -0.14532,0.12944 -0.29386,0.26873 -0.33008,0.30948 -0.0713,0.0803 -0.38896,0.40271 -0.50512,0.51276 -0.0395,0.0374 -0.0836,0.0679 -0.0981,0.0679 -0.0145,0 -0.0263,0.0162 -0.0263,0.036 0,0.0198 -0.0518,0.0828 -0.1152,0.13993 -0.0634,0.0571 -0.1152,0.11321 -0.1152,0.12461 0,0.0113 -0.01,0.0211 -0.0216,0.0217 -0.0119,5e-4 -0.0799,0.0688 -0.1512,0.15174 -0.0713,0.0829 -0.1688,0.18529 -0.21677,0.22755 -0.048,0.0423 -0.17107,0.17562 -0.2736,0.29638 -0.1025,0.12074 -0.22848,0.25806 -0.27994,0.30515 -0.0515,0.0471 -0.0936,0.0914 -0.0936,0.0984 0,0.007 -0.0389,0.0508 -0.0864,0.0972 -0.12608,0.12324 -0.1136,0.15009 0.0864,0.18554 0.15712,0.0279 0.17271,0.0363 0.17187,0.0936 -0.001,0.0607 -0.0578,0.14948 -0.0958,0.14948 -0.0102,0 -0.0185,-0.0263 -0.0185,-0.0584 0,-0.0464 -0.0265,-0.0671 -0.12912,-0.10072 -0.071,-0.0232 -0.15059,-0.0387 -0.17686,-0.0342 -0.0566,0.01 -0.30794,0.30734 -0.392,0.46449 l -0.0591,0.11046 0.0834,0.0501 c 0.15686,0.0944 0.35728,0.2962 0.3872,0.38991 0.0162,0.051 0.0452,0.0925 0.0644,0.0923 0.0192,-2.2e-4 0.10317,-0.0808 0.1866,-0.17914 z m 1.24496,0.0669 c 0,-0.0212 -0.013,-0.0317 -0.0288,-0.0233 -0.0159,0.008 -0.0288,0.0258 -0.0288,0.0385 0,0.0128 0.0129,0.0233 0.0288,0.0233 0.0159,0 0.0288,-0.0174 0.0288,-0.0385 z m -0.0969,-0.27521 c -0.0118,-0.0102 -0.0335,-0.002 -0.0482,0.0179 -0.0443,0.0601 -0.0311,0.0869 0.021,0.0423 0.0268,-0.023 0.0391,-0.0501 0.0273,-0.0602 z m -2.38688,-0.38609 c 0,-0.0316 0.0372,-0.10663 0.0826,-0.16682 0.0455,-0.0602 0.10313,-0.14599 0.12825,-0.19072 0.0591,-0.10539 0.30234,-0.3336 0.9409,-0.88302 0.28473,-0.24499 0.52774,-0.47295 0.53997,-0.50656 0.0122,-0.0336 0.0562,-0.0967 0.0976,-0.1402 0.20249,-0.21256 0.32006,-0.34886 0.32006,-0.37108 0,-0.0134 0.0324,-0.0545 0.072,-0.0912 0.0396,-0.0367 0.072,-0.0782 0.072,-0.0923 0,-0.0276 0.0701,-0.11167 0.2304,-0.27607 0.0554,-0.0569 0.1263,-0.14638 0.15747,-0.19894 0.0312,-0.0525 0.0734,-0.10096 0.0936,-0.10764 0.0203,-0.007 0.0368,-0.0391 0.0368,-0.072 0,-0.033 0.0195,-0.0663 0.0434,-0.0742 0.0367,-0.0121 0.12826,-0.10454 0.53239,-0.53729 0.0461,-0.0495 0.1016,-0.10077 0.41059,-0.38024 0.10688,-0.0967 0.19446,-0.1848 0.19459,-0.19576 1.3e-4,-0.011 0.0597,-0.07 0.13232,-0.13114 0.0726,-0.0611 0.14432,-0.13065 0.1592,-0.15443 0.0331,-0.0529 0.13591,-0.0569 0.1586,-0.006 0.009,0.0204 0.0386,0.037 0.0653,0.037 0.0268,0 0.0629,0.0122 0.0802,0.027 0.0409,0.035 0.15284,-0.0133 0.15284,-0.0659 0,-0.0204 -0.10359,-0.12848 -0.23021,-0.24007 l -0.23021,-0.20289 -1.3e-4,0.11593 c -9e-5,0.0638 -0.0126,0.12249 -0.0277,0.13054 -0.0315,0.0167 -0.099,-0.0875 -0.12774,-0.19705 -0.0309,-0.11804 -0.10906,-0.22883 -0.18122,-0.25706 -0.0556,-0.0217 -0.0666,-0.0189 -0.0667,0.0167 -7e-5,0.0235 -0.0746,0.0948 -0.1656,0.15843 -0.091,0.0636 -0.20493,0.14709 -0.25315,0.18548 -0.0483,0.0383 -0.22317,0.16377 -0.38877,0.27862 -0.32087,0.22256 -0.38112,0.27248 -0.71863,0.59558 l -0.488,0.46702 c -0.1496,0.14314 -0.58,0.52663 -0.95644,0.85215 -0.37642,0.32555 -0.67911,0.59648 -0.67258,0.60206 0.0182,0.0156 0.21642,-0.0953 0.21642,-0.12107 0,-0.0125 0.0157,-0.0227 0.0348,-0.0227 0.0191,0 0.0837,-0.041 0.14345,-0.091 0.0598,-0.0501 0.11603,-0.0848 0.12503,-0.077 0.0186,0.0159 -0.3176,0.30001 -0.57684,0.4875 -0.0959,0.0694 -0.21472,0.13183 -0.26704,0.1404 -0.16543,0.027 -0.34527,0.23345 -0.54668,0.62743 -0.0561,0.10983 -0.0627,0.11996 -0.15818,0.24292 -0.0435,0.0561 -0.0792,0.11802 -0.0792,0.13752 0,0.0195 0.0633,0.0753 0.14061,0.12403 0.19888,0.12526 0.32551,0.25317 0.44685,0.45131 0.0729,0.11906 0.12931,0.18002 0.18365,0.19847 0.12016,0.0408 0.1432,0.0367 0.1432,-0.0256 z m 0.30957,-0.25405 c 0.0317,-0.0375 0.12074,-0.1334 0.19792,-0.21308 0.0772,-0.0796 0.13197,-0.15201 0.12176,-0.16077 -0.0403,-0.0345 -0.56445,0.51004 -0.56445,0.58643 0,0.0301 0.14928,-0.0995 0.2448,-0.21258 z m 1.88823,0.0273 c 0.17587,-0.1594 0.5263,-0.52748 0.57049,-0.59921 0.0857,-0.13905 -0.0756,-0.0134 -0.37277,0.29032 -0.46745,0.47789 -0.58259,0.65778 -0.19772,0.30891 z m -3.1306,-0.69147 c 0.11104,-0.18919 0.0446,-0.18076 -0.11302,0.0144 -0.0667,0.0825 -0.0737,0.10396 -0.0397,0.12195 0.0511,0.0272 0.063,0.0165 0.1527,-0.13631 z m 3.50295,-1.71017 c 0,-0.0246 0.20873,-0.26633 0.24684,-0.28574 0.04,-0.0204 0.15632,-0.17271 0.15632,-0.20476 0,-0.0432 -0.15558,0.10918 -0.30345,0.29719 -0.0857,0.10893 -0.18176,0.22587 -0.2135,0.25984 -0.0903,0.0967 -0.0688,0.11911 0.0274,0.0287 0.0475,-0.0446 0.0864,-0.0875 0.0864,-0.0952 z m -1.49546,-0.35793 c 0.0312,-0.0228 0.0457,-0.0473 0.0322,-0.0546 -0.0371,-0.0197 -0.22675,0.14375 -0.21171,0.18252 0.009,0.0241 0.0287,0.0166 0.0679,-0.0264 0.0302,-0.0331 0.0804,-0.0788 0.11168,-0.10154 z m 2.12666,-0.36561 c 0.18227,-0.20506 0.21856,-0.26385 0.11337,-0.18364 -0.0729,0.0556 -0.31264,0.33236 -0.31264,0.36091 0,0.0403 0.0281,0.0153 0.19927,-0.17727 z m -1.93824,-0.0138 c 0.0693,-0.0908 0.029,-0.10242 -0.0452,-0.013 -0.0344,0.0416 -0.0491,0.0756 -0.0326,0.0756 0.0166,0 0.0516,-0.0281 0.0778,-0.0625 z m 4.6724203,-0.0993 c 0.009,-0.0403 0.004,-0.0421 -0.036,-0.0134 -0.055,0.0392 -0.0619,0.085 -0.0105,0.0703 0.0198,-0.006 0.0408,-0.0312 0.0465,-0.0568 z m 2.06688,-0.1114 c 0.0928,-0.0824 0.16876,-0.16204 0.16876,-0.17711 0,-0.0514 -0.0638,-0.0457 -0.12396,0.0109 a 274.03308,235.14273 0 0 1 -0.16244,0.15261 c -0.0978,0.0919 -0.13145,0.16333 -0.0768,0.16333 0.0141,0 0.10156,-0.0674 0.19436,-0.14971 z m -0.69104,-0.0359 c 0.009,-0.0206 -10e-4,-0.0556 -0.0224,-0.0779 -0.0673,-0.0696 -0.33687,-0.23066 -0.38599,-0.23066 -0.0632,0 -0.0381,0.0553 0.0406,0.0892 0.0936,0.0404 0.20797,0.13762 0.23655,0.2011 0.0285,0.0633 0.10636,0.0741 0.13136,0.0182 z m -3.8053203,-0.0615 c 0.01,-0.0136 0.005,-0.0247 -0.011,-0.0247 -0.0159,0 -0.0368,0.0111 -0.0466,0.0247 -0.01,0.0136 -0.005,0.0247 0.011,0.0247 0.0159,0 0.0368,-0.0111 0.0466,-0.0247 z m -1.78281,-0.0925 c -0.02,-0.0172 -0.0746,0.0177 -0.0746,0.0476 0,0.0164 0.0165,0.0145 0.0439,-0.005 0.0241,-0.0172 0.038,-0.0364 0.0307,-0.0426 z m 0.10121,-0.0743 c 0.0246,-0.0238 0.15229,-0.12664 0.28384,-0.22856 0.49789,-0.38583 0.83622,-0.70597 0.83622,-0.79128 0,-0.0251 0.0226,-0.0523 0.0504,-0.0605 0.0577,-0.0171 0.18711,-0.18005 0.17261,-0.21736 -0.0101,-0.026 -0.0935,0.0458 -0.48096,0.41426 a 108.21698,92.858986 0 0 1 -0.40508,0.38302 c -0.0942,0.0883 -0.21143,0.20787 -0.26055,0.26564 -0.0491,0.0577 -0.0996,0.105 -0.11219,0.105 -0.0126,0 -0.0575,0.0389 -0.0998,0.0865 -0.0782,0.088 -0.0659,0.12213 0.0155,0.0433 z m 5.8008003,-0.0567 0.084,-0.0752 -0.10022,-0.0666 c -0.0551,-0.0367 -0.25168,-0.19463 -0.43683,-0.35103 -0.18519,-0.1564 -0.37056,-0.31215 -0.412,-0.34614 -0.0414,-0.0339 -0.20096,-0.17739 -0.3545,-0.31871 -0.32025,-0.2948 -0.5696,-0.44409 -1.4266503,-0.85427 -0.15904,-0.0761 -0.14829,-0.0376 0.0245,0.0874 0.0634,0.0459 0.25772,0.19597 0.43196,0.33362 0.1742103,0.13762 0.3323903,0.25471 0.3514903,0.2602 0.0353,0.0102 0.13018,0.0725 0.3201,0.21047 0.0582,0.0423 0.14669,0.0948 0.19648,0.11667 0.112,0.0491 1.07571,0.87467 1.07571,0.92145 0,0.0187 0.0133,0.034 0.0295,0.034 0.0162,0 0.0418,0.0278 0.0569,0.0618 0.0353,0.0797 0.0577,0.0778 0.15961,-0.0134 z m -1.68848,-0.0579 c 0.027,-0.0279 -0.0278,-0.069 -0.29164,-0.21906 -0.4964803,-0.2823 -0.5652203,-0.31638 -0.5844203,-0.28972 -0.0371,0.0516 0.6939503,0.54124 0.8103703,0.54269 0.0178,2.2e-4 0.0474,-0.015 0.0657,-0.0339 z m 2.55693,-0.0799 c 0.0602,-0.0628 0.1719,-0.17121 0.24832,-0.2409 0.15136,-0.13811 0.29123,-0.30946 0.26848,-0.32898 -0.0408,-0.035 -0.15034,0.0422 -0.3817,0.26904 -0.31968,0.31336 -0.33193,0.32819 -0.31056,0.37599 0.0272,0.0609 0.0577,0.0478 0.17546,-0.0751 z m -1.748,-0.0539 c 0,-0.0109 -0.15872,-0.15289 -0.35277,-0.3155 -0.19401,-0.16258 -0.40576,-0.34545 -0.47052,-0.40638 -0.0648,-0.0609 -0.20074,-0.1775 -0.30208,-0.25902 -0.1013503,-0.0816 -0.2516203,-0.21541 -0.3339203,-0.29746 -0.0823,-0.0821 -0.28826,-0.24885 -0.45767,-0.37069 l -0.52288,-0.37585 c -0.11814,-0.085 -0.2319,-0.15446 -0.2528,-0.15446 -0.0496,0 -0.19223,0.14581 -0.17114,0.17508 0.009,0.0125 0.0624,0.0226 0.11879,0.0226 0.0726,0 0.13293,0.0222 0.20704,0.0761 0.17661,0.12851 0.63386,0.49437 0.86845,0.69484 0.12246,0.10465 0.25664,0.19759 0.29814,0.20655 0.0453,0.01 0.0755,0.0335 0.0755,0.0593 0,0.0237 0.0356,0.0761 0.0792,0.11642 0.2689603,0.24907 0.3679403,0.33474 0.5629803,0.48722 0.29484,0.23057 0.65369,0.41784 0.65369,0.3412 z m 0.18672,-0.15928 c -0.0594,-0.0578 -0.15488,-0.14394 -0.21216,-0.19153 -0.0573,-0.0476 -0.15232,-0.13337 -0.2112,-0.19067 -0.0589,-0.0573 -0.15821,-0.13194 -0.22073,-0.1658 -0.0626,-0.0339 -0.12205,-0.0732 -0.13223,-0.0873 -0.0102,-0.0142 -0.032,-0.0257 -0.0485,-0.0257 -0.0355,0 0.87146,0.76489 0.90778,0.76555 0.0137,2.2e-4 -0.0237,-0.0468 -0.083,-0.10454 z m 0.99395,0.0558 c 0,-0.0482 -0.2624,-0.32217 -0.46073,-0.48099 -0.48314,-0.38686 -0.84192,-0.65285 -1.01888,-0.75533 -0.0733,-0.0424 -0.14659,-0.0986 -0.16295,-0.12477 -0.0163,-0.0261 -0.0441,-0.0476 -0.0618,-0.0476 -0.0176,0 -0.0731,-0.0361 -0.12329,-0.0803 -0.0726,-0.0639 -0.36922,-0.25182 -0.44947,-0.28477 -0.009,-0.003 0.11414,0.10744 0.27382,0.2471 0.33734,0.29496 0.88934,0.73207 1.01024,0.8 0.046,0.0258 0.1359,0.0962 0.19994,0.15635 0.064,0.0602 0.1535,0.13801 0.19888,0.17296 0.0454,0.0349 0.18144,0.14402 0.3024,0.24235 0.20576,0.16734 0.29184,0.21305 0.29184,0.15501 z m 0.25888,-0.20997 0.0974,-0.0862 -0.0679,-0.062 c -0.0374,-0.0342 -0.097,-0.0621 -0.13261,-0.0621 -0.0355,0 -0.15872,-0.0556 -0.27366,-0.12356 -0.11498,-0.0679 -0.23264,-0.12357 -0.2615,-0.12357 -0.0289,0 -0.0525,-0.0167 -0.0525,-0.0371 0,-0.0395 -0.53927,-0.39079 -0.90007,-0.58635 -0.24544,-0.13303 -0.30937,-0.15841 -0.30937,-0.12274 0,0.0271 0.27168,0.20265 0.3136,0.20265 0.0141,0 0.0756,0.038 0.13673,0.0844 0.27443,0.20836 0.55443,0.40976 0.56967,0.40976 0.009,0 0.0403,0.0195 0.0692,0.0433 0.0288,0.0238 0.15843,0.12843 0.288,0.23255 0.1295,0.10409 0.23549,0.20004 0.23549,0.21319 0,0.0273 0.11436,0.10083 0.15993,0.10278 0.0166,10e-4 0.0742,-0.0375 0.12768,-0.0849 z m -3.5316103,-0.3716 c -0.009,-0.0208 -0.0445,-0.0501 -0.0783,-0.0651 -0.0565,-0.0252 -0.0558,-0.0222 0.008,0.0377 0.0803,0.0749 0.0934,0.0801 0.0699,0.0274 z m 1.4153603,-0.18466 c -0.01,-0.0136 -0.0235,-0.0247 -0.0305,-0.0247 -0.007,0 -0.0127,0.0111 -0.0127,0.0247 0,0.0136 0.0138,0.0247 0.0305,0.0247 0.0168,0 0.0224,-0.0111 0.0127,-0.0247 z m -2.6746603,-0.0989 c 0.0688,-0.0545 0.18365,-0.12337 0.2552,-0.15322 0.0716,-0.0298 0.13008,-0.0618 0.13008,-0.0711 0,-0.0342 -0.14925,-0.0996 -0.21024,-0.0921 -0.0366,0.005 -0.0794,0.0386 -0.10266,0.0818 -0.0219,0.0408 -0.0757,0.1075 -0.11949,0.14827 -0.0784,0.073 -0.13801,0.18535 -0.0983,0.18535 0.0112,0 0.0766,-0.0446 0.14544,-0.099 z m 5.4236203,0.0631 c 0.0191,-0.0197 0.0304,-0.0516 0.0251,-0.0708 -0.005,-0.0192 -0.13271,-0.12359 -0.28317,-0.23194 -0.15047,-0.10836 -0.37075,-0.27272 -0.48954,-0.36529 -0.11878,-0.0926 -0.26784,-0.2086 -0.33116,-0.25783 -0.0634,-0.0492 -0.15405,-0.11519 -0.2016,-0.14658 -0.0475,-0.0314 -0.15117,-0.10983 -0.23034,-0.17431 -0.0792,-0.0645 -0.20717,-0.15854 -0.28438,-0.20896 -0.13613,-0.0889 -0.78663,-0.60362 -1.05293,-0.83318 -0.21619,-0.18639 -0.4337303,-0.31527 -0.4337303,-0.25701 0,0.007 0.0551,0.0599 0.1224003,0.11739 0.0673,0.0575 0.18557,0.16574 0.26278,0.24051 0.32493,0.31454 1.37764,1.21079 1.42218,1.21079 0.0143,0 0.0922,0.0584 0.17312,0.12974 0.19158,0.16882 0.28365,0.24092 0.30762,0.24092 0.0106,0 0.0527,0.034 0.0934,0.0755 0.0688,0.0702 0.29622,0.21819 0.50848,0.33096 0.0498,0.0265 0.10246,0.065 0.11706,0.0857 0.0478,0.0677 0.15724,0.15036 0.19904,0.15036 0.0225,0 0.0566,-0.0162 0.0757,-0.0359 z m -0.46042,-0.0267 c -0.0202,-0.0208 -0.12218,-0.095 -0.22669,-0.16491 -0.10454,-0.0699 -0.24057,-0.16679 -0.3023,-0.21539 l -0.11222,-0.0884 0.11094,0.1368 c 0.11882,0.14649 0.42419,0.36569 0.51299,0.36821 0.0452,0.002 0.048,-0.004 0.0173,-0.0363 z M 7.3807167,4.759171 c 0.10157,-0.14841 -0.006,-0.0728 -0.2073,0.14638 -0.11257,0.12233 -0.2047,0.23038 -0.2047,0.2401 0,0.0293 0.35597,-0.30457 0.412,-0.38645 z m 1.33024,0.19581 c -0.0513,-0.0486 -0.072,-0.0598 -0.072,-0.0388 0,0.0159 0.088,0.0883 0.1073,0.0883 0.009,0 -0.007,-0.0222 -0.0353,-0.0494 z m 3.0836203,-0.0224 c -0.0273,-0.026 -0.2264,-0.17884 -0.44231,-0.33978 -0.2159,-0.16091 -0.55648,-0.43157 -0.75689,-0.60145 -0.46944,-0.39796 -0.8439103,-0.70767 -1.0021503,-0.82884 l -0.1256,-0.0962 -0.0862,0.0828 -0.0862,0.0829 0.20567,0.16963 c 0.11315,0.0933 0.22294,0.16962 0.24403,0.16962 0.021,0 0.2519,0.15291 0.5129603,0.33977 0.26109,0.18688 0.63408,0.45095 0.8289,0.58688 0.19481,0.13592 0.42678,0.29924 0.51548,0.36297 0.16455,0.11824 0.2913,0.16547 0.19239,0.0717 z m -3.4669203,-0.28025 -0.21005,-0.17914 -0.0556,0.0578 c -0.0552,0.0574 -0.0551,0.0582 0.009,0.10489 0.0998,0.073 0.2696,0.16517 0.32813,0.17813 0.13555,0.03 0.12471,0.005 -0.0712,-0.16171 z m 5.1146603,0.1248 c 0.0725,-0.0623 0.0648,-0.0689 -0.27501,-0.23573 -0.0673,-0.0331 -0.1224,-0.0503 -0.1224,-0.0382 0,0.0355 0.28938,0.30355 0.32771,0.30355 0.0193,0 0.0507,-0.0134 0.0697,-0.0297 z m -1.68281,-0.31813 c -0.17204,-0.14809 -0.32125,-0.2694 -0.33152,-0.26962 -0.0103,-2.2e-4 -0.0639,-0.0365 -0.11904,-0.0807 -0.0552,-0.0442 -0.17632,-0.14147 -0.26925,-0.21621 -0.0929,-0.0747 -0.20471,-0.1594 -0.24845,-0.18815 -0.0437,-0.0287 -0.11738,-0.0955 -0.16371,-0.14828 -0.0464,-0.0528 -0.17607,-0.17939 -0.28832,-0.28131 -0.11229,-0.10193 -0.25242,-0.24878 -0.31146,-0.32635 -0.1120603,-0.14726 -0.1504903,-0.17271 -0.1504903,-0.0998 0,0.16038 0.2077703,0.4211 0.6373403,0.79976 0.31853,0.28073 1.2232,0.96069 1.27824,0.96069 0.0105,0 0.0727,0.0395 0.13837,0.0876 0.068,0.0499 0.124,0.0756 0.13024,0.0596 0.006,-0.0154 -0.12989,-0.14927 -0.30195,-0.29732 z m -2.5573203,0.27134 c 0.02,-0.0277 -0.18966,-0.2287 -0.28515,-0.27351 -0.0925,-0.0434 -0.0274,0.0775 0.10538,0.1955 0.12493,0.1111 0.14854,0.12137 0.17977,0.078 z m 4.4337403,-0.17244 c 0.0226,-0.0609 -0.0558,-0.14649 -0.13403,-0.14649 -0.0788,0 -0.59616,-0.29702 -0.98217,-0.56386 -0.12426,-0.0859 -0.24157,-0.15152 -0.2607,-0.14581 -0.043,0.0127 0.40822,0.40373 0.57948,0.50211 0.43997,0.25276 0.71491,0.40175 0.74442,0.40337 0.0187,0.001 0.0426,-0.0211 0.053,-0.0493 z m -0.78164,-0.088 c -0.14522,-0.16027 -0.54198,-0.48711 -0.73101,-0.60217 -0.10048,-0.0611 -0.25609,-0.16678 -0.34582,-0.23474 -0.0898,-0.0679 -0.29261,-0.21514 -0.45082,-0.32706 -0.15817,-0.11195 -0.36435,-0.27354 -0.45814,-0.35916 -0.19735,-0.18007 -0.49031,-0.47445 -0.5248,-0.52734 -0.0345,-0.0528 -0.12087,-0.0152 -0.12087,0.0526 0,0.034 0.0376,0.0838 0.0936,0.12383 0.10125,0.0724 0.53056,0.41468 0.89991,0.71753 0.12672,0.1039 0.32108,0.24877 0.43196,0.322 0.23463,0.15493 0.47319,0.33198 0.83482,0.61953 0.14237,0.11321 0.27008,0.20583 0.28384,0.20583 0.0137,0 0.0509,0.0284 0.0828,0.0631 0.0318,0.0347 0.0645,0.0573 0.0727,0.0503 0.008,-0.007 -0.0224,-0.054 -0.0681,-0.10429 z m -2.18678,0.03 c -0.0603,-0.0378 -0.0876,-0.0337 -0.0571,0.009 0.0104,0.0145 0.0401,0.0264 0.066,0.0264 0.0393,0 0.0379,-0.006 -0.009,-0.0351 z M 9.6900667,4.146431 c -0.3346,-0.27775 -0.71626,-0.55049 -0.77034,-0.55049 -0.0503,0 -0.16576,0.10307 -0.16397,0.14641 0.001,0.0214 0.0382,0.0637 0.0829,0.0939 0.10807,0.0731 0.79978,0.42103 0.97184,0.48885 0.0504,0.0199 0.0998,0.0474 0.1097,0.0612 0.01,0.0138 0.0335,0.0247 0.0524,0.024 0.0189,-5e-4 -0.10822,-0.11934 -0.28246,-0.26393 z m 0.6623303,-0.0229 c -0.17974,-0.14073 -0.8419203,-0.57696 -0.8757403,-0.57696 -0.0362,0 0.29846,0.26508 0.5619203,0.44507 0.0951,0.065 0.42041,0.24686 0.43949,0.2457 0.0101,-5e-4 -0.0464,-0.0518 -0.12567,-0.11381 z m 3.72282,-0.17771 c 0.0678,-0.0905 0.19251,-0.23469 0.27728,-0.32045 0.0998,-0.10096 0.16083,-0.18809 0.17318,-0.24712 0.0399,-0.19057 0.051,-1.00427 0.0165,-1.2031 -0.0189,-0.10874 -0.0408,-0.24545 -0.0489,-0.30383 -0.0105,-0.0769 -0.0339,-0.11703 -0.0849,-0.14567 -0.0387,-0.0217 -0.0664,-0.0569 -0.0616,-0.0782 0.009,-0.0412 -0.0849,-0.1351 -0.29155,-0.29082 -0.12611,-0.095 -0.12694,-0.0952 -0.10746,-0.0278 0.0108,0.0374 0.0121,0.068 0.003,0.068 -0.0584,0 -0.13152,-0.0644 -0.18889,-0.1664 -0.0763,-0.13559 -0.0582,-0.11381 -0.28676,-0.34633001 -0.0968,-0.0986 -0.16192,-0.17917 -0.1447,-0.17917 0.065,0 0.0267,-0.0595 -0.11354,-0.17604 -0.15578,-0.12952 -0.22602,-0.14948 -0.24992,-0.0711 -0.008,0.0272 -0.0297,0.0493 -0.0477,0.0492 -0.0179,-1.1e-4 -0.0669,0.0356 -0.1088,0.0793 -0.0629,0.0657 -0.0837,0.0742 -0.11891,0.0491 -0.035,-0.025 -0.0635,-0.016 -0.15811,0.0504 -0.0635,0.0445 -0.18858,0.12906 -0.27808,0.18798 -0.0895,0.059 -0.22909,0.17571001 -0.31021,0.25949001 -0.0812,0.0838 -0.22646,0.20643 -0.32294,0.27261 -0.272,0.18655 -0.5066,0.38184 -0.5066,0.42168 0,0.0199 0.0316,0.0654 0.0702,0.10113 0.0386,0.0358 0.12442,0.13524 0.19069,0.2211 0.0662,0.0859 0.14803,0.16687 0.18176,0.18002 0.0337,0.0131 0.10665,0.0414 0.16211,0.0628 0.0828,0.0319 0.0892,0.0392 0.036,0.0404 -0.10518,0.002 -0.0779,0.0853 0.0602,0.18232 0.0687,0.0483 0.25341,0.16261 0.41037,0.25394 0.15696,0.0913 0.30483,0.17974 0.32857,0.19646 0.15024,0.10577 0.69114,0.60154 0.69114,0.63347 0,0.0974 0.22858,0.27802 0.53018,0.41891 0.11194,0.0523 0.14432,0.0336 0.29853,-0.1723 z m -0.34982,-0.24579 c -0.0242,-0.0337 0.0266,-0.16744 0.095,-0.24987 0.0328,-0.0395 0.0596,-0.0795 0.0596,-0.0889 0,-0.009 0.0259,-0.0453 0.0576,-0.0798 0.0666,-0.0726 0.0759,-0.13477 0.0173,-0.11546 -0.0669,0.022 -0.0805,-0.0339 -0.0257,-0.10531 0.0802,-0.10439 0.11712,-0.33041 0.0934,-0.57215 -0.0183,-0.18683 -0.0381,-0.24334 -0.1527,-0.43698 -0.11146,-0.18831 -0.12838,-0.23534 -0.11043,-0.30701 0.0233,-0.0931 0.0694,-0.12087 0.11801,-0.0711 0.12663,0.12961 0.24388,0.3225 0.30823,0.50711 0.0416,0.11933 0.10121,0.28925 0.13248,0.37758 0.0401,0.11335 0.0581,0.24191 0.0613,0.43667 0.004,0.24436 -0.002,0.28398 -0.0553,0.34488 -0.0328,0.0378 -0.0999,0.0777 -0.14889,0.0886 -0.0593,0.0132 -0.12458,0.0612 -0.19469,0.14317 -0.058,0.0678 -0.11632,0.12335 -0.12951,0.12335 -0.0132,0 -0.0432,0.006 -0.0666,0.014 -0.0234,0.008 -0.0501,0.004 -0.0591,-0.009 z m 0.57961,-0.81689 c 0.0148,-0.17821 -0.005,-0.30028 -0.0476,-0.30028 -0.0135,0 -0.0258,0.11856 -0.0272,0.26346 -0.002,0.19015 0.006,0.25594 0.0289,0.2365 0.0173,-0.0149 0.0379,-0.10467 0.0458,-0.19968 z m -0.10518,-1.29077 c -0.0379,-0.0131 -0.0624,-0.0294 -0.0544,-0.0362 0.0169,-0.0145 0.16656,0.0306 0.16656,0.05 0,0.0179 -0.0311,0.014 -0.11216,-0.0138 z m -0.21901,-0.14617 c -0.01,-0.0136 10e-4,-0.0247 0.0254,-0.0247 0.0237,0 0.0512,0.0111 0.061,0.0247 0.01,0.0135 -10e-4,0.0247 -0.0254,0.0247 -0.0238,0 -0.0512,-0.0112 -0.061,-0.0247 z m -0.84951,2.24862 c -0.017,-0.0272 -0.0512,-0.0494 -0.0761,-0.0494 -0.0272,0 -0.0391,-0.014 -0.0296,-0.035 0.0193,-0.0432 -0.36832,-0.37501 -0.59699,-0.51114 -0.16176,-0.0963 -0.21882,-0.11569 -0.21882,-0.0744 0,0.0454 0.60557,0.53113 0.73568,0.59012 0.0381,0.0172 0.0829,0.0534 0.0997,0.0803 0.0168,0.0269 0.05,0.0489 0.0737,0.0489 0.0343,0 0.0369,-0.0102 0.0124,-0.0494 z m -1.32467,-0.23181 c 0,-0.0188 -0.0485,-0.0654 -0.10797,-0.10366 -0.0594,-0.0383 -0.11792,-0.0834 -0.13001,-0.10025 -0.0469,-0.0653 -0.54851,-0.46773 -0.62944,-0.50491 -0.19859,-0.0912 0.17222,0.26256 0.56505,0.53907 0.095,0.0669 0.1906,0.14012 0.21232,0.16275 0.0481,0.05 0.09,0.0533 0.09,0.007 z m 3.07348,-0.56551 c 0.0781,-0.1575 0.11548,-0.33936 0.0696,-0.33936 -0.0175,0 -0.0393,0.0306 -0.0485,0.068 -0.0271,0.11121 -0.064,0.23573 -0.0952,0.32124 -0.046,0.12614 0.003,0.0931 0.0741,-0.0498 z m -3.73578,-0.21528 c 0,-0.0563 -0.46506,-0.37118 -0.54816,-0.37118 -0.0546,0 -0.0224,0.0384 0.10393,0.12357 a 17.276871,14.824964 0 0 1 0.25917,0.17913 c 0.13194,0.0934 0.18506,0.11302 0.18506,0.0685 z m 4.44214,-0.0874 c 0.24,-0.12375 0.29997,-0.20014 0.26535,-0.33776 -0.0283,-0.11256 -0.10979,-0.24433 -0.19075,-0.30853 -0.0372,-0.0295 -0.10567,-0.0881 -0.1522,-0.13024 -0.0465,-0.0422 -0.0984,-0.0727 -0.1152,-0.068 -0.0179,0.005 -0.0341,0.10511 -0.0389,0.24062 -0.006,0.17049 -0.0206,0.24351 -0.0546,0.27572 -0.0365,0.0346 -0.0427,0.0765 -0.0294,0.19882 0.0181,0.16632 0.0421,0.24089 0.0774,0.24089 0.0121,0 0.11942,-0.0502 0.2384,-0.11156 z m -0.75635,-0.15926 c 0.0445,-0.2022 0.009,-0.39793 -0.0915,-0.50782 -0.10208,-0.11134 -0.12074,-0.0464 -0.0794,0.27635 0.0206,0.16074 0.0397,0.3256 0.0423,0.36638 0.008,0.11779 0.0132,0.12608 0.0529,0.0813 0.0206,-0.0233 0.0546,-0.12054 0.0757,-0.21615 z m -3.71565,-0.31605 c -0.002,-0.0448 -0.13917,-0.15937 -0.17043,-0.14278 -0.0409,0.0217 0.0429,0.11189 0.10394,0.11189 0.0213,0 0.0387,0.0111 0.0387,0.0247 0,0.0136 0.007,0.0247 0.0144,0.0247 0.008,0 0.0139,-0.008 0.0133,-0.0186 z m 3.83104,-0.68278 c 0,-0.0188 -0.0445,-0.0632 -0.0989,-0.0988 -0.15747,-0.10306 -0.20112,-0.0805 -0.11635,0.0601 0.0337,0.056 0.0639,0.0729 0.1296,0.0729 0.0537,0 0.0856,-0.0127 0.0856,-0.0342 z m -2.42425,-0.84094001 c 0.12908,-0.12016 0.15868,-0.182 0.067,-0.13988 -0.0295,0.0135 -0.0767,0.0556 -0.10496,0.0935 -0.0284,0.038 -0.095,0.10041 -0.14829,0.13885 -0.0532,0.0384 -0.11145,0.0934 -0.12937,0.12219 -0.0447,0.0715 0.15136,-0.0618 0.31565,-0.21469 z m 0.64646,-0.35046 c 0.0281,-0.024 -0.0104,-0.0841 -0.0539,-0.0841 -0.0221,0 -0.0401,0.004 -0.0401,0.0103 0,0.006 -0.008,0.028 -0.0175,0.0494 -0.0122,0.0274 -5e-4,0.0391 0.0384,0.0391 0.0307,0 0.0636,-0.007 0.0731,-0.0148 z M 0.17261671,14.208721 c 0,-0.0524 0.11639,-0.25918 0.14586,-0.25918 0.0134,0 0.0327,-0.0381 0.0429,-0.0848 0.0102,-0.0467 0.0432,-0.10401 0.0733,-0.12741 0.0301,-0.0233 0.0547,-0.0689 0.0547,-0.10121 0,-0.0323 0.0195,-0.0651 0.0432,-0.073 0.0238,-0.008 0.0432,-0.0377 0.0432,-0.0663 0,-0.0605 0.082,-0.26042 0.12736,-0.31039 0.017,-0.0188 0.0634,-0.0871 0.10304,-0.15179 0.15456,-0.25251 0.20620999,-0.32481 0.22217999,-0.3111 0.009,0.008 -0.0241,0.0854 -0.074,0.17224 -0.0499,0.0869 -0.0906,0.1659 -0.0906,0.17563 0,0.01 -0.04,0.0918 -0.0891,0.18232 -0.16905,0.31256 -0.37907,0.78106 -0.38345,0.85534 -0.003,0.0522 -0.0256,0.0838 -0.0755,0.10544 -0.0953,0.0414 -0.14311,0.0394 -0.14311,-0.006 z m 0.89270999,-1.60589 c 0,-0.0204 0.0126,-0.0371 0.0279,-0.0371 0.0153,0 0.0204,0.0167 0.0114,0.0371 -0.009,0.0204 -0.0217,0.037 -0.0279,0.037 -0.006,0 -0.0114,-0.0166 -0.0114,-0.037 z"
     style="fill:#333333;stroke-width:0.0296423"
     id="path1"
     inkscape:export-filename="../../pwp-fast/public/favicon-32x32.svg"
     inkscape:export-xdpi="96"
     inkscape:export-ydpi="96" />
</svg>
