<?xml version="1.0" encoding="UTF-8" standalone="no"?>
<svg
   width="32"
   height="32"
   version="1.1"
   id="svg1"
   sodipodi:docname="hand-drawn-pencil-icon copy.svg"
   inkscape:export-filename="../../pwp-fast/public/favicon-32x32.svg"
   inkscape:export-xdpi="18.395208"
   inkscape:export-ydpi="18.395208"
   xmlns:inkscape="http://www.inkscape.org/namespaces/inkscape"
   xmlns:sodipodi="http://sodipodi.sourceforge.net/DTD/sodipodi-0.dtd"
   xmlns="http://www.w3.org/2000/svg"
   xmlns:svg="http://www.w3.org/2000/svg">
  <defs
     id="defs1" />
  <sodipodi:namedview
     id="namedview1"
     pagecolor="#ffffff"
     bordercolor="#000000"
     borderopacity="0.25"
     inkscape:showpageshadow="2"
     inkscape:pageopacity="0.0"
     inkscape:pagecheckerboard="0"
     inkscape:deskcolor="#d1d1d1" />
  <path
     d="m 0.23010173,31.884126 c 0,-0.11661 0.24154,-0.44171 0.42367,-0.57039 0.0636,-0.045 0.0844,-0.1048 0.06,-0.173 -0.0526,-0.14681 -0.046,-0.146 -0.29291,-0.038 -0.36915,0.1616 -0.56716,-0.0254 -0.29247,-0.27625 0.0708,-0.0646 0.15799,-0.23284 0.19399,-0.37382 0.036,-0.141 0.1318,-0.45653 0.21312,-0.70113 0.21689,-0.65315 0.38577,-1.24905 0.38577,-1.36104 0,-0.054 0.0238,-0.1368 0.0528,-0.184 0.029,-0.0472 0.0854,-0.161 0.12538997,-0.25296 0.04,-0.092 0.1302,-0.22604 0.20078,-0.29798 0.12339,-0.12581 0.48496,-0.69757 0.48496,-0.76687 0,-0.018 0.0492,-0.127 0.1098,-0.24099 0.0602,-0.114 0.154,-0.34076 0.20799,-0.50382 0.054,-0.163 0.1212,-0.31769 0.1494,-0.3435 0.0282,-0.0258 0.0512,-0.10481 0.0512,-0.17541 0,-0.0706 0.0244,-0.1496 0.0542,-0.1754 0.03,-0.0258 0.0836,-0.147 0.1192,-0.26936 0.14239,-0.48823 0.14179,-0.45891 0.008,-0.42223 -0.1508,0.041 -0.1638,-0.0496 -0.0306,-0.21286 0.18199,-0.2228 0.4243,-0.67659 0.42494,-0.79565 6.3e-4,-0.0942 0.016,-0.108 0.07,-0.0618 0.0988,0.085 0.1798,0.0732 0.1382,-0.02 -0.0336,-0.0752 0.0374,-0.37191 0.1406,-0.58789 0.026,-0.0544 0.079,-0.1872 0.11759,-0.29512 0.0386,-0.108 0.1944,-0.40821 0.34597,-0.66727 0.1516,-0.25892 0.32049,-0.59119 0.37535,-0.73837 0.0548,-0.1472 0.16,-0.36954 0.23378,-0.4942 0.0738,-0.12461 0.13419,-0.25509 0.13419,-0.28995 1.8e-4,-0.055 0.19,-0.48208 0.34547,-0.77683 0.0286,-0.0544 0.1612,-0.33236 0.29439,-0.61782 0.1332,-0.28535 0.25952,-0.52995 0.28044,-0.54357 0.021,-0.014 0.0826,-0.1216 0.13699,-0.24 0.0542,-0.1184 0.135,-0.24625 0.179,-0.28415 0.19899,-0.1708 0.42731,0.01 0.28695,0.22847 -0.0986,0.1526 -0.106,0.23614 -0.014,0.1572 0.038,-0.0326 0.1106,-0.0594 0.16139,-0.0594 0.1202,0 0.48433,-0.32239 0.43749,-0.38735 -0.0558,-0.0774 0.20654,-0.46076 0.48153,-0.70322 0.1366,-0.12041 0.30597,-0.29695 0.37637,-0.39211 0.0704,-0.0952 0.20941,-0.24758 0.30887,-0.3388 0.0996,-0.0912 0.18099,-0.18701 0.18099,-0.21309 0,-0.048 -0.47524,0.29821 -1.11344,0.81137 -0.37323,0.30013 -0.44345,0.32721 -0.55333,0.21363 -0.1122,-0.11601 0.0412,-0.29843 0.81298,-0.96728 1.20162,-1.04145 1.96268,-1.63088 2.10572,-1.63088 0.15,0 0.76382,-0.5025 0.76382,-0.62518 0,-0.018 0.1067903,-0.1336 0.2373703,-0.25889 0.5834,-0.56016 0.93803,-0.93921 1.04547,-1.11747 0.049,-0.0816 0.1692,-0.2261 0.26663,-0.32126 a 18.472835,15.851828 0 0 0 0.33611,-0.33919 c 0.0874,-0.0914 0.28204,-0.27476 0.43251,-0.40748 0.1504,-0.1326 0.27351,-0.27008 0.27351,-0.30535 0,-0.0354 0.1186,-0.1744 0.26368,-0.30914 0.14499,-0.1348 0.32665,-0.3284 0.40382,-0.43032 0.0772,-0.102 0.1624,-0.18541 0.1894,-0.18541 0.0272,0 0.1162,-0.0868 0.19799,-0.193 0.0818,-0.1062 0.24078,-0.26966 0.35322,-0.3632798 0.11239,-0.0938 0.20441,-0.1846 0.20441,-0.20188 0,-0.032 0.0766,-0.11801 0.35993,-0.40453 0.087,-0.088 0.15839,-0.1822 0.15839,-0.2093 0,-0.0272 0.043,-0.0798 0.0952,-0.117 0.0524,-0.0372 0.198,-0.18741 0.32395,-0.33353 l 0.2288,-0.2658 -0.0936,-0.1684 c -0.1182,-0.21274 -0.1178,-0.22208 0.0252,-0.50141 0.27417,-0.53598 0.39251,-0.69437 0.52306,-0.69993 0.124,-0.004 0.0816,0.19201 -0.0978,0.45451 -0.1508,0.22072 -0.18779,0.31408 -0.1402,0.35422 0.0794,0.067 0.23768,-0.0924 0.1924,-0.1934 -0.0582,-0.13 0.0928,-0.31028 0.68498,-0.81673 l 0.44613,-0.38168 -0.0918,-0.19101 c -0.0506,-0.105 -0.1486,-0.25772 -0.2178,-0.33928 -0.0692,-0.0816 -0.15679,-0.20946 -0.19459,-0.2842 -0.0614,-0.121 -0.057,-0.136 0.0396,-0.136 0.1228,0 0.27921,0.20424 0.43595,0.56912 0.0582,0.1354 0.12399,0.26449 0.14619,0.28667 0.042,0.0418 0.35597,-0.27437 0.41773,-0.42073 0.02,-0.0462 0.1184,-0.1208 0.2199,-0.1658 0.24863,-0.1102 0.48368,-0.36015 0.48368,-0.51409 0,-0.083 0.044,-0.1424 0.1296,-0.1746 0.1088,-0.041 0.12399,-0.0748 0.0944,-0.21006 -0.027,-0.1234 -0.016,-0.1612 0.0504,-0.1612 0.0472,0 0.118,0.0334 0.1574,0.0742 0.11039,0.1142 0.22161,0.0888 0.3393,-0.0772 0.1288,-0.18181 0.69439,-0.59565 1.01406,-0.74205 0.12679,-0.058 0.32107,-0.1774 0.43198,-0.26527 0.36351,-0.28798 0.84888,-0.47674 0.76952,-0.2993 -0.018,0.0408 -0.008,0.0742 0.0254,0.0742 0.0596,0 0.1706,-0.1098 0.52965,-0.52462 0.23173,-0.26785 1.36086,-1.25132 1.88838,-1.64496 0.1968,-0.14681 0.3577,-0.30003 0.3577,-0.34055 0,-0.0406 0.0772,-0.1428 0.17139,-0.22736 a 29.067228,24.943044 0 0 0 0.37279,-0.34253 l 0.20134,-0.189 0.16999,0.086 c 0.16879,0.0856 0.1714,0.0852 0.37797,-0.0704 0.23167,-0.1746 0.25471,-0.1798 0.45407,-0.1018 0.11799,0.0462 0.16979,0.0362 0.32435,-0.0618 0.14879,-0.0944 0.25515,-0.116599998828 0.55748,-0.116599998828 h 0.37363 L 27.186172,0.2965262 c 0.1866,0.16321 0.38567,0.33171 0.44225,0.37473 0.14359,0.109 0.46039,0.41752 0.74672,0.72705 0.26405,0.28536 0.66546,0.60348 1.02641,0.81333 0.12679,0.0736 0.33407,0.2121 0.46079,0.3076 0.61962,0.46724 0.86269,0.65501 1.00931,0.77961 0.0878,0.0748 0.18699,0.1358 0.22001,0.1358 0.096,0 0.563,0.51991 0.72158,0.80327 0.22329,0.39898 0.24141,0.57373 0.0808,0.77847 -0.0746,0.095 -0.25105,0.22476 -0.39237,0.28836 -0.3864,0.174 -0.85725,0.53887 -0.89199,0.69131 -0.11079,0.48543 -0.17779,0.64841 -0.33933,0.82393 -0.1,0.1088 -0.22553,0.25718 -0.27903,0.32984 -0.0534,0.0726 -0.14819,0.14601 -0.21067,0.16301 -0.1284,0.0348 -0.39865,0.39646 -0.51827,0.69318 -0.0438,0.10881 -0.14059,0.28063 -0.21503,0.38201 -0.1546,0.21066 -0.1692,0.28518 -0.056,0.28518 0.0438,0 0.11319,0.0348 0.15459,0.0776 0.0648,0.067 0.026,0.1154 -0.28095,0.34989 -0.19579,0.1498 -0.35607,0.31248 -0.35607,0.3617 0,0.0544 -0.0566,0.1018 -0.14399,0.1206 -0.1138,0.0244 -0.144,0.0622 -0.144,0.18001 0,0.1178 -0.042,0.1702 -0.20153,0.2510198 -0.1108,0.0562 -0.2016,0.1222 -0.2016,0.1466 0,0.0244 -0.0344,0.0444 -0.0764,0.0444 -0.042,0 -0.13719,0.0556 -0.21165,0.1236 -0.1642,0.15 -0.1066,0.1602 0.12079,0.0212 0.22514,-0.1376 0.42097,-0.1108 0.44415,0.0608 0.014,0.105 -0.053,0.192 -0.33119,0.43001 -0.19199,0.1642 -0.34893,0.33292 -0.34893,0.37498 0,0.0422 -0.04,0.0766 -0.089,0.0766 -0.1104,0 -0.33939,0.2021 -1.14775,1.01367 -0.18919,0.19001 -0.60394,0.58011 -0.92151,0.86693 -0.61168,0.55255 -1.35869,1.25928 -1.42108,1.34452 -0.0206,0.028 -0.1144,0.0378 -0.2085,0.0218 -0.15859,-0.0272 -0.22419,0.016 -0.89405,0.60157 -0.39763,0.34696 -0.88382,0.79619 -1.08029,0.99823 -0.1966,0.20204 -0.55449,0.55319 -0.79532,0.78039 -0.24081,0.22714 -0.47524,0.46071 -0.52094,0.5189 -0.0458,0.0582 -0.26802,0.28377 -0.49407,0.50125 -0.22603,0.21748 -0.55659,0.55341 -0.73456,0.74661 -0.17799,0.1932 -0.35789,0.38222 -0.39981,0.42012 -0.0418,0.0378 -0.15139,0.16881 -0.24351,0.29119 -0.28799,0.38288 -0.68126,0.79075 -0.76246,0.79075 -0.043,0 -0.0778,0.0216 -0.0778,0.048 0,0.065 -0.73228,0.98523 -0.90129,1.13245 -0.0746,0.0648 -0.1354,0.1372 -0.1354,0.1606 0,0.0236 -0.0278,0.0428 -0.0618,0.0428 -0.034,0 -0.008,-0.0586 0.0576,-0.1302 0.0656,-0.0716 0.1194,-0.1488 0.1194,-0.1714 0,-0.1056 -0.1926,0.0444 -0.47161,0.36723 -0.39315,0.45488 -0.40959,0.478 -0.33983,0.478 0.0588,0 0.1106,-0.0428 0.26905,-0.22242 0.078,-0.0884 0.078,-0.0834 8.4e-4,0.0494 -0.1478,0.25394 -0.39423,0.54088 -0.79006,0.91989 a 102.96291,88.354091 0 0 0 -0.83205,0.80987 c -0.24792,0.24466 -0.57521,0.55599 -0.7272,0.69191 -0.152,0.136 -0.27648,0.27338 -0.27662,0.30556 -1.1e-4,0.032 -0.0484,0.0714 -0.10699,0.0874 -0.0586,0.016 -0.26847,0.1826 -0.46611,0.37017 -0.35935,0.34102 -0.42225,0.37606 -1.58675,0.88389 a 23.54034,20.200336 0 0 1 -0.66232,0.27606 c -0.46477,0.184 -0.61983,0.26856 -1.2366503,0.67463 -0.8442,0.55583 -0.98787,0.63797 -1.17047,0.66933 -0.23999,0.0412 -0.26641,-0.0754 -0.0628,-0.27569 0.0922,-0.0906 0.1556,-0.1752 0.1406,-0.188 -0.0398,-0.0342 -0.49855,0.1776 -0.66558,0.30716 -0.0792,0.0616 -0.2866,0.18281 -0.46079,0.26971 -0.1742,0.087 -0.47231,0.24526 -0.66232,0.35196 -0.19,0.1066 -0.53997,0.27443 -0.77752,0.37272 -0.23757,0.0982 -0.56588,0.25467 -0.72964,0.34737 -0.16379,0.0926 -0.31097,0.1686 -0.32703,0.1686 -0.016,0 -0.19319,0.0934 -0.39347,0.20758 -0.20019,0.11421 -0.45471,0.23397 -0.56554,0.26615 -0.1248,0.0362 -0.23258,0.1124 -0.28288,0.20006 -0.11199,0.195 -0.28391,0.31456 -0.45254,0.31456 -0.1562,0 -0.53611,0.22045 -1.10333,0.64035 -0.7946,0.58805 -0.98888997,0.75467 -1.28505997,1.10175 -0.25736,0.30151 -0.44697,0.37279 -0.44697,0.16801 z m 6.88236997,-4.66896 c 0.22169,-0.1246 0.48339,-0.2647 0.5815,-0.31138 0.1968,-0.0936 0.62277,-0.34797 1.5211,-0.90817 0.0872,-0.0544 0.28467,-0.17581 0.43891,-0.26977 0.3530103,-0.21516 0.29457,-0.1758 0.9574103,-0.64352 0.30897,-0.21803 0.57848,-0.39639 0.59882,-0.39639 0.044,0 0.46381,-0.2859 0.82636,-0.56281 0.42641,-0.32572 0.49791,-0.48954 0.25503,-0.58448 -0.11719,-0.0458 -0.15799,-0.0444 -0.19519,0.008 -0.0752,0.1044 -0.1862,0.014 -0.1176,-0.0954 0.097,-0.1556 0.0662,-0.19801 -0.14379,-0.19801 -0.1662,0 -0.2016,-0.018 -0.2016,-0.1034 0,-0.062 -0.0462,-0.1138 -0.1152,-0.1294 -0.0634,-0.014 -0.11519,-0.0456 -0.11519,-0.0696 0,-0.084 -0.1654,-0.0428 -0.1996,0.0498 -0.02,0.0516 -0.0856,0.105 -0.14779,0.119 -0.0878,0.02 -0.1132,0.068 -0.1134,0.21538 -1.8e-4,0.23353 -0.18619,0.51119 -0.34231,0.51119 -0.085,0 -0.13039,-0.0526 -0.17899,-0.20802 -0.056,-0.1784 -0.1848,-0.32941 -0.28474,-0.33368 -0.016,-6.3e-4 -0.0928,0.082 -0.1713903,0.1838 -0.0784,0.1018 -0.25331,0.2986 -0.38873,0.43742 -0.1354,0.1388 -0.24729,0.27228 -0.24857,0.29657 -8.4e-4,0.0242 -0.1046,0.141 -0.22956,0.25964 -0.18819,0.1786 -0.25197,0.21024 -0.37197,0.1844 -0.18699,-0.0404 -0.18239,-0.0682 0.0454,-0.2764 0.1042,-0.0952 0.266,-0.2654 0.35949,-0.37839 0.0936,-0.113 0.32587,-0.37974 0.51621,-0.593 0.5619003,-0.62947 0.5848203,-0.79119 0.21547,-1.52436 -0.21015,-0.41731 -0.31505,-0.53929 -0.50538,-0.58773 -0.0906,-0.023 -0.1402,0.008 -0.22272,0.1394 -0.0584,0.093 -0.17439,0.22423 -0.25771,0.29173 -0.1862,0.1504 -0.54476,0.24422 -0.63576,0.1662 -0.0992,-0.0852 -0.0742,-0.1332 0.0692,-0.1332 0.13659,0 0.49008,-0.27843 0.61156,-0.48185 0.0576,-0.0964 0.0518,-0.1112 -0.0438,-0.1112 -0.1268,0 -0.21785,0.0812 -0.24811,0.22114 -0.014,0.0606 -0.109,0.1262 -0.25254,0.173 -0.12719,0.0414 -0.28845,0.12481 -0.35815,0.18541 -0.0698,0.0604 -0.21841,0.143 -0.33055,0.1832 -0.15039,0.0538 -0.21271,0.1114 -0.23781,0.21912 -0.037,0.1582 -0.17779,0.21918 -0.33343,0.1444 -0.0664,-0.0318 -0.08,-0.0656 -0.0422,-0.1048 0.0306,-0.0318 0.0548,-0.1134 0.0538,-0.1814 -8.4e-4,-0.068 0.0324,-0.36817 0.0746,-0.66715 0.1,-0.71079 0.0846,-1.03185 -0.0584,-1.22795 -0.1058,-0.145 -0.47071,-0.42765 -0.55212,-0.42765 -0.068,0 -0.2201,0.1582 -0.46809,0.48657 -0.1366,0.1808 -0.24887,0.3092 -0.24959,0.2852 -8.4e-4,-0.0494 0.387,-0.71789 0.46526,-0.80105 0.028,-0.0298 0.0348,-0.0678 0.016,-0.0846 -0.0416,-0.0356 -0.3663,0.0992 -0.36689,0.1522 -1.8e-4,0.02 -0.078,0.0736 -0.17279,0.12001 -0.0948,0.0464 -0.1726,0.124 -0.1728,0.173 -1.8e-4,0.0488 -0.08,0.27778 -0.17699,0.50882 -0.0972,0.23103 -0.1812,0.46553 -0.1868,0.52117 -0.006,0.0554 -0.058,0.164 -0.11679,0.24074 -0.0898,0.1176 -0.0954,0.158 -0.0352,0.25433 0.0974,0.1564 0.0348,0.45028 -0.1706,0.7995 -0.092,0.15661 -0.24933,0.44033 -0.34949,0.63063 -0.10019,0.1902 -0.30937,0.56829 -0.46482,0.84013 -0.33087,0.57851 -0.62969,1.31332 -0.62969,1.54824 0,0.1296 0.0462,0.199 0.2139,0.3216 0.37143,0.27163 0.785,0.65413 1.05315,0.97401 0.35159,0.41947 0.85775,0.88744 0.95983,0.88744 0.0484,0 0.0664,0.024 0.0426,0.0568 -0.0226,0.0314 0.004,0.0852 0.0586,0.1194 0.084,0.0526 0.1594,0.0354 0.48397,-0.1122 0.21137,-0.096 0.56574,-0.27663 0.78749,-0.40125 z m -1.81423,-2.0292 c 0,-0.027 0.026,-0.0632 0.0576,-0.0798 0.0318,-0.016 0.0576,-0.008 0.0576,0.018 0,0.0272 -0.0258,0.0632 -0.0576,0.08 -0.0318,0.016 -0.0576,0.008 -0.0576,-0.018 z m 0.23039,-0.44045 c 0,-0.026 0.0418,-0.0774 0.093,-0.1136 0.0806,-0.0574 0.0902,-0.0538 0.072,0.0268 -0.0218,0.096 -0.16499,0.1714 -0.16499,0.0868 z m 4.10673,0.004 c -0.0378,-0.012 -0.0546,-0.0526 -0.0372,-0.0914 0.0408,-0.091 0.24977,-0.0928 0.24977,-0.002 0,0.0772 -0.1084,0.125 -0.21273,0.0936 z m -0.18,1.74022 c 0.094,-0.068 0.1552,-0.12361 0.1356,-0.12361 -0.0572,0 -0.49169,0.19741 -0.49169,0.22341 0,0.0666 0.20536,0.008 0.35601,-0.0998 z m 1.3700803,-0.86291 c 0.0466,-0.0254 0.0654,-0.0626 0.0418,-0.0828 -0.0236,-0.0202 -0.0868,8.4e-4 -0.14019,0.0466 -0.104,0.0894 -0.0418,0.1122 0.0984,0.0362 z m 1.97581,-0.74365 c 0.15139,-0.16281 0.24211,-0.29613 0.20173,-0.29613 -0.0782,0 -0.62084,0.48257 -0.62084,0.55199 0,0.1146 0.1728,0.01 0.41911,-0.25592 z m -9.9956803,-0.46587 c 0.0362,-0.1012 0.0404,-0.1762 0.01,-0.1762 -0.0646,0 -0.28121,0.29622 -0.28153,0.38477 -4.2e-4,0.1288 0.20825,-0.0314 0.27155,-0.20853 z m 10.3828103,-0.34916 c 0.0588,-0.0606 0.0548,-0.074 -0.0218,-0.074 -0.0514,0 -0.0934,0.0332 -0.0934,0.074 0,0.0408 0.01,0.0742 0.0218,0.0742 0.012,0 0.054,-0.0334 0.0934,-0.0742 z m -0.0432,-1.00297 c 0.11879,-0.12761 0.21599,-0.27119 0.21599,-0.31887 0,-0.0476 0.0252,-0.0866 0.0558,-0.0866 0.0698,0 0.92331,-0.73805 0.92331,-0.79829 0,-0.0242 0.0984,-0.138 0.21874,-0.253 0.1204,-0.115 0.26227,-0.26854 0.31545,-0.34136 0.0532,-0.073 0.17499,-0.17221 0.27083,-0.22073 0.0956,-0.0484 0.174,-0.106 0.174,-0.1276 0,-0.077 0.56152,-0.63831 1.32508,-1.32506 0.0794,-0.0714 0.28633,-0.2726 0.45965,-0.44698 a 54.386529,46.669933 0 0 1 0.6186,-0.60959 c 0.30707,-0.29606 0.35699,-0.37458 0.23783,-0.37458 -0.089,0 -1.10975,0.86105 -1.66961,1.40847 -1.09341,1.06916 -1.22543,1.1865 -1.43996,1.27992 -0.0688,0.0298 -0.1534,0.0974 -0.18819,0.1502 -0.0348,0.0528 -0.1312,0.1468 -0.2142,0.20912 -0.13079,0.0982 -0.56894,0.66879 -0.56894,0.74101 0,0.0774 -0.62381,0.72771 -0.86718,0.90379 -0.26099,0.18881 -0.34477,0.32979 -0.24627,0.41429 0.0804,0.069 0.17019,0.0208 0.37913,-0.20396 z m 2.13734,-0.28201 c 0.018,-0.0408 0.0242,-0.0742 0.014,-0.0742 -0.01,0 -0.0522,0.0334 -0.0918,0.0742 -0.0414,0.0426 -0.0468,0.0742 -0.014,0.0742 0.0322,0 0.0734,-0.0334 0.0916,-0.0742 z m 0.35539,-0.383 0.21427,-0.25949 -0.21357,0.17301 c -0.23482,0.1902 -0.35595,0.34598 -0.26911,0.34598 0.0298,0 0.15059,-0.1168 0.26841,-0.25948 z m -3.17745,-0.1628 c 0.27239,-0.31035 0.38143,-0.38361 0.38329,-0.25725 6.3e-4,0.0424 0.018,0.0394 0.0538,-0.01 0.029,-0.0394 0.0418,-0.0872 0.0284,-0.106 -0.014,-0.018 0.014,-0.047 0.0614,-0.0626 0.0474,-0.016 0.086,-0.0846 0.086,-0.1534 0,-0.0688 0.02,-0.12501 0.0434,-0.12501 0.024,0 0.0782,-0.067 0.12039,-0.1488 0.1038,-0.20138 0.52735,-0.57838 0.52735,-0.46948 0,0.0448 0.036,0.1126 0.08,0.1504 0.0686,0.0588 0.1048,0.0486 0.24845,-0.0692 0.0926,-0.076 0.22712,-0.21968 0.29893,-0.3194 0.0718,-0.0996 0.1496,-0.18141 0.173,-0.18141 0.0232,0 0.1004,-0.089 0.17179,-0.1978 0.0712,-0.1088 0.1592,-0.1976 0.1956,-0.1976 0.0364,0 0.12319,-0.0612 0.19279,-0.136 0.0696,-0.0748 0.1454,-0.11981 0.1686,-0.1002 0.0422,0.036 -0.1454,0.2715 -0.41553,0.52116 -0.1624,0.1502 -0.76798,0.91667 -0.76798,0.97203 0,0.044 0.33791,-0.1818 0.34239,-0.22856 0.002,-0.018 0.0808,-0.1072 0.176,-0.1964 0.095,-0.0892 0.17279,-0.1858 0.17279,-0.21444 0,-0.0286 0.0452,-0.0866 0.1008,-0.1288 0.17399,-0.13261 0.45715,-0.41771 0.6844,-0.68917 0.1204,-0.1438 0.27155,-0.30931 0.33599,-0.36785 0.0644,-0.0584 0.156,-0.1492 0.20351,-0.20154 0.0478,-0.0522 0.1448,-0.1592 0.21606,-0.23768 0.18019,-0.19861 0.16419,-0.24587 -0.0722,-0.21299 -0.2149,0.0298 -0.28855,-0.0544 -0.087,-0.0996 0.063,-0.014 0.10179,-0.0434 0.0862,-0.0652 -0.016,-0.0218 0.0622,-0.0878 0.17339,-0.1466 0.111,-0.0588 0.20192,-0.1464 0.20192,-0.1944 0,-0.048 0.0484,-0.135 0.10759,-0.1936 0.1126,-0.11141 0.2381,-0.14141 0.2381,-0.057 0,0.0272 -0.0212,0.0494 -0.0468,0.0494 -0.0258,0 -0.0824,0.0778 -0.126,0.173 -0.0434,0.0952 -0.1002,0.173 -0.12599,0.173 -0.0258,0 -0.0468,0.0322 -0.0468,0.0716 0,0.0394 -0.0452,0.0934 -0.1004,0.1198 -0.0552,0.0264 -0.079,0.0666 -0.0528,0.0888 0.026,0.0224 0.16039,-0.0648 0.29855,-0.194 0.16599,-0.155 0.29811,-0.23472 0.38951,-0.23472 0.0762,0 0.18539,-0.0446 0.24261,-0.0988 0.0894,-0.0848 0.0914,-0.0988 0.014,-0.0988 -0.0498,0 -0.10199,0.0278 -0.1162,0.0618 -0.014,0.034 -0.043,0.0482 -0.0638,0.0318 -0.021,-0.016 0.014,-0.0832 0.0774,-0.1482 0.0928,-0.0952 0.1256,-0.10481 0.168,-0.0498 0.0658,0.0856 0.131,0.0488 0.71014,-0.4005 0.23121,-0.1794 0.7089,-0.54975 1.06153,-0.82307 0.57406,-0.44494 1.14505,-0.92909 1.44174,-1.22257 1.57059,-1.55358 1.41834,-1.43968 1.76995,-1.32386 0.0586,0.02 0.1032,-0.002 0.1248,-0.0616 0.018,-0.0504 0.0588,-0.1324 0.0902,-0.182 0.0594,-0.0946 -0.0716,-0.27911 -0.42183,-0.59423 l -0.1566,-0.141 -0.41869,0.34806 c -0.23025,0.19141 -0.40036,0.36385 -0.37797,0.38305 0.0492,0.0422 0.51519,-0.30473 0.62157,-0.46251 0.0526,-0.078 0.094,-0.0964 0.13579,-0.0606 0.0418,0.0358 0.0364,0.0846 -0.018,0.1594 -0.0558,0.0768 -0.0596,0.113 -0.014,0.12641 0.036,0.01 0.0644,0.078 0.0632,0.1504 -0.002,0.1312 -0.0986,0.20868 -0.67768,0.54478 l -0.20049,0.1164 0.1298,-0.1562 c 0.18219,-0.21966 0.0966,-0.25026 -0.143,-0.0512 -0.21989,0.1828 -0.27135,0.1392 -0.081,-0.0686 0.0658,-0.0718 0.1088,-0.1582 0.0956,-0.192 -0.014,-0.0354 -0.21943,0.1012 -0.48689,0.32418 -0.40383,0.33661 -0.48178,0.38141 -0.61388,0.35297 -0.0906,-0.02 -0.1512,-0.012 -0.1512,0.018 0,0.0282 0.052,0.0584 0.1158,0.067 0.1102,0.014 0.1086,0.0228 -0.0346,0.164 a 11.086414,9.5134254 0 0 0 -0.28005,0.28909 c -0.1136,0.1236 -0.1438,0.1332 -0.24537,0.0788 -0.0998,-0.0534 -0.1448,-0.043 -0.32678,0.076 -0.11599,0.076 -0.22251,0.1282 -0.23659,0.1162 -0.0456,-0.039 0.2128,-0.30862 0.46603,-0.48601 0.13559,-0.0952 0.24831,-0.198 0.25029,-0.22874 0.002,-0.0306 0.0424,-0.0834 0.09,-0.1172 0.1264,-0.09 0.1054,-0.1602 -0.0362,-0.1216 -0.1216,0.033 -0.12179,0.0324 -0.014,-0.091 0.0982,-0.1128 0.11,-0.1154 0.1266,-0.0302 0.03,0.1538 0.12259,0.1082 0.23539,-0.11581 0.0624,-0.1242 0.33253,-0.40848 0.66,-0.69482 0.71724,-0.62717 0.73298,-0.65277 0.46093,-0.75029 -0.24807,-0.089 -0.27437,-0.0754 -0.28287,0.1454 -0.004,0.1312 0.012,0.1598 0.0844,0.1374 0.0696,-0.0216 0.064,-1.8e-4 -0.0242,0.0908 -0.197,0.20374 -0.38887,0.33445 -0.45759,0.31187 -0.0688,-0.0226 -0.21069,0.101 -0.5454,0.47526 -0.1094,0.1224 -0.2736,0.28914 -0.36497,0.37071 -0.0914,0.0816 -0.42341,0.4262 -0.7379,0.76599 -0.8222,0.88838 -2.50171,2.50286 -3.37209,3.24163 -0.35985,0.30545 -1.62395,1.53842 -2.2247,2.16997 -0.18099,0.1902 -0.41482,0.4238 -0.51966,0.51892 -0.1048,0.0952 -0.29119,0.27981 -0.41395,0.41045 -0.1228,0.1306 -0.30975,0.31842 -0.41535,0.41739 -0.1056,0.099 -0.19199,0.20704 -0.19199,0.24026 0,0.066 0.28179,0.26354 0.37433,0.26246 0.0318,-4.2e-4 0.18359,-0.1442 0.33753,-0.31968 z m 1.91668,-1.90043 c 0.0202,-0.0952 0.0602,-0.21238 0.0892,-0.26054 0.0286,-0.048 0.0374,-0.1078 0.02,-0.1326 -0.018,-0.0248 0.0392,-0.052 0.127,-0.0606 0.1032,-0.01 0.15459,-0.042 0.1458,-0.09 -0.008,-0.0408 0.0644,-0.1186 0.15999,-0.173 0.0956,-0.0544 0.18879,-0.14881 0.20711,-0.21001 0.018,-0.0612 0.0564,-0.1112 0.0846,-0.1112 0.0282,0 0.0516,-0.039 0.052,-0.0866 6.3e-4,-0.0878 0.1124,-0.2268 0.43921,-0.54781 0.156,-0.153 0.1936,-0.1686 0.27296,-0.112 0.10279,0.0734 0.0654,0.1736 -0.0506,0.1354 -0.1094,-0.036 -0.1516,0.27395 -0.0466,0.33995 0.0704,0.044 0.0696,0.0712 -0.004,0.1948 -0.0476,0.0788 -0.1398,0.1504 -0.2048,0.159 -0.13399,0.018 -0.15159,-0.0318 -0.046,-0.13 0.0396,-0.0368 8.4e-4,-0.0244 -0.0844,0.0272 -0.0862,0.0516 -0.15739,0.1094 -0.15839,0.1282 -8.4e-4,0.018 -0.1054,0.1368 -0.23218,0.26245 -0.12679,0.1256 -0.23039,0.24488 -0.23039,0.26504 0,0.02 -0.1296,0.1578 -0.28799,0.3059 l -0.28793,0.26921 z m 1.11497,-0.75375 c 0,-0.0344 0.0518,-0.0906 0.1152,-0.1244 0.0924,-0.0494 0.1152,-0.0494 0.1152,8.4e-4 0,0.0344 -0.0518,0.0904 -0.1152,0.1244 -0.0926,0.0496 -0.1152,0.0494 -0.1152,-8.4e-4 z m 0.66348,-1.12263 c -0.0202,-0.028 -0.008,-0.0512 0.0242,-0.0512 0.0336,0 0.061,-0.032 0.061,-0.0712 0,-0.0784 0.1044,-0.1522 0.1544,-0.1092 0.018,0.014 -0.0212,0.0846 -0.0856,0.1548 -0.0682,0.0744 -0.1324,0.1066 -0.154,0.0766 z m 0.25798,-0.34192 c 0,-0.024 0.0648,-0.0802 0.14399,-0.1246 0.1572,-0.0884 0.184,-0.0538 0.0638,0.082 -0.0806,0.091 -0.20779,0.1172 -0.20779,0.0426 z m 1.15184,-0.2305 c 0,-0.0808 0.1896,-0.32309 0.28857,-0.36849 0.1772,-0.0814 0.1468,0.059 -0.0526,0.24218 -0.15839,0.14541 -0.23609,0.18701 -0.23609,0.12621 z m -0.88017,-0.10221 c -0.0564,-0.0486 0.0668,-0.21664 0.15899,-0.21664 0.1284,0 0.1632,0.096 0.0482,0.1326 -0.0574,0.018 -0.11919,0.0518 -0.13719,0.0746 -0.018,0.0228 -0.0494,0.0272 -0.07,0.01 z m 0.68908,-0.1976 c 0.016,-0.0376 0.0666,-0.0684 0.11099,-0.0684 0.1196,0 0.0968,0.0836 -0.0306,0.1122 -0.0778,0.018 -0.10159,0.004 -0.0802,-0.0438 z m 0.30629,-0.70499 c 0,-0.0238 0.0432,-0.0738 0.0958,-0.1112 0.0868,-0.0616 0.0894,-0.0576 0.0266,0.0434 -0.0714,0.115 -0.1226,0.1432 -0.1226,0.0678 z m 1.26704,-0.178 c 0,-0.0222 0.1172,-0.1626 0.26048,-0.31192 0.29751,-0.31007 0.29457,-0.43123 -0.004,-0.13541 -0.1078,0.10701 -0.2116,0.18101 -0.2308,0.16441 -0.037,-0.0318 0.1108,-0.19741 0.41791,-0.46867 0.1836,-0.1622 0.30431,-0.20804 0.30431,-0.1158 0,0.0264 0.0388,0.035 0.0864,0.02 0.0474,-0.016 0.0864,-0.004 0.0864,0.0226 0,0.0834 -0.17699,0.21012 -0.24395,0.1746 -0.0368,-0.02 -0.045,-0.01 -0.0204,0.0248 0.0248,0.0342 -0.099,0.1798 -0.30783,0.36187 -0.192,0.1674 -0.34923,0.28622 -0.34923,0.26404 z m -0.63352,-0.46757 c 0,-0.0254 0.026,-0.0602 0.0576,-0.077 0.0318,-0.016 0.0576,0.004 0.0576,0.0466 0,0.0424 -0.0258,0.077 -0.0576,0.077 -0.0318,0 -0.0576,-0.0208 -0.0576,-0.0466 z m 1.42222,-0.5931 c 0.0342,-0.1122 0.0528,-0.123 0.1,-0.0578 0.018,0.024 -0.006,0.0698 -0.0498,0.1016 -0.0664,0.0472 -0.0756,0.0392 -0.0502,-0.0438 z m 0.33965,-0.0276 c 0.0518,-0.068 0.1184,-0.1236 0.148,-0.1236 0.0634,0 -0.1326,0.24328 -0.1978,0.24558 -0.0244,8.4e-4 -0.002,-0.054 0.0498,-0.122 z m -0.66968,-0.016 c 0.038,-0.0634 0.0848,-0.1018 0.104,-0.0852 0.02,0.016 -0.012,0.0684 -0.069,0.1154 -0.0996,0.0816 -0.101,0.0802 -0.035,-0.0302 z m 0.63556,-0.19841 c 0,-0.0476 0.32863,-0.35324 0.37971,-0.35324 0.018,0 -0.049,0.089 -0.14939,0.1978 -0.1852,0.20063 -0.2304,0.23117 -0.2304,0.15561 z m 0.43199,-0.1556 c 0.02,-0.0272 0.0614,-0.0494 0.0932,-0.0494 0.0316,0 0.0416,0.0222 0.0218,0.0494 -0.02,0.0272 -0.0614,0.0494 -0.0932,0.0494 -0.0318,0 -0.0416,-0.0222 -0.022,-0.0494 z m 0.2304,-0.1978 c 0.0572,-0.0544 0.11399,-0.099 0.12599,-0.099 0.012,0 -0.006,0.0446 -0.0396,0.099 -0.034,0.0544 -0.0906,0.0988 -0.1262,0.0988 -0.0354,0 -0.018,-0.0444 0.0398,-0.0988 z m -10.30287,7.09732 c -0.1188,-0.24412 -0.163,-0.2266 -0.0502,0.02 0.0498,0.109 0.10119,0.1892 0.11399,0.1784 0.012,-0.01 -0.016,-0.1002 -0.0636,-0.1982 z m 2.38379,-0.0328 c 0,-0.0288 -0.026,-0.0386 -0.0576,-0.0218 -0.0318,0.016 -0.0576,0.0404 -0.0576,0.0522 0,0.012 0.0258,0.0218 0.0576,0.0218 0.0318,0 0.0576,-0.0236 0.0576,-0.0522 z m -1.3956,-0.55385 c 0.44331,-0.52239 0.81784,-0.93383 1.09437,-1.20232 0.13399,-0.1302 0.24363,-0.25548 0.24363,-0.27854 0,-0.023 0.1036,-0.1344 0.2304,-0.24762 0.12679,-0.1132 0.23039,-0.23149 0.23039,-0.26307 0,-0.0314 0.11,-0.1594 0.24473,-0.28442 0.23532,-0.21836 0.36499,-0.34982 0.71626,-0.72613 0.21247,-0.22758 0.41453,-0.4277 0.6021,-0.5964 0.0836,-0.0752 0.1614,-0.15961 0.1728,-0.18761 0.012,-0.028 0.1532,-0.1686 0.31513,-0.3127 0.162,-0.144 0.34353,-0.32858 0.40363,-0.41012 0.1252,-0.16981 0.30885,-0.35907 0.59774,-0.61541 0.1108,-0.0984 0.31667,-0.31069 0.45739,-0.47175 0.14079,-0.1612 0.43879,-0.46844 0.66234,-0.68295 0.22354,-0.21446 0.45823,-0.45292 0.52159,-0.52974 0.16639,-0.20188 0.51158,-0.53403 1.02537,-0.98633 0.35967,-0.31677 0.48298,-0.39569 0.61802,-0.39569 0.1288,0 0.26419,-0.0774 0.57286,-0.32726 0.22232,-0.18 0.40421,-0.34285 0.40421,-0.36191 0,-0.0378 -0.34611,-0.21746 -0.57592,-0.2988 -0.0792,-0.028 -0.1958,-0.1174 -0.25919,-0.1986 -0.0634,-0.0812 -0.1318,-0.1476 -0.152,-0.1478 -0.0202,-10e-5 -0.16239,-0.0892 -0.31571,-0.19781 -0.1534,-0.1088 -0.30143,-0.1976 -0.32921,-0.1976 -0.0582,0 -1.59298,1.35356 -1.67944,1.48114 -0.0814,0.1202 -0.76983,0.77999 -1.39227,1.33461 -0.29064,0.25889 -0.58771,0.53747 -0.66015,0.61897 -0.14259,0.1606 -0.77789,0.80543 -1.01021,1.02553 -0.079,0.0748 -0.16719,0.13581 -0.19619,0.13581 -0.029,0 -0.0526,0.0324 -0.0526,0.072 0,0.0396 -0.1036,0.1656 -0.2304,0.27986 -0.12679,0.1142 -0.23039,0.22642 -0.23039,0.24922 0,0.0226 -0.02,0.0422 -0.0432,0.0434 -0.0238,8.4e-4 -0.1598,0.13761 -0.30239,0.30349 -0.1426,0.1658 -0.33759,0.37058 -0.43353,0.4551 -0.096,0.0846 -0.34213,0.35125 -0.54718,0.59277 -0.205,0.24148 -0.45695,0.51613 -0.55987,0.61031 -0.103,0.0942 -0.18719,0.1828 -0.18719,0.1968 0,0.014 -0.0778,0.1016 -0.1728,0.1944 -0.25215,0.24648 -0.22719,0.30018 0.1728,0.37108 0.31423,0.0558 0.34541,0.0726 0.34373,0.18721 -0.002,0.1214 -0.1156,0.29896 -0.1916,0.29896 -0.0204,0 -0.037,-0.0526 -0.037,-0.1168 0,-0.0928 -0.053,-0.1342 -0.25823,-0.20144 -0.142,-0.0464 -0.30117,-0.0774 -0.35371,-0.0684 -0.1132,0.02 -0.61586,0.61468 -0.78398,0.92899 l -0.1182003,0.22092 0.1668003,0.1002 c 0.31371,0.1888 0.71454,0.59241 0.77438,0.77983 0.0324,0.102 0.0904,0.185 0.12879,0.1846 0.0384,-4.2e-4 0.20634,-0.1616 0.37319,-0.35828 z m 2.48985,0.1338 c 0,-0.0424 -0.026,-0.0634 -0.0576,-0.0466 -0.0318,0.016 -0.0576,0.0516 -0.0576,0.077 0,0.0256 0.0258,0.0466 0.0576,0.0466 0.0318,0 0.0576,-0.0348 0.0576,-0.077 z m -0.1938,-0.55043 c -0.0236,-0.0204 -0.067,-0.004 -0.0964,0.0358 -0.0886,0.1202 -0.0622,0.17381 0.042,0.0846 0.0536,-0.046 0.0782,-0.1002 0.0546,-0.1204 z m -4.7736203,-0.77219 c 0,-0.0632 0.0744,-0.21326 0.16519,-0.33364 0.091,-0.1204 0.20626,-0.29198 0.2565,-0.38144 0.11819,-0.21079 0.60466,-0.66721 1.8817403,-1.76607 0.56945,-0.48998 1.05545,-0.94591 1.07991,-1.01313 0.0244,-0.0672 0.1124,-0.1934 0.1952,-0.2804 0.40497,-0.42513 0.6401,-0.69773 0.6401,-0.74217 0,-0.0268 0.0648,-0.109 0.14399,-0.1824 0.0792,-0.0734 0.144,-0.1564 0.144,-0.1846 0,-0.0552 0.1402,-0.22335 0.46079,-0.55215 0.1108,-0.1138 0.25259,-0.29276 0.31493,-0.39788 0.0624,-0.10501 0.1468,-0.20193 0.1872,-0.21529 0.0406,-0.014 0.0736,-0.0782 0.0736,-0.144 0,-0.066 0.039,-0.1326 0.0868,-0.1484 0.0734,-0.0242 0.25651,-0.20908 1.06474,-1.07459 0.0922,-0.099 0.2032,-0.20155 0.82116,-0.76049 0.21376,-0.19341 0.38891,-0.36961 0.38917,-0.39153 1.8e-4,-0.022 0.1194,-0.14 0.26463,-0.26228 0.1452,-0.1222 0.28864,-0.2613 0.3184,-0.30886 0.0662,-0.10581 0.27181,-0.11381 0.31719,-0.012 0.018,0.0408 0.0772,0.074 0.13059,0.074 0.0536,0 0.1258,0.0244 0.1604,0.054 0.0818,0.07 0.30567,-0.0266 0.30567,-0.1318 0,-0.0408 -0.20718,-0.25696 -0.46041,-0.48015 l -0.4604,-0.40578 -1.8e-4,0.23186 c -1.7e-4,0.1276 -0.0252,0.24498 -0.0554,0.26109 -0.063,0.0334 -0.19799,-0.17501 -0.25547,-0.39411 -0.0618,-0.23608 -0.21811,-0.4576598 -0.36243,-0.5141198 -0.1112,-0.0434 -0.13319,-0.0378 -0.13339,0.0334 -1.4e-4,0.047 -0.1492,0.1896098 -0.33119,0.3168698 -0.182,0.1272 -0.40985,0.29418 -0.50629,0.37096 -0.0966,0.0766 -0.44633,0.32755 -0.77752,0.55725 -0.64172,0.44513 -0.76222,0.54497 -1.43722,1.19117 l -0.97597,0.93406 c -0.29919,0.28628 -1.15997,1.05327 -1.91283,1.70432 -0.7528203,0.6511 -1.3581803,1.19297 -1.3451203,1.20413 0.0364,0.0312 0.43283,-0.1906 0.43283,-0.24214 0,-0.025 0.0314,-0.0454 0.0696,-0.0454 0.0382,0 0.1674,-0.082 0.2868903,-0.18201 0.1196,-0.1002 0.23205,-0.1696 0.25006,-0.154 0.0372,0.0318 -0.6351903,0.60003 -1.1536503,0.97501 -0.1918,0.13881 -0.42943,0.26367 -0.53407,0.28081 -0.33085,0.054 -0.69052,0.4669 -1.09333,1.25487 -0.11219,0.21966 -0.12539,0.23992 -0.31635,0.48585 -0.087,0.1122 -0.15839,0.23604 -0.15839,0.27504 0,0.039 0.12659,0.1506 0.28121,0.24806 0.39775,0.25053 0.651,0.50635 0.89367,0.90263 0.1458,0.23813 0.25862,0.36005 0.36729,0.39695 0.24032,0.0816 0.28639,0.0734 0.28639,-0.0512 z m 0.61912,-0.5081 c 0.0634,-0.075 0.24148,-0.26681 0.39583,-0.42617 0.1544003,-0.1592 0.2639303,-0.30402 0.2435103,-0.32154 -0.0806,-0.069 -1.1288703,1.02009 -1.1288703,1.17287 0,0.0602 0.29856,-0.199 0.48959,-0.42516 z m 3.7763503,0.0546 c 0.35174,-0.31881 1.05258,-1.05497 1.14095,-1.19844 0.1714,-0.2781 -0.15119,-0.0268 -0.74552,0.58065 -0.93487,0.95579 -1.16514,1.31558 -0.39543,0.61783 z m -6.2610203,-1.38296 c 0.22207,-0.37838 0.0892,-0.36152 -0.22603,0.0288 -0.1334,0.165 -0.1474,0.20793 -0.0794,0.2439 0.1022,0.0544 0.126,0.033 0.30539,-0.27262 z m 7.0057003,-3.42038 c 0,-0.0492 0.41745,-0.53266 0.49367,-0.57148 0.08,-0.0408 0.31263,-0.34543 0.31263,-0.40953 0,-0.0864 -0.31115,0.21836 -0.60688,0.59439 -0.1714,0.21786 -0.36351,0.45174 -0.42699,0.51968 -0.18059,0.19341 -0.1376,0.23823 0.0548,0.0574 0.095,-0.0892 0.17279,-0.175 0.17279,-0.1904 z m -2.99083,-0.71587 c 0.0624,-0.0456 0.0914,-0.0946 0.0644,-0.1092 -0.0742,-0.0394 -0.45349,0.2875 -0.42341,0.36504 0.018,0.0482 0.0574,0.0332 0.1358,-0.0528 0.0604,-0.0662 0.16079,-0.1576 0.22335,-0.20308 z m 4.2532,-0.73123 c 0.36453,-0.41012 0.43711,-0.5277 0.22673,-0.36728 -0.14579,0.1112 -0.62526,0.66472 -0.62526,0.72182 0,0.0806 0.0562,0.0306 0.39853,-0.35454 z m -3.87637,-0.0276 c 0.13859,-0.1816 0.058,-0.20484 -0.0904,-0.026 -0.0688,0.0832 -0.0982,0.1512 -0.0652,0.1512 0.0332,0 0.10319,-0.0562 0.15559,-0.125 z m 9.34457,-0.1986 c 0.018,-0.0806 0.008,-0.0842 -0.072,-0.0268 -0.10999,0.0784 -0.12379,0.17 -0.021,0.1406 0.0396,-0.012 0.0816,-0.0624 0.093,-0.1136 z m 4.13365,-0.2228 c 0.18559,-0.16481 0.33751,-0.32409 0.33751,-0.35423 0,-0.1028 -0.1276,-0.0914 -0.24792,0.0218 a 548.05079,470.29099 0 0 1 -0.32487,0.30523 c -0.19559,0.1838 -0.26289,0.32666 -0.15359,0.32666 0.0282,0 0.20311,-0.1348 0.38871,-0.29942 z m -1.38204,-0.0718 c 0.018,-0.0412 -0.002,-0.11121 -0.0448,-0.15581 -0.1346,-0.1392 -0.67373,-0.46132 -0.77196,-0.46132 -0.1264,0 -0.0762,0.1106 0.0812,0.1784 0.18719,0.0808 0.41593,0.27524 0.47309,0.4022 0.057,0.12661 0.21271,0.14821 0.26271,0.0364 z m -7.61043,-0.12301 c 0.02,-0.0272 0.01,-0.0494 -0.022,-0.0494 -0.0318,0 -0.0736,0.0222 -0.0932,0.0494 -0.02,0.0272 -0.01,0.0494 0.022,0.0494 0.0318,0 0.0736,-0.0222 0.0932,-0.0494 z m -3.56552,-0.185 c -0.04,-0.0344 -0.14919,0.0354 -0.14919,0.0952 0,0.0328 0.033,0.029 0.0878,-0.01 0.0482,-0.0344 0.076,-0.0728 0.0614,-0.0852 z m 0.20242,-0.1486 c 0.0492,-0.0476 0.30457,-0.25328 0.56766,-0.45713 0.99575,-0.77166 1.67239,-1.41195 1.67239,-1.58258 0,-0.0502 0.0452,-0.10459 0.1008,-0.121 0.1154,-0.0342 0.37421,-0.3601 0.34521,-0.43472 -0.0202,-0.052 -0.18699,0.0916 -0.96189,0.82853 a 216.42788,185.72014 0 0 1 -0.81014,0.76605 c -0.1884,0.1766 -0.42285,0.41574 -0.52109,0.53128 -0.0982,0.11541 -0.19919,0.21001 -0.22437,0.21001 -0.0252,0 -0.11499,0.0778 -0.19959,0.173 -0.1564,0.176 -0.1318,0.24426 0.031,0.0866 z m 11.60127,-0.1134 0.168,-0.1504 -0.20044,-0.13321 c -0.1102,-0.0734 -0.50335,-0.38926 -0.87364,-0.70206 -0.37036,-0.31281 -0.74109,-0.62431 -0.82397,-0.69229 -0.0828,-0.0678 -0.40191,-0.35479 -0.70898,-0.63743 -0.64048,-0.5896098 -1.13917,-0.8881898 -2.85322,-1.7085598 -0.31807,-0.1522 -0.29657,-0.0752 0.049,0.1748 0.12679,0.0918 0.51542,0.39195 0.86389,0.66725 0.34841,0.27524 0.66476,0.50943 0.70296,0.52041 0.0706,0.0204 0.26036,0.1449998 0.64019,0.4209398 0.11639,0.0846 0.29337,0.1896 0.39294,0.23334 0.224,0.0982 2.15136,1.74937 2.15136,1.84293 0,0.0374 0.0266,0.068 0.059,0.068 0.0324,0 0.0836,0.0556 0.1138,0.1236 0.0706,0.1594 0.1154,0.1556 0.31921,-0.0268 z m -3.37686,-0.1158 c 0.054,-0.0558 -0.0556,-0.13801 -0.58327,-0.43813 -0.99293,-0.56461 -1.13041,-0.63277 -1.16881,-0.57945 -0.0742,0.10321 1.38787,1.0825 1.6207,1.0854 0.0356,4.2e-4 0.0948,-0.03 0.13139,-0.0678 z m 5.11371,-0.15981 c 0.1204,-0.1256 0.34379,-0.34242 0.49663,-0.4818 0.30271,-0.27622 0.58244,-0.61893 0.53694,-0.65797 -0.0816,-0.07 -0.30067,0.0844 -0.76338,0.53809 -0.63934,0.62673 -0.66384,0.65639 -0.6211,0.75199 0.0544,0.1218 0.1154,0.0956 0.35091,-0.15021 z m -3.4959,-0.1078 c 0,-0.0218 -0.31743,-0.30578 -0.70552,-0.631 -0.38801,-0.32517 -0.8115,-0.69091 -0.94101,-0.81277 -0.1296,-0.1218 -0.40147,-0.35501 -0.60415,-0.51805 -0.20269,-0.1632 -0.50322,-0.4308198 -0.66782,-0.5949298 -0.16459,-0.1642 -0.5765,-0.4977 -0.91531,-0.74139 l -1.04573,-0.7517 c -0.23628,-0.17001 -0.46379,-0.30893 -0.50559,-0.30893 -0.0992,0 -0.38445,0.29163 -0.34227,0.35017 0.018,0.025 0.1248,0.0452 0.23757,0.0452 0.1452,0 0.26586,0.0444 0.41407,0.1522 0.35321,0.25702 1.26769,0.98875 1.73685,1.3897 0.24492,0.2093 0.51327,0.3951798 0.59627,0.4130998 0.0906,0.02 0.15099,0.067 0.15099,0.1186 0,0.0474 0.0712,0.1522 0.1584,0.23284 0.5379,0.49815 0.73586,0.66949 1.12593,0.97446 0.58966,0.46114 1.30734,0.83569 1.30734,0.6824 z m 0.37343,-0.31856 c -0.1188,-0.1156 -0.30975,-0.28788 -0.42431,-0.38306 -0.1146,-0.0952 -0.30463,-0.26675 -0.42239,-0.38135 -0.1178,-0.1146 -0.31641,-0.26388 -0.44145,-0.3316 -0.12519,-0.0678 -0.24409,-0.1464 -0.26445,-0.1746 -0.0204,-0.0284 -0.064,-0.0514 -0.097,-0.0514 -0.071,0 1.74287,1.5298 1.81551,1.53112 0.0274,4.2e-4 -0.0474,-0.0936 -0.16599,-0.20908 z m 1.98784,0.1116 c 0,-0.0964 -0.52478,-0.64435 -0.92143,-0.96199 -0.96625,-0.77373 -1.6838,-1.3057198 -2.0377,-1.5106798 -0.1466,-0.0848 -0.29318,-0.1972 -0.3259,-0.24954 -0.0326,-0.0522 -0.0882,-0.0952 -0.12359,-0.0952 -0.0352,0 -0.1462,-0.0722 -0.24658,-0.1606 -0.14519,-0.1278 -0.73841,-0.50365 -0.89891,-0.56955 -0.018,-0.006 0.22827,0.21488 0.54763,0.49421 0.67466,0.58992 1.77862,1.4641498 2.02042,1.6000198 0.092,0.0516 0.27179,0.1924 0.39987,0.3127 0.12799,0.1204 0.30699,0.27602 0.39775,0.34592 0.0908,0.0698 0.36286,0.28805 0.60478,0.48471 0.41151,0.33468 0.58366,0.4261 0.58366,0.31002 z m 0.51775,-0.41994 0.19479,-0.17241 -0.13579,-0.124 c -0.0748,-0.0684 -0.194,-0.1242 -0.26522,-0.1242 -0.071,0 -0.31743,-0.1112 -0.5473,-0.24712 -0.22995,-0.1358 -0.46527,-0.24714 -0.52299,-0.24714 -0.0578,0 -0.10499,-0.0334 -0.10499,-0.0742 0,-0.079 -1.07851,-0.7815898 -1.80009,-1.1727098 -0.49087,-0.26606 -0.61873,-0.31682 -0.61873,-0.24548 0,0.0542 0.54335,0.4053 0.62719,0.4053 0.0282,0 0.15119,0.076 0.27345,0.1688 0.54884,0.4167298 1.10883,0.8195298 1.13931,0.8195298 0.018,0 0.0806,0.039 0.13839,0.0866 0.0576,0.0476 0.31685,0.25686 0.57599,0.4651 0.25899,0.20818 0.47096,0.40009 0.47096,0.42639 0,0.0546 0.22872,0.20166 0.31985,0.20556 0.0332,0.002 0.1484,-0.075 0.25536,-0.1698 z m -7.06302,-0.74321 c -0.018,-0.0416 -0.089,-0.1002 -0.1566,-0.1302 -0.113,-0.0504 -0.1116,-0.0444 0.016,0.0754 0.1606,0.1498 0.18679,0.1602 0.1398,0.0548 z m 2.83064,-0.36933 c -0.02,-0.0272 -0.047,-0.0494 -0.061,-0.0494 -0.014,0 -0.0254,0.0222 -0.0254,0.0494 0,0.0272 0.0276,0.0494 0.061,0.0494 0.0336,0 0.0448,-0.0222 0.0254,-0.0494 z m -5.34917,-0.1978 c 0.13759,-0.109 0.36729,-0.24674 0.51038,-0.3064398 0.1432,-0.0596 0.26016,-0.1236 0.26016,-0.1422 0,-0.0684 -0.2985,-0.19921 -0.42047,-0.18421 -0.0732,0.01 -0.1588,0.0772 -0.20532,0.1636 -0.0438,0.0816 -0.15139,0.2150098 -0.23897,0.2965498 -0.1568,0.146 -0.27601,0.3707 -0.1966,0.3707 0.0224,0 0.1532,-0.0892 0.29088,-0.198 z m 10.84693,0.1262 c 0.0382,-0.0394 0.0608,-0.1032 0.0502,-0.1416 -0.01,-0.0384 -0.26541,-0.2471798 -0.56632,-0.4638798 -0.30093,-0.21673 -0.74148,-0.54545 -0.97905,-0.73059 -0.23756,-0.18521 -0.53567,-0.41721 -0.6623,-0.51567 -0.1268,-0.0984 -0.3081,-0.23038 -0.40319,-0.29316 -0.095,-0.0628 -0.30234,-0.21967 -0.46067,-0.34863 -0.1584,-0.129 -0.41433,-0.31708 -0.56874,-0.41792 -0.27226,-0.1778 -1.57322,-1.20726 -2.10581,-1.66638 -0.43236,-0.37279 -0.86743,-0.63055 -0.86743,-0.51403 0,0.014 0.1102,0.1198 0.24479,0.23479 0.1346,0.115 0.37113,0.33148 0.52555,0.48102 0.64984,0.62909 2.7552,2.42161 2.84428,2.42161 0.0286,0 0.18439,0.1168 0.34623,0.25948 0.38315,0.33765 0.56728,0.48185 0.61522,0.48185 0.0212,0 0.1054,0.068 0.1868,0.151 0.13759,0.1404 0.59242,0.43639 1.01693,0.66193 0.0996,0.053 0.20491,0.1299998 0.23411,0.1713998 0.0956,0.1354 0.31447,0.30072 0.39807,0.30072 0.045,0 0.11319,-0.0324 0.15139,-0.0718 z m -0.92081,-0.0534 c -0.0404,-0.0416 -0.24436,-0.19 -0.45337,-0.3298198 -0.20907,-0.1398 -0.48113,-0.33359 -0.60458,-0.43079 l -0.22444,-0.1768 0.22188,0.2736 c 0.23763,0.29299 0.84835,0.7313898 1.02595,0.7364298 0.0904,0.004 0.096,-0.008 0.0346,-0.0726 z M 14.761012,9.5184162 c 0.20314,-0.29682 -0.012,-0.1456 -0.41459,0.29277 -0.22513,0.2446598 -0.40938,0.4607598 -0.40938,0.4801998 0,0.0586 0.71192,-0.6091498 0.82397,-0.7729098 z m 2.66041,0.39163 c -0.1026,-0.0972 -0.144,-0.11961 -0.144,-0.0776 0,0.0318 0.176,0.1765998 0.2146,0.1765998 0.018,0 -0.014,-0.0444 -0.0706,-0.0988 z m 6.16707,-0.0448 c -0.0546,-0.052 -0.45279,-0.35769 -0.8846,-0.67957 -0.43179,-0.32182 -1.11293,-0.86315 -1.51374,-1.20292 -0.93885,-0.79593 -1.68777,-1.41535 -2.00424,-1.65769 l -0.25119,-0.19241 -0.1724,0.1656 -0.17239,0.16581 0.41132,0.33926 c 0.2263,0.1866 0.44587,0.33925 0.48805,0.33925 0.042,0 0.50379,0.30582 1.02589,0.67954 0.52217,0.37377 1.26813,0.90191 1.65775,1.17378 0.38961,0.27184 0.85354,0.59848 1.03094,0.72594 0.32909,0.23649 0.58258,0.3309498 0.38477,0.14341 z m -6.93365,-0.56051 -0.42009,-0.35828 -0.11119,0.1156 c -0.1104,0.1148 -0.1102,0.1164 0.018,0.20978 0.19959,0.146 0.53918,0.33034 0.65624,0.35626 0.27109,0.06 0.24941,0.01 -0.1424,-0.32342 z m 10.22903,0.2496 c 0.145,-0.1246 0.1296,-0.1378 -0.55,-0.47146 -0.1346,-0.0662 -0.24479,-0.1006 -0.24479,-0.0764 0,0.071 0.57874,0.6071 0.6554,0.6071 0.0386,0 0.10139,-0.0268 0.13939,-0.0594 z m -3.36552,-0.63627 c -0.34407,-0.29618 -0.64248,-0.5388 -0.66302,-0.53924 -0.0206,-4.2e-4 -0.1278,-0.073 -0.23808,-0.1614 -0.11039,-0.0884 -0.35263,-0.28295 -0.53848,-0.43243 -0.1858,-0.1494 -0.40941,-0.3188 -0.49689,-0.3763 -0.0874,-0.0574 -0.23475,-0.19101 -0.32741,-0.29657 -0.0928,-0.1056 -0.35213,-0.35878 -0.57662,-0.56262 -0.22458,-0.20387 -0.50483,-0.49757 -0.62291,-0.65271 -0.22411,-0.29452 -0.30097,-0.34542 -0.30097,-0.1996 0,0.32076 0.41553,0.84221 1.27465,1.59954 0.63704,0.56146 2.44633,1.9214 2.55641,1.9214 0.021,0 0.14539,0.079 0.27673,0.1752 0.13599,0.0998 0.24799,0.1512 0.26047,0.1192 0.012,-0.0308 -0.25977,-0.29854 -0.60388,-0.59465 z m -5.1145,0.54269 c 0.04,-0.0554 -0.37931,-0.4574 -0.57028,-0.54703 -0.185,-0.0868 -0.0548,0.15501 0.21075,0.39101 0.24985,0.2222 0.29707,0.24274 0.35953,0.156 z m 8.86723,-0.34488 c 0.0452,-0.1218 -0.1116,-0.29299 -0.26805,-0.29299 -0.1576,0 -1.19229,-0.59404 -1.96428,-1.12773 -0.24852,-0.1718 -0.48313,-0.30304 -0.52139,-0.29162 -0.086,0.0254 0.81642,0.80747 1.15893,1.00423 0.87991,0.50553 1.42978,0.80351 1.48879,0.80675 0.0374,0.002 0.0852,-0.0422 0.106,-0.0986 z m -1.56323,-0.176 c -0.29044,-0.32055 -1.08393,-0.97424 -1.46198,-1.20436 -0.20096,-0.1222 -0.51217,-0.33356 -0.69162,-0.46948 -0.1796,-0.13581 -0.58521,-0.43029 -0.90162,-0.65413 -0.31633,-0.2239 -0.72868,-0.54709 -0.91625,-0.71833 -0.39469,-0.36015 -0.98059,-0.94891 -1.04957,-1.05469 -0.069,-0.1056 -0.24174,-0.0304 -0.24174,0.1052 0,0.068 0.0752,0.1676 0.1872,0.24766 0.20249,0.1448 1.06109,0.82937 1.79977,1.43508 0.25343,0.2078 0.64214,0.49754 0.86389,0.64401 0.46925,0.30986 0.94636,0.66396 1.6696,1.23907 0.28473,0.22642 0.54014,0.41167 0.56766,0.41167 0.0274,0 0.1018,0.0568 0.1656,0.1262 0.0636,0.0694 0.12899,0.1146 0.14539,0.1006 0.016,-0.014 -0.0448,-0.108 -0.13619,-0.20859 z m -4.37344,0.06 c -0.1206,-0.0756 -0.1752,-0.0674 -0.1142,0.018 0.0208,0.029 0.0802,0.0528 0.132,0.0528 0.0786,0 0.0758,-0.012 -0.018,-0.0702 z m -1.95483,-0.70695 c -0.66918,-0.55551 -1.43247,-1.10099 -1.54063,-1.10099 -0.1006,0 -0.33151,0.20614 -0.32793,0.29282 0.002,0.0428 0.0764,0.1274 0.16579,0.1878 0.21614,0.1462 1.59952,0.84207 1.94363,0.97771 0.10079,0.0398 0.19959,0.0948 0.21939,0.1224 0.02,0.0276 0.067,0.0494 0.1048,0.048 0.0378,-8.4e-4 -0.21644,-0.23868 -0.56491,-0.52786 z m 1.32463,-0.0458 c -0.35947,-0.28147 -1.6838,-1.15394 -1.75143,-1.15394 -0.0724,0 0.5969,0.53017 1.1238,0.89015 0.1902,0.13001 0.8408,0.49373 0.87896,0.49141 0.0202,-8.4e-4 -0.0928,-0.1036 -0.25133,-0.22762 z m 7.44543,-0.35543 c 0.13559,-0.181 0.38501,-0.46938 0.55454,-0.6409 0.1996,-0.20193 0.32165,-0.37619 0.34635,-0.49425 0.0798,-0.38115 0.102,-2.00856 0.033,-2.40623 -0.0378,-0.21748 -0.0816,-0.4909 -0.0978,-0.60767 -0.021,-0.1538 -0.0678,-0.23406 -0.16979,-0.29134 -0.0774,-0.0434 -0.1328,-0.1138 -0.1232,-0.1564 0.018,-0.0824 -0.1698,-0.2702 -0.58308,-0.58165 -0.25222,-0.19 -0.25388,-0.1904 -0.21492,-0.0556 0.0216,0.0748 0.0242,0.136 0.006,0.136 -0.1168,0 -0.26303,-0.1288 -0.37777,-0.3328 -0.15259,-0.27118 -0.11639,-0.22762 -0.5735,-0.69267 -0.1936,-0.1972 -0.32383,-0.35834 -0.28939,-0.35834 0.12999,0 0.0534,-0.119 -0.22708,-0.35209 -0.31155,-0.25904 -0.45201,-0.29896 -0.49982,-0.1422 -0.016,0.0544 -0.0594,0.0986 -0.0954,0.0984 -0.0358,-1.8e-4 -0.13381,0.0712 -0.2176,0.1586 -0.1258,0.13141 -0.1674,0.14841 -0.23782,0.0982 -0.07,-0.05 -0.127,-0.032 -0.31621,0.10081 -0.12699,0.089 -0.37715,0.25812 -0.55614,0.37596 -0.179,0.118 -0.45817,0.35143 -0.62041,0.51899 -0.16239,0.1676 -0.4529,0.41286 -0.64586,0.54522 -0.54398,0.37311 -1.01317,0.76369 -1.01317,0.84337 0,0.0398 0.0632,0.1308 0.1404,0.20226 0.0772,0.0716 0.24883,0.27049 0.38137,0.44221 0.13239,0.1718 0.29605,0.33374 0.3635,0.36004 0.0674,0.0262 0.2133,0.0828 0.32422,0.12561 0.16559,0.0638 0.17839,0.0784 0.072,0.0808 -0.21036,0.004 -0.1558,0.1706 0.12039,0.36464 0.1374,0.0966 0.50681,0.32523 0.82072,0.50789 0.31391,0.1826 0.60964,0.35948 0.65712,0.39292 0.30047,0.21155 1.38224,1.2031 1.38224,1.26696 0,0.1948 0.45715,0.55604 1.06033,0.83783 0.22388,0.1046 0.28864,0.0672 0.59705,-0.34461 z m -0.69962,-0.49158 c -0.0484,-0.0674 0.0532,-0.33489 0.18999,-0.49975 0.0656,-0.079 0.1192,-0.159 0.1192,-0.1778 0,-0.018 0.0518,-0.0906 0.1152,-0.1596 0.13319,-0.1452 0.15179,-0.26955 0.0346,-0.23093 -0.1338,0.044 -0.161,-0.0678 -0.0514,-0.21062 0.16039,-0.20878 0.23423,-0.66083 0.18679,-1.14431 -0.0366,-0.37367 -0.0762,-0.48669 -0.30539,-0.87397 -0.22292,-0.37663 -0.25676,-0.47069 -0.22086,-0.61403 0.0466,-0.1862 0.1388,-0.24174 0.23602,-0.1422 0.25325,0.25922 0.48774,0.64501 0.61644,1.01423 0.0832,0.23866 0.20241,0.57851 0.26495,0.75517 0.0802,0.2267 0.1162,0.48383 0.1226,0.87335 0.008,0.48873 -0.004,0.56797 -0.1106,0.68977 -0.0656,0.0756 -0.19979,0.1554 -0.29777,0.1772 -0.1186,0.0264 -0.24915,0.1224 -0.38937,0.28634 -0.116,0.13561 -0.23263,0.24671 -0.25901,0.24671 -0.0264,0 -0.0864,0.012 -0.1332,0.028 -0.0468,0.016 -0.10019,0.008 -0.11819,-0.018 z m 1.15918,-1.6338 c 0.0296,-0.35643 -0.01,-0.60057 -0.0952,-0.60057 -0.027,0 -0.0516,0.23712 -0.0544,0.52693 -0.004,0.3803 0.012,0.51188 0.0578,0.473 0.0346,-0.0298 0.0758,-0.20934 0.0916,-0.39936 z m -0.21035,-2.58157 c -0.0758,-0.0262 -0.1248,-0.0588 -0.1088,-0.0724 0.0338,-0.029 0.33311,0.0612 0.33311,0.1 0,0.0358 -0.0622,0.028 -0.22431,-0.0276 z m -0.43801,-0.29235 c -0.02,-0.0272 0.002,-0.0494 0.0508,-0.0494 0.0474,0 0.1024,0.0222 0.122,0.0494 0.02,0.027 -0.002,0.0494 -0.0508,0.0494 -0.0476,0 -0.1024,-0.0224 -0.122,-0.0494 z m -1.69897,4.4973 c -0.034,-0.0544 -0.1024,-0.0988 -0.1522,-0.0988 -0.0544,0 -0.0782,-0.028 -0.0592,-0.07 0.0386,-0.0864 -0.73661,-0.75002 -1.19394,-1.02229 -0.32351,-0.1926 -0.43763,-0.23138 -0.43763,-0.1488 0,0.0908 1.21111,1.06227 1.47132,1.18026 0.0762,0.0344 0.16579,0.1068 0.19939,0.1606 0.0336,0.0538 0.1,0.0978 0.1474,0.0978 0.0686,0 0.0738,-0.0204 0.0248,-0.0988 z m -2.64926,-0.46363 c 0,-0.0376 -0.097,-0.1308 -0.21594,-0.20732 -0.1188,-0.0766 -0.23583,-0.1668 -0.26001,-0.2005 -0.0938,-0.1306 -1.09699,-0.93547 -1.25885,-1.00983 -0.39717,-0.18241 0.34443,0.52512 1.13007,1.07815 0.19,0.1338 0.38119,0.28024 0.42463,0.3255 0.0962,0.1 0.18,0.1066 0.18,0.014 z m 6.14678,-1.13103 c 0.1562,-0.315 0.23095,-0.67873 0.1392,-0.67873 -0.035,0 -0.0786,0.0612 -0.097,0.136 -0.0542,0.22243 -0.128,0.47147 -0.1904,0.64249 -0.092,0.25228 0.006,0.1862 0.1482,-0.0996 z m -7.47135,-0.43057 c 0,-0.1126 -0.93009,-0.74237 -1.09629,-0.74237 -0.10919,0 -0.0448,0.0768 0.20786,0.24715 a 34.552773,29.650276 0 0 1 0.51832,0.35826 c 0.26387,0.1868 0.37011,0.22604 0.37011,0.137 z m 8.88403,-0.1748 c 0.47999,-0.2475 0.59994,-0.40028 0.53069,-0.67553 -0.0566,-0.22512 -0.21958,-0.48866 -0.38149,-0.61706 -0.0744,-0.059 -0.21134,-0.17621 -0.30439,-0.26049 -0.093,-0.0844 -0.1968,-0.1454 -0.2304,-0.136 -0.0358,0.01 -0.0682,0.21022 -0.0778,0.48125 -0.012,0.34098 -0.0412,0.48702 -0.10918,0.55144 -0.073,0.0692 -0.0854,0.15301 -0.0588,0.39765 0.0362,0.33264 0.0842,0.48178 0.15478,0.48178 0.0242,0 0.23883,-0.1004 0.47679,-0.22312 z m -1.51266,-0.31852 c 0.089,-0.40441 0.018,-0.79587 -0.18299,-1.01566 -0.20416,-0.22268 -0.24147,-0.0928 -0.1588,0.55271 0.0412,0.32148 0.0794,0.65121 0.0846,0.73277 0.016,0.23558 0.0264,0.25216 0.1058,0.1626 0.0412,-0.0466 0.1092,-0.24108 0.1514,-0.4323 z m -7.43109,-0.63211 c -0.004,-0.0896 -0.27833,-0.31874 -0.34085,-0.28556 -0.0818,0.0434 0.0858,0.22378 0.20788,0.22378 0.0426,0 0.0774,0.0222 0.0774,0.0494 0,0.0272 0.014,0.0494 0.0288,0.0494 0.016,0 0.0278,-0.016 0.0266,-0.0372 z m 7.66187,-1.36558 c 0,-0.0376 -0.089,-0.1264 -0.1978,-0.1976 -0.31493,-0.20612 -0.40222,-0.161 -0.23269,0.1202 0.0674,0.112 0.1278,0.1458 0.25919,0.1458 0.1074,0 0.1712,-0.0254 0.1712,-0.0684 z m -4.84837,-1.6819 c 0.25816,-0.24032 0.31735,-0.364 0.134,-0.27976 -0.059,0.027 -0.15339,0.1112 -0.20991,0.187 -0.0568,0.076 -0.19,0.20083 -0.29657,0.27771 -0.1064,0.0768 -0.2229,0.1868 -0.25874,0.24438 -0.0894,0.143 0.30271,-0.1236 0.63128,-0.42939 z m 1.29289,-0.70092 c 0.0562,-0.048 -0.0208,-0.16821 -0.1078,-0.16821 -0.0442,0 -0.0802,0.008 -0.0802,0.0206 0,0.012 -0.016,0.056 -0.035,0.0988 -0.0244,0.0548 -8.4e-4,0.0782 0.0768,0.0782 0.0614,0 0.1272,-0.014 0.1462,-0.0296 z M 0.34522173,28.417736 c 0,-0.1048 0.23277,-0.51836 0.29171,-0.51836 0.0268,0 0.0654,-0.0762 0.0858,-0.1696 0.0204,-0.0934 0.0864,-0.20803 0.1466,-0.25483 0.0602,-0.0466 0.1094,-0.1378 0.1094,-0.20242 0,-0.0646 0.039,-0.1302 0.0864,-0.146 0.0476,-0.016 0.0864,-0.0754 0.0864,-0.1326 0,-0.121 0.16399,-0.52085 0.25471,-0.62079 0.034,-0.0376 0.1268,-0.1742 0.20607,-0.30358 0.30912,-0.50503 0.41241,-0.64963 0.44435,-0.62221 0.018,0.016 -0.0482,0.1708 -0.14799,0.34448 -0.0998,0.17381 -0.1812,0.33181 -0.1812,0.35127 0,0.02 -0.08,0.1836 -0.1782,0.36464 -0.33809,0.62513 -0.75810997,1.56214 -0.76686997,1.7107 -0.006,0.1044 -0.0512,0.16761 -0.151,0.21089 -0.19059,0.0828 -0.28621,0.0788 -0.28621,-0.012 z m 1.78536997,-3.21181 c 0,-0.0408 0.0252,-0.0742 0.0558,-0.0742 0.0306,0 0.0408,0.0334 0.0228,0.0742 -0.018,0.0408 -0.0434,0.074 -0.0558,0.074 -0.012,0 -0.0228,-0.0332 -0.0228,-0.074 z"
     style="fill:#333333;stroke-width:0.0592842"
     id="path1"
     inkscape:export-filename="../../pwp-fast/public/apple-touch-icon-152x152.svg"
     inkscape:export-xdpi="96"
     inkscape:export-ydpi="96" />
</svg>
