<?xml version="1.0" encoding="UTF-8" standalone="no"?>
<svg
   width="265.06039"
   height="73.773865"
   version="1.1"
   id="svg1"
   xmlns="http://www.w3.org/2000/svg"
   xmlns:svg="http://www.w3.org/2000/svg">
  <defs
     id="defs1">
    <rect
       x="256.05991"
       y="423.66275"
       width="293.36932"
       height="165.28375"
       id="rect1" />
  </defs>
  <path
     d="m 0.52863787,73.250966 c 0,-0.2679 0.55492003,-1.01479 0.97334003,-1.31042 0.14612,-0.10338 0.1939,-0.24077 0.13785,-0.39745 -0.12084,-0.33728 -0.10568,-0.33542 -0.67294003,-0.0873 -0.84809,0.37126 -1.30299,-0.0584 -0.67192,-0.63466 0.16266,-0.14841 0.36297,-0.53493 0.44567,-0.85882 0.0827,-0.32393 0.30280003,-1.04884 0.48963003,-1.61078 0.49828,-1.50055 0.88627,-2.86958 0.88627,-3.12687 0,-0.12406 0.0547,-0.31428 0.1213,-0.42272 0.0666,-0.10844 0.1962,-0.36988 0.28808,-0.58115 0.0919,-0.21136 0.29912,-0.51931 0.46127,-0.68459 0.28348,-0.28903 1.11415,-1.6026 1.11415,-1.76181 0,-0.0413 0.11304,-0.29177 0.25226,-0.55365 0.1383,-0.26191 0.3538,-0.78287 0.47783,-1.15748 0.12406,-0.37448 0.27845,-0.72986 0.34324,-0.78916 0.0648,-0.0593 0.11763,-0.24079 0.11763,-0.40299 0,-0.1622 0.056,-0.34369 0.12451,-0.40297 0.0689,-0.0593 0.19207,-0.33772 0.27385,-0.61883 0.32713,-1.12166 0.32575,-1.0543 0.0184,-0.97003 -0.34644,0.0942 -0.37631,-0.11395 -0.0703,-0.48903 0.4181,-0.51186 0.97479,-1.5544 0.97626,-1.82793 0.002,-0.21642 0.0368,-0.24812 0.16082,-0.14198 0.22698,0.19528 0.41307,0.16817 0.3175,-0.046 -0.0772,-0.17277 0.0859,-0.85443 0.32301,-1.35063 0.0597,-0.12498 0.1815,-0.43007 0.27015,-0.67801 0.0887,-0.24812 0.44662,-0.93782 0.79484,-1.53299 0.34829,-0.59485 0.7363,-1.35821 0.86233,-1.69634 0.1259,-0.33818 0.36759,-0.84899 0.53709,-1.13538 0.1695501,-0.28628 0.3082901,-0.58604 0.3082901,-0.66613 4.1e-4,-0.12636 0.43651,-1.10754 0.79369,-1.7847 0.0657,-0.12498 0.37034,-0.76356 0.67633,-1.41938 0.30602,-0.65557 0.59622,-1.21751 0.64429,-1.2488 0.0482,-0.0322 0.18976,-0.27937 0.31472,-0.55138 0.12452,-0.27202 0.31015,-0.56574 0.41123,-0.65281 0.45717,-0.3924 0.98171,0.0229 0.65925,0.52489 -0.22653,0.35058 -0.24353,0.5425 -0.0322,0.36115 0.0873,-0.0749 0.2541,-0.13647 0.37078,-0.13647 0.27615,0 1.11271,-0.74066 1.00509,-0.8899 -0.12819,-0.17782 0.47451,-1.05855 1.10628,-1.61558 0.31382,-0.27663 0.70293,-0.68222 0.86467,-0.90084 0.16174,-0.21871 0.4811,-0.56879 0.7096,-0.77836 0.22883,-0.20952 0.41581,-0.42964 0.41581,-0.48956 0,-0.11027 -1.09182,0.68511 -2.55803,1.86405 -0.85746,0.68952 -1.01878,0.75174 -1.27122,0.4908 -0.25777,-0.26653 0.0947,-0.68562 1.86774,-2.22224 2.76062,-2.39264 4.50909,-3.7468 4.83771,-3.7468 0.34461,0 1.75481,-1.15445 1.75481,-1.43629 0,-0.0413 0.24534,-0.30694 0.54533,-0.59478 1.34031,-1.28691 2.15504,-2.15775 2.40187,-2.56728 0.11258,-0.18747 0.38872,-0.51945 0.61256,-0.73807 a 42.439664,36.418132 0 0 0 0.77218,-0.77926 c 0.2008,-0.20998 0.64796,-0.63124 0.99366,-0.93615 0.34553,-0.30463 0.62836,-0.62048 0.62836,-0.70151 0,-0.0813 0.27247,-0.40067 0.60578,-0.71022 0.3331,-0.30969 0.75045,-0.75447 0.92774,-0.98862 0.17736,-0.23434 0.3731,-0.42596 0.43513,-0.42596 0.0625,0 0.26696,-0.19942 0.45487,-0.44341 0.18792,-0.24398 0.55316,-0.61952 0.81149,-0.8346 0.2582,-0.21549 0.46961,-0.4241 0.46961,-0.4638 0,-0.0735 0.17598,-0.27112 0.82691,-0.92937 0.19987,-0.20217 0.36388,-0.41859 0.36388,-0.48085 0,-0.0625 0.0988,-0.18333 0.21871,-0.26879 0.12039,-0.0855 0.45489,-0.43056 0.74425,-0.76626 l 0.52565,-0.61065 -0.21504,-0.38688 c -0.27155,-0.48876 -0.27063,-0.51021 0.0579,-1.15195 0.62989,-1.23136 0.90176,-1.59525 1.20169,-1.60802 0.28488,-0.009 0.18747,0.44112 -0.22469,1.04419 -0.34645,0.50709 -0.43143,0.72157 -0.32209,0.81379 0.18241,0.15393 0.54605,-0.21228 0.44202,-0.44432 -0.13371,-0.29866 0.2132,-0.71284 1.57368,-1.87636 l 1.02494,-0.87687 -0.2109,-0.43884 c -0.11625,-0.24122 -0.3414,-0.59208 -0.50038,-0.77946 -0.15898,-0.18747 -0.36021,-0.48122 -0.44705,-0.65292 -0.14106,-0.27799 -0.13095,-0.31245 0.091,-0.31245 0.28212,0 0.64146,0.46922 1.00155,1.3075 0.13371,0.31107 0.28486,0.60764 0.33586,0.6586 0.0965,0.096 0.81781,-0.63034 0.9597,-0.96659 0.0459,-0.10614 0.27201,-0.27753 0.5052,-0.38091 0.5712,-0.25318 1.11121,-0.82741 1.11121,-1.18108 0,-0.19068 0.10108,-0.32715 0.29774,-0.40112 0.24996,-0.0942 0.28486,-0.17185 0.21688,-0.4826 -0.062,-0.2835 -0.0367,-0.37034 0.11579,-0.37034 0.10844,0 0.27109,0.0767 0.36161,0.17047 0.25361,0.26236 0.50913,0.20401 0.77951,-0.17736 0.29591,-0.41769 1.5953,-1.3684498 2.32971,-1.7047898 0.29129,-0.13325 0.73763,-0.40756 0.99244,-0.60944 0.83513,-0.66161 1.95022,-1.09526 1.7679,-0.68761 -0.0413,0.0937 -0.0184,0.17047 0.0584,0.17047 0.13693,0 0.39194,-0.25226 1.21683,-1.20527 0.53237,-0.61536 3.12645,-2.87479 4.33838,-3.77915 0.45213,-0.33728 0.82178,-0.68929 0.82178,-0.78238 0,-0.0933 0.17736,-0.32807 0.39376,-0.52234 a 66.779325,57.30437 0 0 0 0.85644,-0.78693 l 0.46257,-0.43420999 0.39053,0.19758 c 0.38778,0.19664999 0.39378,0.19572999 0.86835,-0.16174 0.53225,-0.40113 0.58518,-0.41307 1.04319,-0.23388 0.27107,0.10614 0.39008,0.0832 0.74516,-0.14198 0.34183,-0.21687 0.58619,-0.2678699990624 1.28076,-0.2678699990624 h 0.85838 L 62.457828,0.68127621 c 0.4287,0.37495999 0.88604,0.76206999 1.01603,0.86090999 0.32988,0.25042 1.0577,0.95921 1.71552,1.67033 0.60663,0.65559 1.52883,1.38644 2.35808,1.86855 0.29129,0.16909 0.7675,0.48728 1.05863,0.70668 1.42352,1.07345 1.98195,1.50483 2.3188,1.79109 0.20171,0.17184 0.42959,0.31198 0.50545,0.31198 0.22055,0 1.29344,1.19445 1.65776,1.84544 0.51299,0.9166298 0.55462,1.3180998 0.18563,1.7884698 -0.17138,0.21825 -0.57676,0.51636 -0.90143,0.66248 -0.88772,0.39975 -1.96945,1.238 -2.04927,1.58822 -0.25453,1.11523 -0.40845,1.48966 -0.77958,1.89291 -0.22974,0.24995 -0.51813,0.59084 -0.64104,0.75777 -0.12269,0.16679 -0.34046,0.33545 -0.484,0.3745 -0.29499,0.0799 -0.91586,0.91084 -1.19068,1.59252 -0.10062,0.24998 -0.32299,0.64472 -0.49401,0.87763 -0.35518,0.48397 -0.38872,0.65518 -0.12865,0.65518 0.10062,0 0.26004,0.0799 0.35515,0.17828 0.14888,0.15392 0.0597,0.26512 -0.64546,0.80384 -0.44981,0.34415 -0.81803,0.71789 -0.81803,0.83097 0,0.12498 -0.13004,0.23388 -0.33081,0.27707 -0.26144,0.0561 -0.33082,0.1429 -0.33082,0.41355 0,0.27064 -0.0965,0.39102 -0.463,0.5767 -0.25455,0.12912 -0.46316,0.28075 -0.46316,0.3368 0,0.0561 -0.079,0.10201 -0.17552,0.10201 -0.0965,0 -0.31518,0.12773 -0.48625,0.28396 -0.37723,0.34461 -0.2449,0.36804 0.27751,0.0487 0.51723,-0.31613 0.96714,-0.25456 1.02039,0.13968 0.0322,0.24123 -0.12176,0.4411 -0.76088,0.98791 -0.44108,0.37723 -0.80163,0.76485 -0.80163,0.86148 0,0.0969 -0.0919,0.17598 -0.20447,0.17598 -0.25363,0 -0.77972,0.46431 -2.63685,2.32881 -0.43465,0.43654 -1.3875,1.33275 -2.11709,1.9917 -1.40528,1.26943 -3.12147,2.89308 -3.2648,3.08891 -0.0474,0.0643 -0.26283,0.0868 -0.47901,0.0501 -0.36435,-0.0625 -0.51506,0.0368 -2.054,1.38205 -0.91352,0.79711 -2.0305,1.82918 -2.48187,2.29335 -0.45167,0.46417 -1.27389,1.2709 -1.82718,1.79287 -0.55324,0.52184 -1.09181,1.05844 -1.19681,1.19213 -0.10522,0.13371 -0.61575,0.65194 -1.13508,1.15157 -0.51928,0.49965 -1.27871,1.27142 -1.68758,1.71528 -0.40892,0.44386 -0.82222,0.87811 -0.91853,0.96518 -0.096,0.0869 -0.34781,0.38783 -0.55944,0.66898 -0.66163,0.87963 -1.56513,1.81668 -1.75168,1.81668 -0.0988,0 -0.17874,0.0496 -0.17874,0.11028 0,0.14933 -1.68235,2.26347 -2.07064,2.6017 -0.17138,0.14887 -0.31107,0.3152 -0.31107,0.36896 0,0.0542 -0.0639,0.0983 -0.14198,0.0983 -0.0781,0 -0.0184,-0.13463 0.13233,-0.29912 0.15071,-0.1645 0.27432,-0.34186 0.27432,-0.39378 0,-0.2426 -0.44249,0.10201 -1.08349,0.84368 -0.90322,1.04505 -0.94099,1.09816 -0.78072,1.09816 0.13508,0 0.25409,-0.0983 0.61812,-0.51099 0.17919,-0.20309 0.17919,-0.1916 0.002,0.11349 -0.33956,0.58341 -0.90571,1.24263 -1.81509,2.11337 a 236.54796,202.98548 0 0 0 -1.91156,1.8606 c -0.56958,0.56208 -1.3215,1.27733 -1.67068,1.5896 -0.34921,0.31245 -0.63519,0.62806 -0.63551,0.702 -2.5e-4,0.0735 -0.11119,0.16403 -0.2458,0.20079 -0.13463,0.0367 -0.61678,0.41951 -1.07084,0.85043 -0.82558,0.78346 -0.97009,0.86397 -3.64542,2.03066 a 54.0818,46.408433 0 0 1 -1.52162,0.63422 c -1.06776,0.42273 -1.424,0.61699 -2.84109,1.5499 -1.93947,1.27697 -2.26954,1.46568 -2.68905,1.53773 -0.55135,0.0947 -0.61205,-0.17323 -0.14427,-0.63338 0.21182,-0.20814 0.35747,-0.4025 0.32301,-0.43191 -0.0914,-0.0786 -1.14537,0.40802 -1.52911,0.70567 -0.18196,0.14152 -0.65844,0.41999 -1.05862,0.61964 -0.40021,0.19987 -1.08509,0.56346 -1.52162,0.80859 -0.43651,0.24491 -1.24053,0.63048 -1.78628,0.85629 -0.5458,0.22561 -1.30006,0.58508 -1.67629,0.79805 -0.37629,0.21274 -0.71442,0.38735 -0.75132,0.38735 -0.0368,0 -0.44383,0.21458 -0.90396,0.47689 -0.4599201,0.26239 -1.0446501,0.53753 -1.2992801,0.61146 -0.28671,0.0832 -0.53433,0.25823 -0.64989,0.45962 -0.25729,0.44799 -0.65226,0.72267 -1.03967,0.72267 -0.35886,0 -1.23166,0.50646 -2.5348,1.47115 -1.82552,1.35099 -2.27188,1.73378 -2.95231,2.53117 -0.59126003,0.69269 -1.02687003,0.85645 -1.02687003,0.38599 z M 16.340258,62.524456 c 0.50931,-0.28626 1.11055,-0.60812 1.33595,-0.71537 0.45213,-0.21504 1.43075,-0.79943 3.49459,-2.08644 0.20033,-0.12497 0.654,-0.4039 1.00835,-0.61977 0.81101,-0.49431 0.67675,-0.40388 2.19957,-1.47843 0.70982,-0.5009 1.329,-0.91067 1.37573,-0.91067 0.10108,0 1.06556,-0.65683 1.89849,-1.293 0.97963,-0.74831 1.1439,-1.12468 0.5859,-1.34279 -0.26923,-0.10522 -0.36296,-0.10201 -0.44843,0.0184 -0.17276,0.23985 -0.42778,0.0322 -0.27017,-0.21917 0.22285,-0.35748 0.15209,-0.45492 -0.33035,-0.45492 -0.38183,0 -0.46315,-0.0413 -0.46315,-0.23755 0,-0.14243 -0.10615,-0.26144 -0.26467,-0.29728 -0.14565,-0.0322 -0.26464,-0.10476 -0.26464,-0.1599 0,-0.19298 -0.37999,-0.0983 -0.45856,0.11441 -0.046,0.11855 -0.19666,0.24123 -0.33953,0.27339 -0.20171,0.046 -0.26007,0.15622 -0.26053,0.49482 -4.1e-4,0.53651 -0.42775,1.17441 -0.78642,1.17441 -0.19528,0 -0.29956,-0.12084 -0.41121,-0.47791 -0.12866,-0.40985 -0.42457,-0.75679 -0.65417,-0.76659 -0.0367,-0.002 -0.2132,0.18838 -0.39376,0.42226 -0.18011,0.23388 -0.58195,0.68601 -0.89306,1.00493 -0.31108,0.31888 -0.56813,0.62554 -0.57107,0.68134 -0.002,0.0556 -0.24031,0.32394 -0.52739,0.5965 -0.43235,0.41032 -0.57888,0.48301 -0.85457,0.42364 -0.4296,-0.0928 -0.41903,-0.15668 0.1043,-0.635 0.23939,-0.21871 0.61111,-0.60973 0.82589,-0.86931 0.21504,-0.25961 0.74866,-0.87242 1.18595,-1.36237 1.29091,-1.44615 1.34357,-1.81769 0.49502,-3.50208 -0.4828,-0.95873 -0.72379,-1.23897 -1.16106,-1.35025 -0.20815,-0.0528 -0.3221,0.0184 -0.51168,0.32025 -0.13417,0.21367 -0.40064,0.51515 -0.59207,0.67023 -0.42777,0.34553 -1.25153,0.56107 -1.4606,0.38183 -0.2279,-0.19574 -0.17047,-0.30602 0.15898,-0.30602 0.3138,0 1.12592,-0.63966 1.40501,-1.107 0.13233,-0.22147 0.119,-0.25548 -0.10063,-0.25548 -0.29131,0 -0.50049,0.18655 -0.57001,0.50805 -0.0322,0.13923 -0.25042,0.28994 -0.58019,0.39746 -0.29221,0.0951 -0.66269,0.28673 -0.82282,0.42596 -0.16035,0.13876 -0.50178,0.32853 -0.7594,0.42088 -0.34551,0.1236 -0.48869,0.25593 -0.54635,0.50341 -0.085,0.36345 -0.40846,0.50355 -0.76603,0.33175 -0.15255,-0.0731 -0.18379,-0.15071 -0.0969,-0.24077 0.0703,-0.0731 0.1259,-0.26053 0.1236,-0.41675 -0.002,-0.15623 0.0744,-0.84584 0.17139,-1.53272 0.22974,-1.63297 0.19436,-2.37058 -0.13417,-2.8211 -0.24307,-0.33313 -1.08141,-0.98249 -1.26845,-0.98249 -0.15622,0 -0.50565,0.36345 -1.07539,1.11785 -0.31383,0.41537 -0.57176,0.71036 -0.57341,0.65522 -0.002,-0.11349 0.8891,-1.64928 1.06889,-1.84034 0.0643,-0.0685 0.0799,-0.15576 0.0368,-0.19436 -0.0956,-0.0818 -0.84154,0.22791 -0.84289,0.34967 -4.1e-4,0.046 -0.1792,0.16909 -0.39697,0.27571 -0.2178,0.1066 -0.39654,0.28488 -0.397,0.39745 -4e-4,0.11212 -0.18379,0.63818 -0.40661,1.16897 -0.22331,0.53077 -0.41629,1.06951 -0.42916,1.19734 -0.0138,0.12728 -0.13325,0.37678 -0.26831,0.55308 -0.20631,0.27017 -0.21918,0.36299 -0.0809,0.5843 0.22376,0.35931 0.0799,1.03447 -0.39194,1.83678 -0.21136,0.3598 -0.57281,1.01161 -0.80292,1.44881 -0.23018,0.43697 -0.7107501,1.3056 -1.0678801,1.93012 -0.76015,1.32908 -1.44666,3.01724 -1.44666,3.55694 0,0.29775 0.10614,0.45719 0.49142,0.73885 0.85332,0.62405 1.8034601,1.50281 2.4195101,2.2377 0.80775,0.96369 1.9706,2.03882 2.20512,2.03882 0.1112,0 0.15255,0.0551 0.0979,0.13049 -0.0519,0.0721 0.009,0.19574 0.13462,0.27431 0.19298,0.12084 0.36621,0.0813 1.11188,-0.25777 0.4856,-0.22055 1.29974,-0.63554 1.80918,-0.92184 z m -4.16803,-4.6619 c 0,-0.062 0.0597,-0.1452 0.13233,-0.18334 0.0731,-0.0367 0.13234,-0.0184 0.13234,0.0413 0,0.0625 -0.0593,0.1452 -0.13234,0.18379 -0.0731,0.0367 -0.13233,0.0184 -0.13233,-0.0414 z m 0.5293,-1.0119 c 0,-0.0597 0.096,-0.17782 0.21366,-0.26098 0.18517,-0.13187 0.20723,-0.1236 0.16542,0.0616 -0.0501,0.22055 -0.37905,0.39377 -0.37905,0.19941 z m 9.43485,0.009 c -0.0868,-0.0276 -0.12544,-0.12084 -0.0855,-0.20998 0.0937,-0.20906 0.57382,-0.2132 0.57382,-0.005 0,0.17736 -0.24904,0.28718 -0.48872,0.21504 z m -0.41354,3.998 c 0.21596,-0.15623 0.35656,-0.28398 0.31153,-0.28398 -0.13141,0 -1.12961,0.45353 -1.12961,0.51326 0,0.15301 0.47179,0.0184 0.8179,-0.22928 z m 3.14763,-1.98246 c 0.10706,-0.0583 0.15025,-0.14382 0.096,-0.19022 -0.0542,-0.0464 -0.19941,0.002 -0.32207,0.10706 -0.23893,0.20539 -0.096,0.25777 0.22606,0.0832 z m 4.53925,-1.70847 c 0.3478,-0.37404 0.55622,-0.68033 0.46345,-0.68033 -0.17965,0 -1.42632,1.10866 -1.42632,1.26815 0,0.26328 0.39699,0.0229 0.96287,-0.58795 z M 6.4455479,56.096436 c 0.0832,-0.2325 0.0928,-0.4048 0.0229,-0.4048 -0.14841,0 -0.64605,0.68054 -0.64679,0.88397 -8e-4,0.29591 0.47844,-0.0721 0.62387,-0.47908 z m 23.8535701,-0.80216 c 0.13508,-0.13922 0.12589,-0.17001 -0.0501,-0.17001 -0.11808,0 -0.21458,0.0763 -0.21458,0.17001 0,0.0937 0.023,0.17047 0.0501,0.17047 0.0275,0 0.12406,-0.0767 0.21458,-0.17047 z m -0.0992,-2.30423 c 0.27291,-0.29318 0.49621,-0.62304 0.49621,-0.73258 0,-0.10936 0.0579,-0.19895 0.1282,-0.19895 0.16036,0 2.12122,-1.69561 2.12122,-1.834 0,-0.0556 0.22606,-0.31704 0.50254,-0.58125 0.2766,-0.2642 0.60254,-0.61695 0.72471,-0.78424 0.12222,-0.16771 0.40203,-0.39564 0.62221,-0.50711 0.21963,-0.1112 0.39975,-0.24353 0.39975,-0.29315 0,-0.1769 1.29004,-1.46646 3.04425,-3.0442 0.18241,-0.16404 0.65782,-0.62628 1.05601,-1.0269 a 124.94812,107.21993 0 0 1 1.42117,-1.40048 c 0.70547,-0.68017 0.82015,-0.86056 0.5464,-0.86056 -0.20448,0 -2.54956,1.97818 -3.83578,3.23583 -2.51201,2.4563 -2.81532,2.72588 -3.30818,2.9405 -0.15806,0.0685 -0.35242,0.22377 -0.43235,0.34507 -0.0799,0.1213 -0.30142,0.33726 -0.49211,0.48044 -0.30047,0.2256 -1.30708,1.53648 -1.30708,1.7024 0,0.17782 -1.43315,1.67185 -1.99227,2.07637 -0.5996,0.43378 -0.79208,0.75767 -0.56578,0.9518 0.18471,0.15852 0.39099,0.0478 0.87101,-0.46858 z m 4.91034,-0.6479 c 0.0413,-0.0937 0.0556,-0.17047 0.0322,-0.17047 -0.023,0 -0.11993,0.0767 -0.2109,0.17047 -0.0951,0.0979 -0.10752,0.17047 -0.0322,0.17047 0.074,0 0.16863,-0.0767 0.21044,-0.17047 z m 0.81648,-0.87991 0.49226,-0.59615 -0.49066,0.39747 c -0.53947,0.43697 -0.81776,0.79486 -0.61825,0.79486 0.0685,0 0.34597,-0.26834 0.61665,-0.59613 z m -7.29991,-0.37401 c 0.62579,-0.713 0.8763,-0.88131 0.88058,-0.59101 0.002,0.0974 0.0414,0.0905 0.1236,-0.023 0.0666,-0.0905 0.096,-0.20034 0.0652,-0.24353 -0.0322,-0.0414 0.0322,-0.10797 0.14105,-0.14381 0.1089,-0.0367 0.19758,-0.19437 0.19758,-0.35243 0,-0.15806 0.0459,-0.2872 0.0997,-0.2872 0.0551,0 0.17966,-0.15392 0.27659,-0.34185 0.23847,-0.46265 1.21154,-1.32878 1.21154,-1.07859 0,0.10293 0.0827,0.25869 0.18379,0.34553 0.1576,0.13509 0.24077,0.11166 0.57079,-0.15898 0.21274,-0.1746 0.52179,-0.50469 0.68676,-0.73379 0.16496,-0.22882 0.3437,-0.41677 0.39745,-0.41677 0.0533,0 0.23066,-0.20447 0.39468,-0.45443 0.16357,-0.24996 0.36574,-0.45397 0.44937,-0.45397 0.0836,0 0.28302,-0.1406 0.44292,-0.31245 0.1599,-0.17184 0.33404,-0.27525 0.38734,-0.2302 0.097,0.0827 -0.33404,0.62375 -0.95464,1.19732 -0.3731,0.34507 -1.76436,2.10596 -1.76436,2.23315 0,0.10109 0.77631,-0.41767 0.7866,-0.5251 0.005,-0.0414 0.18563,-0.24628 0.40435,-0.45121 0.21825,-0.20493 0.39697,-0.42685 0.39697,-0.49265 0,-0.0657 0.10384,-0.19896 0.23157,-0.29591 0.39973,-0.30466 1.05027,-0.95965 1.57236,-1.5833 0.2766,-0.33037 0.62385,-0.71062 0.7719,-0.84511 0.14795,-0.13417 0.3584,-0.34277 0.46754,-0.46302 0.10982,-0.11992 0.33267,-0.36574 0.49638,-0.54604 0.41397,-0.45629 0.37722,-0.56487 -0.16587,-0.48933 -0.49371,0.0685 -0.66292,-0.12498 -0.19987,-0.22882 0.14474,-0.0322 0.23385,-0.0997 0.19804,-0.14979 -0.0367,-0.0501 0.14289,-0.20171 0.39834,-0.3368 0.25501,-0.13509 0.46389,-0.33634 0.46389,-0.44662 0,-0.11027 0.1112,-0.31015 0.24718,-0.44478 0.25869,-0.25595 0.54702,-0.32487 0.54702,-0.13095 0,0.0625 -0.0487,0.11349 -0.10752,0.11349 -0.0593,0 -0.18931,0.17874 -0.28948,0.39745 -0.0997,0.21872 -0.2302,0.39746 -0.28945,0.39746 -0.0593,0 -0.10752,0.074 -0.10752,0.16449 0,0.0905 -0.10384,0.21458 -0.23065,0.27523 -0.12682,0.0607 -0.1815,0.15301 -0.12131,0.20401 0.0597,0.0515 0.36848,-0.14887 0.68589,-0.4457 0.38135,-0.35609 0.68488,-0.53925 0.89486,-0.53925 0.17507,0 0.42592,-0.10246 0.55738,-0.22698 0.20539,-0.19482 0.20998,-0.22698 0.0322,-0.22698 -0.11441,0 -0.23431,0.0639 -0.26696,0.14198 -0.0322,0.0781 -0.0988,0.11073 -0.14657,0.0731 -0.0482,-0.0368 0.0322,-0.19114 0.17782,-0.34047 0.21319,-0.21871 0.28855,-0.24079 0.38596,-0.11441 0.15117,0.19666 0.30096,0.11211 1.63148,-0.92011 0.53118,-0.41216 1.62864,-1.263 2.43877,-1.89093 1.31885,-1.02221 2.63065,-2.1345 3.31227,-2.80874 3.60829,-3.56921 3.25851,-3.30754 4.0663,-3.04146 0.13463,0.046 0.23709,-0.005 0.28671,-0.14152 0.0413,-0.11579 0.13509,-0.30417 0.20723,-0.41812 0.13647,-0.21734 -0.16449,-0.64123 -0.96912,-1.36519 l -0.35977,-0.32394 -0.9619,0.79964 c -0.52898,0.43974 -0.91979,0.83591 -0.86835,0.88002 0.11303,0.0969 1.1836,-0.70009 1.428,-1.06257 0.12084,-0.1792 0.21596,-0.22147 0.31196,-0.13923 0.096,0.0823 0.0836,0.19436 -0.0413,0.36621 -0.1282,0.17644 -0.13692,0.25961 -0.0322,0.29042 0.0827,0.023 0.14795,0.1792 0.1452,0.34553 -0.005,0.30142 -0.22653,0.47942 -1.55691,1.25158 l -0.46061,0.26742 0.2982,-0.35886 c 0.41857,-0.50465 0.22193,-0.57495 -0.32853,-0.11762 -0.50517,0.41996 -0.6234,0.3198 -0.18609,-0.15761 0.15117,-0.16495 0.24996,-0.36345 0.21963,-0.4411 -0.0322,-0.0813 -0.50411,0.2325 -1.11858,0.74478 -0.92776,0.77333 -1.10684,0.87625 -1.41033,0.81091 -0.20815,-0.046 -0.34737,-0.0276 -0.34737,0.0414 0,0.0648 0.11946,0.13417 0.26604,0.15393 0.25317,0.0322 0.2495,0.0524 -0.0795,0.37677 a 25.470032,21.856229 0 0 0 -0.64339,0.66416 c -0.26099,0.28396 -0.33037,0.30601 -0.56371,0.18104 -0.22929,-0.12269 -0.33267,-0.0988 -0.75075,0.1746 -0.26648,0.1746 -0.5112,0.29452 -0.54355,0.26696 -0.10476,-0.0896 0.48889,-0.70903 1.07067,-1.11657 0.3115,-0.21871 0.57046,-0.45488 0.57501,-0.52551 0.005,-0.0703 0.0974,-0.1916 0.20677,-0.26925 0.29039,-0.20677 0.24214,-0.36805 -0.0832,-0.27937 -0.27936,0.0758 -0.2798,0.0744 -0.0322,-0.20906 0.22561,-0.25915 0.25272,-0.26512 0.29086,-0.0694 0.0689,0.35335 0.28164,0.24859 0.54078,-0.26606 0.14336,-0.28533 0.76396,-0.93844 1.51629,-1.59628 1.6478,-1.44087 1.68396,-1.49968 1.05895,-1.72373 -0.56992,-0.20446 -0.63034,-0.17322 -0.64987,0.33405 -0.009,0.30142 0.0276,0.36712 0.1939,0.31566 0.1599,-0.0496 0.14704,-4.1e-4 -0.0556,0.20861 -0.45258,0.46807 -0.89339,0.76836 -1.05127,0.71649 -0.15806,-0.0519 -0.48404,0.23204 -1.253,1.09187 -0.25134,0.2812 -0.62858,0.66427 -0.83849,0.85167 -0.20998,0.18747 -0.97275,0.97915 -1.69526,1.75979 -1.88893,2.04097 -5.74745,5.75009 -7.74707,7.44735 -0.82672,0.70175 -3.73088,3.53438 -5.11105,4.98531 -0.41581,0.43697 -0.95301,0.97364 -1.19387,1.19217 -0.24077,0.21872 -0.66898,0.64284 -0.95101,0.94297 -0.28212,0.30004 -0.71162,0.73154 -0.95423,0.95892 -0.24261,0.22744 -0.44108,0.47566 -0.44108,0.55197 0,0.15163 0.64739,0.60546 0.85999,0.60298 0.0731,-10e-4 0.42178,-0.33129 0.77544,-0.73443 z m 4.4034,-4.36607 c 0.0464,-0.21871 0.13831,-0.48792 0.20493,-0.59856 0.0657,-0.11028 0.0859,-0.24767 0.046,-0.30464 -0.0413,-0.057 0.0901,-0.11947 0.29178,-0.13922 0.23709,-0.023 0.35515,-0.0965 0.33496,-0.20677 -0.0184,-0.0937 0.14795,-0.27248 0.36756,-0.39745 0.21963,-0.12498 0.43373,-0.34188 0.47582,-0.48248 0.0414,-0.1406 0.12957,-0.25547 0.19436,-0.25547 0.0648,0 0.11855,-0.0896 0.11947,-0.19896 10e-4,-0.20171 0.25822,-0.52105 1.00904,-1.25854 0.35839,-0.35151 0.44478,-0.38734 0.6271,-0.25731 0.23615,0.16863 0.15025,0.39883 -0.11625,0.31107 -0.25134,-0.0827 -0.34829,0.62937 -0.10706,0.781 0.16174,0.10109 0.1599,0.16358 -0.009,0.44754 -0.10936,0.18103 -0.32118,0.34553 -0.47051,0.36528 -0.30783,0.0413 -0.34826,-0.0731 -0.10568,-0.29866 0.091,-0.0845 0.002,-0.0561 -0.1939,0.0625 -0.19804,0.11855 -0.36159,0.25134 -0.36389,0.29453 -0.002,0.0413 -0.24215,0.31429 -0.53341,0.60295 -0.29129,0.28856 -0.5293,0.56259 -0.5293,0.60891 0,0.046 -0.29774,0.36253 -0.66163,0.70277 l -0.66149,0.61849 z m 2.56155,-1.73167 c 0,-0.079 0.119,-0.20814 0.26466,-0.2858 0.21228,-0.11349 0.26466,-0.11349 0.26466,0.002 0,0.079 -0.11901,0.20769 -0.26466,0.2858 -0.21275,0.11395 -0.26466,0.11349 -0.26466,-0.002 z m 1.52428,-2.57914 c -0.0464,-0.0643 -0.0184,-0.11763 0.0556,-0.11763 0.0772,0 0.14014,-0.0735 0.14014,-0.16357 0,-0.18012 0.23985,-0.34967 0.35472,-0.25088 0.0413,0.0322 -0.0487,0.19436 -0.19666,0.35564 -0.15668,0.17093 -0.30418,0.2449 -0.3538,0.17598 z m 0.59269,-0.78553 c 0,-0.0551 0.14887,-0.18425 0.3308,-0.28626 0.36115,-0.20309 0.42273,-0.1236 0.14657,0.18839 -0.18516,0.20906 -0.47737,0.26925 -0.47737,0.0979 z m 2.64624,-0.52955 c 0,-0.18563 0.43559,-0.74227 0.66297,-0.84658 0.4071,-0.187 0.33726,0.13555 -0.12085,0.55639 -0.36388,0.33407 -0.54239,0.42964 -0.54239,0.28996 z m -2.02211,-0.23482 c -0.12957,-0.11166 0.15347,-0.49771 0.36527,-0.49771 0.29498,0 0.37493,0.22055 0.11073,0.30463 -0.13187,0.0413 -0.27382,0.11901 -0.31518,0.17139 -0.0414,0.0524 -0.11349,0.0625 -0.16082,0.023 z m 1.5831,-0.45397 c 0.0367,-0.0864 0.15301,-0.15714 0.25499,-0.15714 0.27477,0 0.22239,0.19206 -0.0703,0.25777 -0.17874,0.0413 -0.23339,0.009 -0.18425,-0.10063 z m 0.70367,-1.61965 c 0,-0.0547 0.0993,-0.16955 0.2201,-0.25547 0.19941,-0.14152 0.20538,-0.13233 0.0611,0.0997 -0.16404,0.26421 -0.28166,0.32899 -0.28166,0.15577 z m 2.91091,-0.40894 c 0,-0.051 0.26926,-0.37356 0.59843,-0.71661 0.68351,-0.71236 0.67675,-0.99071 -0.009,-0.31109 -0.24766,0.24585 -0.48613,0.41586 -0.53024,0.37772 -0.085,-0.0731 0.25455,-0.45353 0.96011,-1.07673 0.42181,-0.37264 0.69913,-0.47795 0.69913,-0.26604 0,0.0607 0.0891,0.0804 0.19849,0.046 0.1089,-0.0367 0.1985,-0.009 0.1985,0.0519 0,0.19161 -0.40662,0.48273 -0.56045,0.40113 -0.0845,-0.046 -0.10339,-0.023 -0.0469,0.057 0.057,0.0786 -0.22744,0.41307 -0.70721,0.83136 -0.4411,0.38458 -0.80233,0.65756 -0.80233,0.60661 z m -1.45545,-1.0742 c 0,-0.0584 0.0597,-0.1383 0.13233,-0.1769 0.0731,-0.0367 0.13233,0.009 0.13233,0.10706 0,0.0974 -0.0593,0.1769 -0.13233,0.1769 -0.0731,0 -0.13233,-0.0478 -0.13233,-0.10706 z m 3.26742,-1.36259 c 0.0786,-0.25777 0.1213,-0.28258 0.22974,-0.13279 0.0413,0.0551 -0.0137,0.16036 -0.11441,0.23341 -0.15254,0.10844 -0.17368,0.0901 -0.11533,-0.10062 z m 0.78032,-0.0634 c 0.119,-0.15622 0.27201,-0.28396 0.34001,-0.28396 0.14566,0 -0.30463,0.55891 -0.45442,0.5642 -0.0561,0.002 -0.005,-0.12406 0.11441,-0.28028 z m -1.53853,-0.0367 c 0.0873,-0.14566 0.19482,-0.23388 0.23893,-0.19574 0.046,0.0367 -0.0275,0.15715 -0.15852,0.26512 -0.22882,0.18747 -0.23204,0.18426 -0.0804,-0.0694 z m 1.46014,-0.45583 c 0,-0.10936 0.755,-0.81153 0.87235,-0.81153 0.0413,0 -0.11257,0.20446 -0.34321,0.45442 -0.42548,0.46093 -0.52932,0.53109 -0.52932,0.3575 z m 0.99246,-0.35748 c 0.046,-0.0625 0.14106,-0.11349 0.21412,-0.11349 0.0726,0 0.0956,0.051 0.0501,0.11349 -0.046,0.0625 -0.14106,0.1135 -0.21412,0.1135 -0.0731,0 -0.0956,-0.051 -0.0505,-0.1135 z m 0.52932,-0.45442 c 0.13141,-0.12498 0.26188,-0.22745 0.28945,-0.22745 0.0275,0 -0.0138,0.10247 -0.091,0.22745 -0.0781,0.12498 -0.20814,0.22698 -0.28993,0.22698 -0.0813,0 -0.0413,-0.102 0.0914,-0.22698 z m -23.66991,16.30544 c -0.27293,-0.56084 -0.37447,-0.52059 -0.11533,0.046 0.11441,0.25042 0.23248,0.43467 0.26188,0.40986 0.0276,-0.0229 -0.0367,-0.2302 -0.14611,-0.45534 z m 5.47654,-0.0754 c 0,-0.0662 -0.0597,-0.0887 -0.13233,-0.0501 -0.0731,0.0367 -0.13233,0.0928 -0.13233,0.11992 0,0.0276 0.0593,0.0501 0.13233,0.0501 0.0731,0 0.13233,-0.0542 0.13233,-0.11993 z m -3.20626,-1.27242 c 1.01846,-1.20014 1.87891,-2.14539 2.51421,-2.76222 0.30783,-0.29912 0.55972,-0.58694 0.55972,-0.63992 0,-0.0528 0.23801,-0.30877 0.52932,-0.56888 0.29129,-0.26007 0.52931,-0.53183 0.52931,-0.60438 0,-0.0721 0.25271,-0.36621 0.56224,-0.65344 0.54063,-0.50166 0.83853,-0.80367 1.64554,-1.66821 0.48813,-0.52284 0.95235,-0.9826 1.38327,-1.37018 0.19207,-0.17276 0.3708,-0.36668 0.39699,-0.43101 0.0275,-0.0643 0.35197,-0.38735 0.72399,-0.7184 0.37218,-0.33083 0.78923,-0.75488 0.9273,-0.94222 0.28763,-0.39012 0.70956,-0.82493 1.37325,-1.41385 0.25456,-0.22606 0.72752,-0.71378 1.05082,-1.0838 0.32345,-0.37034 1.00807,-1.07619 1.52166,-1.56901 0.51357,-0.4927 1.05274,-1.04055 1.19831,-1.21703 0.38226,-0.4638 1.1753,-1.22689 2.35569,-2.26601 0.82631,-0.72775 1.10961,-0.90906 1.41985,-0.90906 0.2959,0 0.60695,-0.17782 1.31609,-0.75185 0.51076,-0.41353 0.92864,-0.78766 0.92864,-0.83145 0,-0.0868 -0.79516,-0.4996 -1.32313,-0.68647 -0.18195,-0.0643 -0.44983,-0.26971 -0.59546,-0.45626 -0.14566,-0.18655 -0.3028,-0.3391 -0.34921,-0.33956 -0.0464,-2.3e-4 -0.37307,-0.20493 -0.72532,-0.45445 -0.35242,-0.24996 -0.6925,-0.45397 -0.75632,-0.45397 -0.13371,0 -3.65973,3.10968 -3.85836,3.40279 -0.18701,0.27614 -1.76862,1.79195 -3.19862,3.06614 -0.66772,0.59477 -1.35021,1.23479 -1.51664,1.42203 -0.32758,0.36896 -1.78713,1.8504 -2.32086,2.35606 -0.18149,0.17185 -0.3841,0.31201 -0.45073,0.31201 -0.0666,0 -0.12084,0.0744 -0.12084,0.16541 0,0.091 -0.23801,0.38045 -0.52932,0.64295 -0.2913,0.26237 -0.52931,0.52019 -0.52931,0.57257 0,0.0519 -0.0459,0.0969 -0.0992,0.0997 -0.0547,0.002 -0.36712,0.31615 -0.69471,0.69724 -0.32761,0.38092 -0.77558,0.85138 -0.996,1.04556 -0.22055,0.19435 -0.78601,0.80696 -1.25709,1.36183 -0.47097,0.55478 -1.0498,1.18576 -1.28625,1.40213 -0.23663,0.21642 -0.43005,0.41997 -0.43005,0.45213 0,0.0322 -0.17874,0.23342 -0.397,0.44662 -0.57929,0.56626 -0.52194,0.68964 0.397,0.85252 0.72191,0.1282 0.79354,0.16679 0.78968,0.4301 -0.004,0.2789 -0.26558,0.68683 -0.44018,0.68683 -0.0468,0 -0.085,-0.12084 -0.085,-0.26834 0,-0.21319 -0.12177,-0.30831 -0.59326,-0.46278 -0.32624,-0.1066 -0.69191,-0.17782 -0.81262,-0.15715 -0.26006,0.046 -1.41488,1.41217 -1.80112,2.13427 l -0.27155,0.50755 0.3832,0.2302 c 0.72072,0.43375 1.64159,1.361 1.77907,1.79159 0.0744,0.23433 0.20769,0.42501 0.29588,0.4241 0.0882,-10e-4 0.47405,-0.37127 0.85737,-0.82312 z m 5.7202,0.30739 c 0,-0.0974 -0.0597,-0.14565 -0.13233,-0.10706 -0.0731,0.0368 -0.13233,0.11855 -0.13233,0.1769 0,0.0588 0.0593,0.10706 0.13233,0.10706 0.0731,0 0.13233,-0.0799 0.13233,-0.1769 z m -0.44524,-1.26456 c -0.0542,-0.0469 -0.15392,-0.009 -0.22147,0.0822 -0.20355,0.27615 -0.1429,0.39931 0.0965,0.19436 0.12314,-0.10568 0.17966,-0.2302 0.12544,-0.27661 z m -10.96695,-1.77404 c 0,-0.14519 0.17092,-0.48994 0.3795,-0.7665 0.20907,-0.27661 0.47387,-0.6708 0.58929,-0.87633 0.27153,-0.48427 1.38915,-1.53285 4.32313,-4.05738 1.30826,-1.12569 2.4248,-2.17314 2.48099,-2.32758 0.0561,-0.15438 0.25823,-0.44432 0.44846,-0.64419 0.93038,-0.9767 1.47057,-1.60297 1.47057,-1.70507 0,-0.0616 0.14887,-0.25041 0.3308,-0.41905 0.18196,-0.16862 0.33083,-0.35931 0.33083,-0.4241 0,-0.12681 0.3221,-0.51312 1.05862,-1.26851 0.25455,-0.26145 0.58031,-0.67259 0.72352,-0.91409 0.14336,-0.24125 0.33726,-0.46392 0.43008,-0.49461 0.0933,-0.0322 0.16909,-0.17966 0.16909,-0.33083 0,-0.15163 0.0896,-0.30464 0.19941,-0.34094 0.16864,-0.0556 0.58931,-0.48034 2.44615,-2.46877 0.21182,-0.22744 0.46683,-0.46304 1.88654,-1.74715 0.49109,-0.44435 0.89349,-0.84915 0.89408,-0.89951 4.1e-4,-0.0505 0.27431,-0.32164 0.60796,-0.60256 0.33359,-0.28075 0.66313,-0.60031 0.7315,-0.70958 0.15209,-0.24309 0.62446,-0.26147 0.72872,-0.0275 0.0413,0.0937 0.17736,0.17001 0.30002,0.17001 0.12314,0 0.28901,0.056 0.3685,0.12406 0.18793,0.16082 0.70225,-0.0611 0.70225,-0.3028 0,-0.0937 -0.47598,-0.59034 -1.05775,-1.1031 l -1.05773,-0.93224 -4.1e-4,0.53267 c -3.9e-4,0.29315 -0.0579,0.56282 -0.12727,0.59983 -0.14474,0.0767 -0.45487,-0.40207 -0.58692,-0.90543 -0.14199,-0.54237 -0.50109,-1.05143 -0.83265,-1.18114 -0.25548,-0.0997 -0.306,-0.0868 -0.30646,0.0767 -3.2e-4,0.10798 -0.34277,0.43561 -0.76087,0.72798 -0.41813,0.29223 -0.9416,0.67585 -1.16316,0.85225 -0.22193,0.17598 -1.0254,0.75252 -1.78628,1.28023 -1.4743,1.02265 -1.75113,1.25202 -3.30189,2.7366 l -2.2422,2.14592 c -0.68736,0.6577 -2.66492,2.41979 -4.39455,3.91552 -1.72953,1.49584 -3.12029,2.74074 -3.09029,2.76638 0.0836,0.0717 0.99439,-0.43789 0.99439,-0.55629 0,-0.0574 0.0721,-0.1043 0.1599,-0.1043 0.0878,0 0.38458,-0.18839 0.6591,-0.41816 0.27477,-0.2302 0.53312,-0.38964 0.57449,-0.3538 0.0855,0.0731 -1.45929,1.37852 -2.65041,2.24 -0.44064,0.3189 -0.98657,0.60575 -1.22697,0.64514 -0.7601,0.12406 -1.58641,1.07265 -2.51183,2.88294 -0.25775,0.50465 -0.28807,0.5512 -0.72679,1.1162 -0.19987,0.25777 -0.36389,0.54228 -0.36389,0.63188 0,0.0896 0.29083,0.34599 0.64606,0.56989 0.91379,0.57557 1.49562,1.1633 2.05312,2.07372 0.33497,0.54708 0.59416,0.82718 0.84382,0.91195 0.55212,0.18747 0.65796,0.16863 0.65796,-0.11763 z m 1.42237,-1.16731 c 0.14566,-0.1723 0.55478,-0.61297 0.90938,-0.97909 0.35472,-0.36575 0.60636,-0.69845 0.55945,-0.73871 -0.18518,-0.15851 -2.59348,2.34357 -2.59348,2.69457 0,0.1383 0.68591,-0.45719 1.12479,-0.97677 z m 8.67582,0.12544 c 0.80809,-0.73244 2.4182,-2.4237 2.62123,-2.75331 0.39377,-0.63891 -0.34735,-0.0616 -1.71277,1.33399 -2.14778,2.19584 -2.6768,3.02243 -0.90846,1.41941 z m -14.38413,-3.17722 c 0.51019,-0.8693 0.20493,-0.83056 -0.51928,0.0662 -0.30647,0.37907 -0.33864,0.4777 -0.18241,0.56034 0.23479,0.12498 0.28947,0.0758 0.7016,-0.62632 z m 16.09497,-7.85804 c 0,-0.11303 0.95905,-1.22373 1.13416,-1.31292 0.18379,-0.0937 0.71823,-0.79359 0.71823,-0.94086 0,-0.19849 -0.71484,0.50166 -1.39425,1.36556 -0.39377,0.50051 -0.83513,1.03783 -0.98097,1.19392 -0.41489,0.44434 -0.31612,0.54731 0.1259,0.13187 0.21825,-0.20493 0.39697,-0.40205 0.39697,-0.43743 z m -6.87117,-1.64464 c 0.14336,-0.10477 0.20999,-0.21734 0.14796,-0.25088 -0.17047,-0.0905 -1.04186,0.66051 -0.97275,0.83865 0.0413,0.11073 0.13187,0.0763 0.31199,-0.12131 0.13876,-0.15208 0.3694,-0.36207 0.51312,-0.46655 z m 9.77135,-1.67994 c 0.83747,-0.94221 1.00421,-1.21234 0.52088,-0.84379 -0.33493,0.25547 -1.43647,1.52713 -1.43647,1.65832 0,0.18517 0.12911,0.0703 0.91559,-0.81453 z m -8.90561,-0.0634 c 0.31839,-0.41721 0.13325,-0.4706 -0.20769,-0.0597 -0.15806,0.19114 -0.22561,0.34737 -0.14979,0.34737 0.0763,0 0.23707,-0.12911 0.35745,-0.28718 z m 21.4683,-0.45626 c 0.0413,-0.18517 0.0184,-0.19344 -0.16542,-0.0616 -0.25269,0.18012 -0.28439,0.39056 -0.0482,0.32301 0.091,-0.0276 0.18747,-0.14336 0.21366,-0.26098 z m 9.49669,-0.51186 c 0.42637,-0.37864 0.77539,-0.74457 0.77539,-0.81382 0,-0.23617 -0.29315,-0.20998 -0.56957,0.0501 a 1259.0971,1080.4507 0 0 1 -0.74636,0.70124 c -0.44935,0.42226 -0.60397,0.75047 -0.35286,0.75047 0.0648,0 0.46663,-0.30969 0.89303,-0.68789 z m -3.17512,-0.16496 c 0.0413,-0.0947 -0.005,-0.25549 -0.10292,-0.35796 -0.30923,-0.3198 -1.54783,-1.05984 -1.77351,-1.05984 -0.29039,0 -0.17506,0.25409 0.18655,0.40986 0.43005,0.18563 0.95556,0.63234 1.08688,0.92402 0.13095,0.29087 0.48868,0.3405 0.60355,0.0836 z m -17.48427,-0.2826 c 0.046,-0.0625 0.023,-0.11349 -0.0505,-0.11349 -0.0731,0 -0.16909,0.051 -0.21412,0.11349 -0.046,0.0625 -0.023,0.11349 0.0505,0.11349 0.0731,0 0.16909,-0.051 0.21412,-0.11349 z m -8.19146,-0.42502 c -0.0919,-0.079 -0.34275,0.0813 -0.34275,0.21871 0,0.0754 0.0758,0.0666 0.20171,-0.0229 0.11074,-0.079 0.1746,-0.16725 0.14106,-0.19574 z m 0.46504,-0.3414 c 0.11303,-0.10936 0.69972,-0.58189 1.30415,-1.05021 2.28764,-1.77282 3.84216,-3.24383 3.84216,-3.63584 0,-0.11533 0.10385,-0.24028 0.23158,-0.27798 0.26512,-0.0786 0.85972,-0.8273 0.79309,-0.99873 -0.0464,-0.11947 -0.42959,0.21044 -2.20985,1.90347 a 497.22345,426.67511 0 0 1 -1.86123,1.75993 c -0.43283,0.40572 -0.97146,0.95513 -1.19715,1.22057 -0.22561,0.26514 -0.45762,0.48248 -0.51547,0.48248 -0.0579,0 -0.26418,0.17873 -0.45855,0.39745 -0.35931,0.40434 -0.30279,0.56116 0.0712,0.19896 z m 26.65287,-0.26052 0.38596,-0.34553 -0.46049,-0.30604 c -0.25317,-0.16863 -1.1564,-0.89429 -2.00711,-1.61292 -0.85087,-0.71865 -1.70258,-1.4343 -1.89299,-1.59048 -0.19023,-0.15576 -0.92336,-0.81509 -1.62882,-1.46443 -1.47145,-1.35458 -2.61714,-2.04054 -6.55502,-3.92526 -0.73073,-0.34967 -0.68134,-0.17277 0.11258,0.40158 0.29129,0.2109 1.18413,0.90047 1.98471,1.53295 0.80043,0.63234 1.52722,1.17037 1.61498,1.1956 0.1622,0.0469 0.59815,0.33312 1.47078,0.96706 0.2674,0.19437 0.67399,0.43559 0.90274,0.53608 0.51462,0.22561 4.94256,4.01902 4.94256,4.23397 0,0.0859 0.0611,0.15622 0.13555,0.15622 0.0744,0 0.19206,0.12774 0.26144,0.28396 0.1622,0.36621 0.26512,0.35748 0.73336,-0.0616 z m -7.75803,-0.26604 c 0.12406,-0.1282 -0.12774,-0.31707 -1.34001,-1.00657 -2.28117,-1.29714 -2.59702,-1.45373 -2.68524,-1.33123 -0.17046,0.23711 3.18851,2.48695 3.72342,2.49361 0.0818,10e-4 0.21779,-0.0689 0.30185,-0.15577 z m 11.74828,-0.36715 c 0.27661,-0.28856 0.78983,-0.78668 1.14097,-1.10689 0.69545,-0.63459 1.3381,-1.42194 1.23357,-1.51163 -0.18747,-0.16082 -0.69077,0.1939 -1.7538,1.23621 -1.46883,1.43986 -1.52511,1.508 -1.42692,1.72763 0.12498,0.27983 0.26512,0.21963 0.80618,-0.34509 z m -8.03151,-0.24766 c 0,-0.0501 -0.72927,-0.70251 -1.62087,-1.44967 -0.89141,-0.74705 -1.86435,-1.5873 -2.16188,-1.86726 -0.29775,-0.27983 -0.92234,-0.81561 -1.38798,-1.19018 -0.46566,-0.37493 -1.15611,-0.98976 -1.53426,-1.36679 -0.37813,-0.37724 -1.32445,-1.14342 -2.10284,-1.70328 l -2.40247,-1.72696 c -0.54283,-0.39059 -1.06552,-0.70974 -1.16155,-0.70974 -0.2279,0 -0.88324,0.66999 -0.78633,0.80448 0.0413,0.0574 0.28672,0.10384 0.54579,0.10384 0.33359,0 0.61079,0.10201 0.95129,0.34967 0.81147,0.59048 2.91241,2.27157 3.99026,3.19271 0.56268,0.48085 1.17919,0.90789 1.36987,0.94906 0.20815,0.046 0.34689,0.15393 0.34689,0.27247 0,0.1089 0.16357,0.34967 0.36391,0.53493 1.23578,1.14446 1.69057,1.53809 2.58672,2.23873 1.35469,1.05943 3.00349,1.91993 3.00349,1.56776 z m 0.85792,-0.73186 c -0.27293,-0.26559 -0.71162,-0.66138 -0.97481,-0.88005 -0.26328,-0.21872 -0.69986,-0.61284 -0.9704,-0.87612 -0.27064,-0.26328 -0.72693,-0.60624 -1.0142,-0.76182 -0.28761,-0.15577 -0.56077,-0.33634 -0.60755,-0.40113 -0.0469,-0.0652 -0.14703,-0.11808 -0.22284,-0.11808 -0.16312,0 4.00408,3.51457 4.17097,3.51761 0.063,10e-4 -0.1089,-0.21504 -0.38135,-0.48035 z m 4.56689,0.25639 c 0,-0.22147 -1.20564,-1.48034 -2.11691,-2.21009 -2.21987,-1.77757 -3.86837,-2.99977 -4.68143,-3.47065 -0.3368,-0.19482 -0.67355,-0.45305 -0.74873,-0.57329 -0.0749,-0.11993 -0.20262,-0.21872 -0.28393,-0.21872 -0.0809,0 -0.33588,-0.16587 -0.56649,-0.36896 -0.33357,-0.29361 -1.69644,-1.15709 -2.06517,-1.30849 -0.0413,-0.0137 0.52443,0.49366 1.25813,1.1354 1.54997,1.35529 4.08622,3.36375 4.64173,3.6759 0.21136,0.11855 0.62442,0.44202 0.91867,0.7184 0.29404,0.27661 0.70528,0.63413 0.91379,0.79472 0.20861,0.16036 0.83364,0.66177 1.38943,1.11358 0.9454,0.76889 1.34091,0.97892 1.34091,0.71224 z m 1.18948,-0.96478 0.44751,-0.39609 -0.31196,-0.28488 c -0.17185,-0.15715 -0.4457,-0.28534 -0.60933,-0.28534 -0.16311,0 -0.72926,-0.25548 -1.25737,-0.56774 -0.52829,-0.31199 -1.06891,-0.56778 -1.20152,-0.56778 -0.13279,0 -0.2412,-0.0767 -0.2412,-0.17047 0,-0.18149 -2.47778,-1.79563 -4.13555,-2.69419 -1.12773,-0.61125 -1.42147,-0.72787 -1.42147,-0.56397 0,0.12452 1.24829,0.93114 1.44091,0.93114 0.0648,0 0.34735,0.1746 0.62823,0.3878 1.26091,0.9574 2.54743,1.8828 2.61746,1.8828 0.0413,0 0.18517,0.0896 0.31793,0.19895 0.13234,0.10936 0.72794,0.59012 1.32329,1.06853 0.59501,0.47827 1.08199,0.91917 1.08199,0.97959 0,0.12544 0.52546,0.4633 0.73482,0.47226 0.0763,0.005 0.34094,-0.17231 0.58667,-0.3901 z m -16.22665,-1.70746 c -0.0413,-0.0956 -0.20447,-0.2302 -0.35977,-0.29912 -0.25961,-0.11579 -0.25639,-0.10201 0.0368,0.17323 0.36896,0.34415 0.42913,0.36804 0.32117,0.12589 z m 6.50314,-0.8485 c -0.046,-0.0625 -0.10798,-0.11349 -0.14014,-0.11349 -0.0322,0 -0.0584,0.051 -0.0584,0.11349 0,0.0625 0.0634,0.11349 0.14015,0.11349 0.0772,0 0.10292,-0.051 0.0583,-0.11349 z m -12.28923,-0.45443 c 0.31609,-0.25041 0.84381,-0.56686 1.17255,-0.70401 0.32899,-0.13693 0.59769,-0.28396 0.59769,-0.3267 0,-0.15714 -0.68578,-0.45766 -0.96599,-0.4232 -0.16817,0.0229 -0.36483,0.17736 -0.4717,0.37585 -0.10063,0.18747 -0.34781,0.49397 -0.54902,0.6813 -0.36023,0.33542 -0.6341,0.85165 -0.45167,0.85165 0.0515,0 0.35197,-0.20493 0.66827,-0.45489 z m 24.91983,0.28994 c 0.0878,-0.0905 0.13968,-0.23709 0.11533,-0.32531 -0.023,-0.0882 -0.60975,-0.56788 -1.30106,-1.06573 -0.69136,-0.49791 -1.70349,-1.25312 -2.24928,-1.67846 -0.54577,-0.4255 -1.23066,-0.9585 -1.52158,-1.18471 -0.29131,-0.22606 -0.70783,-0.52928 -0.92629,-0.67351 -0.21825,-0.14427 -0.6946,-0.50467 -1.05835,-0.80094 -0.36391,-0.29637 -0.95188,-0.72846 -1.30663,-0.96014 -0.62549,-0.40847 -3.61433,-2.77357 -4.8379,-3.82835 -0.99331,-0.85645 -1.99285,-1.44863 -1.99285,-1.18094 0,0.0322 0.25318,0.27523 0.56239,0.53941 0.30923,0.2642 0.85263,0.76154 1.2074,1.1051 1.49295,1.44528 6.32982,5.56343 6.53448,5.56343 0.0657,0 0.42362,0.26834 0.79543,0.59613 0.88025,0.77572 1.30327,1.10701 1.41341,1.10701 0.0487,0 0.24215,0.15622 0.42916,0.34691 0.3161,0.32255 1.36103,1.00256 2.3363,1.52072 0.22882,0.12176 0.47076,0.29866 0.53785,0.39378 0.21963,0.31106 0.72246,0.69087 0.91453,0.69087 0.10338,0 0.26004,-0.0744 0.3478,-0.16495 z m -2.11547,-0.12269 c -0.0928,-0.0956 -0.5614,-0.4365 -1.04158,-0.75773 -0.48032,-0.32117 -1.10535,-0.76639 -1.38897,-0.9897 l -0.51563,-0.40618 0.50975,0.62857 c 0.54594,0.67312 1.94901,1.6803 2.35703,1.69188 0.20768,0.009 0.22055,-0.0184 0.0795,-0.16679 z m -24.96278,-1.8611 c 0.46669,-0.68192 -0.0275,-0.3345 -0.95248,0.67261 -0.51722,0.56208 -0.94052,1.05855 -0.94052,1.10321 0,0.13463 1.63557,-1.39946 1.893,-1.77569 z m 6.11205,0.89973 c -0.23572,-0.22331 -0.33083,-0.27479 -0.33083,-0.17828 0,0.0731 0.40435,0.40573 0.49303,0.40573 0.0413,0 -0.0322,-0.10201 -0.1622,-0.22699 z m 14.16828,-0.10292 c -0.12544,-0.11947 -1.04024,-0.82176 -2.03229,-1.56125 -0.99199,-0.73935 -2.55685,-1.98301 -3.47767,-2.7636 -2.15693,-1.82858 -3.8775,-3.25164 -4.60456,-3.8084 l -0.57709,-0.44204 -0.39607,0.38045 -0.39605,0.38094 0.94497,0.77941 c 0.5199,0.4287 1.02434,0.7794 1.12125,0.7794 0.0965,0 1.15741,0.70259 2.35689,1.56118 1.19963,0.8587 2.91341,2.07206 3.80853,2.69665 0.89509,0.62453 1.96093,1.37496 2.36849,1.66778 0.75605,0.54332 1.33842,0.76033 0.88397,0.32948 z m -15.92943,-1.28772 -0.96512,-0.82312 -0.25544,0.26558 c -0.25364,0.26374 -0.25318,0.26742 0.0413,0.48195 0.45854,0.33542 1.23871,0.75893 1.50765,0.81848 0.62281,0.13784 0.573,0.023 -0.32715,-0.74303 z m 23.50027,0.57343 c 0.33313,-0.28626 0.29774,-0.31658 -1.26357,-1.08314 -0.30923,-0.15208 -0.56239,-0.23112 -0.56239,-0.17552 0,0.16312 1.32961,1.39476 1.50572,1.39476 0.0887,0 0.23294,-0.0616 0.32024,-0.13647 z m -7.73198,-1.46177 c -0.79046,-0.68045 -1.47604,-1.23785 -1.52323,-1.23886 -0.0473,-0.001 -0.2936,-0.16771 -0.54696,-0.3708 -0.25361,-0.20309 -0.81014,-0.65005 -1.23711,-0.99347 -0.42686,-0.34323 -0.94058,-0.73241 -1.14156,-0.86451 -0.20079,-0.13187 -0.53932,-0.43883 -0.75219,-0.68135 -0.2132,-0.2426 -0.80899,-0.82426 -1.32474,-1.29256 -0.51595,-0.46838 -1.1598,-1.14312 -1.43108,-1.49955 -0.51487,-0.67663 -0.69145,-0.79356 -0.69145,-0.45856 0,0.73692 0.95465,1.9349 2.9284,3.6748 1.46354,1.2899 5.62022,4.41424 5.87312,4.41424 0.0483,0 0.33402,0.1815 0.63576,0.40251 0.31242,0.22928 0.56973,0.34737 0.59841,0.27385 0.0276,-0.0708 -0.5968,-0.68587 -1.38737,-1.36616 z m -11.7501,1.24678 c 0.0919,-0.12728 -0.87143,-1.05084 -1.31016,-1.25675 -0.42502,-0.19942 -0.1259,0.35612 0.48418,0.89831 0.57401,0.51048 0.68249,0.55767 0.82598,0.35839 z m 20.37166,-0.79233 c 0.10384,-0.27983 -0.25639,-0.67312 -0.61582,-0.67312 -0.36207,0 -2.73918,-1.36475 -4.51276,-2.59086 -0.57095,-0.39469 -1.10994,-0.6962 -1.19784,-0.66997 -0.19758,0.0584 1.87565,1.85509 2.66253,2.30713 2.02152,1.16141 3.2848,1.84599 3.42037,1.85344 0.0859,0.005 0.19574,-0.097 0.24352,-0.22653 z m -3.59138,-0.40435 c -0.66726,-0.73643 -2.49023,-2.23822 -3.35877,-2.7669 -0.46168,-0.28075 -1.17666,-0.76633 -1.58893,-1.07859 -0.41261,-0.31201 -1.34447,-0.98855 -2.07139,-1.5028 -0.72674,-0.5144 -1.67408,-1.25689 -2.105,-1.6503 -0.90676,-0.82741 -2.25282,-2.18004 -2.41129,-2.42306 -0.15852,-0.2426 -0.55538,-0.0698 -0.55538,0.24169 0,0.15622 0.17277,0.38505 0.43008,0.56898 0.4652,0.33266 2.43775,1.9054 4.13481,3.29696 0.58223,0.4774 1.47526,1.14305 1.9847,1.47956 1.07806,0.71187 2.17418,1.52538 3.83576,2.84665 0.65414,0.52018 1.24092,0.94577 1.30415,0.94577 0.0629,0 0.23387,0.13049 0.38045,0.28994 0.14611,0.15943 0.29634,0.26328 0.33402,0.23111 0.0368,-0.0322 -0.10292,-0.24812 -0.31289,-0.47921 z m -10.04758,0.13785 c -0.27707,-0.17368 -0.40251,-0.15485 -0.26237,0.0413 0.0478,0.0666 0.18426,0.1213 0.30326,0.1213 0.18058,0 0.17415,-0.0276 -0.0413,-0.16128 z m -4.49104,-1.62416 c -1.53739,-1.27623 -3.29098,-2.52942 -3.53946,-2.52942 -0.23112,0 -0.76162,0.47359 -0.75339,0.67273 0.005,0.0983 0.17552,0.29269 0.38089,0.43145 0.49656,0.33588 3.67475,1.93458 4.46531,2.2462 0.23155,0.0914 0.45854,0.2178 0.50403,0.2812 0.046,0.0634 0.15392,0.1135 0.24077,0.11028 0.0868,-0.002 -0.49726,-0.54834 -1.29783,-1.21271 z m 3.04321,-0.10522 c -0.82585,-0.64665 -3.86837,-2.65107 -4.02375,-2.65107 -0.16633,0 1.37132,1.21802 2.58183,2.04504 0.43697,0.29869 1.93166,1.1343 2.01933,1.12897 0.0464,-0.002 -0.2132,-0.23801 -0.57741,-0.52294 z m 17.1052,-0.81656 c 0.31151,-0.41584 0.88453,-1.07836 1.27401,-1.47242 0.45856,-0.46391 0.73896,-0.86426 0.79571,-1.13549 0.18333,-0.87565 0.23433,-4.61448 0.0758,-5.5280898 -0.0868,-0.49964 -0.18747,-1.1278 -0.22468,-1.39607 -0.0482,-0.35334 -0.15577,-0.53773 -0.39008,-0.66933 -0.17782,-0.0997 -0.3051,-0.26144 -0.28304,-0.35931 0.0414,-0.18931 -0.3901,-0.62076 -1.33958,-1.33629 -0.57945,-0.43651 -0.58326,-0.43743 -0.49376,-0.12774 0.0497,0.17185 0.0556,0.31245 0.0138,0.31245 -0.26833,0 -0.60429,-0.2959 -0.86789,-0.76458 -0.35056,-0.623 -0.26739,-0.52293 -1.31756,-1.59134 -0.44478,-0.45305 -0.74397,-0.82326 -0.66485,-0.82326 0.29864,0 0.12268,-0.27338 -0.5217,-0.80889 -0.71575,-0.59512 -1.03845,-0.68683 -1.14829,-0.32669 -0.0368,0.12498 -0.13646,0.22653 -0.21917,0.22606 -0.0822,-4e-4 -0.30742,0.16358 -0.49991,0.36438 -0.28902,0.3019 -0.38459,0.34095 -0.54638,0.2256 -0.16081,-0.11487 -0.29177,-0.0735 -0.72646,0.2316 -0.29175,0.20447 -0.86647,0.59301 -1.27768,0.86373 -0.41124,0.2711 -1.05261,0.80738 -1.42534,1.19234 -0.37307,0.38504 -1.04049,0.94851 -1.4838,1.25259 -1.24975,0.85719 -2.32767,1.75451 -2.32767,1.93757 0,0.0914 0.1452,0.3005 0.32256,0.46467 0.17736,0.16449 0.57166,0.62143 0.87616,1.01594 0.30416,0.3946898 0.68015,0.7667298 0.83511,0.8271598 0.15485,0.0602 0.49004,0.19022 0.74487,0.28857 0.38042,0.14658 0.40983,0.18012 0.16541,0.18563 -0.48328,0.009 -0.35794,0.39194 0.27658,0.83773 0.31567,0.22193 1.16435,0.74719 1.88553,1.16683 0.72118,0.41951 1.4006,0.82588 1.50968,0.9027 0.6903,0.48602 3.17557,2.76401 3.17557,2.91073 0,0.44753 1.05026,1.27745 2.43601,1.92483 0.51435,0.24031 0.66312,0.15439 1.37167,-0.79171 z m -1.60731,-1.12936 c -0.11119,-0.15485 0.12222,-0.76938 0.43648,-1.14814 0.15071,-0.18149 0.27386,-0.36528 0.27386,-0.40847 0,-0.0414 0.119,-0.20815 0.26466,-0.36667 0.30599,-0.33358 0.34872,-0.61927 0.0795,-0.53054 -0.3074,0.10109 -0.36989,-0.15577 -0.11809,-0.48388 0.36848,-0.47966 0.53812,-1.5182 0.42913,-2.62895 -0.0841,-0.85847 -0.17506,-1.11812 -0.7016,-2.0078598 -0.51214,-0.86528 -0.58988,-1.08137 -0.50741,-1.41068 0.10706,-0.42778 0.31888,-0.55538 0.54224,-0.3267 0.58182,0.59554 1.12054,1.48185 1.41621,2.3301098 0.19115,0.5483 0.46502,1.32907 0.6087,1.73493 0.18425,0.52082 0.26696,1.11155 0.28166,2.00644 0.0184,1.12282 -0.009,1.30486 -0.25409,1.58469 -0.15071,0.17368 -0.459,0.35701 -0.6841,0.4071 -0.27247,0.0607 -0.5724,0.2812 -0.89454,0.65784 -0.2665,0.31155 -0.53445,0.56679 -0.59505,0.56679 -0.0607,0 -0.1985,0.0276 -0.30602,0.0643 -0.10752,0.0367 -0.23018,0.0184 -0.27153,-0.0413 z m 2.66311,-3.75351 c 0.068,-0.81886 -0.023,-1.37976 -0.21871,-1.37976 -0.062,0 -0.11855,0.54477 -0.12498,1.21058 -0.009,0.8737 0.0276,1.17599 0.13279,1.08667 0.0795,-0.0685 0.17414,-0.48094 0.21044,-0.91749 z m -0.48326,-5.9309198 c -0.17414,-0.0602 -0.28671,-0.13509 -0.24996,-0.16634 0.0776,-0.0666 0.76529,0.1406 0.76529,0.22974 0,0.0822 -0.1429,0.0643 -0.51533,-0.0634 z m -1.00629,-0.67165 c -0.046,-0.0625 0.005,-0.11349 0.11671,-0.11349 0.1089,0 0.23526,0.051 0.28029,0.11349 0.0459,0.062 -0.005,0.11349 -0.11671,0.11349 -0.10936,0 -0.23526,-0.0515 -0.28029,-0.11349 z m -3.90323,10.3321398 c -0.0781,-0.12498 -0.23525,-0.22699 -0.34966,-0.22699 -0.12498,0 -0.17966,-0.0643 -0.13601,-0.16081 0.0887,-0.1985 -1.69229,-1.72311 -2.74297,-2.34862 -0.74323,-0.44249 -1.00541,-0.53158 -1.00541,-0.34186 0,0.20861 2.78241,2.44047 3.38022,2.71154 0.17506,0.079 0.38089,0.24537 0.45808,0.36896 0.0772,0.12361 0.22974,0.22469 0.33864,0.22469 0.1576,0 0.16955,-0.0469 0.057,-0.22698 z m -6.08643,-1.06515 c 0,-0.0864 -0.22285,-0.3005 -0.49611,-0.4763 -0.27293,-0.17598 -0.54179,-0.38321 -0.59734,-0.46063 -0.2155,-0.30004 -2.52024,-2.14916 -2.8921,-2.31999 -0.91246,-0.41907 0.7913,1.20641 2.59624,2.47695 0.4365,0.30739 0.87574,0.64382 0.97554,0.74781 0.22102,0.22974 0.41354,0.2449 0.41354,0.0322 z m 14.12167,-2.59844 c 0.35885,-0.72368 0.53059,-1.55932 0.3198,-1.55932 -0.0804,0 -0.18058,0.1406 -0.22285,0.31245 -0.12452,0.51101 -0.29407,1.08316 -0.43743,1.47606 -0.21136,0.57959 0.0138,0.42778 0.34048,-0.22882 z m -17.16475,-0.98919 c 0,-0.25869 -2.1368,-1.70553 -2.51863,-1.70553 -0.25085,0 -0.10292,0.17644 0.47754,0.5678 a 79.381865,68.11881 0 0 1 1.19079,0.82307 c 0.60622,0.42916 0.8503,0.51931 0.8503,0.31475 z m 20.41025,-0.40159 c 1.10273,-0.56861 1.37831,-0.91961 1.21921,-1.55197 -0.13003,-0.5171898 -0.50446,-1.1226498 -0.87643,-1.4176398 -0.17093,-0.13555 -0.48554,-0.40483 -0.69931,-0.59845 -0.21366,-0.1939 -0.45213,-0.33404 -0.52932,-0.31245 -0.0822,0.023 -0.15669,0.48296 -0.17874,1.10563 -0.0276,0.78337 -0.0947,1.1188798 -0.25084,1.2668798 -0.16771,0.15898 -0.19619,0.35153 -0.13508,0.91357 0.0832,0.76421 0.19344,1.10684 0.35559,1.10684 0.0556,0 0.54869,-0.23066 1.09538,-0.5126 z m -3.4752,-0.73177 c 0.20447,-0.9291 0.0413,-1.8284398 -0.4204,-2.3333898 -0.46904,-0.51159 -0.55475,-0.2132 -0.36483,1.2697998 0.0947,0.73857 0.18241,1.4961 0.19436,1.68347 0.0368,0.54123 0.0607,0.57932 0.24307,0.37356 0.0947,-0.10706 0.25088,-0.55386 0.34783,-0.99317 z M 51.067608,9.7387062 c -0.009,-0.20585 -0.63944,-0.73228 -0.78308,-0.65605 -0.18792,0.0997 0.19712,0.51412 0.47759,0.51412 0.0979,0 0.17782,0.051 0.17782,0.11349 0,0.0625 0.0322,0.11349 0.0662,0.11349 0.0368,0 0.0639,-0.0368 0.0611,-0.0855 z m 17.60245,-3.13729 c 0,-0.0864 -0.20447,-0.2904 -0.45443,-0.45397 -0.72352,-0.47354 -0.92406,-0.36989 -0.53458,0.27615 0.15484,0.25731 0.29361,0.33496 0.59546,0.33496 0.24675,0 0.39332,-0.0584 0.39332,-0.15714 z m -11.13869,-3.86402 c 0.5931,-0.55211 0.72908,-0.83625 0.30785,-0.64272 -0.13554,0.062 -0.3524,0.25547 -0.48225,0.42962 -0.13049,0.1746 -0.4365,0.46138 -0.68134,0.63801 -0.24445,0.17644 -0.51209,0.42915 -0.59443,0.56144 -0.20539,0.32853 0.69545,-0.28396 1.45031,-0.98649 z m 2.9703,-1.61029 c 0.12911,-0.11028 -0.0478,-0.38644999 -0.24767,-0.38644999 -0.10154,0 -0.18425,0.0183 -0.18425,0.0473 0,0.0275 -0.0367,0.12865 -0.0804,0.22697999 -0.056,0.1259 -0.002,0.17966 0.17644,0.17966 0.14107,0 0.29223,-0.0322 0.33589,-0.068 z M 0.79316787,65.287066 c 0,-0.24077 0.53477003,-1.19088 0.67018003,-1.19088 0.0616,0 0.15024,-0.17506 0.19711,-0.38964 0.0469,-0.21458 0.1985,-0.47793 0.3368,-0.58545 0.13831,-0.10706 0.25134,-0.31658 0.25134,-0.46504 0,-0.14841 0.0896,-0.29912 0.19849,-0.33542 0.10936,-0.0367 0.1985,-0.17323 0.1985,-0.30464 0,-0.27798 0.37676,-1.19661 0.58518,-1.42621 0.0781,-0.0864 0.29131,-0.40021 0.47342,-0.69745 0.71018,-1.16026 0.94748,-1.49246 1.02086,-1.42947 0.0413,0.0368 -0.11074,0.3924 -0.34,0.79142 -0.22928,0.39931 -0.41629,0.7623 -0.41629,0.807 0,0.046 -0.18379,0.42181 -0.4094,0.83773 -0.77673,1.43618 -1.74169,3.58888 -1.76181,3.93018 -0.0138,0.23985 -0.11763,0.38507 -0.34691,0.4845 -0.43786,0.19023 -0.65754003,0.18104 -0.65754003,-0.0276 z m 4.10172003,-7.37884 c 0,-0.0937 0.0579,-0.17046 0.1282,-0.17046 0.0703,0 0.0937,0.0767 0.0524,0.17046 -0.0414,0.0937 -0.0997,0.17001 -0.1282,0.17001 -0.0276,0 -0.0524,-0.0763 -0.0524,-0.17001 z"
     style="fill:#333333;stroke-width:0.1362"
     id="path1" />
  <path
     d="m 1.4659379,73.507736 c 0,-0.26791 0.55491,-1.01479 0.97334,-1.31043 0.14611,-0.10338 0.1939,-0.24076 0.13784,-0.39744 -0.12084,-0.33729 -0.10568,-0.33543 -0.67293,-0.0873 -0.84809,0.37127 -1.30300003,-0.0584 -0.67192,-0.63466 0.16265,-0.14841 0.36296,-0.53492 0.44567,-0.85882 0.0827,-0.32393 0.3028,-1.04883 0.48962,-1.61078 0.49829,-1.50055 0.88628,-2.86958 0.88628,-3.12686 0,-0.12406 0.0547,-0.31429 0.1213,-0.42272 0.0666,-0.10844 0.1962,-0.36989 0.28807,-0.58116 0.0919,-0.21136 0.29912,-0.51931 0.46128,-0.68458 0.28347,-0.28904 1.11415,-1.6026 1.11415,-1.76181 0,-0.0414 0.11303,-0.29178 0.25225,-0.55366 0.13831,-0.2619 0.3538,-0.78286 0.47784,-1.15748 0.12406,-0.37447 0.27844,-0.72986 0.34323,-0.78916 0.0648,-0.0593 0.11763,-0.24079 0.11763,-0.40299 0,-0.16219 0.0561,-0.34369 0.12452,-0.40296 0.0689,-0.0593 0.19206,-0.33772 0.27385,-0.61883 0.32713,-1.12167 0.32575,-1.0543 0.0184,-0.97004 -0.34645,0.0942 -0.37631,-0.11395 -0.0703,-0.48902 0.4181,-0.51186 0.97479,-1.55441 0.97626,-1.82793 0.002,-0.21642 0.0368,-0.24812 0.16082,-0.14199 0.22699,0.19529 0.41307,0.16817 0.3175,-0.046 -0.0772,-0.17276 0.0859,-0.85443 0.32302,-1.35062 0.0597,-0.12498 0.18149,-0.43008 0.27015,-0.67801 0.0887,-0.24812 0.44662,-0.93783 0.79483,-1.53299 0.34829,-0.59485 0.7363001,-1.35821 0.8623401,-1.69634 0.1259,-0.33818 0.36758,-0.84899 0.53709,-1.13538 0.16954,-0.28628 0.30829,-0.58605 0.30829,-0.66614 4e-4,-0.12635 0.4365,-1.10753 0.79368,-1.7847 0.0657,-0.12497 0.37035,-0.76356 0.67634,-1.41938 0.30601,-0.65557 0.59622,-1.21751 0.64428,-1.2488 0.0482,-0.0322 0.18977,-0.27936 0.31472,-0.55138 0.12452,-0.27201 0.31015,-0.56574 0.41124,-0.65281 0.45716,-0.3924 0.98171,0.0229 0.65924,0.52489 -0.22652,0.35059 -0.24353,0.54251 -0.0321,0.36116 0.0873,-0.0749 0.25409,-0.13647 0.37077,-0.13647 0.27616,0 1.11271,-0.74066 1.0051,-0.8899 -0.1282,-0.17782 0.47451,-1.05856 1.10627,-1.61559 0.31382,-0.27663 0.70294,-0.68221 0.86468,-0.90083 0.16173,-0.21872 0.4811,-0.5688 0.7096,-0.77837 0.22882,-0.20952 0.4158,-0.42963 0.4158,-0.48955 0,-0.11028 -1.09181,0.68511 -2.55802,1.86405 -0.85747,0.68952 -1.01879,0.75173 -1.27123,0.49079 -0.25777,-0.26652 0.0946,-0.68561 1.86775,-2.22224 2.76061,-2.39263 4.50908,-3.74679 4.8377,-3.74679 0.34461,0 1.75481,-1.15445 1.75481,-1.4363 0,-0.0414 0.24534,-0.30693 0.54533,-0.59477 1.34031,-1.28692 2.15504,-2.15775 2.40187,-2.56729 0.11258,-0.18747 0.38872,-0.51944 0.61256,-0.73807 a 42.439664,36.418132 0 0 0 0.77218,-0.77925 c 0.2008,-0.20999 0.64796,-0.63124 0.99366,-0.93615 0.34553,-0.30464 0.62836,-0.62049 0.62836,-0.70152 0,-0.0813 0.27247,-0.40066 0.60578,-0.71022 0.3331,-0.30969 0.75045,-0.75446 0.92774,-0.98862 0.17736,-0.23433 0.3731,-0.42596 0.43513,-0.42596 0.0625,0 0.26696,-0.19941 0.45487,-0.4434 0.18792,-0.24398 0.55317,-0.61952 0.81149,-0.8346 0.2582,-0.2155 0.46961,-0.4241 0.46961,-0.4638 0,-0.0735 0.17599,-0.27112 0.82691,-0.92937 0.19987,-0.20217 0.36389,-0.41859 0.36389,-0.48085 0,-0.0625 0.0988,-0.18333 0.21871,-0.2688 0.12038,-0.0855 0.45489,-0.43056 0.74424,-0.76625 l 0.52565,-0.61065 -0.21504,-0.38689 c -0.27155,-0.48875 -0.27063,-0.51021 0.0579,-1.15194 0.62988,-1.23137 0.90175,-1.59526 1.20169,-1.60803 0.28487,-0.009 0.18746,0.44113 -0.2247,1.0442 -0.34644,0.50708 -0.43142,0.72157 -0.32209,0.81379 0.18241,0.15392 0.54605,-0.21228 0.44202,-0.44432 -0.13371,-0.29867 0.2132,-0.71284 1.57368,-1.87637 l 1.02494,-0.87687 -0.2109,-0.43883 c -0.11625,-0.24123 -0.3414,-0.59209 -0.50038,-0.77947 -0.15898,-0.18746 -0.3602,-0.48121 -0.44705,-0.65292 -0.14106,-0.27799 -0.13095,-0.31245 0.091,-0.31245 0.28212,0 0.64146,0.46923 1.00156,1.30751 0.13371,0.31106 0.28485,0.60764 0.33586,0.65859 0.0965,0.096 0.8178,-0.63033 0.95969,-0.96659 0.046,-0.10613 0.27201,-0.27752 0.5052,-0.3809 0.57121,-0.25318 1.11121,-0.82742 1.11121,-1.18108 0,-0.19068 0.10109,-0.32715 0.29775,-0.40113 0.24996,-0.0942 0.28485,-0.17184 0.21687,-0.48259 -0.062,-0.2835 -0.0368,-0.37034 0.11579,-0.37034 0.10844,0 0.2711,0.0767 0.36161,0.17046 0.25362,0.26237 0.50913,0.20401 0.77952,-0.17736 0.2959,-0.41769 1.59529,-1.3684498 2.3297,-1.7047898 0.2913,-0.13325 0.73763,-0.40756 0.99244,-0.60943 0.83513,-0.66161 1.95023,-1.09527 1.7679,-0.68762 -0.0413,0.0937 -0.0184,0.17047 0.0584,0.17047 0.13693,0 0.39194,-0.25225 1.21682,-1.20527 0.53238,-0.61536 3.12646,-2.87479 4.33838,-3.77914 0.45213,-0.33728 0.82179,-0.68929 0.82179,-0.78238 0,-0.0933 0.17736,-0.32807 0.39375,-0.52234 a 66.779325,57.30437 0 0 0 0.85645,-0.78693 l 0.46256,-0.43421999 0.39054,0.19757999 c 0.38778,0.19666 0.39377,0.19574 0.86835,-0.16173999 0.53224,-0.40112 0.58517,-0.41307 1.04318,-0.23387 0.27107,0.10614 0.39008,0.0832 0.74517,-0.14198 0.34183,-0.21688 0.58618,-0.26788 1.28076,-0.26788 h 0.85838 l 0.77953,0.68128 c 0.4287,0.37494999 0.88604,0.76206999 1.01603,0.86089999 0.32989,0.25042 1.05771,0.95922 1.71553,1.67033 0.60663,0.65559 1.52883,1.38644 2.35808,1.86855 0.29129,0.16909 0.7675,0.48728 1.05862,0.70669 1.42352,1.07344 1.98195,1.50482 2.3188,1.79108 0.20171,0.17185 0.42959,0.31199 0.50545,0.31199 0.22055,0 1.29345,1.19444 1.65777,1.84544 0.51299,0.9166198 0.55461,1.3180898 0.18563,1.7884598 -0.17139,0.21826 -0.57677,0.51637 -0.90144,0.66248 -0.88771,0.39975 -1.96945,1.23801 -2.04926,1.58822 -0.25453,1.11524 -0.40846,1.48967 -0.77958,1.89291 -0.22974,0.24996 -0.51814,0.59085 -0.64105,0.75778 -0.12269,0.16679 -0.34046,0.33544 -0.48399,0.3745 -0.29499,0.0799 -0.91587,0.91083 -1.19068,1.59252 -0.10063,0.24998 -0.323,0.64472 -0.49401,0.87763 -0.35518,0.48397 -0.38873,0.65517 -0.12866,0.65517 0.10063,0 0.26004,0.0799 0.35516,0.17828 0.14887,0.15393 0.0597,0.26512 -0.64546,0.80384 -0.44981,0.34416 -0.81804,0.7179 -0.81804,0.83098 0,0.12497 -0.13003,0.23387 -0.3308,0.27706 -0.26145,0.0561 -0.33083,0.1429 -0.33083,0.41356 0,0.27064 -0.0965,0.39102 -0.463,0.5767 -0.25455,0.12911 -0.46315,0.28074 -0.46315,0.3368 0,0.056 -0.079,0.102 -0.17553,0.102 -0.0965,0 -0.31518,0.12774 -0.48624,0.28396 -0.37724,0.34461 -0.24491,0.36805 0.2775,0.0487 0.51724,-0.31612 0.96714,-0.25455 1.0204,0.13968 0.0322,0.24123 -0.12177,0.44111 -0.76088,0.98791 -0.44108,0.37724 -0.80164,0.76486 -0.80164,0.86148 0,0.097 -0.0919,0.17599 -0.20447,0.17599 -0.25363,0 -0.77971,0.4643 -2.63685,2.32881 -0.43464,0.43653 -1.3875,1.33275 -2.11708,1.99169 -1.40528,1.26944 -3.12147,2.89308 -3.26481,3.08892 -0.0473,0.0643 -0.26282,0.0868 -0.47901,0.0501 -0.36434,-0.0625 -0.51505,0.0367 -2.054,1.38205 -0.91351,0.79711 -2.03049,1.82917 -2.48186,2.29334 -0.45168,0.46417 -1.27389,1.27091 -1.82718,1.79288 -0.55324,0.52183 -1.09182,1.05844 -1.19681,1.19212 -0.10522,0.13371 -0.61575,0.65194 -1.13508,1.15158 -0.51929,0.49964 -1.27872,1.27141 -1.68759,1.71527 -0.40891,0.44386 -0.82222,0.87811 -0.91852,0.96519 -0.096,0.0868 -0.34781,0.38782 -0.55945,0.66898 -0.66163,0.87963 -1.56513,1.81667 -1.75168,1.81667 -0.0988,0 -0.17874,0.0496 -0.17874,0.11028 0,0.14933 -1.68234,2.26348 -2.07063,2.6017 -0.17139,0.14887 -0.31107,0.31521 -0.31107,0.36897 0,0.0542 -0.0639,0.0983 -0.14198,0.0983 -0.0781,0 -0.0184,-0.13463 0.13233,-0.29913 0.15071,-0.16449 0.27431,-0.34185 0.27431,-0.39377 0,-0.24261 -0.44248,0.102 -1.08348,0.84368 -0.90323,1.04504 -0.941,1.09816 -0.78073,1.09816 0.13509,0 0.25409,-0.0983 0.61812,-0.511 0.1792,-0.20309 0.1792,-0.1916 0.002,0.1135 -0.33955,0.5834 -0.9057,1.24262 -1.81509,2.11336 a 236.54796,202.98548 0 0 0 -1.91156,1.8606 c -0.56957,0.56209 -1.32149,1.27734 -1.67067,1.5896 -0.34922,0.31245 -0.6352,0.62807 -0.63552,0.702 -2.5e-4,0.0735 -0.11119,0.16403 -0.2458,0.20079 -0.13463,0.0368 -0.61678,0.41951 -1.07084,0.85044 -0.82558,0.78346 -0.97009,0.86396 -3.64542,2.03065 a 54.0818,46.408433 0 0 1 -1.52162,0.63423 c -1.06776,0.42272 -1.424,0.61699 -2.84109,1.5499 -1.93947,1.27696 -2.26954,1.46567 -2.68904,1.53772 -0.55136,0.0947 -0.61206,-0.17322 -0.14428,-0.63337 0.21182,-0.20815 0.35748,-0.40251 0.32301,-0.43192 -0.0914,-0.0786 -1.14537,0.40802 -1.52911,0.70568 -0.18195,0.14152 -0.65843,0.41999 -1.05862,0.61963 -0.40021,0.19988 -1.08509,0.56347 -1.52162,0.8086 -0.43651,0.2449 -1.24053,0.63048 -1.78628,0.85629 -0.54579,0.2256 -1.30006,0.58508 -1.67628,0.79805 -0.3763,0.21274 -0.71443,0.38734 -0.75132,0.38734 -0.0368,0 -0.44384,0.21458 -0.90397,0.4769 -0.45991,0.26238 -1.0446501,0.53752 -1.2992701,0.61146 -0.28672,0.0832 -0.53433,0.25822 -0.64989,0.45961 -0.25729,0.448 -0.65226,0.72268 -1.03967,0.72268 -0.35886,0 -1.23167,0.50646 -2.5348,1.47114 -1.82553,1.35099 -2.27189,1.73379 -2.95231,2.53117 -0.59126,0.6927 -1.02688,0.85645 -1.02688,0.38599 z M 17.277558,62.781226 c 0.50931,-0.28626 1.11054,-0.60813 1.33594,-0.71537 0.45213,-0.21504 1.43076,-0.79943 3.49459,-2.08644 0.20033,-0.12498 0.654,-0.40391 1.00835,-0.61977 0.81101,-0.49431 0.67675,-0.40389 2.19957,-1.47843 0.70982,-0.50091 1.329,-0.91067 1.37573,-0.91067 0.10108,0 1.06556,-0.65683 1.89849,-1.29301 0.97963,-0.74831 1.1439,-1.12467 0.5859,-1.34279 -0.26923,-0.10522 -0.36296,-0.102 -0.44843,0.0184 -0.17276,0.23985 -0.42778,0.0322 -0.27017,-0.21917 0.22285,-0.35748 0.15209,-0.45491 -0.33035,-0.45491 -0.38183,0 -0.46315,-0.0413 -0.46315,-0.23755 0,-0.14244 -0.10615,-0.26145 -0.26467,-0.29729 -0.14565,-0.0322 -0.26464,-0.10476 -0.26464,-0.1599 0,-0.19298 -0.37999,-0.0983 -0.45856,0.11442 -0.046,0.11854 -0.19666,0.24122 -0.33953,0.27339 -0.20171,0.0459 -0.26007,0.15622 -0.26053,0.49481 -4.1e-4,0.53652 -0.42775,1.17442 -0.78642,1.17442 -0.19528,0 -0.29956,-0.12085 -0.41121,-0.47791 -0.12866,-0.40986 -0.42457,-0.75679 -0.65417,-0.7666 -0.0368,-0.002 -0.2132,0.18839 -0.39376,0.42226 -0.18011,0.23388 -0.58195,0.68601 -0.89306,1.00494 -0.31108,0.31888 -0.56813,0.62553 -0.57107,0.68134 -0.002,0.0556 -0.24031,0.32393 -0.52739,0.5965 -0.43235,0.41031 -0.57888,0.483 -0.85457,0.42364 -0.42959,-0.0928 -0.41903,-0.15669 0.1043,-0.635 0.2394,-0.21872 0.61111,-0.60974 0.82589,-0.86932 0.21504,-0.25961 0.74866,-0.87242 1.18595,-1.36237 1.29091,-1.44615 1.34357,-1.81768 0.49502,-3.50207 -0.4828,-0.95873 -0.72379,-1.23897 -1.16106,-1.35026 -0.20815,-0.0528 -0.3221,0.0184 -0.51168,0.32026 -0.13417,0.21366 -0.40064,0.51515 -0.59206,0.67022 -0.42778,0.34553 -1.25154,0.56108 -1.4606,0.38183 -0.22791,-0.19574 -0.17047,-0.30601 0.15898,-0.30601 0.3138,0 1.12591,-0.63967 1.405,-1.10701 0.13233,-0.22147 0.119,-0.25547 -0.10062,-0.25547 -0.29132,0 -0.5005,0.18655 -0.57002,0.50805 -0.0322,0.13922 -0.25041,0.28993 -0.58019,0.39745 -0.2922,0.0951 -0.66268,0.28674 -0.82281,0.42596 -0.16036,0.13877 -0.50178,0.32853 -0.75941,0.42089 -0.34551,0.1236 -0.48868,0.25593 -0.54635,0.50341 -0.085,0.36344 -0.40845,0.50354 -0.76602,0.33174 -0.15255,-0.0731 -0.1838,-0.15071 -0.097,-0.24077 0.0703,-0.0731 0.1259,-0.26052 0.1236,-0.41675 -0.002,-0.15622 0.0744,-0.84583 0.17139,-1.53271 0.22974,-1.63298 0.19435,-2.37058 -0.13417,-2.82111 -0.24307,-0.33312 -1.08142,-0.98248 -1.26845,-0.98248 -0.15622,0 -0.50566,0.36345 -1.0754,1.11785 -0.31382,0.41537 -0.57175,0.71035 -0.57341,0.65522 -0.002,-0.11349 0.8891,-1.64929 1.0689,-1.84034 0.0643,-0.0685 0.0799,-0.15577 0.0368,-0.19436 -0.0956,-0.0818 -0.84154,0.2279 -0.8429,0.34966 -4.1e-4,0.046 -0.1792,0.16909 -0.39697,0.27571 -0.21779,0.1066 -0.39653,0.28488 -0.39699,0.39746 -4.1e-4,0.11211 -0.18379,0.63817 -0.40662,1.16896 -0.22331,0.53077 -0.41629,1.06952 -0.42916,1.19735 -0.0138,0.12727 -0.13324,0.37677 -0.26831,0.55307 -0.20631,0.27018 -0.21917,0.36299 -0.0809,0.5843 0.22377,0.35932 0.08,1.03448 -0.39194,1.83678 -0.21136,0.3598 -0.57281,1.01162 -0.80292,1.44882 -0.23018,0.43697 -0.71075,1.30559 -1.06788,1.93012 -0.7601501,1.32907 -1.4466601,3.01723 -1.4466601,3.55694 0,0.29774 0.10615,0.45719 0.49142,0.73885 0.8533301,0.62404 1.8034701,1.5028 2.4195201,2.2377 0.80774,0.96369 1.9706,2.03881 2.20512,2.03881 0.11119,0 0.15255,0.0551 0.0979,0.13049 -0.0519,0.0721 0.009,0.19574 0.13463,0.27431 0.19298,0.12085 0.36621,0.0813 1.11187,-0.25777 0.48561,-0.22055 1.29974,-0.63553 1.80919,-0.92183 z m -4.16803,-4.66191 c 0,-0.062 0.0597,-0.14519 0.13233,-0.18333 0.073,-0.0367 0.13233,-0.0184 0.13233,0.0414 0,0.0625 -0.0593,0.14519 -0.13233,0.18379 -0.0731,0.0368 -0.13233,0.0184 -0.13233,-0.0413 z m 0.5293,-1.01189 c 0,-0.0597 0.096,-0.17782 0.21366,-0.26099 0.18517,-0.13187 0.20722,-0.1236 0.16541,0.0616 -0.0501,0.22056 -0.37905,0.39378 -0.37905,0.19942 z m 9.43484,0.009 c -0.0868,-0.0276 -0.12544,-0.12085 -0.0855,-0.20999 0.0937,-0.20906 0.57382,-0.2132 0.57382,-0.005 0,0.17736 -0.24904,0.28718 -0.48872,0.21504 z m -0.41354,3.99799 c 0.21596,-0.15622 0.35656,-0.28398 0.31153,-0.28398 -0.13141,0 -1.12961,0.45353 -1.12961,0.51327 0,0.153 0.47179,0.0184 0.8179,-0.22929 z m 3.14763,-1.98245 c 0.10706,-0.0584 0.15025,-0.14382 0.096,-0.19023 -0.0542,-0.0464 -0.19941,0.002 -0.32207,0.10706 -0.23893,0.20539 -0.096,0.25777 0.22606,0.0832 z m 4.53925,-1.70847 c 0.3478,-0.37404 0.55622,-0.68033 0.46345,-0.68033 -0.17965,0 -1.42632,1.10866 -1.42632,1.26815 0,0.26328 0.39699,0.023 0.96287,-0.58796 z M 7.3828379,56.353206 c 0.0832,-0.2325 0.0928,-0.40481 0.023,-0.40481 -0.14842,0 -0.64606,0.68054 -0.64679,0.88398 -8e-4,0.2959 0.47844,-0.0721 0.62386,-0.47908 z m 23.8535701,-0.80217 c 0.13508,-0.13922 0.12589,-0.17001 -0.0501,-0.17001 -0.11808,0 -0.21458,0.0763 -0.21458,0.17001 0,0.0937 0.023,0.17047 0.0501,0.17047 0.0275,0 0.12406,-0.0767 0.21458,-0.17047 z m -0.0992,-2.30423 c 0.27291,-0.29317 0.49621,-0.62303 0.49621,-0.73258 0,-0.10935 0.0579,-0.19895 0.1282,-0.19895 0.16036,0 2.12122,-1.6956 2.12122,-1.834 0,-0.0556 0.22607,-0.31704 0.50254,-0.58124 0.27661,-0.2642 0.60254,-0.61695 0.72472,-0.78425 0.12222,-0.16771 0.40202,-0.39563 0.6222,-0.50711 0.21963,-0.11119 0.39975,-0.24352 0.39975,-0.29315 0,-0.17689 1.29004,-1.46645 3.04426,-3.0442 0.1824,-0.16403 0.65781,-0.62627 1.056,-1.02689 a 124.94812,107.21993 0 0 1 1.42117,-1.40048 c 0.70547,-0.68017 0.82015,-0.86057 0.5464,-0.86057 -0.20448,0 -2.54955,1.97819 -3.83578,3.23584 -2.51201,2.45629 -2.81531,2.72587 -3.30818,2.9405 -0.15806,0.0685 -0.35242,0.22376 -0.43234,0.34507 -0.0799,0.1213 -0.30142,0.33726 -0.49211,0.48043 -0.30048,0.22561 -1.30709,1.53649 -1.30709,1.7024 0,0.17782 -1.43315,1.67185 -1.99227,2.07638 -0.5996,0.43377 -0.79208,0.75766 -0.56578,0.95179 0.18471,0.15853 0.39099,0.0478 0.87101,-0.46858 z m 4.91034,-0.64789 c 0.0413,-0.0937 0.0556,-0.17047 0.0322,-0.17047 -0.023,0 -0.11993,0.0767 -0.2109,0.17047 -0.0951,0.0979 -0.10752,0.17046 -0.0321,0.17046 0.074,0 0.16864,-0.0767 0.21045,-0.17046 z m 0.81648,-0.87991 0.49226,-0.59616 -0.49065,0.39748 c -0.53948,0.43697 -0.81777,0.79486 -0.61826,0.79486 0.0685,0 0.34597,-0.26834 0.61665,-0.59613 z m -7.29991,-0.37402 c 0.62579,-0.713 0.8763,-0.88131 0.88058,-0.59101 0.001,0.0974 0.0413,0.0905 0.1236,-0.023 0.0666,-0.0905 0.096,-0.20033 0.0653,-0.24352 -0.0322,-0.0413 0.0322,-0.10798 0.14105,-0.14382 0.1089,-0.0368 0.19758,-0.19436 0.19758,-0.35242 0,-0.15806 0.046,-0.2872 0.0997,-0.2872 0.0551,0 0.17966,-0.15393 0.27659,-0.34186 0.23847,-0.46265 1.21154,-1.32877 1.21154,-1.07858 0,0.10292 0.0827,0.25868 0.18379,0.34553 0.1576,0.13509 0.24077,0.11165 0.57079,-0.15898 0.21274,-0.17461 0.52179,-0.5047 0.68677,-0.7338 0.16495,-0.22882 0.34369,-0.41677 0.39745,-0.41677 0.0533,0 0.23066,-0.20447 0.39467,-0.45442 0.16358,-0.24996 0.36575,-0.45397 0.44937,-0.45397 0.0836,0 0.28302,-0.1406 0.44292,-0.31245 0.1599,-0.17185 0.33405,-0.27525 0.38735,-0.2302 0.0969,0.0827 -0.33405,0.62374 -0.95465,1.19732 -0.3731,0.34507 -1.76436,2.10596 -1.76436,2.23314 0,0.10109 0.77632,-0.41766 0.78661,-0.52509 0.004,-0.0414 0.18563,-0.24628 0.40434,-0.45121 0.21826,-0.20493 0.39697,-0.42686 0.39697,-0.49266 0,-0.0657 0.10384,-0.19895 0.23158,-0.2959 0.39973,-0.30466 1.05026,-0.95965 1.57235,-1.58331 0.27661,-0.33037 0.62386,-0.71061 0.77191,-0.8451 0.14795,-0.13417 0.35839,-0.34278 0.46754,-0.46302 0.10982,-0.11992 0.33266,-0.36575 0.49638,-0.54605 0.41397,-0.45629 0.37721,-0.56486 -0.16587,-0.48932 -0.49372,0.0685 -0.66292,-0.12498 -0.19988,-0.22883 0.14474,-0.0322 0.23386,-0.0997 0.19804,-0.14979 -0.0367,-0.0501 0.1429,-0.20171 0.39834,-0.3368 0.25502,-0.13508 0.4639,-0.33634 0.4639,-0.44661 0,-0.11028 0.11119,-0.31015 0.24718,-0.44478 0.25868,-0.25595 0.54701,-0.32488 0.54701,-0.13095 0,0.0625 -0.0487,0.11349 -0.10752,0.11349 -0.0593,0 -0.18931,0.17874 -0.28947,0.39745 -0.0997,0.21871 -0.2302,0.39745 -0.28945,0.39745 -0.0593,0 -0.10752,0.074 -0.10752,0.1645 0,0.0905 -0.10384,0.21457 -0.23066,0.27522 -0.12682,0.0607 -0.1815,0.15301 -0.1213,0.20401 0.0597,0.0515 0.36848,-0.14887 0.68589,-0.44569 0.38134,-0.3561 0.68488,-0.53925 0.89486,-0.53925 0.17506,0 0.42592,-0.10246 0.55738,-0.22698 0.20538,-0.19482 0.20998,-0.22699 0.0322,-0.22699 -0.11442,0 -0.23432,0.0639 -0.26696,0.14198 -0.0322,0.0781 -0.0988,0.11074 -0.14658,0.0731 -0.0482,-0.0367 0.0322,-0.19115 0.17782,-0.34048 0.2132,-0.21871 0.28855,-0.24079 0.38596,-0.11441 0.15118,0.19666 0.30097,0.11212 1.63149,-0.92011 0.53118,-0.41216 1.62863,-1.263 2.43877,-1.89093 1.31885,-1.02221 2.63064,-2.1345 3.31226,-2.80874 3.60829,-3.56921 3.25851,-3.30753 4.0663,-3.04145 0.13463,0.046 0.23709,-0.005 0.28672,-0.14152 0.0414,-0.11579 0.13509,-0.30418 0.20723,-0.41813 0.13646,-0.21733 -0.1645,-0.64123 -0.96912,-1.36519 l -0.35977,-0.32393 -0.96191,0.79963 c -0.52898,0.43975 -0.91979,0.83592 -0.86835,0.88003 0.11303,0.0969 1.1836,-0.70009 1.428,-1.06258 0.12084,-0.1792 0.21596,-0.22147 0.31196,-0.13922 0.096,0.0822 0.0836,0.19436 -0.0414,0.36621 -0.1282,0.17644 -0.13693,0.2596 -0.0322,0.29041 0.0827,0.023 0.14795,0.1792 0.1452,0.34553 -0.004,0.30142 -0.22652,0.47942 -1.55691,1.25158 l -0.46061,0.26742 0.2982,-0.35885 c 0.41857,-0.50465 0.22193,-0.57495 -0.32853,-0.11763 -0.50517,0.41997 -0.6234,0.3198 -0.18609,-0.1576 0.15117,-0.16496 0.24996,-0.36345 0.21963,-0.44111 -0.0322,-0.0813 -0.50411,0.2325 -1.11858,0.74478 -0.92776,0.77333 -1.10684,0.87626 -1.41033,0.81091 -0.20815,-0.046 -0.34737,-0.0275 -0.34737,0.0414 0,0.0648 0.11947,0.13417 0.26604,0.15393 0.25317,0.0322 0.2495,0.0524 -0.0795,0.37678 a 25.470032,21.856229 0 0 0 -0.64339,0.66415 c -0.26099,0.28396 -0.33037,0.30602 -0.56371,0.18104 -0.22929,-0.12268 -0.33267,-0.0988 -0.75075,0.1746 -0.26648,0.17461 -0.5112,0.29453 -0.54355,0.26696 -0.10476,-0.0896 0.48889,-0.70902 1.07067,-1.11656 0.3115,-0.21871 0.57046,-0.45489 0.57501,-0.52551 0.005,-0.0703 0.0974,-0.19161 0.20677,-0.26926 0.29039,-0.20677 0.24214,-0.36804 -0.0832,-0.27936 -0.27936,0.0758 -0.2798,0.0744 -0.0322,-0.20907 0.22561,-0.25914 0.25272,-0.26512 0.29086,-0.0694 0.0689,0.35334 0.28164,0.24858 0.54078,-0.26606 0.14336,-0.28534 0.76396,-0.93845 1.51629,-1.59629 1.6478,-1.44086 1.68396,-1.49968 1.05895,-1.72372 -0.56992,-0.20447 -0.63034,-0.17322 -0.64987,0.33404 -0.009,0.30142 0.0275,0.36713 0.1939,0.31567 0.1599,-0.0496 0.14704,-4.1e-4 -0.0556,0.2086 -0.45258,0.46808 -0.89339,0.76837 -1.05127,0.71649 -0.15806,-0.0519 -0.48404,0.23204 -1.253,1.09187 -0.25134,0.28121 -0.62858,0.66427 -0.83849,0.85167 -0.20998,0.18747 -0.97275,0.97916 -1.69526,1.75979 -1.88893,2.04098 -5.74745,5.7501 -7.74707,7.44736 -0.82672,0.70174 -3.73088,3.53437 -5.11105,4.9853 -0.41581,0.43697 -0.95301,0.97365 -1.19387,1.19218 -0.24077,0.21871 -0.66898,0.64283 -0.95101,0.94297 -0.28212,0.30004 -0.71162,0.73154 -0.95423,0.95891 -0.24261,0.22745 -0.44108,0.47566 -0.44108,0.55198 0,0.15163 0.64739,0.60546 0.85999,0.60298 0.0731,-0.001 0.42178,-0.33129 0.77544,-0.73444 z m 4.40341,-4.36606 c 0.0464,-0.21871 0.1383,-0.48793 0.20492,-0.59857 0.0657,-0.11028 0.0859,-0.24766 0.046,-0.30464 -0.0413,-0.057 0.0901,-0.11946 0.29178,-0.13922 0.23708,-0.023 0.35515,-0.0965 0.33495,-0.20677 -0.0184,-0.0937 0.14796,-0.27247 0.36757,-0.39745 0.21963,-0.12498 0.43373,-0.34187 0.47581,-0.48248 0.0413,-0.1406 0.12958,-0.25547 0.19436,-0.25547 0.0648,0 0.11855,-0.0896 0.11947,-0.19896 10e-4,-0.20171 0.25823,-0.52105 1.00904,-1.25854 0.3584,-0.3515 0.44478,-0.38734 0.6271,-0.25731 0.23616,0.16863 0.15026,0.39883 -0.11624,0.31107 -0.25134,-0.0827 -0.34829,0.62938 -0.10706,0.78101 0.16173,0.10108 0.15989,0.16357 -0.009,0.44753 -0.10936,0.18104 -0.32118,0.34553 -0.47051,0.36529 -0.30783,0.0414 -0.34826,-0.0731 -0.10568,-0.29866 0.091,-0.0845 0.002,-0.0561 -0.19391,0.0625 -0.19803,0.11854 -0.36158,0.25133 -0.36388,0.29453 -0.002,0.0414 -0.24215,0.31428 -0.53341,0.60295 -0.29129,0.28855 -0.52931,0.56259 -0.52931,0.6089 0,0.046 -0.29773,0.36253 -0.66162,0.70278 l -0.6615,0.61849 z m 2.56154,-1.73168 c 0,-0.079 0.119,-0.20814 0.26466,-0.28579 0.21228,-0.11349 0.26466,-0.11349 0.26466,0.002 0,0.079 -0.11901,0.20768 -0.26466,0.2858 -0.21274,0.11395 -0.26466,0.11349 -0.26466,-0.002 z m 1.52428,-2.57914 c -0.0464,-0.0643 -0.0184,-0.11762 0.0556,-0.11762 0.0772,0 0.14014,-0.0735 0.14014,-0.16358 0,-0.18011 0.23985,-0.34967 0.35472,-0.25087 0.0413,0.0322 -0.0487,0.19435 -0.19666,0.35563 -0.15668,0.17093 -0.30418,0.24491 -0.3538,0.17598 z m 0.59269,-0.78553 c 0,-0.0551 0.14887,-0.18425 0.3308,-0.28625 0.36115,-0.2031 0.42273,-0.1236 0.14657,0.18838 -0.18516,0.20907 -0.47737,0.26926 -0.47737,0.0979 z m 2.64624,-0.52955 c 0,-0.18563 0.43559,-0.74227 0.66297,-0.84657 0.4071,-0.18701 0.33726,0.13555 -0.12085,0.55638 -0.36388,0.33407 -0.54239,0.42964 -0.54239,0.28996 z m -2.02211,-0.23481 c -0.12957,-0.11166 0.15347,-0.49772 0.36527,-0.49772 0.29498,0 0.37494,0.22056 0.11073,0.30464 -0.13187,0.0414 -0.27382,0.11901 -0.31517,0.17139 -0.0413,0.0524 -0.1135,0.0625 -0.16083,0.0229 z m 1.58311,-0.45397 c 0.0367,-0.0864 0.153,-0.15715 0.25498,-0.15715 0.27477,0 0.22239,0.19207 -0.0703,0.25777 -0.17873,0.0414 -0.23339,0.009 -0.18425,-0.10062 z m 0.70367,-1.61965 c 0,-0.0547 0.0993,-0.16955 0.22009,-0.25548 0.19942,-0.14152 0.20538,-0.13233 0.0611,0.0997 -0.16403,0.2642 -0.28166,0.32899 -0.28166,0.15577 z m 2.91091,-0.40894 c 0,-0.051 0.26926,-0.37356 0.59842,-0.71661 0.68351,-0.71236 0.67675,-0.99071 -0.009,-0.31109 -0.24766,0.24584 -0.48613,0.41585 -0.53024,0.37771 -0.085,-0.0731 0.25455,-0.45353 0.96011,-1.07672 0.42181,-0.37264 0.69913,-0.47796 0.69913,-0.26604 0,0.0607 0.0891,0.0804 0.19849,0.046 0.1089,-0.0367 0.1985,-0.009 0.1985,0.0519 0,0.19161 -0.40662,0.48274 -0.56045,0.40113 -0.0846,-0.046 -0.10339,-0.0229 -0.0469,0.057 0.057,0.0786 -0.22744,0.41307 -0.70722,0.83136 -0.44109,0.38459 -0.80232,0.65757 -0.80232,0.60661 z m -1.45546,-1.0742 c 0,-0.0584 0.0597,-0.13831 0.13234,-0.1769 0.073,-0.0367 0.13232,0.009 0.13232,0.10706 0,0.0974 -0.0593,0.1769 -0.13232,0.1769 -0.0731,0 -0.13234,-0.0478 -0.13234,-0.10706 z m 3.26743,-1.3626 c 0.0786,-0.25777 0.12129,-0.28258 0.22974,-0.13279 0.0414,0.0551 -0.0137,0.16036 -0.11441,0.23342 -0.15255,0.10844 -0.17369,0.0901 -0.11533,-0.10063 z m 0.78031,-0.0634 c 0.11901,-0.15623 0.27201,-0.28396 0.34002,-0.28396 0.14566,0 -0.30464,0.55891 -0.45443,0.56419 -0.056,0.002 -0.004,-0.12406 0.11441,-0.28028 z m -1.53853,-0.0367 c 0.0873,-0.14566 0.19482,-0.23388 0.23893,-0.19574 0.0459,0.0367 -0.0276,0.15714 -0.15852,0.26512 -0.22882,0.18747 -0.23204,0.18425 -0.0804,-0.0694 z m 1.46015,-0.45583 c 0,-0.10936 0.75499,-0.81154 0.87235,-0.81154 0.0413,0 -0.11258,0.20447 -0.34321,0.45443 -0.42549,0.46093 -0.52933,0.53109 -0.52933,0.3575 z m 0.99245,-0.35748 c 0.046,-0.0625 0.14106,-0.11349 0.21412,-0.11349 0.0726,0 0.0956,0.051 0.0501,0.11349 -0.046,0.0625 -0.14107,0.11349 -0.21412,0.11349 -0.0731,0 -0.0956,-0.051 -0.0506,-0.11349 z m 0.52933,-0.45443 c 0.13141,-0.12497 0.26188,-0.22744 0.28944,-0.22744 0.0276,0 -0.0137,0.10247 -0.091,0.22744 -0.0781,0.12498 -0.20815,0.22699 -0.28993,0.22699 -0.0813,0 -0.0413,-0.10201 0.0914,-0.22699 z m -23.66992,16.30545 c -0.27293,-0.56084 -0.37447,-0.52059 -0.11533,0.046 0.11441,0.25042 0.23248,0.43467 0.26188,0.40986 0.0275,-0.0229 -0.0368,-0.2302 -0.14611,-0.45535 z m 5.47654,-0.0754 c 0,-0.0662 -0.0597,-0.0887 -0.13233,-0.0501 -0.0731,0.0367 -0.13233,0.0928 -0.13233,0.11993 0,0.0276 0.0593,0.0501 0.13233,0.0501 0.0731,0 0.13233,-0.0542 0.13233,-0.11993 z m -3.20626,-1.27242 c 1.01846,-1.20014 1.87891,-2.14538 2.51421,-2.76222 0.30783,-0.29912 0.55972,-0.58694 0.55972,-0.63991 0,-0.0529 0.23801,-0.30878 0.52932,-0.56889 0.29129,-0.26007 0.52931,-0.53183 0.52931,-0.60438 0,-0.0721 0.25271,-0.36621 0.56224,-0.65343 0.54063,-0.50166 0.83853,-0.80368 1.64555,-1.66822 0.48813,-0.52284 0.95234,-0.9826 1.38327,-1.37017 0.19206,-0.17277 0.3708,-0.36669 0.39699,-0.43102 0.0275,-0.0643 0.35196,-0.38734 0.72398,-0.7184 0.37218,-0.33082 0.78923,-0.75488 0.9273,-0.94221 0.28764,-0.39013 0.70956,-0.82493 1.37326,-1.41385 0.25455,-0.22607 0.72752,-0.71378 1.05081,-1.0838 0.32345,-0.37034 1.00808,-1.0762 1.52167,-1.56902 0.51356,-0.4927 1.05274,-1.04054 1.1983,-1.21703 0.38227,-0.4638 1.17531,-1.22688 2.3557,-2.266 0.82631,-0.72775 1.1096,-0.90906 1.41984,-0.90906 0.29591,0 0.60696,-0.17782 1.31609,-0.75185 0.51076,-0.41354 0.92864,-0.78767 0.92864,-0.83146 0,-0.0868 -0.79515,-0.49959 -1.32312,-0.68646 -0.18195,-0.0643 -0.44983,-0.26972 -0.59547,-0.45627 -0.14565,-0.18655 -0.30279,-0.3391 -0.3492,-0.33955 -0.0464,-2.4e-4 -0.37308,-0.20493 -0.72532,-0.45445 -0.35242,-0.24996 -0.69251,-0.45397 -0.75633,-0.45397 -0.13371,0 -3.65973,3.10968 -3.85836,3.40278 -0.18701,0.27615 -1.76862,1.79196 -3.19861,3.06615 -0.66772,0.59477 -1.35021,1.23478 -1.51664,1.42202 -0.32759,0.36897 -1.78713,1.85041 -2.32087,2.35606 -0.18149,0.17185 -0.3841,0.31201 -0.45072,0.31201 -0.0666,0 -0.12085,0.0744 -0.12085,0.16542 0,0.091 -0.23801,0.38045 -0.52932,0.64295 -0.2913,0.26237 -0.52931,0.52018 -0.52931,0.57256 0,0.0519 -0.046,0.0969 -0.0993,0.0997 -0.0547,0.002 -0.36712,0.31615 -0.69471,0.69724 -0.32761,0.38091 -0.77558,0.85137 -0.996,1.04555 -0.22055,0.19436 -0.78601,0.80697 -1.25709,1.36184 -0.47097,0.55478 -1.0498,1.18576 -1.28625,1.40213 -0.23663,0.21641 -0.43005,0.41996 -0.43005,0.45213 0,0.0322 -0.17874,0.23341 -0.397,0.44661 -0.57929,0.56627 -0.52194,0.68964 0.397,0.85253 0.72191,0.12819 0.79354,0.16679 0.78968,0.4301 -0.005,0.2789 -0.26558,0.68683 -0.44018,0.68683 -0.0469,0 -0.085,-0.12085 -0.085,-0.26834 0,-0.2132 -0.12177,-0.30831 -0.59326,-0.46279 -0.32624,-0.1066 -0.69191,-0.17782 -0.81262,-0.15714 -0.26006,0.046 -1.41488,1.41217 -1.80112,2.13427 l -0.27155,0.50754 0.3832,0.2302 c 0.72072,0.43375 1.64159,1.36101 1.77907,1.79159 0.0744,0.23434 0.20769,0.42502 0.29588,0.4241 0.0882,-10e-4 0.47405,-0.37126 0.85737,-0.82311 z m 5.72021,0.3074 c 0,-0.0974 -0.0597,-0.14566 -0.13233,-0.10706 -0.0731,0.0367 -0.13233,0.11854 -0.13233,0.1769 0,0.0588 0.0593,0.10706 0.13233,0.10706 0.0731,0 0.13233,-0.0799 0.13233,-0.1769 z m -0.44525,-1.26456 c -0.0542,-0.0468 -0.15392,-0.009 -0.22147,0.0822 -0.20355,0.27615 -0.1429,0.39932 0.0965,0.19436 0.12314,-0.10568 0.17966,-0.23019 0.12544,-0.2766 z m -10.96695,-1.77404 c 0,-0.1452 0.17092,-0.48995 0.3795,-0.76651 0.20907,-0.27661 0.47387,-0.6708 0.58929,-0.87632 0.27153,-0.48427 1.38915,-1.53286 4.32313,-4.05739 1.30826,-1.12568 2.4248,-2.17314 2.48099,-2.32757 0.0561,-0.15439 0.25823,-0.44432 0.44846,-0.64419 0.93038,-0.9767 1.47057,-1.60297 1.47057,-1.70507 0,-0.0616 0.14887,-0.25042 0.3308,-0.41905 0.18196,-0.16863 0.33083,-0.35932 0.33083,-0.4241 0,-0.12682 0.3221,-0.51313 1.05863,-1.26852 0.25455,-0.26144 0.5803,-0.67259 0.72352,-0.91409 0.14336,-0.24125 0.33726,-0.46392 0.43007,-0.49461 0.0933,-0.0322 0.16909,-0.17965 0.16909,-0.33083 0,-0.15163 0.0896,-0.30463 0.19942,-0.34093 0.16863,-0.0556 0.58931,-0.48034 2.44614,-2.46877 0.21182,-0.22745 0.46684,-0.46304 1.88654,-1.74716 0.4911,-0.44434 0.89349,-0.84915 0.89409,-0.89951 4e-4,-0.0505 0.27431,-0.32163 0.60796,-0.60256 0.33358,-0.28074 0.66312,-0.60031 0.73149,-0.70958 0.15209,-0.24309 0.62447,-0.26146 0.72872,-0.0276 0.0413,0.0937 0.17736,0.17001 0.30002,0.17001 0.12314,0 0.28901,0.0561 0.3685,0.12406 0.18793,0.16082 0.70225,-0.0611 0.70225,-0.30279 0,-0.0937 -0.47598,-0.59035 -1.05775,-1.10311 l -1.05773,-0.93224 -4e-4,0.53268 c -3.9e-4,0.29315 -0.0579,0.56282 -0.12728,0.59983 -0.14474,0.0767 -0.45487,-0.40207 -0.58692,-0.90544 -0.14198,-0.54237 -0.50109,-1.05142 -0.83265,-1.18114 -0.25547,-0.0997 -0.30599,-0.0868 -0.30645,0.0767 -3.2e-4,0.10798 -0.34278,0.43562 -0.76088,0.72799 -0.41813,0.29223 -0.94159,0.67585 -1.16315,0.85224 -0.22194,0.17598 -1.02541,0.75252 -1.78629,1.28023 -1.47429,1.02265 -1.75113,1.25203 -3.30189,2.73661 l -2.2422,2.14592 c -0.68736,0.6577 -2.66492,2.41979 -4.39455,3.91552 -1.72953,1.49584 -3.12029,2.74074 -3.09029,2.76638 0.0836,0.0717 0.99439,-0.43789 0.99439,-0.5563 0,-0.0574 0.0721,-0.1043 0.1599,-0.1043 0.0878,0 0.38458,-0.18839 0.6591,-0.41815 0.27477,-0.2302 0.53312,-0.38964 0.57449,-0.3538 0.0855,0.0731 -1.45929,1.37851 -2.65041,2.23999 -0.44064,0.31891 -0.98657,0.60576 -1.22697,0.64514 -0.7601,0.12406 -1.58641,1.07266 -2.51183,2.88295 -0.25774,0.50465 -0.28807,0.55119 -0.72678,1.1162 -0.19988,0.25776 -0.36389,0.54227 -0.36389,0.63188 0,0.0896 0.29083,0.34598 0.64606,0.56989 0.91379,0.57557 1.49561,1.16329 2.05312,2.07371 0.33496,0.54708 0.59416,0.82718 0.84382,0.91196 0.55211,0.18746 0.65795,0.16862 0.65795,-0.11763 z m 1.42237,-1.16731 c 0.14566,-0.17231 0.55478,-0.61298 0.90938,-0.97909 0.35472,-0.36575 0.60636,-0.69846 0.55945,-0.73871 -0.18518,-0.15852 -2.59348,2.34357 -2.59348,2.69456 0,0.13831 0.68591,-0.45718 1.12479,-0.97676 z m 8.67582,0.12543 c 0.80809,-0.73243 2.41821,-2.42369 2.62123,-2.7533 0.39378,-0.63891 -0.34734,-0.0616 -1.71277,1.33399 -2.14778,2.19584 -2.6768,3.02242 -0.90846,1.41941 z m -14.38412,-3.17722 c 0.51018,-0.86929 0.20493,-0.83056 -0.51929,0.0662 -0.30647,0.37907 -0.33863,0.47769 -0.18241,0.56033 0.23479,0.12498 0.28947,0.0758 0.70161,-0.62631 z m 16.09496,-7.85803 c 0,-0.11303 0.95905,-1.22374 1.13416,-1.31293 0.18379,-0.0937 0.71823,-0.79359 0.71823,-0.94085 0,-0.1985 -0.71483,0.50166 -1.39425,1.36555 -0.39377,0.50052 -0.83512,1.03784 -0.98097,1.19392 -0.41489,0.44434 -0.31612,0.54731 0.1259,0.13187 0.21825,-0.20493 0.39697,-0.40204 0.39697,-0.43742 z m -6.87117,-1.64465 c 0.14336,-0.10476 0.20999,-0.21733 0.14796,-0.25088 -0.17047,-0.0905 -1.04186,0.66051 -0.97275,0.83865 0.0413,0.11074 0.13187,0.0763 0.31199,-0.1213 0.13876,-0.15209 0.3694,-0.36207 0.51312,-0.46656 z m 9.77135,-1.67993 c 0.83747,-0.94221 1.00421,-1.21235 0.52089,-0.8438 -0.33494,0.25548 -1.43648,1.52714 -1.43648,1.65832 0,0.18517 0.12912,0.0703 0.91559,-0.81452 z m -8.90561,-0.0634 c 0.31839,-0.41721 0.13325,-0.4706 -0.20769,-0.0597 -0.15806,0.19114 -0.22561,0.34736 -0.14979,0.34736 0.0763,0 0.23707,-0.12911 0.35745,-0.28717 z m 21.4683,-0.45627 c 0.0414,-0.18517 0.0184,-0.19344 -0.16541,-0.0616 -0.25269,0.18012 -0.28439,0.39056 -0.0482,0.32302 0.091,-0.0276 0.18747,-0.14336 0.21366,-0.26099 z m 9.49669,-0.51186 c 0.42637,-0.37864 0.7754,-0.74457 0.7754,-0.81381 0,-0.23618 -0.29315,-0.20998 -0.56958,0.0501 a 1259.0971,1080.4507 0 0 1 -0.74635,0.70124 c -0.44936,0.42226 -0.60397,0.75047 -0.35287,0.75047 0.0648,0 0.46663,-0.30969 0.89303,-0.68789 z m -3.17512,-0.16495 c 0.0413,-0.0947 -0.005,-0.2555 -0.10292,-0.35796 -0.30923,-0.3198 -1.54783,-1.05984 -1.77351,-1.05984 -0.29039,0 -0.17506,0.25409 0.18655,0.40986 0.43005,0.18563 0.95556,0.63233 1.08688,0.92401 0.13095,0.29088 0.48868,0.3405 0.60355,0.0836 z m -17.48427,-0.28261 c 0.046,-0.0625 0.023,-0.11349 -0.0505,-0.11349 -0.073,0 -0.16909,0.051 -0.21412,0.11349 -0.046,0.0625 -0.023,0.1135 0.0505,0.1135 0.0731,0 0.16909,-0.051 0.21412,-0.1135 z m -8.19146,-0.42502 c -0.0919,-0.079 -0.34275,0.0813 -0.34275,0.21872 0,0.0753 0.0758,0.0666 0.20171,-0.023 0.11074,-0.079 0.1746,-0.16725 0.14106,-0.19574 z m 0.46504,-0.34139 c 0.11303,-0.10936 0.69972,-0.58189 1.30415,-1.05022 2.28765,-1.77282 3.84217,-3.24382 3.84217,-3.63583 0,-0.11533 0.10384,-0.24029 0.23158,-0.27799 0.26511,-0.0786 0.85971,-0.82729 0.79308,-0.99873 -0.0464,-0.11946 -0.42959,0.21045 -2.20985,1.90348 a 497.22345,426.67511 0 0 1 -1.86123,1.75992 c -0.43283,0.40573 -0.97146,0.95513 -1.19715,1.22057 -0.22561,0.26515 -0.45762,0.48248 -0.51547,0.48248 -0.0579,0 -0.26418,0.17874 -0.45855,0.39745 -0.35931,0.40435 -0.30279,0.56117 0.0712,0.19896 z m 26.65287,-0.26053 0.38596,-0.34553 -0.46049,-0.30604 c -0.25317,-0.16863 -1.1564,-0.89429 -2.0071,-1.61292 -0.85087,-0.71865 -1.70259,-1.43429 -1.893,-1.59047 -0.19022,-0.15576 -0.92335,-0.8151 -1.62882,-1.46444 -1.47144,-1.35457 -2.61714,-2.04053 -6.55501,-3.92526 -0.73074,-0.34967 -0.68135,-0.17276 0.11257,0.40159 0.29129,0.2109 1.18413,0.90047 1.98471,1.53295 0.80044,0.63234 1.52723,1.17036 1.61499,1.19559 0.16219,0.0469 0.59815,0.33312 1.47078,0.96707 0.26739,0.19436 0.67399,0.43559 0.90274,0.53608 0.51462,0.22561 4.94256,4.01902 4.94256,4.23396 0,0.0859 0.0611,0.15623 0.13554,0.15623 0.0744,0 0.19207,0.12773 0.26144,0.28396 0.1622,0.3662 0.26512,0.35747 0.73336,-0.0616 z m -7.75803,-0.26604 c 0.12406,-0.12819 -0.12774,-0.31706 -1.34001,-1.00656 -2.28117,-1.29714 -2.59702,-1.45373 -2.68524,-1.33124 -0.17046,0.23712 3.18851,2.48695 3.72342,2.49361 0.0818,0.001 0.21779,-0.0689 0.30185,-0.15576 z m 11.74828,-0.36715 c 0.27661,-0.28855 0.78983,-0.78668 1.14097,-1.10689 0.69545,-0.63459 1.3381,-1.42194 1.23357,-1.51163 -0.18747,-0.16082 -0.69077,0.1939 -1.7538,1.23622 -1.46883,1.43985 -1.52511,1.50799 -1.42692,1.72762 0.12498,0.27983 0.26512,0.21964 0.80618,-0.34509 z m -8.03151,-0.24766 c 0,-0.0501 -0.72927,-0.7025 -1.62087,-1.44966 -0.89141,-0.74705 -1.86435,-1.58731 -2.16188,-1.86727 -0.29775,-0.27983 -0.92234,-0.8156 -1.38798,-1.19017 -0.46566,-0.37494 -1.1561,-0.98977 -1.53426,-1.3668 -0.37812,-0.37723 -1.32445,-1.14342 -2.10284,-1.70327 l -2.40247,-1.72697 c -0.54283,-0.39058 -1.06552,-0.70973 -1.16155,-0.70973 -0.2279,0 -0.88324,0.66999 -0.78633,0.80448 0.0413,0.0574 0.28672,0.10384 0.54579,0.10384 0.33359,0 0.61079,0.102 0.95129,0.34967 0.81147,0.59047 2.91241,2.27156 3.99026,3.19271 0.56268,0.48084 1.17919,0.90789 1.36987,0.94906 0.20815,0.046 0.34689,0.15392 0.34689,0.27247 0,0.1089 0.16357,0.34966 0.36391,0.53493 1.23578,1.14445 1.69057,1.53809 2.58672,2.23873 1.35469,1.05943 3.00349,1.91992 3.00349,1.56775 z m 0.85792,-0.73186 c -0.27293,-0.26558 -0.71162,-0.66138 -0.97481,-0.88005 -0.26328,-0.21871 -0.69986,-0.61283 -0.9704,-0.87611 -0.27064,-0.26329 -0.72693,-0.60625 -1.0142,-0.76182 -0.28761,-0.15577 -0.56077,-0.33635 -0.60755,-0.40113 -0.0469,-0.0652 -0.14703,-0.11809 -0.22284,-0.11809 -0.16312,0 4.00408,3.51458 4.17097,3.51761 0.0629,10e-4 -0.1089,-0.21504 -0.38135,-0.48034 z m 4.56689,0.25639 c 0,-0.22147 -1.20564,-1.48033 -2.11691,-2.21009 -2.21987,-1.77757 -3.86837,-2.99977 -4.68143,-3.47064 -0.3368,-0.19482 -0.67355,-0.45305 -0.74873,-0.5733 -0.0749,-0.11993 -0.20262,-0.21871 -0.28393,-0.21871 -0.0809,0 -0.33588,-0.16588 -0.56649,-0.36897 -0.33357,-0.2936 -1.69644,-1.15709 -2.06517,-1.30849 -0.0413,-0.0137 0.52443,0.49367 1.25813,1.1354 1.54997,1.35529 4.08622,3.36376 4.64173,3.6759 0.21136,0.11855 0.62442,0.44203 0.91867,0.7184 0.29404,0.27661 0.70528,0.63413 0.91379,0.79472 0.20861,0.16037 0.83364,0.66177 1.38943,1.11358 0.9454,0.7689 1.34091,0.97893 1.34091,0.71225 z m 1.18948,-0.96478 0.44751,-0.39609 -0.31196,-0.28488 c -0.17185,-0.15714 -0.4457,-0.28534 -0.60933,-0.28534 -0.16311,0 -0.72926,-0.25547 -1.25737,-0.56773 -0.52829,-0.31199 -1.06891,-0.56778 -1.20152,-0.56778 -0.13279,0 -0.2412,-0.0767 -0.2412,-0.17047 0,-0.1815 -2.47778,-1.79564 -4.13554,-2.6942 -1.12773,-0.61125 -1.42148,-0.72786 -1.42148,-0.56396 0,0.12451 1.2483,0.93114 1.44091,0.93114 0.0648,0 0.34735,0.1746 0.62823,0.3878 1.26091,0.95739 2.54744,1.88279 2.61746,1.88279 0.0413,0 0.18517,0.0896 0.31794,0.19896 0.13233,0.10936 0.72793,0.59011 1.32329,1.06852 0.595,0.47828 1.08199,0.91917 1.08199,0.9796 0,0.12544 0.52546,0.46329 0.73482,0.47225 0.0763,0.005 0.34093,-0.1723 0.58667,-0.3901 z m -16.22665,-1.70745 c -0.0414,-0.0956 -0.20447,-0.2302 -0.35977,-0.29913 -0.25961,-0.11578 -0.25639,-0.102 0.0368,0.17323 0.36896,0.34415 0.42913,0.36804 0.32117,0.1259 z m 6.50314,-0.8485 c -0.0459,-0.0625 -0.10798,-0.1135 -0.14014,-0.1135 -0.0322,0 -0.0584,0.051 -0.0584,0.1135 0,0.0625 0.0634,0.11349 0.14015,0.11349 0.0772,0 0.10292,-0.051 0.0583,-0.11349 z m -12.28923,-0.45443 c 0.31609,-0.25042 0.84381,-0.56686 1.17255,-0.70402 0.32899,-0.13692 0.59769,-0.28396 0.59769,-0.32669 0,-0.15714 -0.68578,-0.45767 -0.96599,-0.42321 -0.16817,0.0229 -0.36483,0.17736 -0.4717,0.37586 -0.10063,0.18747 -0.34781,0.49396 -0.54902,0.68129 -0.36023,0.33543 -0.6341,0.85166 -0.45167,0.85166 0.0515,0 0.35197,-0.20493 0.66827,-0.45489 z m 24.91983,0.28993 c 0.0878,-0.0905 0.13968,-0.23709 0.11533,-0.32531 -0.023,-0.0882 -0.60975,-0.56787 -1.30106,-1.06572 -0.69136,-0.49792 -1.70349,-1.25312 -2.24928,-1.67847 -0.54577,-0.4255 -1.23066,-0.9585 -1.52158,-1.1847 -0.29131,-0.22607 -0.70783,-0.52928 -0.92629,-0.67351 -0.21825,-0.14428 -0.6946,-0.50467 -1.05835,-0.80095 -0.36391,-0.29636 -0.95188,-0.72846 -1.30663,-0.96013 -0.62549,-0.40848 -3.61432,-2.77357 -4.8379,-3.82836 -0.99331,-0.85645 -1.99285,-1.44863 -1.99285,-1.18093 0,0.0322 0.25318,0.27523 0.56239,0.53941 0.30923,0.2642 0.85264,0.76154 1.2074,1.1051 1.49295,1.44527 6.32982,5.56342 6.53448,5.56342 0.0657,0 0.42362,0.26834 0.79543,0.59614 0.88025,0.77572 1.30327,1.107 1.41341,1.107 0.0487,0 0.24215,0.15622 0.42916,0.34691 0.3161,0.32256 1.36103,1.00257 2.3363,1.52072 0.22882,0.12177 0.47076,0.29867 0.53785,0.39378 0.21963,0.31107 0.72246,0.69088 0.91453,0.69088 0.10338,0 0.26004,-0.0744 0.3478,-0.16496 z m -2.11547,-0.12268 c -0.0928,-0.0956 -0.5614,-0.43651 -1.04158,-0.75773 -0.48032,-0.32118 -1.10535,-0.76639 -1.38897,-0.9897 l -0.51563,-0.40618 0.50975,0.62857 c 0.54594,0.67312 1.94901,1.6803 2.35703,1.69188 0.20768,0.009 0.22055,-0.0184 0.0795,-0.1668 z m -24.96278,-1.86111 c 0.46669,-0.68192 -0.0276,-0.3345 -0.95248,0.67262 -0.51722,0.56208 -0.94052,1.05855 -0.94052,1.10321 0,0.13463 1.63557,-1.39947 1.893,-1.77569 z m 6.11205,0.89973 c -0.23572,-0.2233 -0.33083,-0.27479 -0.33083,-0.17827 0,0.0731 0.40435,0.40572 0.49303,0.40572 0.0413,0 -0.0322,-0.102 -0.1622,-0.22698 z m 14.16828,-0.10292 c -0.12544,-0.11946 -1.04024,-0.82176 -2.03229,-1.56125 -0.99199,-0.73935 -2.55685,-1.98301 -3.47767,-2.7636 -2.15693,-1.82857 -3.8775,-3.25163 -4.60456,-3.80839 l -0.57709,-0.44204 -0.39607,0.38045 -0.39605,0.38093 0.94497,0.77942 c 0.5199,0.4287 1.02434,0.7794 1.12125,0.7794 0.0965,0 1.15741,0.70259 2.35689,1.56118 1.19963,0.8587 2.91341,2.07205 3.80853,2.69665 0.89509,0.62453 1.96093,1.37495 2.36849,1.66778 0.75605,0.54332 1.33842,0.76033 0.88397,0.32947 z m -15.92943,-1.28772 -0.96512,-0.82311 -0.25544,0.26558 c -0.25364,0.26374 -0.25318,0.26741 0.0413,0.48195 0.45854,0.33542 1.23871,0.75892 1.50765,0.81847 0.62281,0.13785 0.573,0.023 -0.32715,-0.74303 z m 23.50027,0.57344 c 0.33313,-0.28626 0.29774,-0.31659 -1.26357,-1.08314 -0.30923,-0.15209 -0.56239,-0.23112 -0.56239,-0.17552 0,0.16311 1.32961,1.39475 1.50572,1.39475 0.0887,0 0.23294,-0.0616 0.32024,-0.13646 z m -7.73198,-1.46178 c -0.79046,-0.68045 -1.47604,-1.23784 -1.52323,-1.23885 -0.0473,-0.001 -0.2936,-0.16771 -0.54696,-0.3708 -0.25361,-0.20309 -0.81014,-0.65006 -1.23711,-0.99347 -0.42686,-0.34324 -0.94058,-0.73242 -1.14156,-0.86452 -0.20079,-0.13187 -0.53932,-0.43883 -0.75219,-0.68134 -0.2132,-0.24261 -0.80899,-0.82426 -1.32474,-1.29257 -0.51595,-0.46837 -1.1598,-1.14312 -1.43108,-1.49954 -0.51487,-0.67663 -0.69145,-0.79357 -0.69145,-0.45856 0,0.73691 0.95465,1.9349 2.9284,3.6748 1.46354,1.2899 5.62022,4.41424 5.87312,4.41424 0.0482,0 0.33402,0.18149 0.63576,0.4025 0.31242,0.22929 0.56973,0.34737 0.59841,0.27385 0.0275,-0.0708 -0.5968,-0.68587 -1.38737,-1.36615 z m -11.7501,1.24678 c 0.0919,-0.12727 -0.87143,-1.05083 -1.31016,-1.25675 -0.42502,-0.19942 -0.1259,0.35613 0.48418,0.89831 0.57401,0.51049 0.68249,0.55768 0.82598,0.3584 z m 20.37166,-0.79233 c 0.10384,-0.27982 -0.25639,-0.67311 -0.61582,-0.67311 -0.36207,0 -2.73918,-1.36476 -4.51276,-2.59086 -0.57095,-0.3947 -1.10994,-0.69621 -1.19784,-0.66997 -0.19758,0.0583 1.87565,1.85508 2.66253,2.30712 2.02152,1.16142 3.2848,1.84599 3.42037,1.85344 0.0859,0.005 0.19574,-0.0969 0.24352,-0.22653 z m -3.59138,-0.40434 c -0.66726,-0.73644 -2.49023,-2.23823 -3.35877,-2.76691 -0.46168,-0.28074 -1.17666,-0.76632 -1.58893,-1.07859 -0.41261,-0.31201 -1.34447,-0.98855 -2.07139,-1.5028 -0.72674,-0.51439 -1.67408,-1.25689 -2.105,-1.6503 -0.90676,-0.82741 -2.25282,-2.18003 -2.41129,-2.42305 -0.15852,-0.24261 -0.55538,-0.0698 -0.55538,0.24168 0,0.15623 0.17277,0.38505 0.43008,0.56898 0.4652,0.33267 2.43775,1.9054 4.13481,3.29697 0.58223,0.4774 1.47526,1.14305 1.9847,1.47955 1.07806,0.71188 2.17418,1.52539 3.83576,2.84665 0.65414,0.52018 1.24092,0.94578 1.30415,0.94578 0.0629,0 0.23387,0.13049 0.38045,0.28993 0.14611,0.15944 0.29634,0.26328 0.33402,0.23112 0.0367,-0.0322 -0.10292,-0.24812 -0.31289,-0.47922 z m -10.04758,0.13784 c -0.27707,-0.17368 -0.40251,-0.15484 -0.26237,0.0413 0.0478,0.0666 0.18426,0.12131 0.30326,0.12131 0.18058,0 0.17415,-0.0276 -0.0413,-0.16128 z m -4.49104,-1.62415 c -1.53739,-1.27623 -3.29098,-2.52942 -3.53946,-2.52942 -0.23112,0 -0.76162,0.47358 -0.75339,0.67272 0.005,0.0983 0.17552,0.29269 0.38089,0.43146 0.49656,0.33588 3.67475,1.93458 4.46531,2.2462 0.23155,0.0914 0.45854,0.21779 0.50403,0.2812 0.046,0.0634 0.15392,0.11349 0.24077,0.11027 0.0868,-0.002 -0.49726,-0.54834 -1.29783,-1.21271 z m 3.04321,-0.10522 c -0.82585,-0.64665 -3.86837,-2.65107 -4.02375,-2.65107 -0.16633,0 1.37132,1.21801 2.58183,2.04504 0.43697,0.29868 1.93166,1.13429 2.01933,1.12896 0.0464,-0.002 -0.2132,-0.23801 -0.57741,-0.52293 z m 17.1052,-0.81657 c 0.31151,-0.41583 0.88453,-1.07836 1.27401,-1.47241 0.45856,-0.46391 0.73896,-0.86426 0.79571,-1.13549 0.18333,-0.87566 0.23433,-4.61449 0.0758,-5.5281 -0.0868,-0.4996398 -0.18747,-1.1277998 -0.22468,-1.3960598 -0.0482,-0.35334 -0.15577,-0.53774 -0.39008,-0.66933 -0.17782,-0.0997 -0.30509,-0.26145 -0.28304,-0.35932 0.0413,-0.1893 -0.3901,-0.62076 -1.33957,-1.33628 -0.57946,-0.43651 -0.58327,-0.43743 -0.49376,-0.12774 0.0497,0.17185 0.0556,0.31245 0.0138,0.31245 -0.26834,0 -0.60429,-0.29591 -0.86789,-0.76458 -0.35057,-0.62301 -0.2674,-0.52294 -1.31757,-1.59135 -0.44478,-0.45305 -0.74397,-0.82325 -0.66485,-0.82325 0.29865,0 0.12269,-0.27339 -0.52169,-0.80889 -0.71576,-0.59512 -1.03845,-0.68684 -1.14829,-0.3267 -0.0368,0.12498 -0.13647,0.22653 -0.21917,0.22607 -0.0823,-4.1e-4 -0.30742,0.16357 -0.49992,0.36437 -0.28902,0.3019 -0.38459,0.34096 -0.54637,0.2256 -0.16082,-0.11487 -0.29177,-0.0735 -0.72646,0.23161 -0.29175,0.20446 -0.86648,0.593 -1.27769,0.86373 -0.41124,0.27109 -1.05261,0.80738 -1.42534,1.19233 -0.37307,0.38505 -1.04049,0.94851 -1.4838,1.25259 -1.24975,0.85719 -2.32767,1.75451 -2.32767,1.93757 0,0.0914 0.1452,0.3005 0.32256,0.46467 0.17736,0.1645 0.57166,0.62143 0.87616,1.0159398 0.30416,0.3947 0.68015,0.76674 0.83511,0.82716 0.15485,0.0602 0.49004,0.19023 0.74487,0.28858 0.38042,0.14657 0.40983,0.18011 0.16541,0.18563 -0.48328,0.009 -0.35794,0.39194 0.27658,0.83773 0.31567,0.22193 1.16435,0.74718 1.88553,1.16683 0.72118,0.4195 1.4006,0.82587 1.50968,0.9027 0.6903,0.48601 3.17557,2.76401 3.17557,2.91072 0,0.44754 1.05026,1.27745 2.43601,1.92484 0.51435,0.24031 0.66312,0.15438 1.37167,-0.79171 z m -1.60731,-1.12936 c -0.11119,-0.15485 0.12222,-0.76938 0.43648,-1.14813 0.15071,-0.18149 0.27386,-0.36529 0.27386,-0.40848 0,-0.0413 0.119,-0.20815 0.26466,-0.36667 0.30599,-0.33358 0.34872,-0.61926 0.0795,-0.53054 -0.30739,0.10109 -0.36988,-0.15576 -0.11808,-0.48388 0.36848,-0.47965 0.53812,-1.51819 0.42913,-2.62894 -0.0841,-0.85848 -0.17506,-1.11813 -0.70161,-2.0078698 -0.51214,-0.86528 -0.58988,-1.08137 -0.5074,-1.41068 0.10706,-0.42778 0.31887,-0.55538 0.54223,-0.32669 0.58182,0.59554 1.12054,1.48185 1.41622,2.3300998 0.19114,0.5483 0.46501,1.32908 0.60869,1.73494 0.18426,0.52082 0.26696,1.11155 0.28167,2.00644 0.0184,1.12281 -0.009,1.30486 -0.2541,1.58468 -0.15071,0.17369 -0.459,0.35702 -0.6841,0.4071 -0.27247,0.0607 -0.5724,0.28121 -0.89454,0.65784 -0.2665,0.31156 -0.53445,0.56679 -0.59505,0.56679 -0.0607,0 -0.1985,0.0276 -0.30602,0.0643 -0.10752,0.0368 -0.23018,0.0184 -0.27153,-0.0413 z m 2.66311,-3.75351 c 0.068,-0.81886 -0.023,-1.37975 -0.21871,-1.37975 -0.062,0 -0.11855,0.54476 -0.12498,1.21057 -0.009,0.87371 0.0275,1.176 0.13279,1.08668 0.0795,-0.0685 0.17414,-0.48094 0.21045,-0.9175 z m -0.48326,-5.9309198 c -0.17414,-0.0602 -0.28671,-0.13509 -0.24996,-0.16633 0.0777,-0.0666 0.76529,0.1406 0.76529,0.22974 0,0.0823 -0.1429,0.0643 -0.51533,-0.0634 z m -1.00629,-0.67164 c -0.046,-0.0625 0.004,-0.1135 0.11671,-0.1135 0.1089,0 0.23526,0.051 0.28029,0.1135 0.046,0.062 -0.005,0.11349 -0.11671,0.11349 -0.10936,0 -0.23525,-0.0515 -0.28029,-0.11349 z m -3.90322,10.3321298 c -0.0781,-0.12498 -0.23526,-0.22698 -0.34967,-0.22698 -0.12498,0 -0.17966,-0.0643 -0.136,-0.16082 0.0887,-0.1985 -1.6923,-1.72311 -2.74298,-2.34862 -0.74323,-0.44248 -1.00541,-0.53157 -1.00541,-0.34185 0,0.2086 2.78242,2.44046 3.38022,2.71154 0.17507,0.079 0.38089,0.24536 0.45808,0.36896 0.0772,0.1236 0.22975,0.22469 0.33864,0.22469 0.1576,0 0.16955,-0.0469 0.057,-0.22699 z m -6.08644,-1.06515 c 0,-0.0864 -0.22285,-0.3005 -0.4961,-0.4763 -0.27293,-0.17598 -0.5418,-0.3832 -0.59735,-0.46063 -0.2155,-0.30004 -2.52023,-2.14915 -2.89209,-2.31999 -0.91247,-0.41907 0.79129,1.20642 2.59623,2.47695 0.4365,0.30739 0.87574,0.64383 0.97554,0.74781 0.22102,0.22974 0.41354,0.2449 0.41354,0.0322 z m 14.12167,-2.59844 c 0.35886,-0.72368 0.53059,-1.55931 0.3198,-1.55931 -0.0804,0 -0.18058,0.1406 -0.22285,0.31244 -0.12452,0.51102 -0.29406,1.08316 -0.43742,1.47606 -0.21136,0.5796 0.0137,0.42778 0.34047,-0.22882 z m -17.16475,-0.98919 c 0,-0.25869 -2.1368,-1.70553 -2.51862,-1.70553 -0.25086,0 -0.10293,0.17644 0.47754,0.56781 a 79.381865,68.11881 0 0 1 1.19079,0.82307 c 0.60622,0.42915 0.85029,0.5193 0.85029,0.31474 z m 20.41025,-0.40159 c 1.10273,-0.56861 1.37831,-0.91961 1.21922,-1.55197 -0.13004,-0.51719 -0.50447,-1.1226498 -0.87644,-1.4176298 -0.17093,-0.13555 -0.48553,-0.40483 -0.69931,-0.59846 -0.21366,-0.1939 -0.45213,-0.33404 -0.52932,-0.31245 -0.0823,0.0229 -0.15668,0.48297 -0.17874,1.10563 -0.0275,0.7833798 -0.0947,1.1188898 -0.25083,1.2668798 -0.16771,0.15899 -0.1962,0.35153 -0.13509,0.91357 0.0832,0.76421 0.19344,1.10685 0.35559,1.10685 0.0556,0 0.5487,-0.23066 1.09539,-0.5126 z m -3.4752,-0.73177 c 0.20447,-0.92909 0.0413,-1.8284398 -0.4204,-2.3333798 -0.46904,-0.51159 -0.55475,-0.2132 -0.36483,1.2697998 0.0947,0.73857 0.18242,1.49609 0.19437,1.68347 0.0368,0.54122 0.0606,0.57931 0.24306,0.37356 0.0947,-0.10706 0.25088,-0.55386 0.34783,-0.99317 z M 52.004898,9.9954762 c -0.009,-0.20585 -0.63944,-0.73228 -0.78307,-0.65605 -0.18793,0.0997 0.19711,0.51411 0.47759,0.51411 0.0979,0 0.17781,0.051 0.17781,0.1135 0,0.0625 0.0322,0.1134898 0.0662,0.1134898 0.0368,0 0.0639,-0.0367 0.0611,-0.0855 z m 17.60245,-3.1373 c 0,-0.0864 -0.20446,-0.29039 -0.45442,-0.45397 -0.72353,-0.47354 -0.92407,-0.36988 -0.53459,0.27615 0.15484,0.25731 0.29361,0.33496 0.59546,0.33496 0.24675,0 0.39332,-0.0584 0.39332,-0.15714 z m -11.13869,-3.86401 c 0.5931,-0.55211 0.72908,-0.83626 0.30786,-0.64272 -0.13555,0.062 -0.3524,0.25547 -0.48225,0.42961 -0.13049,0.17461 -0.43651,0.46139 -0.68135,0.63801 -0.24444,0.17644 -0.51209,0.42916 -0.59443,0.56144 -0.20539,0.32854 0.69545,-0.28395 1.45031,-0.98648 z m 2.9703,-1.6103 c 0.12911,-0.11027 -0.0478,-0.38644999 -0.24766,-0.38644999 -0.10154,0 -0.18426,0.0183 -0.18426,0.0473 0,0.0276 -0.0368,0.12866 -0.0804,0.22699 -0.056,0.1259 -0.002,0.17965 0.17644,0.17965 0.14107,0 0.29223,-0.0322 0.33589,-0.068 z M 1.7304579,65.543836 c 0,-0.24077 0.53477,-1.19088 0.67018,-1.19088 0.0616,0 0.15025,-0.17507 0.19712,-0.38965 0.0469,-0.21458 0.19849,-0.47793 0.3368,-0.58544 0.1383,-0.10707 0.25133,-0.31659 0.25133,-0.46505 0,-0.14841 0.0896,-0.29912 0.1985,-0.33542 0.10936,-0.0367 0.1985,-0.17322 0.1985,-0.30464 0,-0.27798 0.37675,-1.1966 0.58517,-1.4262 0.0781,-0.0864 0.29131,-0.40021 0.47343,-0.69745 0.71017,-1.16026 0.94747,-1.49247 1.02085,-1.42947 0.0414,0.0367 -0.11074,0.3924 -0.33999,0.79141 -0.22928,0.39931 -0.4163,0.7623 -0.4163,0.80701 0,0.0459 -0.18379,0.4218 -0.40939,0.83773 -0.77673,1.43618 -1.74169,3.58887 -1.76181,3.93018 -0.0138,0.23985 -0.11763,0.38507 -0.34691,0.4845 -0.43787,0.19022 -0.65755,0.18103 -0.65755,-0.0276 z m 4.10173,-7.37884 c 0,-0.0937 0.0579,-0.17047 0.12819,-0.17047 0.0703,0 0.0937,0.0767 0.0524,0.17047 -0.0413,0.0937 -0.0997,0.17001 -0.12819,0.17001 -0.0276,0 -0.0524,-0.0763 -0.0524,-0.17001 z"
     style="fill:#333333;stroke-width:0.1362"
     id="path1-6" />
  <text
     xml:space="preserve"
     id="text1"
     style="white-space:pre;shape-inside:url(#rect1);shape-padding:0;fill:#4d4d4d;fill-rule:evenodd;stroke-width:15.1181"
     transform="matrix(0.93749465,0,0,0.5150936,-154.99338,-222.4631)"><tspan
       x="256.06055"
       y="546.10274"
       id="tspan3"><tspan
         style="font-size:133.333px;font-family:Brushed;-inkscape-font-specification:'Brushed, Normal'"
         id="tspan2">Pwp</tspan></tspan></text>
</svg>
